<?xml version="1.0" encoding="utf-8" standalone="no"?>
<!DOCTYPE svg PUBLIC "-//W3C//DTD SVG 1.1//EN"
  "http://www.w3.org/Graphics/SVG/1.1/DTD/svg11.dtd">
<svg xmlns:xlink="http://www.w3.org/1999/xlink" width="720pt" height="432pt" viewBox="0 0 720 432" xmlns="http://www.w3.org/2000/svg" version="1.1">
 <metadata>
  <rdf:RDF xmlns:dc="http://purl.org/dc/elements/1.1/" xmlns:cc="http://creativecommons.org/ns#" xmlns:rdf="http://www.w3.org/1999/02/22-rdf-syntax-ns#">
   <cc:Work>
    <dc:type rdf:resource="http://purl.org/dc/dcmitype/StillImage"/>
    <dc:date>2025-08-10T17:30:54.890197</dc:date>
    <dc:format>image/svg+xml</dc:format>
    <dc:creator>
     <cc:Agent>
      <dc:title>Matplotlib v3.10.5, https://matplotlib.org/</dc:title>
     </cc:Agent>
    </dc:creator>
   </cc:Work>
  </rdf:RDF>
 </metadata>
 <defs>
  <style type="text/css">*{stroke-linejoin: round; stroke-linecap: butt}</style>
 </defs>
 <g id="figure_1">
  <g id="patch_1">
   <path d="M 0 432 
L 720 432 
L 720 0 
L 0 0 
z
" style="fill: #ffffff"/>
  </g>
  <g id="axes_1">
   <g id="patch_2">
    <path d="M 46.38125 391.78375 
L 709.2 391.78375 
L 709.2 27.20625 
L 46.38125 27.20625 
z
" style="fill: #ffffff"/>
   </g>
   <g id="PathCollection_1">
    <defs>
     <path id="ma9f9ff803f" d="M 0 3 
C 0.795609 3 1.55874 2.683901 2.12132 2.12132 
C 2.683901 1.55874 3 0.795609 3 0 
C 3 -0.795609 2.683901 -1.55874 2.12132 -2.12132 
C 1.55874 -2.683901 0.795609 -3 0 -3 
C -0.795609 -3 -1.55874 -2.683901 -2.12132 -2.12132 
C -2.683901 -1.55874 -3 -0.795609 -3 0 
C -3 0.795609 -2.683901 1.55874 -2.12132 2.12132 
C -1.55874 2.683901 -0.795609 3 0 3 
z
" style="stroke: #1f77b4; stroke-opacity: 0.7"/>
    </defs>
    <g clip-path="url(#p2e18a2d49c)">
     <use xlink:href="#ma9f9ff803f" x="76.509375" y="43.777955" style="fill: #1f77b4; fill-opacity: 0.7; stroke: #1f77b4; stroke-opacity: 0.7"/>
     <use xlink:href="#ma9f9ff803f" x="91.206021" y="43.777955" style="fill: #1f77b4; fill-opacity: 0.7; stroke: #1f77b4; stroke-opacity: 0.7"/>
     <use xlink:href="#ma9f9ff803f" x="105.902668" y="43.777955" style="fill: #1f77b4; fill-opacity: 0.7; stroke: #1f77b4; stroke-opacity: 0.7"/>
     <use xlink:href="#ma9f9ff803f" x="120.599314" y="43.777955" style="fill: #1f77b4; fill-opacity: 0.7; stroke: #1f77b4; stroke-opacity: 0.7"/>
     <use xlink:href="#ma9f9ff803f" x="135.29596" y="43.777955" style="fill: #1f77b4; fill-opacity: 0.7; stroke: #1f77b4; stroke-opacity: 0.7"/>
     <use xlink:href="#ma9f9ff803f" x="149.992607" y="43.777955" style="fill: #1f77b4; fill-opacity: 0.7; stroke: #1f77b4; stroke-opacity: 0.7"/>
     <use xlink:href="#ma9f9ff803f" x="164.689253" y="43.777955" style="fill: #1f77b4; fill-opacity: 0.7; stroke: #1f77b4; stroke-opacity: 0.7"/>
     <use xlink:href="#ma9f9ff803f" x="179.385899" y="43.777955" style="fill: #1f77b4; fill-opacity: 0.7; stroke: #1f77b4; stroke-opacity: 0.7"/>
     <use xlink:href="#ma9f9ff803f" x="194.082546" y="43.777955" style="fill: #1f77b4; fill-opacity: 0.7; stroke: #1f77b4; stroke-opacity: 0.7"/>
     <use xlink:href="#ma9f9ff803f" x="208.779192" y="43.777955" style="fill: #1f77b4; fill-opacity: 0.7; stroke: #1f77b4; stroke-opacity: 0.7"/>
     <use xlink:href="#ma9f9ff803f" x="223.475838" y="43.777955" style="fill: #1f77b4; fill-opacity: 0.7; stroke: #1f77b4; stroke-opacity: 0.7"/>
     <use xlink:href="#ma9f9ff803f" x="238.172485" y="43.777955" style="fill: #1f77b4; fill-opacity: 0.7; stroke: #1f77b4; stroke-opacity: 0.7"/>
     <use xlink:href="#ma9f9ff803f" x="252.869131" y="43.777955" style="fill: #1f77b4; fill-opacity: 0.7; stroke: #1f77b4; stroke-opacity: 0.7"/>
     <use xlink:href="#ma9f9ff803f" x="267.565777" y="43.777955" style="fill: #1f77b4; fill-opacity: 0.7; stroke: #1f77b4; stroke-opacity: 0.7"/>
     <use xlink:href="#ma9f9ff803f" x="282.262424" y="43.777955" style="fill: #1f77b4; fill-opacity: 0.7; stroke: #1f77b4; stroke-opacity: 0.7"/>
     <use xlink:href="#ma9f9ff803f" x="296.95907" y="43.777955" style="fill: #1f77b4; fill-opacity: 0.7; stroke: #1f77b4; stroke-opacity: 0.7"/>
     <use xlink:href="#ma9f9ff803f" x="311.655716" y="43.777955" style="fill: #1f77b4; fill-opacity: 0.7; stroke: #1f77b4; stroke-opacity: 0.7"/>
     <use xlink:href="#ma9f9ff803f" x="326.352363" y="43.777955" style="fill: #1f77b4; fill-opacity: 0.7; stroke: #1f77b4; stroke-opacity: 0.7"/>
     <use xlink:href="#ma9f9ff803f" x="341.049009" y="43.777955" style="fill: #1f77b4; fill-opacity: 0.7; stroke: #1f77b4; stroke-opacity: 0.7"/>
     <use xlink:href="#ma9f9ff803f" x="355.745655" y="43.777955" style="fill: #1f77b4; fill-opacity: 0.7; stroke: #1f77b4; stroke-opacity: 0.7"/>
     <use xlink:href="#ma9f9ff803f" x="370.442302" y="43.777955" style="fill: #1f77b4; fill-opacity: 0.7; stroke: #1f77b4; stroke-opacity: 0.7"/>
     <use xlink:href="#ma9f9ff803f" x="385.138948" y="43.777955" style="fill: #1f77b4; fill-opacity: 0.7; stroke: #1f77b4; stroke-opacity: 0.7"/>
     <use xlink:href="#ma9f9ff803f" x="399.835595" y="43.777955" style="fill: #1f77b4; fill-opacity: 0.7; stroke: #1f77b4; stroke-opacity: 0.7"/>
     <use xlink:href="#ma9f9ff803f" x="414.532241" y="43.777955" style="fill: #1f77b4; fill-opacity: 0.7; stroke: #1f77b4; stroke-opacity: 0.7"/>
     <use xlink:href="#ma9f9ff803f" x="429.228887" y="43.777955" style="fill: #1f77b4; fill-opacity: 0.7; stroke: #1f77b4; stroke-opacity: 0.7"/>
     <use xlink:href="#ma9f9ff803f" x="443.925534" y="43.777955" style="fill: #1f77b4; fill-opacity: 0.7; stroke: #1f77b4; stroke-opacity: 0.7"/>
     <use xlink:href="#ma9f9ff803f" x="458.62218" y="43.777955" style="fill: #1f77b4; fill-opacity: 0.7; stroke: #1f77b4; stroke-opacity: 0.7"/>
     <use xlink:href="#ma9f9ff803f" x="473.318826" y="43.777955" style="fill: #1f77b4; fill-opacity: 0.7; stroke: #1f77b4; stroke-opacity: 0.7"/>
     <use xlink:href="#ma9f9ff803f" x="488.015473" y="43.777955" style="fill: #1f77b4; fill-opacity: 0.7; stroke: #1f77b4; stroke-opacity: 0.7"/>
     <use xlink:href="#ma9f9ff803f" x="502.712119" y="43.777955" style="fill: #1f77b4; fill-opacity: 0.7; stroke: #1f77b4; stroke-opacity: 0.7"/>
     <use xlink:href="#ma9f9ff803f" x="517.408765" y="43.777955" style="fill: #1f77b4; fill-opacity: 0.7; stroke: #1f77b4; stroke-opacity: 0.7"/>
     <use xlink:href="#ma9f9ff803f" x="532.105412" y="43.777955" style="fill: #1f77b4; fill-opacity: 0.7; stroke: #1f77b4; stroke-opacity: 0.7"/>
     <use xlink:href="#ma9f9ff803f" x="546.802058" y="43.777955" style="fill: #1f77b4; fill-opacity: 0.7; stroke: #1f77b4; stroke-opacity: 0.7"/>
     <use xlink:href="#ma9f9ff803f" x="561.498704" y="43.777955" style="fill: #1f77b4; fill-opacity: 0.7; stroke: #1f77b4; stroke-opacity: 0.7"/>
     <use xlink:href="#ma9f9ff803f" x="576.195351" y="43.777955" style="fill: #1f77b4; fill-opacity: 0.7; stroke: #1f77b4; stroke-opacity: 0.7"/>
     <use xlink:href="#ma9f9ff803f" x="590.891997" y="43.777955" style="fill: #1f77b4; fill-opacity: 0.7; stroke: #1f77b4; stroke-opacity: 0.7"/>
     <use xlink:href="#ma9f9ff803f" x="605.588643" y="43.777955" style="fill: #1f77b4; fill-opacity: 0.7; stroke: #1f77b4; stroke-opacity: 0.7"/>
     <use xlink:href="#ma9f9ff803f" x="620.28529" y="43.777955" style="fill: #1f77b4; fill-opacity: 0.7; stroke: #1f77b4; stroke-opacity: 0.7"/>
     <use xlink:href="#ma9f9ff803f" x="634.981936" y="43.777955" style="fill: #1f77b4; fill-opacity: 0.7; stroke: #1f77b4; stroke-opacity: 0.7"/>
     <use xlink:href="#ma9f9ff803f" x="649.678582" y="43.777955" style="fill: #1f77b4; fill-opacity: 0.7; stroke: #1f77b4; stroke-opacity: 0.7"/>
     <use xlink:href="#ma9f9ff803f" x="664.375229" y="43.777955" style="fill: #1f77b4; fill-opacity: 0.7; stroke: #1f77b4; stroke-opacity: 0.7"/>
    </g>
   </g>
   <g id="PathCollection_2">
    <defs>
     <path id="mc45d8e814e" d="M -3 3 
L 3 -3 
M -3 -3 
L 3 3 
" style="stroke: #ff7f0e; stroke-opacity: 0.7; stroke-width: 1.5"/>
    </defs>
    <g clip-path="url(#p2e18a2d49c)">
     <use xlink:href="#mc45d8e814e" x="76.509375" y="324.624737" style="fill: #ff7f0e; fill-opacity: 0.7; stroke: #ff7f0e; stroke-opacity: 0.7; stroke-width: 1.5"/>
     <use xlink:href="#mc45d8e814e" x="91.206021" y="349.046196" style="fill: #ff7f0e; fill-opacity: 0.7; stroke: #ff7f0e; stroke-opacity: 0.7; stroke-width: 1.5"/>
     <use xlink:href="#mc45d8e814e" x="105.902668" y="347.301806" style="fill: #ff7f0e; fill-opacity: 0.7; stroke: #ff7f0e; stroke-opacity: 0.7; stroke-width: 1.5"/>
     <use xlink:href="#mc45d8e814e" x="120.599314" y="373.467656" style="fill: #ff7f0e; fill-opacity: 0.7; stroke: #ff7f0e; stroke-opacity: 0.7; stroke-width: 1.5"/>
     <use xlink:href="#mc45d8e814e" x="135.29596" y="298.458888" style="fill: #ff7f0e; fill-opacity: 0.7; stroke: #ff7f0e; stroke-opacity: 0.7; stroke-width: 1.5"/>
     <use xlink:href="#mc45d8e814e" x="149.992607" y="352.534976" style="fill: #ff7f0e; fill-opacity: 0.7; stroke: #ff7f0e; stroke-opacity: 0.7; stroke-width: 1.5"/>
     <use xlink:href="#mc45d8e814e" x="164.689253" y="363.001316" style="fill: #ff7f0e; fill-opacity: 0.7; stroke: #ff7f0e; stroke-opacity: 0.7; stroke-width: 1.5"/>
     <use xlink:href="#mc45d8e814e" x="179.385899" y="357.768146" style="fill: #ff7f0e; fill-opacity: 0.7; stroke: #ff7f0e; stroke-opacity: 0.7; stroke-width: 1.5"/>
     <use xlink:href="#mc45d8e814e" x="194.082546" y="375.212045" style="fill: #ff7f0e; fill-opacity: 0.7; stroke: #ff7f0e; stroke-opacity: 0.7; stroke-width: 1.5"/>
     <use xlink:href="#mc45d8e814e" x="208.779192" y="308.925227" style="fill: #ff7f0e; fill-opacity: 0.7; stroke: #ff7f0e; stroke-opacity: 0.7; stroke-width: 1.5"/>
     <use xlink:href="#mc45d8e814e" x="223.475838" y="317.647177" style="fill: #ff7f0e; fill-opacity: 0.7; stroke: #ff7f0e; stroke-opacity: 0.7; stroke-width: 1.5"/>
     <use xlink:href="#mc45d8e814e" x="238.172485" y="375.212045" style="fill: #ff7f0e; fill-opacity: 0.7; stroke: #ff7f0e; stroke-opacity: 0.7; stroke-width: 1.5"/>
     <use xlink:href="#mc45d8e814e" x="252.869131" y="340.324246" style="fill: #ff7f0e; fill-opacity: 0.7; stroke: #ff7f0e; stroke-opacity: 0.7; stroke-width: 1.5"/>
     <use xlink:href="#mc45d8e814e" x="267.565777" y="375.212045" style="fill: #ff7f0e; fill-opacity: 0.7; stroke: #ff7f0e; stroke-opacity: 0.7; stroke-width: 1.5"/>
     <use xlink:href="#mc45d8e814e" x="282.262424" y="366.490096" style="fill: #ff7f0e; fill-opacity: 0.7; stroke: #ff7f0e; stroke-opacity: 0.7; stroke-width: 1.5"/>
     <use xlink:href="#mc45d8e814e" x="296.95907" y="294.970108" style="fill: #ff7f0e; fill-opacity: 0.7; stroke: #ff7f0e; stroke-opacity: 0.7; stroke-width: 1.5"/>
     <use xlink:href="#mc45d8e814e" x="311.655716" y="375.212045" style="fill: #ff7f0e; fill-opacity: 0.7; stroke: #ff7f0e; stroke-opacity: 0.7; stroke-width: 1.5"/>
     <use xlink:href="#mc45d8e814e" x="326.352363" y="364.745706" style="fill: #ff7f0e; fill-opacity: 0.7; stroke: #ff7f0e; stroke-opacity: 0.7; stroke-width: 1.5"/>
     <use xlink:href="#mc45d8e814e" x="341.049009" y="371.723266" style="fill: #ff7f0e; fill-opacity: 0.7; stroke: #ff7f0e; stroke-opacity: 0.7; stroke-width: 1.5"/>
     <use xlink:href="#mc45d8e814e" x="355.745655" y="345.557416" style="fill: #ff7f0e; fill-opacity: 0.7; stroke: #ff7f0e; stroke-opacity: 0.7; stroke-width: 1.5"/>
     <use xlink:href="#mc45d8e814e" x="370.442302" y="364.745706" style="fill: #ff7f0e; fill-opacity: 0.7; stroke: #ff7f0e; stroke-opacity: 0.7; stroke-width: 1.5"/>
     <use xlink:href="#mc45d8e814e" x="385.138948" y="312.414007" style="fill: #ff7f0e; fill-opacity: 0.7; stroke: #ff7f0e; stroke-opacity: 0.7; stroke-width: 1.5"/>
     <use xlink:href="#mc45d8e814e" x="399.835595" y="342.068636" style="fill: #ff7f0e; fill-opacity: 0.7; stroke: #ff7f0e; stroke-opacity: 0.7; stroke-width: 1.5"/>
     <use xlink:href="#mc45d8e814e" x="414.532241" y="315.902787" style="fill: #ff7f0e; fill-opacity: 0.7; stroke: #ff7f0e; stroke-opacity: 0.7; stroke-width: 1.5"/>
     <use xlink:href="#mc45d8e814e" x="429.228887" y="368.234486" style="fill: #ff7f0e; fill-opacity: 0.7; stroke: #ff7f0e; stroke-opacity: 0.7; stroke-width: 1.5"/>
     <use xlink:href="#mc45d8e814e" x="443.925534" y="307.180837" style="fill: #ff7f0e; fill-opacity: 0.7; stroke: #ff7f0e; stroke-opacity: 0.7; stroke-width: 1.5"/>
     <use xlink:href="#mc45d8e814e" x="458.62218" y="340.324246" style="fill: #ff7f0e; fill-opacity: 0.7; stroke: #ff7f0e; stroke-opacity: 0.7; stroke-width: 1.5"/>
     <use xlink:href="#mc45d8e814e" x="473.318826" y="333.346687" style="fill: #ff7f0e; fill-opacity: 0.7; stroke: #ff7f0e; stroke-opacity: 0.7; stroke-width: 1.5"/>
     <use xlink:href="#mc45d8e814e" x="488.015473" y="281.014988" style="fill: #ff7f0e; fill-opacity: 0.7; stroke: #ff7f0e; stroke-opacity: 0.7; stroke-width: 1.5"/>
     <use xlink:href="#mc45d8e814e" x="502.712119" y="328.113517" style="fill: #ff7f0e; fill-opacity: 0.7; stroke: #ff7f0e; stroke-opacity: 0.7; stroke-width: 1.5"/>
     <use xlink:href="#mc45d8e814e" x="517.408765" y="347.301806" style="fill: #ff7f0e; fill-opacity: 0.7; stroke: #ff7f0e; stroke-opacity: 0.7; stroke-width: 1.5"/>
     <use xlink:href="#mc45d8e814e" x="532.105412" y="340.324246" style="fill: #ff7f0e; fill-opacity: 0.7; stroke: #ff7f0e; stroke-opacity: 0.7; stroke-width: 1.5"/>
     <use xlink:href="#mc45d8e814e" x="546.802058" y="368.234486" style="fill: #ff7f0e; fill-opacity: 0.7; stroke: #ff7f0e; stroke-opacity: 0.7; stroke-width: 1.5"/>
     <use xlink:href="#mc45d8e814e" x="561.498704" y="263.571089" style="fill: #ff7f0e; fill-opacity: 0.7; stroke: #ff7f0e; stroke-opacity: 0.7; stroke-width: 1.5"/>
     <use xlink:href="#mc45d8e814e" x="576.195351" y="354.279366" style="fill: #ff7f0e; fill-opacity: 0.7; stroke: #ff7f0e; stroke-opacity: 0.7; stroke-width: 1.5"/>
     <use xlink:href="#mc45d8e814e" x="590.891997" y="312.414007" style="fill: #ff7f0e; fill-opacity: 0.7; stroke: #ff7f0e; stroke-opacity: 0.7; stroke-width: 1.5"/>
     <use xlink:href="#mc45d8e814e" x="605.588643" y="291.481328" style="fill: #ff7f0e; fill-opacity: 0.7; stroke: #ff7f0e; stroke-opacity: 0.7; stroke-width: 1.5"/>
     <use xlink:href="#mc45d8e814e" x="620.28529" y="375.212045" style="fill: #ff7f0e; fill-opacity: 0.7; stroke: #ff7f0e; stroke-opacity: 0.7; stroke-width: 1.5"/>
     <use xlink:href="#mc45d8e814e" x="634.981936" y="289.736938" style="fill: #ff7f0e; fill-opacity: 0.7; stroke: #ff7f0e; stroke-opacity: 0.7; stroke-width: 1.5"/>
     <use xlink:href="#mc45d8e814e" x="649.678582" y="356.023756" style="fill: #ff7f0e; fill-opacity: 0.7; stroke: #ff7f0e; stroke-opacity: 0.7; stroke-width: 1.5"/>
     <use xlink:href="#mc45d8e814e" x="664.375229" y="375.212045" style="fill: #ff7f0e; fill-opacity: 0.7; stroke: #ff7f0e; stroke-opacity: 0.7; stroke-width: 1.5"/>
    </g>
   </g>
   <g id="matplotlib.axis_1">
    <g id="xtick_1">
     <g id="line2d_1">
      <path d="M 76.509375 391.78375 
L 76.509375 27.20625 
" clip-path="url(#p2e18a2d49c)" style="fill: none; stroke-dasharray: 2.96,1.28; stroke-dashoffset: 0; stroke: #b0b0b0; stroke-opacity: 0.7; stroke-width: 0.8"/>
     </g>
     <g id="line2d_2">
      <defs>
       <path id="m02a61e42a3" d="M 0 0 
L 0 3.5 
" style="stroke: #000000; stroke-width: 0.8"/>
      </defs>
      <g>
       <use xlink:href="#m02a61e42a3" x="76.509375" y="391.78375" style="stroke: #000000; stroke-width: 0.8"/>
      </g>
     </g>
     <g id="text_1">
      <!-- 0 -->
      <g transform="translate(74.009375 405.65875) scale(0.1 -0.1)">
       <defs>
        <path id="SimHei-30" d="M 225 2537 
Q 250 3200 412 3587 
Q 575 3975 875 4225 
Q 1175 4475 1612 4475 
Q 2050 4475 2375 4112 
Q 2700 3750 2800 3200 
Q 2900 2650 2862 1937 
Q 2825 1225 2612 775 
Q 2400 325 1975 150 
Q 1550 -25 1125 187 
Q 700 400 525 750 
Q 350 1100 275 1487 
Q 200 1875 225 2537 
z
M 750 2687 
Q 675 2000 800 1462 
Q 925 925 1212 700 
Q 1500 475 1800 612 
Q 2100 750 2237 1162 
Q 2375 1575 2375 2062 
Q 2375 2550 2337 2950 
Q 2300 3350 2112 3675 
Q 1925 4000 1612 4012 
Q 1300 4025 1062 3700 
Q 825 3375 750 2687 
z
" transform="scale(0.015625)"/>
       </defs>
       <use xlink:href="#SimHei-30"/>
      </g>
     </g>
    </g>
    <g id="xtick_2">
     <g id="line2d_3">
      <path d="M 223.475838 391.78375 
L 223.475838 27.20625 
" clip-path="url(#p2e18a2d49c)" style="fill: none; stroke-dasharray: 2.96,1.28; stroke-dashoffset: 0; stroke: #b0b0b0; stroke-opacity: 0.7; stroke-width: 0.8"/>
     </g>
     <g id="line2d_4">
      <g>
       <use xlink:href="#m02a61e42a3" x="223.475838" y="391.78375" style="stroke: #000000; stroke-width: 0.8"/>
      </g>
     </g>
     <g id="text_2">
      <!-- 10 -->
      <g transform="translate(218.475838 405.65875) scale(0.1 -0.1)">
       <defs>
        <path id="SimHei-31" d="M 1400 3600 
Q 1075 3275 575 2975 
L 575 3450 
Q 1200 3875 1600 4450 
L 1900 4450 
L 1900 150 
L 1400 150 
L 1400 3600 
z
" transform="scale(0.015625)"/>
       </defs>
       <use xlink:href="#SimHei-31"/>
       <use xlink:href="#SimHei-30" transform="translate(50 0)"/>
      </g>
     </g>
    </g>
    <g id="xtick_3">
     <g id="line2d_5">
      <path d="M 370.442302 391.78375 
L 370.442302 27.20625 
" clip-path="url(#p2e18a2d49c)" style="fill: none; stroke-dasharray: 2.96,1.28; stroke-dashoffset: 0; stroke: #b0b0b0; stroke-opacity: 0.7; stroke-width: 0.8"/>
     </g>
     <g id="line2d_6">
      <g>
       <use xlink:href="#m02a61e42a3" x="370.442302" y="391.78375" style="stroke: #000000; stroke-width: 0.8"/>
      </g>
     </g>
     <g id="text_3">
      <!-- 20 -->
      <g transform="translate(365.442302 405.65875) scale(0.1 -0.1)">
       <defs>
        <path id="SimHei-32" d="M 300 250 
Q 325 625 650 925 
Q 975 1225 1475 1862 
Q 1975 2500 2125 2850 
Q 2275 3200 2237 3450 
Q 2200 3700 2000 3862 
Q 1800 4025 1537 4000 
Q 1275 3975 1037 3800 
Q 800 3625 675 3275 
L 200 3350 
Q 400 3925 712 4187 
Q 1025 4450 1450 4475 
Q 1700 4500 1900 4462 
Q 2100 4425 2312 4287 
Q 2525 4150 2662 3875 
Q 2800 3600 2762 3212 
Q 2725 2825 2375 2287 
Q 2025 1750 1025 600 
L 2825 600 
L 2825 150 
L 300 150 
L 300 250 
z
" transform="scale(0.015625)"/>
       </defs>
       <use xlink:href="#SimHei-32"/>
       <use xlink:href="#SimHei-30" transform="translate(50 0)"/>
      </g>
     </g>
    </g>
    <g id="xtick_4">
     <g id="line2d_7">
      <path d="M 517.408765 391.78375 
L 517.408765 27.20625 
" clip-path="url(#p2e18a2d49c)" style="fill: none; stroke-dasharray: 2.96,1.28; stroke-dashoffset: 0; stroke: #b0b0b0; stroke-opacity: 0.7; stroke-width: 0.8"/>
     </g>
     <g id="line2d_8">
      <g>
       <use xlink:href="#m02a61e42a3" x="517.408765" y="391.78375" style="stroke: #000000; stroke-width: 0.8"/>
      </g>
     </g>
     <g id="text_4">
      <!-- 30 -->
      <g transform="translate(512.408765 405.65875) scale(0.1 -0.1)">
       <defs>
        <path id="SimHei-33" d="M 250 1225 
L 700 1300 
Q 800 975 1025 762 
Q 1250 550 1587 562 
Q 1925 575 2125 837 
Q 2325 1100 2300 1437 
Q 2275 1775 2037 1962 
Q 1800 2150 1275 2225 
L 1275 2550 
Q 1800 2600 2037 2825 
Q 2275 3050 2250 3412 
Q 2225 3775 1925 3937 
Q 1625 4100 1287 3975 
Q 950 3850 750 3275 
L 300 3350 
Q 450 3800 712 4100 
Q 975 4400 1425 4450 
Q 1875 4500 2212 4337 
Q 2550 4175 2687 3837 
Q 2825 3500 2725 3100 
Q 2625 2700 2150 2400 
Q 2500 2250 2687 1950 
Q 2875 1650 2812 1162 
Q 2750 675 2375 375 
Q 2000 75 1525 87 
Q 1050 100 700 387 
Q 350 675 250 1225 
z
" transform="scale(0.015625)"/>
       </defs>
       <use xlink:href="#SimHei-33"/>
       <use xlink:href="#SimHei-30" transform="translate(50 0)"/>
      </g>
     </g>
    </g>
    <g id="xtick_5">
     <g id="line2d_9">
      <path d="M 664.375229 391.78375 
L 664.375229 27.20625 
" clip-path="url(#p2e18a2d49c)" style="fill: none; stroke-dasharray: 2.96,1.28; stroke-dashoffset: 0; stroke: #b0b0b0; stroke-opacity: 0.7; stroke-width: 0.8"/>
     </g>
     <g id="line2d_10">
      <g>
       <use xlink:href="#m02a61e42a3" x="664.375229" y="391.78375" style="stroke: #000000; stroke-width: 0.8"/>
      </g>
     </g>
     <g id="text_5">
      <!-- 40 -->
      <g transform="translate(659.375229 405.65875) scale(0.1 -0.1)">
       <defs>
        <path id="SimHei-34" d="M 2000 1100 
L 75 1100 
L 75 1525 
L 2100 4450 
L 2475 4450 
L 2475 1525 
L 3075 1525 
L 3075 1100 
L 2475 1100 
L 2475 150 
L 2000 150 
L 2000 1100 
z
M 2000 1525 
L 2000 3500 
L 600 1525 
L 2000 1525 
z
" transform="scale(0.015625)"/>
       </defs>
       <use xlink:href="#SimHei-34"/>
       <use xlink:href="#SimHei-30" transform="translate(50 0)"/>
      </g>
     </g>
    </g>
    <g id="text_6">
     <!-- 共同保留站点索引 (按ID排序) -->
     <g transform="translate(310.290625 418.916562) scale(0.1 -0.1)">
      <defs>
       <path id="SimHei-5171" d="M 2025 3700 
Q 2025 4700 2000 5000 
L 2600 5000 
Q 2550 4700 2550 3700 
L 3925 3700 
Q 3925 4725 3900 5025 
L 4500 5025 
Q 4450 4725 4450 3700 
L 4950 3700 
Q 5400 3700 5725 3725 
L 5725 3275 
Q 5400 3300 4950 3300 
L 4450 3300 
L 4450 1850 
L 5300 1850 
Q 5750 1850 6050 1875 
L 6050 1425 
Q 5775 1450 5325 1450 
L 1075 1450 
Q 600 1450 325 1425 
L 325 1875 
Q 600 1850 1075 1850 
L 2025 1850 
L 2025 3300 
L 1600 3300 
Q 1000 3300 700 3275 
L 700 3725 
Q 1025 3700 1625 3700 
L 2025 3700 
z
M 3925 1850 
L 3925 3300 
L 2550 3300 
L 2550 1850 
L 3925 1850 
z
M 2875 725 
Q 2525 550 1962 137 
Q 1400 -275 850 -525 
Q 675 -275 450 -100 
Q 975 125 1437 412 
Q 1900 700 2325 1125 
Q 2600 900 2875 725 
z
M 4050 1125 
Q 4350 950 4925 600 
Q 5500 250 5925 -100 
Q 5700 -275 5525 -500 
Q 5100 -175 4587 162 
Q 4075 500 3675 700 
Q 3875 900 4050 1125 
z
" transform="scale(0.015625)"/>
       <path id="SimHei-540c" d="M 5825 4925 
Q 5775 4550 5775 3975 
L 5775 -50 
Q 5775 -400 5525 -487 
Q 5275 -575 4725 -625 
Q 4725 -400 4525 -50 
Q 4925 -50 5100 -12 
Q 5275 25 5275 200 
L 5275 4450 
L 1150 4450 
L 1150 -600 
L 575 -600 
Q 600 -250 625 200 
L 625 3975 
Q 625 4575 600 4925 
L 5825 4925 
z
M 4375 2550 
Q 4325 2275 4325 1700 
Q 4325 1150 4375 725 
L 2025 725 
Q 2050 1175 2050 1750 
Q 2050 2325 2025 2550 
L 4375 2550 
z
M 4100 3750 
Q 4600 3750 4825 3775 
L 4825 3275 
Q 4575 3300 4075 3300 
L 2450 3300 
Q 1850 3300 1600 3275 
L 1600 3775 
Q 1875 3750 2475 3750 
L 4100 3750 
z
M 3875 1150 
L 3875 2150 
L 2525 2150 
L 2525 1150 
L 3875 1150 
z
" transform="scale(0.015625)"/>
       <path id="SimHei-4fdd" d="M 5425 4925 
Q 5400 4550 5400 3950 
Q 5400 3375 5425 3050 
L 4225 3050 
L 4225 2250 
L 4975 2250 
Q 5650 2250 6025 2275 
L 6025 1800 
Q 5600 1825 5025 1825 
L 4600 1825 
Q 4825 1325 5225 937 
Q 5625 550 6175 350 
Q 5975 175 5800 -125 
Q 5200 200 4812 700 
Q 4425 1200 4225 1700 
L 4225 325 
Q 4225 -250 4250 -575 
L 3725 -575 
Q 3750 -225 3750 275 
L 3750 1800 
Q 3150 600 2225 -175 
Q 2075 50 1775 175 
Q 2650 650 3225 1825 
L 2875 1825 
Q 2350 1825 2000 1800 
L 2000 2275 
Q 2350 2250 2825 2250 
L 3750 2250 
L 3750 3050 
L 2600 3050 
Q 2625 3400 2625 4000 
Q 2625 4625 2600 4925 
L 5425 4925 
z
M 2125 4975 
Q 2000 4800 1850 4475 
Q 1700 4150 1600 3875 
L 1600 650 
Q 1600 -150 1625 -575 
L 1125 -575 
Q 1150 -175 1150 625 
L 1150 3000 
Q 800 2400 525 2050 
Q 400 2275 200 2425 
Q 725 3050 1087 3837 
Q 1450 4625 1575 5225 
Q 1775 5075 2125 4975 
z
M 4950 3450 
L 4950 4525 
L 3075 4525 
L 3075 3450 
L 4950 3450 
z
" transform="scale(0.015625)"/>
       <path id="SimHei-7559" d="M 5575 2300 
Q 5550 1900 5550 1275 
L 5550 375 
Q 5550 -50 5575 -650 
L 5050 -650 
L 5050 -150 
L 1500 -150 
L 1500 -650 
L 975 -650 
Q 1000 100 1000 450 
L 1000 1275 
Q 1000 1925 975 2300 
L 5575 2300 
z
M 3350 2475 
Q 3250 2650 2900 2850 
Q 3325 3050 3625 3400 
Q 3925 3750 4025 4450 
Q 3675 4450 3225 4400 
L 3225 4875 
Q 3675 4850 4050 4850 
L 5950 4850 
Q 5875 4425 5825 3912 
Q 5775 3400 5725 3125 
Q 5675 2850 5462 2775 
Q 5250 2700 4775 2600 
Q 4675 2950 4525 3200 
Q 4900 3200 5075 3225 
Q 5250 3250 5287 3400 
Q 5325 3550 5375 4450 
L 4525 4450 
Q 4425 3675 4112 3250 
Q 3800 2825 3350 2475 
z
M 2200 3575 
Q 2050 3800 1875 3975 
Q 2125 4100 2275 4250 
Q 2650 3750 3000 3250 
Q 2800 3100 2575 2950 
Q 2500 3100 2400 3250 
Q 2000 3075 1587 2862 
Q 1175 2650 800 2425 
Q 675 2650 500 2850 
Q 675 3000 675 3425 
L 675 4125 
Q 675 4550 650 4850 
Q 1075 4850 1575 4925 
Q 2075 5000 2550 5225 
Q 2650 4975 2950 4700 
Q 2775 4700 2287 4600 
Q 1800 4500 1175 4450 
L 1175 3125 
Q 1600 3300 2200 3575 
z
M 3075 250 
L 3075 875 
L 1500 875 
L 1500 250 
L 3075 250 
z
M 3075 1275 
L 3075 1900 
L 1500 1900 
L 1500 1275 
L 3075 1275 
z
M 5050 1275 
L 5050 1900 
L 3550 1900 
L 3550 1275 
L 5050 1275 
z
M 5050 250 
L 5050 875 
L 3550 875 
L 3550 250 
L 5050 250 
z
" transform="scale(0.015625)"/>
       <path id="SimHei-7ad9" d="M 4450 3925 
L 5175 3925 
Q 5575 3925 6050 3950 
L 6050 3475 
Q 5575 3500 5175 3500 
L 4450 3500 
L 4450 2275 
L 5700 2275 
Q 5675 1900 5675 1575 
L 5675 350 
Q 5675 -100 5700 -575 
L 5175 -575 
L 5175 -50 
L 3500 -50 
L 3500 -600 
L 3025 -600 
Q 3025 -150 3050 200 
L 3050 1525 
Q 3025 1850 3025 2275 
L 3975 2275 
L 3975 4550 
Q 3975 4775 3950 5225 
L 4475 5225 
Q 4450 4750 4450 4600 
L 4450 3925 
z
M 5175 350 
L 5175 1875 
L 3500 1875 
L 3500 350 
L 5175 350 
z
M 2725 2875 
Q 2575 2500 2450 1912 
Q 2325 1325 2200 775 
Q 2675 875 2875 925 
Q 2875 725 2925 525 
Q 2150 350 1587 212 
Q 1025 75 550 -100 
Q 500 150 325 450 
Q 1400 600 1750 700 
Q 1850 1025 1987 1662 
Q 2125 2300 2175 3025 
Q 2450 2925 2725 2875 
z
M 1900 3875 
Q 2250 3875 2950 3900 
L 2950 3425 
Q 2250 3450 1900 3450 
L 1400 3450 
Q 1000 3450 375 3425 
L 375 3900 
Q 1000 3875 1400 3875 
L 1900 3875 
z
M 1075 2950 
Q 1475 1650 1550 1250 
Q 1300 1175 1075 1125 
Q 975 1725 600 2800 
Q 800 2875 1075 2950 
z
M 1525 4050 
Q 1425 4475 1125 5000 
Q 1325 5075 1550 5200 
Q 1775 4875 2000 4225 
Q 1800 4125 1525 4050 
z
" transform="scale(0.015625)"/>
       <path id="SimHei-70b9" d="M 3325 5200 
Q 3300 4925 3300 4375 
L 4900 4375 
Q 5275 4375 5725 4400 
L 5725 3925 
Q 5300 3950 4900 3950 
L 3300 3950 
L 3300 3225 
L 5225 3225 
Q 5200 2700 5200 2150 
Q 5200 1625 5225 1175 
L 1175 1175 
Q 1200 1625 1200 2175 
Q 1200 2725 1175 3225 
L 2775 3225 
L 2775 4500 
Q 2775 4900 2750 5200 
L 3325 5200 
z
M 4700 1600 
L 4700 2800 
L 1725 2800 
L 1725 1600 
L 4700 1600 
z
M 1500 750 
Q 1025 -250 825 -625 
Q 625 -475 325 -375 
Q 650 50 950 925 
Q 1200 800 1500 750 
z
M 5325 850 
Q 5775 150 6075 -350 
Q 5925 -425 5575 -625 
Q 5375 -150 4900 575 
Q 5150 700 5325 850 
z
M 3975 -575 
Q 3775 -100 3400 575 
Q 3575 675 3825 825 
Q 4350 -75 4450 -325 
Q 4200 -450 3975 -575 
z
M 2375 -575 
Q 2350 -300 1975 550 
Q 2200 625 2425 775 
Q 2800 -75 2900 -350 
Q 2625 -450 2375 -575 
z
" transform="scale(0.015625)"/>
       <path id="SimHei-7d22" d="M 3275 3000 
Q 3100 2925 2850 2775 
Q 2600 2625 2200 2375 
L 3425 2375 
Q 3825 2575 4175 2900 
Q 4475 2700 4775 2525 
Q 4325 2400 3937 2187 
Q 3550 1975 2300 1375 
Q 3375 1425 4600 1475 
Q 4400 1650 4200 1800 
Q 4475 1925 4575 2075 
Q 5025 1825 5675 1125 
Q 5425 975 5275 800 
Q 5050 1000 4900 1150 
Q 4400 1150 3450 1075 
L 3450 -25 
Q 3450 -400 3212 -475 
Q 2975 -550 2450 -625 
Q 2425 -350 2250 -100 
Q 2600 -100 2775 -75 
Q 2950 -50 2950 125 
L 2950 1025 
Q 2175 1025 1700 962 
Q 1225 900 975 850 
Q 900 1100 825 1300 
Q 1425 1400 1837 1550 
Q 2250 1700 2875 2050 
Q 2300 2050 2012 2025 
Q 1725 2000 1325 1900 
Q 1250 2175 1175 2350 
Q 1525 2375 1925 2612 
Q 2325 2850 2675 3275 
Q 2975 3125 3275 3000 
z
M 2900 4625 
Q 2900 4925 2875 5150 
L 3425 5150 
Q 3400 4850 3400 4625 
L 4775 4625 
Q 5050 4625 5575 4650 
L 5575 4250 
Q 5100 4275 4750 4275 
L 3400 4275 
L 3400 3750 
L 5900 3750 
Q 5875 3550 5875 3250 
Q 5875 2950 5900 2700 
L 5375 2700 
L 5375 3375 
L 975 3375 
L 975 2525 
L 475 2525 
L 475 3750 
L 2900 3750 
L 2900 4275 
L 1750 4275 
Q 1050 4275 825 4250 
L 825 4650 
Q 1150 4625 1725 4625 
L 2900 4625 
z
M 4525 800 
Q 5175 375 5875 -75 
Q 5650 -250 5475 -450 
Q 4800 100 4125 500 
Q 4350 675 4525 800 
z
M 2125 450 
Q 1900 325 1575 75 
Q 1250 -175 775 -475 
Q 650 -275 375 -125 
Q 1100 225 1700 775 
Q 1900 600 2125 450 
z
" transform="scale(0.015625)"/>
       <path id="SimHei-5f15" d="M 3475 4825 
Q 3450 4350 3450 3925 
Q 3450 3500 3475 3050 
L 1400 3050 
L 1350 2075 
L 3525 2075 
Q 3300 150 3225 -100 
Q 3150 -350 2837 -462 
Q 2525 -575 1600 -625 
Q 1575 -350 1400 -25 
Q 2275 -50 2487 0 
Q 2700 50 2775 300 
L 2950 1675 
L 825 1675 
Q 850 2075 875 2487 
Q 900 2900 900 3450 
L 2950 3450 
L 2950 4400 
L 1925 4400 
Q 1350 4400 800 4375 
L 800 4850 
Q 1350 4825 1750 4825 
L 3475 4825 
z
M 5450 5075 
Q 5425 4625 5425 4175 
L 5425 600 
Q 5425 50 5450 -550 
L 4900 -550 
Q 4925 100 4925 600 
L 4925 4200 
Q 4925 4625 4900 5075 
L 5450 5075 
z
" transform="scale(0.015625)"/>
       <path id="SimHei-20" transform="scale(0.015625)"/>
       <path id="SimHei-28" d="M 2975 -200 
L 2700 -475 
Q 2075 125 1762 775 
Q 1450 1425 1450 2250 
Q 1450 3075 1762 3725 
Q 2075 4375 2700 5000 
L 2975 4725 
Q 2400 4175 2112 3587 
Q 1825 3000 1825 2250 
Q 1825 1500 2112 912 
Q 2400 325 2975 -200 
z
" transform="scale(0.015625)"/>
       <path id="SimHei-6309" d="M 4400 3375 
Q 4275 3175 4200 3012 
Q 4125 2850 3925 2450 
L 5400 2450 
Q 5800 2450 6075 2475 
L 6075 2050 
Q 5725 2075 5400 2075 
Q 5300 1800 5150 1437 
Q 5000 1075 4675 600 
Q 5300 275 6025 -150 
Q 5850 -325 5675 -600 
Q 5050 -125 4350 275 
Q 4125 75 3662 -162 
Q 3200 -400 2375 -625 
Q 2275 -375 2075 -150 
Q 2625 -100 3187 112 
Q 3750 325 3925 500 
Q 3375 800 2725 1075 
Q 3050 1550 3300 2075 
Q 2800 2075 2475 2050 
L 2475 2475 
Q 2825 2450 3125 2450 
L 3450 2450 
Q 3625 2800 3850 3575 
Q 4100 3450 4400 3375 
z
M 1200 4475 
Q 1200 4850 1175 5100 
L 1675 5100 
Q 1650 4850 1650 4500 
L 1650 3850 
Q 1925 3850 2175 3875 
L 2175 3450 
Q 1900 3475 1650 3475 
L 1650 2250 
Q 1975 2400 2200 2550 
Q 2250 2325 2325 2150 
Q 2075 2050 1650 1825 
L 1650 75 
Q 1675 -275 1500 -400 
Q 1325 -525 750 -600 
Q 725 -325 525 -50 
Q 975 -75 1087 -25 
Q 1200 25 1200 275 
L 1200 1650 
Q 750 1450 450 1275 
Q 325 1625 200 1750 
Q 525 1800 1200 2100 
L 1200 3475 
Q 675 3475 300 3450 
L 300 3875 
Q 625 3850 1200 3850 
L 1200 4475 
z
M 5900 4225 
Q 5875 3850 5875 3575 
Q 5875 3325 5900 3075 
L 5425 3075 
L 5425 3850 
L 3050 3850 
L 3050 3050 
L 2575 3050 
Q 2600 3325 2600 3600 
Q 2600 3900 2575 4225 
L 5900 4225 
z
M 3325 1225 
Q 3825 1000 4275 800 
Q 4625 1225 4900 2075 
L 3800 2075 
Q 3600 1725 3325 1225 
z
M 4075 5275 
Q 4350 4875 4550 4475 
Q 4300 4375 4100 4250 
Q 3925 4675 3675 5000 
Q 3850 5125 4075 5275 
z
" transform="scale(0.015625)"/>
       <path id="SimHei-49" d="M 1850 125 
L 1275 125 
L 1275 4400 
L 1850 4400 
L 1850 125 
z
" transform="scale(0.015625)"/>
       <path id="SimHei-44" d="M 2925 2250 
Q 2925 1100 2437 612 
Q 1950 125 1125 125 
L 275 125 
L 275 4400 
L 1125 4400 
Q 2050 4400 2487 3900 
Q 2925 3400 2925 2250 
z
M 2325 2250 
Q 2325 3175 2025 3550 
Q 1725 3925 1125 3925 
L 850 3925 
L 850 600 
L 1125 600 
Q 1725 600 2025 962 
Q 2325 1325 2325 2250 
z
" transform="scale(0.015625)"/>
       <path id="SimHei-6392" d="M 225 1825 
Q 675 1900 1150 2075 
L 1150 3425 
L 950 3425 
Q 650 3425 350 3400 
L 350 3850 
Q 600 3825 950 3825 
L 1150 3825 
L 1150 4500 
Q 1150 4850 1125 5175 
L 1675 5175 
Q 1625 4900 1625 4500 
L 1625 3825 
Q 2075 3825 2275 3850 
L 2275 3400 
Q 1875 3425 1625 3425 
L 1625 2225 
Q 1950 2325 2275 2500 
Q 2275 2200 2300 2050 
Q 2075 1975 1625 1800 
L 1625 -100 
Q 1600 -425 1412 -500 
Q 1225 -575 700 -650 
Q 600 -225 450 -75 
Q 875 -125 1000 -112 
Q 1125 -100 1150 75 
L 1150 1650 
Q 850 1550 450 1300 
Q 375 1525 225 1825 
z
M 5050 5125 
Q 5025 4800 5025 4300 
L 5025 4000 
Q 5700 4000 6100 4050 
L 6100 3575 
Q 5725 3600 5525 3600 
L 5025 3600 
L 5025 2625 
Q 5625 2625 5950 2650 
L 5950 2175 
Q 5625 2200 5025 2200 
L 5025 1075 
Q 5750 1075 6150 1100 
L 6150 625 
Q 5850 650 5025 650 
L 5025 275 
Q 5025 75 5050 -600 
L 4550 -600 
L 4550 4300 
Q 4550 4850 4525 5125 
L 5050 5125 
z
M 3425 4350 
Q 3425 4925 3400 5150 
L 3925 5150 
Q 3900 4800 3900 4250 
L 3900 -600 
L 3400 -600 
Q 3425 -50 3425 275 
L 3425 650 
Q 2625 650 2225 625 
L 2225 1100 
Q 2550 1075 3425 1075 
L 3425 2200 
Q 2775 2200 2525 2150 
L 2525 2650 
Q 2750 2625 3425 2625 
L 3425 3600 
Q 2700 3600 2450 3575 
L 2450 4050 
Q 2725 4000 3425 4000 
L 3425 4350 
z
" transform="scale(0.015625)"/>
       <path id="SimHei-5e8f" d="M 4000 2075 
L 5975 2075 
Q 5750 1525 5575 1025 
Q 5325 1100 5050 1150 
Q 5175 1450 5275 1700 
L 4050 1700 
L 4050 150 
Q 4050 -375 3762 -462 
Q 3475 -550 2950 -575 
Q 2875 -300 2750 0 
Q 3350 -75 3475 25 
Q 3600 125 3575 375 
L 3575 1700 
L 2450 1700 
Q 2050 1700 1675 1675 
L 1675 2100 
Q 2100 2075 2425 2075 
L 3675 2075 
Q 3325 2400 2875 2775 
Q 2975 2875 3250 3100 
Q 3400 2975 3725 2725 
L 4575 3275 
L 3000 3275 
Q 2400 3275 1950 3250 
L 1950 3700 
Q 2400 3675 3000 3675 
L 5400 3675 
L 5400 3250 
Q 4700 2875 4025 2450 
L 4275 2250 
L 4000 2075 
z
M 3725 5275 
Q 3825 4925 3925 4525 
L 4850 4525 
Q 5425 4525 6000 4550 
L 6000 4125 
Q 5425 4150 4850 4150 
L 1400 4150 
Q 1400 2750 1362 2137 
Q 1325 1525 1200 887 
Q 1075 250 775 -350 
Q 625 -250 250 -125 
Q 475 300 600 700 
Q 725 1100 800 1637 
Q 875 2175 875 2825 
Q 875 3500 850 4525 
L 3350 4525 
Q 3275 4825 3150 5150 
Q 3425 5200 3725 5275 
z
" transform="scale(0.015625)"/>
       <path id="SimHei-29" d="M 1675 2250 
Q 1675 1425 1362 775 
Q 1050 125 425 -475 
L 150 -200 
Q 725 325 1012 912 
Q 1300 1500 1300 2250 
Q 1300 3000 1012 3587 
Q 725 4175 150 4725 
L 425 5000 
Q 1050 4375 1362 3725 
Q 1675 3075 1675 2250 
z
" transform="scale(0.015625)"/>
      </defs>
      <use xlink:href="#SimHei-5171"/>
      <use xlink:href="#SimHei-540c" transform="translate(100 0)"/>
      <use xlink:href="#SimHei-4fdd" transform="translate(200 0)"/>
      <use xlink:href="#SimHei-7559" transform="translate(300 0)"/>
      <use xlink:href="#SimHei-7ad9" transform="translate(400 0)"/>
      <use xlink:href="#SimHei-70b9" transform="translate(500 0)"/>
      <use xlink:href="#SimHei-7d22" transform="translate(600 0)"/>
      <use xlink:href="#SimHei-5f15" transform="translate(700 0)"/>
      <use xlink:href="#SimHei-20" transform="translate(800 0)"/>
      <use xlink:href="#SimHei-28" transform="translate(850 0)"/>
      <use xlink:href="#SimHei-6309" transform="translate(900 0)"/>
      <use xlink:href="#SimHei-49" transform="translate(1000 0)"/>
      <use xlink:href="#SimHei-44" transform="translate(1050 0)"/>
      <use xlink:href="#SimHei-6392" transform="translate(1100 0)"/>
      <use xlink:href="#SimHei-5e8f" transform="translate(1200 0)"/>
      <use xlink:href="#SimHei-29" transform="translate(1300 0)"/>
     </g>
    </g>
   </g>
   <g id="matplotlib.axis_2">
    <g id="ytick_1">
     <g id="line2d_11">
      <path d="M 46.38125 349.046196 
L 709.2 349.046196 
" clip-path="url(#p2e18a2d49c)" style="fill: none; stroke-dasharray: 2.96,1.28; stroke-dashoffset: 0; stroke: #b0b0b0; stroke-opacity: 0.7; stroke-width: 0.8"/>
     </g>
     <g id="line2d_12">
      <defs>
       <path id="mdc67f65420" d="M 0 0 
L -3.5 0 
" style="stroke: #000000; stroke-width: 0.8"/>
      </defs>
      <g>
       <use xlink:href="#mdc67f65420" x="46.38125" y="349.046196" style="stroke: #000000; stroke-width: 0.8"/>
      </g>
     </g>
     <g id="text_7">
      <!-- 25 -->
      <g transform="translate(29.38125 352.483696) scale(0.1 -0.1)">
       <defs>
        <path id="SimHei-35" d="M 550 1325 
Q 725 650 1150 575 
Q 1575 500 1837 662 
Q 2100 825 2212 1087 
Q 2325 1350 2312 1675 
Q 2300 2000 2137 2225 
Q 1975 2450 1725 2525 
Q 1475 2600 1162 2525 
Q 850 2450 650 2175 
L 225 2225 
Q 275 2375 700 4375 
L 2675 4375 
L 2675 3925 
L 1075 3925 
Q 950 3250 825 2850 
Q 1200 3025 1525 3012 
Q 1850 3000 2150 2862 
Q 2450 2725 2587 2487 
Q 2725 2250 2787 2012 
Q 2850 1775 2837 1500 
Q 2825 1225 2725 937 
Q 2625 650 2425 462 
Q 2225 275 1937 162 
Q 1650 50 1275 75 
Q 900 100 562 350 
Q 225 600 100 1200 
L 550 1325 
z
" transform="scale(0.015625)"/>
       </defs>
       <use xlink:href="#SimHei-32"/>
       <use xlink:href="#SimHei-35" transform="translate(50 0)"/>
      </g>
     </g>
    </g>
    <g id="ytick_2">
     <g id="line2d_13">
      <path d="M 46.38125 305.436447 
L 709.2 305.436447 
" clip-path="url(#p2e18a2d49c)" style="fill: none; stroke-dasharray: 2.96,1.28; stroke-dashoffset: 0; stroke: #b0b0b0; stroke-opacity: 0.7; stroke-width: 0.8"/>
     </g>
     <g id="line2d_14">
      <g>
       <use xlink:href="#mdc67f65420" x="46.38125" y="305.436447" style="stroke: #000000; stroke-width: 0.8"/>
      </g>
     </g>
     <g id="text_8">
      <!-- 50 -->
      <g transform="translate(29.38125 308.873947) scale(0.1 -0.1)">
       <use xlink:href="#SimHei-35"/>
       <use xlink:href="#SimHei-30" transform="translate(50 0)"/>
      </g>
     </g>
    </g>
    <g id="ytick_3">
     <g id="line2d_15">
      <path d="M 46.38125 261.826699 
L 709.2 261.826699 
" clip-path="url(#p2e18a2d49c)" style="fill: none; stroke-dasharray: 2.96,1.28; stroke-dashoffset: 0; stroke: #b0b0b0; stroke-opacity: 0.7; stroke-width: 0.8"/>
     </g>
     <g id="line2d_16">
      <g>
       <use xlink:href="#mdc67f65420" x="46.38125" y="261.826699" style="stroke: #000000; stroke-width: 0.8"/>
      </g>
     </g>
     <g id="text_9">
      <!-- 75 -->
      <g transform="translate(29.38125 265.264199) scale(0.1 -0.1)">
       <defs>
        <path id="SimHei-37" d="M 850 150 
Q 1300 2050 2425 3925 
L 275 3925 
L 275 4375 
L 2950 4375 
L 2950 3950 
Q 1775 2050 1400 150 
L 850 150 
z
" transform="scale(0.015625)"/>
       </defs>
       <use xlink:href="#SimHei-37"/>
       <use xlink:href="#SimHei-35" transform="translate(50 0)"/>
      </g>
     </g>
    </g>
    <g id="ytick_4">
     <g id="line2d_17">
      <path d="M 46.38125 218.21695 
L 709.2 218.21695 
" clip-path="url(#p2e18a2d49c)" style="fill: none; stroke-dasharray: 2.96,1.28; stroke-dashoffset: 0; stroke: #b0b0b0; stroke-opacity: 0.7; stroke-width: 0.8"/>
     </g>
     <g id="line2d_18">
      <g>
       <use xlink:href="#mdc67f65420" x="46.38125" y="218.21695" style="stroke: #000000; stroke-width: 0.8"/>
      </g>
     </g>
     <g id="text_10">
      <!-- 100 -->
      <g transform="translate(24.38125 221.65445) scale(0.1 -0.1)">
       <use xlink:href="#SimHei-31"/>
       <use xlink:href="#SimHei-30" transform="translate(50 0)"/>
       <use xlink:href="#SimHei-30" transform="translate(100 0)"/>
      </g>
     </g>
    </g>
    <g id="ytick_5">
     <g id="line2d_19">
      <path d="M 46.38125 174.607201 
L 709.2 174.607201 
" clip-path="url(#p2e18a2d49c)" style="fill: none; stroke-dasharray: 2.96,1.28; stroke-dashoffset: 0; stroke: #b0b0b0; stroke-opacity: 0.7; stroke-width: 0.8"/>
     </g>
     <g id="line2d_20">
      <g>
       <use xlink:href="#mdc67f65420" x="46.38125" y="174.607201" style="stroke: #000000; stroke-width: 0.8"/>
      </g>
     </g>
     <g id="text_11">
      <!-- 125 -->
      <g transform="translate(24.38125 178.044701) scale(0.1 -0.1)">
       <use xlink:href="#SimHei-31"/>
       <use xlink:href="#SimHei-32" transform="translate(50 0)"/>
       <use xlink:href="#SimHei-35" transform="translate(100 0)"/>
      </g>
     </g>
    </g>
    <g id="ytick_6">
     <g id="line2d_21">
      <path d="M 46.38125 130.997452 
L 709.2 130.997452 
" clip-path="url(#p2e18a2d49c)" style="fill: none; stroke-dasharray: 2.96,1.28; stroke-dashoffset: 0; stroke: #b0b0b0; stroke-opacity: 0.7; stroke-width: 0.8"/>
     </g>
     <g id="line2d_22">
      <g>
       <use xlink:href="#mdc67f65420" x="46.38125" y="130.997452" style="stroke: #000000; stroke-width: 0.8"/>
      </g>
     </g>
     <g id="text_12">
      <!-- 150 -->
      <g transform="translate(24.38125 134.434952) scale(0.1 -0.1)">
       <use xlink:href="#SimHei-31"/>
       <use xlink:href="#SimHei-35" transform="translate(50 0)"/>
       <use xlink:href="#SimHei-30" transform="translate(100 0)"/>
      </g>
     </g>
    </g>
    <g id="ytick_7">
     <g id="line2d_23">
      <path d="M 46.38125 87.387703 
L 709.2 87.387703 
" clip-path="url(#p2e18a2d49c)" style="fill: none; stroke-dasharray: 2.96,1.28; stroke-dashoffset: 0; stroke: #b0b0b0; stroke-opacity: 0.7; stroke-width: 0.8"/>
     </g>
     <g id="line2d_24">
      <g>
       <use xlink:href="#mdc67f65420" x="46.38125" y="87.387703" style="stroke: #000000; stroke-width: 0.8"/>
      </g>
     </g>
     <g id="text_13">
      <!-- 175 -->
      <g transform="translate(24.38125 90.825203) scale(0.1 -0.1)">
       <use xlink:href="#SimHei-31"/>
       <use xlink:href="#SimHei-37" transform="translate(50 0)"/>
       <use xlink:href="#SimHei-35" transform="translate(100 0)"/>
      </g>
     </g>
    </g>
    <g id="ytick_8">
     <g id="line2d_25">
      <path d="M 46.38125 43.777955 
L 709.2 43.777955 
" clip-path="url(#p2e18a2d49c)" style="fill: none; stroke-dasharray: 2.96,1.28; stroke-dashoffset: 0; stroke: #b0b0b0; stroke-opacity: 0.7; stroke-width: 0.8"/>
     </g>
     <g id="line2d_26">
      <g>
       <use xlink:href="#mdc67f65420" x="46.38125" y="43.777955" style="stroke: #000000; stroke-width: 0.8"/>
      </g>
     </g>
     <g id="text_14">
      <!-- 200 -->
      <g transform="translate(24.38125 47.215455) scale(0.1 -0.1)">
       <use xlink:href="#SimHei-32"/>
       <use xlink:href="#SimHei-30" transform="translate(50 0)"/>
       <use xlink:href="#SimHei-30" transform="translate(100 0)"/>
      </g>
     </g>
    </g>
    <g id="text_15">
     <!-- 分配容量 -->
     <g transform="translate(19.13125 229.495) rotate(-90) scale(0.1 -0.1)">
      <defs>
       <path id="SimHei-5206" d="M 1000 -650 
Q 825 -375 575 -225 
Q 975 -75 1300 137 
Q 1625 350 1875 662 
Q 2125 975 2250 1350 
Q 2375 1725 2425 2275 
Q 1850 2275 1500 2250 
L 1500 2775 
Q 1900 2750 2525 2750 
L 5025 2750 
Q 4975 2375 4950 2100 
L 4750 250 
Q 4700 -200 4350 -350 
Q 4000 -500 3575 -525 
Q 3550 -275 3325 50 
Q 3850 25 4037 87 
Q 4225 150 4275 525 
L 4450 2275 
L 2950 2275 
Q 2875 1625 2737 1187 
Q 2600 750 2350 425 
Q 2100 100 1750 -175 
Q 1400 -450 1000 -650 
z
M 3950 5175 
Q 4125 4650 4662 3975 
Q 5200 3300 6175 2800 
Q 5975 2625 5775 2275 
Q 5325 2600 4987 2887 
Q 4650 3175 4425 3425 
Q 4200 3675 3925 4137 
Q 3650 4600 3475 5000 
Q 3750 5075 3950 5175 
z
M 2700 4825 
Q 2475 4425 2325 4125 
Q 2175 3825 2025 3587 
Q 1875 3350 1575 2950 
Q 1275 2550 850 2125 
Q 625 2350 400 2475 
Q 900 2925 1187 3300 
Q 1475 3675 1737 4112 
Q 2000 4550 2200 5075 
Q 2400 4925 2700 4825 
z
" transform="scale(0.015625)"/>
       <path id="SimHei-914d" d="M 1250 3825 
L 1250 4575 
Q 675 4575 275 4550 
L 275 5025 
Q 700 5000 1750 5000 
Q 2800 5000 3300 5025 
L 3300 4550 
Q 2975 4575 2425 4575 
L 2425 3825 
L 3275 3825 
Q 3250 3000 3250 1700 
Q 3250 400 3275 -500 
L 2800 -500 
L 2800 -50 
L 875 -50 
L 875 -575 
L 425 -575 
Q 450 225 450 1725 
Q 450 3250 425 3825 
L 1250 3825 
z
M 3550 5050 
Q 4150 5025 4550 5025 
L 5775 5025 
Q 5750 4550 5750 3725 
Q 5750 2925 5775 2475 
L 4175 2475 
L 4175 225 
Q 4175 -100 4500 -100 
L 5300 -100 
Q 5500 -100 5562 125 
Q 5625 350 5625 700 
Q 5875 500 6175 450 
Q 6000 -175 5887 -350 
Q 5775 -525 5425 -525 
L 4175 -525 
Q 3725 -525 3725 75 
L 3725 2075 
Q 3725 2425 3700 2875 
L 5275 2875 
L 5275 4600 
Q 4025 4600 3550 4575 
L 3550 5050 
z
M 875 1225 
L 2800 1225 
L 2800 1800 
L 2300 1800 
Q 2025 1875 2025 2175 
L 2025 3450 
L 1625 3450 
Q 1625 2900 1575 2475 
Q 1525 2050 1300 1575 
Q 1125 1700 875 1750 
L 875 1225 
z
M 2800 350 
L 2800 875 
L 875 875 
L 875 350 
L 2800 350 
z
M 2400 2450 
Q 2400 2125 2800 2175 
L 2800 3450 
L 2400 3450 
L 2400 2450 
z
M 875 1850 
Q 1100 2150 1175 2537 
Q 1250 2925 1250 3450 
L 875 3450 
L 875 1850 
z
M 2025 3825 
L 2025 4575 
L 1625 4575 
L 1625 3825 
L 2025 3825 
z
" transform="scale(0.015625)"/>
       <path id="SimHei-5bb9" d="M 3350 2725 
Q 4025 2150 4687 1850 
Q 5350 1550 6100 1425 
Q 5875 1250 5800 950 
Q 5325 1075 4850 1275 
Q 4850 -200 4875 -575 
L 4400 -575 
L 4400 -225 
L 2050 -225 
L 2050 -650 
L 1575 -650 
Q 1600 -325 1600 1275 
Q 1125 1050 550 825 
Q 450 1025 225 1250 
Q 1325 1500 2137 2137 
Q 2950 2775 3125 3275 
Q 3375 3125 3600 3025 
L 3350 2725 
z
M 5750 4350 
Q 5725 4125 5725 3875 
Q 5725 3625 5750 3400 
L 5250 3400 
L 5250 4000 
L 1200 4000 
L 1200 3375 
L 700 3375 
Q 725 3650 725 3875 
Q 725 4125 700 4350 
L 5750 4350 
z
M 4400 150 
L 4400 1025 
L 2050 1025 
L 2050 150 
L 4400 150 
z
M 4625 1400 
Q 3875 1700 3100 2425 
Q 2525 1850 1750 1400 
L 4625 1400 
z
M 4000 3725 
Q 5175 3075 5550 2850 
Q 5375 2650 5250 2450 
Q 4400 3025 3725 3375 
Q 3925 3575 4000 3725 
z
M 775 2775 
Q 1875 3225 2325 3700 
Q 2400 3575 2650 3325 
Q 1725 2700 1100 2425 
Q 975 2625 775 2775 
z
M 2650 5025 
Q 2850 5125 3125 5300 
Q 3400 4950 3575 4600 
Q 3225 4475 3075 4375 
Q 3050 4475 2650 5025 
z
" transform="scale(0.015625)"/>
       <path id="SimHei-91cf" d="M 5250 2500 
Q 5225 2200 5225 1700 
Q 5225 1225 5250 950 
L 3425 950 
L 3425 625 
L 4575 625 
Q 5000 625 5375 650 
L 5375 275 
Q 5025 300 4575 300 
L 3425 300 
L 3425 -75 
L 5125 -75 
Q 5525 -75 5925 -50 
L 5925 -425 
Q 5525 -400 5125 -400 
L 1275 -400 
Q 900 -400 475 -425 
L 475 -50 
Q 925 -50 1275 -75 
L 2975 -75 
L 2975 300 
L 1725 300 
Q 1350 300 975 250 
L 975 650 
Q 1375 625 1725 625 
L 2975 625 
L 2975 950 
L 1150 950 
Q 1175 1375 1175 1775 
Q 1175 2175 1150 2500 
L 5250 2500 
z
M 5200 4950 
Q 5175 4575 5175 4250 
Q 5175 3925 5200 3400 
L 1200 3400 
Q 1225 3925 1225 4250 
Q 1225 4575 1200 4950 
L 5200 4950 
z
M 4900 3100 
Q 5500 3125 6000 3150 
L 6000 2750 
Q 5500 2775 4925 2775 
L 1650 2775 
Q 975 2775 325 2750 
L 325 3150 
Q 975 3125 1650 3100 
L 4900 3100 
z
M 4725 3700 
L 4725 4025 
L 1675 4025 
L 1675 3700 
L 4725 3700 
z
M 4725 4350 
L 4725 4650 
L 1675 4650 
L 1675 4350 
L 4725 4350 
z
M 4750 1875 
L 4750 2175 
L 3425 2175 
L 3425 1875 
L 4750 1875 
z
M 2975 1875 
L 2975 2175 
L 1650 2175 
L 1650 1875 
L 2975 1875 
z
M 2975 1275 
L 2975 1550 
L 1650 1550 
L 1650 1275 
L 2975 1275 
z
M 4750 1275 
L 4750 1550 
L 3425 1550 
L 3425 1275 
L 4750 1275 
z
" transform="scale(0.015625)"/>
      </defs>
      <use xlink:href="#SimHei-5206"/>
      <use xlink:href="#SimHei-914d" transform="translate(100 0)"/>
      <use xlink:href="#SimHei-5bb9" transform="translate(200 0)"/>
      <use xlink:href="#SimHei-91cf" transform="translate(300 0)"/>
     </g>
    </g>
   </g>
   <g id="line2d_27">
    <path d="M 76.509375 375.212045 
L 679.071875 43.777955 
" clip-path="url(#p2e18a2d49c)" style="fill: none; stroke-dasharray: 3.7,1.6; stroke-dashoffset: 0; stroke: #ff0000"/>
   </g>
   <g id="patch_3">
    <path d="M 46.38125 391.78375 
L 46.38125 27.20625 
" style="fill: none; stroke: #000000; stroke-width: 0.8; stroke-linejoin: miter; stroke-linecap: square"/>
   </g>
   <g id="patch_4">
    <path d="M 709.2 391.78375 
L 709.2 27.20625 
" style="fill: none; stroke: #000000; stroke-width: 0.8; stroke-linejoin: miter; stroke-linecap: square"/>
   </g>
   <g id="patch_5">
    <path d="M 46.38125 391.78375 
L 709.2 391.78375 
" style="fill: none; stroke: #000000; stroke-width: 0.8; stroke-linejoin: miter; stroke-linecap: square"/>
   </g>
   <g id="patch_6">
    <path d="M 46.38125 27.20625 
L 709.2 27.20625 
" style="fill: none; stroke: #000000; stroke-width: 0.8; stroke-linejoin: miter; stroke-linecap: square"/>
   </g>
   <g id="text_16">
    <!-- 两种方法对共同保留站点的容量配置对比 -->
    <g transform="translate(269.790625 21.20625) scale(0.12 -0.12)">
     <defs>
      <path id="SimHei-4e24" d="M 1700 825 
Q 1575 975 1325 1175 
Q 2025 1850 2250 3075 
L 1175 3075 
L 1175 -500 
L 675 -500 
Q 700 175 700 675 
L 700 2650 
Q 700 2975 675 3500 
L 2300 3500 
Q 2325 3925 2350 4475 
L 1125 4475 
Q 825 4475 525 4450 
L 525 4900 
Q 825 4875 1100 4875 
L 5250 4875 
Q 5500 4875 5975 4900 
L 5975 4450 
Q 5625 4475 5275 4475 
L 4300 4475 
Q 4300 4100 4250 3500 
L 5750 3500 
Q 5725 3050 5725 2725 
L 5725 250 
Q 5725 -175 5462 -300 
Q 5200 -425 4475 -500 
Q 4400 -150 4225 75 
Q 4975 50 5112 125 
Q 5250 200 5250 500 
L 5250 3075 
L 4200 3075 
Q 4150 2650 4050 2275 
Q 4750 1725 5125 1400 
Q 4900 1200 4750 1000 
Q 4500 1325 3950 1800 
Q 3625 1000 3250 475 
Q 3000 650 2775 725 
Q 3075 1050 3350 1637 
Q 3625 2225 3725 3075 
L 2725 3075 
Q 2650 2700 2575 2425 
Q 3075 2000 3275 1750 
Q 3100 1600 2900 1400 
Q 2625 1800 2425 2000 
Q 2150 1350 1700 825 
z
M 3775 3500 
Q 3800 4100 3800 4475 
L 2825 4475 
Q 2825 4100 2775 3500 
L 3775 3500 
z
" transform="scale(0.015625)"/>
      <path id="SimHei-79cd" d="M 4225 4000 
Q 4225 4975 4200 5275 
L 4725 5275 
Q 4700 5000 4700 4000 
L 6000 4000 
Q 5975 3725 5975 3250 
L 5975 1550 
Q 5975 1275 6000 925 
L 5500 925 
L 5500 1425 
L 4700 1425 
L 4700 375 
Q 4700 -275 4725 -700 
L 4200 -700 
Q 4225 -275 4225 375 
L 4225 1425 
L 3425 1425 
L 3425 825 
L 2925 825 
Q 2950 1125 2950 1500 
L 2950 3200 
Q 2950 3725 2925 4000 
L 4225 4000 
z
M 350 3250 
Q 725 3225 1225 3225 
L 1425 3225 
L 1425 4325 
Q 1175 4250 575 4125 
Q 475 4350 350 4575 
Q 900 4600 1412 4737 
Q 1925 4875 2350 5100 
Q 2500 4900 2725 4625 
Q 2475 4600 2300 4550 
Q 2125 4500 1900 4450 
L 1900 3225 
Q 2225 3225 2700 3250 
L 2700 2800 
Q 2225 2825 1900 2825 
L 1900 225 
Q 1900 -125 1925 -650 
L 1400 -650 
Q 1425 -125 1425 225 
L 1425 1875 
Q 1225 1375 1062 1075 
Q 900 775 625 350 
Q 425 625 250 850 
Q 600 1225 887 1725 
Q 1175 2225 1300 2825 
L 925 2825 
Q 575 2825 350 2800 
L 350 3250 
z
M 4225 1825 
L 4225 3600 
L 3425 3600 
L 3425 1825 
L 4225 1825 
z
M 5500 1825 
L 5500 3600 
L 4700 3600 
L 4700 1825 
L 5500 1825 
z
M 2375 2475 
Q 2450 2300 2575 2125 
Q 2700 1950 2850 1625 
Q 2625 1525 2425 1375 
Q 2300 1650 2212 1837 
Q 2125 2025 1975 2225 
Q 2125 2325 2375 2475 
z
" transform="scale(0.015625)"/>
      <path id="SimHei-65b9" d="M 425 3975 
Q 825 3950 1300 3950 
L 5025 3950 
Q 5625 3950 6000 3975 
L 6000 3475 
Q 5675 3500 5100 3500 
L 2525 3500 
Q 2525 3225 2500 2500 
L 5300 2500 
Q 5250 2175 5200 1550 
L 5050 175 
Q 5000 -275 4625 -412 
Q 4250 -550 3525 -625 
Q 3500 -300 3325 -50 
Q 3900 -75 4200 0 
Q 4500 75 4575 425 
L 4725 2050 
L 2475 2050 
Q 2375 1350 2162 875 
Q 1950 400 1575 0 
Q 1200 -400 825 -700 
Q 725 -550 375 -350 
Q 700 -175 1062 200 
Q 1425 575 1662 1050 
Q 1900 1525 1962 2100 
Q 2025 2675 2025 3500 
L 1325 3500 
Q 775 3500 425 3475 
L 425 3975 
z
M 3075 4075 
Q 2850 4575 2575 5000 
Q 2800 5125 3025 5275 
Q 3300 4850 3575 4350 
Q 3325 4250 3075 4075 
z
" transform="scale(0.015625)"/>
      <path id="SimHei-6cd5" d="M 6075 -300 
Q 5850 -425 5625 -625 
Q 5450 -300 5325 -125 
Q 4525 -175 3587 -262 
Q 2650 -350 2325 -450 
Q 2250 -150 2125 75 
Q 2450 175 2825 725 
Q 3200 1275 3500 2100 
L 2800 2100 
Q 2350 2100 1950 2075 
L 1950 2525 
Q 2350 2500 2825 2500 
L 3725 2500 
L 3725 3600 
L 3150 3600 
Q 2675 3600 2325 3575 
L 2325 4025 
Q 2725 4000 3125 4000 
L 3725 4000 
Q 3725 4700 3700 5150 
L 4250 5150 
Q 4225 4775 4225 4000 
L 4975 4000 
Q 5350 4000 5750 4025 
L 5750 3575 
Q 5350 3600 5025 3600 
L 4225 3600 
L 4225 2500 
L 5125 2500 
Q 5575 2500 6025 2525 
L 6025 2075 
Q 5575 2100 5125 2100 
L 3850 2100 
L 4100 1950 
Q 3950 1775 3625 1200 
Q 3300 625 2900 100 
Q 4000 150 5075 225 
Q 4775 675 4450 1025 
Q 4650 1175 4825 1350 
Q 5275 800 6075 -300 
z
M 300 -250 
Q 650 100 1012 625 
Q 1375 1150 1725 1725 
Q 1850 1500 2075 1375 
Q 1850 1075 1500 487 
Q 1150 -100 850 -625 
Q 650 -425 300 -250 
z
M 675 3425 
Q 1200 3100 1800 2650 
Q 1575 2500 1400 2250 
Q 925 2675 350 3050 
Q 525 3200 675 3425 
z
M 1050 4900 
Q 1550 4575 2100 4125 
Q 1900 3975 1725 3725 
Q 1250 4175 725 4525 
Q 900 4700 1050 4900 
z
" transform="scale(0.015625)"/>
      <path id="SimHei-5bf9" d="M 525 4250 
Q 900 4225 1400 4225 
L 2825 4225 
Q 2575 2625 2200 1750 
Q 2825 875 3125 400 
Q 2950 275 2725 75 
Q 2200 975 1950 1300 
Q 1650 775 1350 425 
Q 1050 75 600 -350 
Q 425 -125 200 -25 
Q 625 275 975 675 
Q 1325 1075 1650 1700 
Q 1050 2425 550 2900 
Q 700 3025 900 3225 
Q 1625 2425 1875 2150 
Q 2200 3050 2300 3825 
L 1400 3825 
Q 900 3825 525 3800 
L 525 4250 
z
M 2925 3700 
Q 3525 3675 3750 3675 
L 4825 3675 
L 4825 4425 
Q 4825 4750 4775 5125 
L 5350 5125 
Q 5325 4825 5325 4375 
L 5325 3675 
Q 5575 3675 6150 3700 
L 6150 3250 
Q 5575 3275 5325 3275 
L 5325 125 
Q 5350 -350 5012 -475 
Q 4675 -600 4250 -650 
Q 4175 -350 4025 -100 
Q 4575 -100 4712 -37 
Q 4850 25 4825 325 
L 4825 3275 
L 3775 3275 
Q 3550 3275 2925 3225 
L 2925 3700 
z
M 3450 2725 
Q 3875 1975 4175 1325 
Q 3850 1200 3700 1075 
Q 3475 1750 3050 2475 
Q 3225 2550 3450 2725 
z
" transform="scale(0.015625)"/>
      <path id="SimHei-7684" d="M 2100 4975 
Q 1975 4750 1750 3950 
L 2875 3950 
Q 2850 3525 2850 2875 
L 2850 675 
Q 2850 300 2875 -400 
L 2375 -400 
L 2375 100 
L 1100 100 
L 1100 -450 
L 600 -450 
Q 625 350 625 550 
L 625 2850 
Q 625 3525 600 3950 
L 1325 3950 
Q 1450 4525 1525 5150 
Q 1875 5025 2100 4975 
z
M 5825 3075 
Q 5800 1550 5700 175 
Q 5650 -275 5225 -425 
Q 4800 -575 4275 -625 
Q 4250 -350 4050 -50 
Q 4550 -75 4837 -25 
Q 5125 25 5200 200 
Q 5275 375 5312 1225 
Q 5350 2075 5375 3600 
L 3925 3600 
Q 3725 3125 3350 2475 
Q 3175 2650 2925 2750 
Q 3150 3050 3350 3475 
Q 3550 3900 3700 4400 
Q 3850 4900 3875 5175 
Q 4225 5025 4475 4950 
Q 4350 4750 4262 4512 
Q 4175 4275 4075 4050 
L 5850 4050 
Q 5825 3525 5825 3075 
z
M 2375 525 
L 2375 1850 
L 1100 1850 
L 1100 525 
L 2375 525 
z
M 2375 2275 
L 2375 3525 
L 1100 3525 
L 1100 2275 
L 2375 2275 
z
M 4350 2050 
Q 4500 1750 4700 1275 
Q 4525 1200 4225 1025 
Q 4050 1500 3900 1837 
Q 3750 2175 3600 2400 
Q 3775 2500 4050 2650 
L 4350 2050 
z
" transform="scale(0.015625)"/>
      <path id="SimHei-7f6e" d="M 3600 3650 
Q 3525 3475 3475 3325 
L 4750 3325 
Q 5100 3325 5675 3350 
L 5675 2925 
Q 5125 2950 4750 2950 
L 3400 2950 
L 3350 2600 
L 5000 2600 
Q 4975 1975 4975 1550 
L 4975 -50 
Q 5575 -50 6025 -25 
L 6025 -400 
Q 5475 -375 5000 -375 
L 1400 -375 
Q 900 -375 400 -400 
L 400 -25 
Q 925 -50 1450 -50 
L 1450 1550 
Q 1450 1975 1425 2600 
L 2875 2600 
L 2925 2950 
L 1600 2950 
Q 1150 2950 650 2925 
L 650 3350 
Q 1150 3325 1600 3325 
L 2975 3325 
Q 3000 3525 3000 3700 
Q 3250 3650 3600 3650 
z
M 5575 4950 
Q 5550 4600 5550 4300 
Q 5550 4000 5575 3775 
L 900 3775 
Q 925 4075 925 4325 
Q 925 4600 900 4950 
L 5575 4950 
z
M 4575 1900 
L 4575 2250 
L 1850 2250 
L 1850 1900 
L 4575 1900 
z
M 4575 1250 
L 4575 1575 
L 1850 1575 
L 1850 1250 
L 4575 1250 
z
M 4575 -50 
L 4575 275 
L 1850 275 
L 1850 -50 
L 4575 -50 
z
M 4575 625 
L 4575 875 
L 1850 875 
L 1850 625 
L 4575 625 
z
M 3700 4100 
L 3700 4625 
L 2700 4625 
L 2700 4100 
L 3700 4100 
z
M 5075 4100 
L 5075 4625 
L 4100 4625 
L 4100 4100 
L 5075 4100 
z
M 2350 4100 
L 2350 4625 
L 1400 4625 
L 1400 4100 
L 2350 4100 
z
" transform="scale(0.015625)"/>
      <path id="SimHei-6bd4" d="M 3775 5100 
Q 3750 4575 3750 4100 
L 3750 3050 
Q 4925 3600 5475 4175 
Q 5675 3900 5900 3675 
Q 5600 3500 5037 3187 
Q 4475 2875 3750 2550 
L 3750 450 
Q 3750 100 4050 100 
L 5000 100 
Q 5175 100 5262 250 
Q 5350 400 5450 900 
Q 5650 775 6025 675 
Q 5850 0 5650 -175 
Q 5450 -350 5225 -350 
L 3900 -350 
Q 3250 -350 3250 275 
L 3250 4000 
Q 3250 4550 3225 5100 
L 3775 5100 
z
M 1275 4975 
Q 1250 4575 1250 4000 
L 1250 3150 
L 1850 3150 
Q 2325 3150 2875 3175 
L 2875 2650 
Q 2325 2675 1850 2675 
L 1250 2675 
L 1250 475 
Q 1650 650 1962 812 
Q 2275 975 2850 1275 
Q 2900 950 2950 750 
Q 2375 475 1762 175 
Q 1150 -125 925 -325 
Q 750 -100 575 200 
Q 700 300 750 600 
L 750 3950 
Q 750 4550 725 4975 
L 1275 4975 
z
" transform="scale(0.015625)"/>
     </defs>
     <use xlink:href="#SimHei-4e24"/>
     <use xlink:href="#SimHei-79cd" transform="translate(100 0)"/>
     <use xlink:href="#SimHei-65b9" transform="translate(200 0)"/>
     <use xlink:href="#SimHei-6cd5" transform="translate(300 0)"/>
     <use xlink:href="#SimHei-5bf9" transform="translate(400 0)"/>
     <use xlink:href="#SimHei-5171" transform="translate(500 0)"/>
     <use xlink:href="#SimHei-540c" transform="translate(600 0)"/>
     <use xlink:href="#SimHei-4fdd" transform="translate(700 0)"/>
     <use xlink:href="#SimHei-7559" transform="translate(800 0)"/>
     <use xlink:href="#SimHei-7ad9" transform="translate(900 0)"/>
     <use xlink:href="#SimHei-70b9" transform="translate(1000 0)"/>
     <use xlink:href="#SimHei-7684" transform="translate(1100 0)"/>
     <use xlink:href="#SimHei-5bb9" transform="translate(1200 0)"/>
     <use xlink:href="#SimHei-91cf" transform="translate(1300 0)"/>
     <use xlink:href="#SimHei-914d" transform="translate(1400 0)"/>
     <use xlink:href="#SimHei-7f6e" transform="translate(1500 0)"/>
     <use xlink:href="#SimHei-5bf9" transform="translate(1600 0)"/>
     <use xlink:href="#SimHei-6bd4" transform="translate(1700 0)"/>
    </g>
   </g>
   <g id="legend_1">
    <g id="patch_7">
     <path d="M 600.2 232.616094 
L 702.2 232.616094 
Q 704.2 232.616094 704.2 230.616094 
L 704.2 188.373906 
Q 704.2 186.373906 702.2 186.373906 
L 600.2 186.373906 
Q 598.2 186.373906 598.2 188.373906 
L 598.2 230.616094 
Q 598.2 232.616094 600.2 232.616094 
z
" style="fill: #ffffff; opacity: 0.8; stroke: #cccccc; stroke-linejoin: miter"/>
    </g>
    <g id="PathCollection_3">
     <g>
      <use xlink:href="#ma9f9ff803f" x="612.2" y="195.873906" style="fill: #1f77b4; fill-opacity: 0.7; stroke: #1f77b4; stroke-opacity: 0.7"/>
     </g>
    </g>
    <g id="text_17">
     <!-- 方法一 容量 -->
     <g transform="translate(630.2 198.498906) scale(0.1 -0.1)">
      <defs>
       <path id="SimHei-4e00" d="M 4875 2675 
Q 5525 2675 6050 2700 
L 6050 2050 
Q 5525 2075 4900 2075 
L 1600 2075 
Q 950 2075 350 2050 
L 350 2700 
Q 950 2675 1600 2675 
L 4875 2675 
z
" transform="scale(0.015625)"/>
      </defs>
      <use xlink:href="#SimHei-65b9"/>
      <use xlink:href="#SimHei-6cd5" transform="translate(100 0)"/>
      <use xlink:href="#SimHei-4e00" transform="translate(200 0)"/>
      <use xlink:href="#SimHei-20" transform="translate(300 0)"/>
      <use xlink:href="#SimHei-5bb9" transform="translate(350 0)"/>
      <use xlink:href="#SimHei-91cf" transform="translate(450 0)"/>
     </g>
    </g>
    <g id="PathCollection_4">
     <g>
      <use xlink:href="#mc45d8e814e" x="612.2" y="210.248906" style="fill: #ff7f0e; fill-opacity: 0.7; stroke: #ff7f0e; stroke-opacity: 0.7; stroke-width: 1.5"/>
     </g>
    </g>
    <g id="text_18">
     <!-- 方法二 容量 -->
     <g transform="translate(630.2 212.873906) scale(0.1 -0.1)">
      <defs>
       <path id="SimHei-4e8c" d="M 5050 625 
Q 5650 625 6025 675 
L 6025 50 
Q 5625 75 5050 75 
L 1425 75 
Q 775 75 350 50 
L 350 650 
Q 800 625 1400 625 
L 5050 625 
z
M 4350 4150 
Q 4900 4175 5350 4200 
L 5350 3575 
Q 4900 3600 4375 3600 
L 2050 3600 
Q 1450 3600 1000 3575 
L 1000 4175 
Q 1450 4150 2025 4150 
L 4350 4150 
z
" transform="scale(0.015625)"/>
      </defs>
      <use xlink:href="#SimHei-65b9"/>
      <use xlink:href="#SimHei-6cd5" transform="translate(100 0)"/>
      <use xlink:href="#SimHei-4e8c" transform="translate(200 0)"/>
      <use xlink:href="#SimHei-20" transform="translate(300 0)"/>
      <use xlink:href="#SimHei-5bb9" transform="translate(350 0)"/>
      <use xlink:href="#SimHei-91cf" transform="translate(450 0)"/>
     </g>
    </g>
    <g id="line2d_28">
     <path d="M 602.2 223.866094 
L 612.2 223.866094 
L 622.2 223.866094 
" style="fill: none; stroke-dasharray: 3.7,1.6; stroke-dashoffset: 0; stroke: #ff0000"/>
    </g>
    <g id="text_19">
     <!-- y=x (完全一致) -->
     <g transform="translate(630.2 227.366094) scale(0.1 -0.1)">
      <defs>
       <path id="SimHei-79" d="M 2900 2925 
L 1750 -100 
Q 1650 -450 1450 -625 
Q 1250 -800 950 -800 
Q 825 -800 712 -787 
Q 600 -775 500 -725 
L 500 -225 
Q 600 -275 700 -300 
Q 800 -325 875 -325 
Q 1075 -325 1150 -262 
Q 1225 -200 1300 25 
L 200 2925 
L 750 2925 
L 1550 725 
L 1575 725 
L 2350 2925 
L 2900 2925 
z
" transform="scale(0.015625)"/>
       <path id="SimHei-3d" d="M 2975 2900 
L 125 2900 
L 125 3300 
L 2975 3300 
L 2975 2900 
z
M 2975 1375 
L 125 1375 
L 125 1775 
L 2975 1775 
L 2975 1375 
z
" transform="scale(0.015625)"/>
       <path id="SimHei-78" d="M 2875 125 
L 2275 125 
L 1550 1200 
L 825 125 
L 225 125 
L 1250 1550 
L 300 2925 
L 900 2925 
L 1550 1875 
L 2200 2925 
L 2800 2925 
L 1850 1550 
L 2875 125 
z
" transform="scale(0.015625)"/>
       <path id="SimHei-5b8c" d="M 5125 2250 
Q 5600 2250 6025 2275 
L 6025 1800 
Q 5600 1825 5125 1825 
L 4050 1825 
L 4050 250 
Q 4050 25 4237 12 
Q 4425 0 4750 0 
Q 5100 0 5237 75 
Q 5375 150 5425 675 
Q 5775 475 6050 425 
Q 5900 -75 5712 -250 
Q 5525 -425 5300 -450 
L 4050 -450 
Q 3525 -425 3525 25 
L 3525 1825 
L 2625 1825 
Q 2600 1225 2400 725 
Q 2200 225 1700 -150 
Q 1200 -525 700 -700 
Q 500 -450 250 -250 
Q 925 -50 1300 212 
Q 1675 475 1837 800 
Q 2000 1125 2075 1825 
L 1300 1825 
Q 750 1825 350 1800 
L 350 2275 
Q 775 2250 1300 2250 
L 5125 2250 
z
M 2600 5000 
Q 2775 5100 3050 5275 
Q 3375 4850 3550 4500 
L 5900 4500 
Q 5850 4150 5850 3850 
Q 5850 3575 5900 3300 
L 5350 3300 
L 5350 4075 
L 1025 4075 
L 1025 3300 
L 450 3300 
Q 475 3625 475 3925 
Q 475 4225 450 4500 
L 2925 4500 
Q 2825 4675 2600 5000 
z
M 3900 3375 
Q 4375 3375 4800 3400 
L 4800 2900 
Q 4375 2925 3900 2925 
L 2350 2925 
Q 1875 2925 1425 2900 
L 1425 3400 
Q 1875 3375 2350 3375 
L 3900 3375 
z
" transform="scale(0.015625)"/>
       <path id="SimHei-5168" d="M 3475 4825 
Q 4350 3425 6125 3025 
Q 5900 2750 5825 2450 
Q 5325 2650 4975 2875 
L 4975 2475 
Q 4700 2500 4100 2500 
L 3500 2500 
L 3500 1500 
L 4450 1500 
Q 4975 1500 5300 1525 
L 5300 1075 
Q 4975 1100 4450 1100 
L 3500 1100 
L 3500 -25 
L 4475 -25 
Q 5225 -25 5700 25 
L 5700 -500 
Q 5250 -425 4525 -425 
L 1775 -425 
Q 1025 -425 650 -450 
L 650 0 
Q 1025 -25 1775 -25 
L 3000 -25 
L 3000 1100 
L 2300 1100 
Q 1450 1100 1175 1075 
L 1175 1525 
Q 1450 1500 2275 1500 
L 3000 1500 
L 3000 2500 
L 2500 2500 
Q 1725 2500 1500 2475 
L 1500 2875 
Q 1275 2700 650 2350 
Q 500 2650 300 2875 
Q 900 3025 1700 3625 
Q 2500 4225 2975 5200 
Q 3275 5075 3600 4950 
L 3475 4825 
z
M 1650 2950 
Q 1950 2925 2525 2925 
L 4025 2925 
Q 4525 2925 4800 2950 
Q 3725 3500 3200 4550 
Q 2525 3525 1650 2950 
z
" transform="scale(0.015625)"/>
       <path id="SimHei-81f4" d="M 3325 2025 
Q 3100 2200 2925 2300 
Q 3125 2700 3262 3037 
Q 3400 3375 3512 3712 
Q 3625 4050 3712 4437 
Q 3800 4825 3850 5225 
Q 4150 5100 4450 5050 
Q 4250 4750 4075 3975 
L 5825 3975 
L 5825 3525 
Q 5500 3550 5275 3550 
Q 5150 1650 4725 750 
Q 4900 475 5262 262 
Q 5625 50 6000 -50 
Q 5875 -175 5762 -325 
Q 5650 -475 5650 -550 
Q 5275 -375 4937 -112 
Q 4600 150 4425 375 
Q 4000 -25 3737 -212 
Q 3475 -400 3200 -600 
Q 3100 -425 2800 -200 
Q 3175 -50 3562 237 
Q 3950 525 4075 750 
Q 3725 1525 3550 2500 
Q 3425 2300 3325 2025 
z
M 3025 625 
Q 3000 425 3025 175 
Q 2550 125 2200 37 
Q 1850 -50 1312 -162 
Q 775 -275 525 -400 
Q 375 0 300 175 
Q 825 225 1500 350 
L 1500 1325 
L 1175 1325 
Q 800 1325 475 1275 
L 475 1750 
Q 825 1725 1175 1725 
L 1500 1725 
L 1500 2575 
Q 1050 2525 650 2425 
Q 575 2725 450 2925 
Q 800 3075 1050 3550 
Q 1300 4025 1375 4400 
L 1150 4400 
Q 825 4400 425 4375 
L 425 4850 
Q 875 4825 1125 4825 
L 2325 4825 
Q 2675 4825 3000 4850 
L 3000 4375 
Q 2625 4400 2400 4400 
L 1475 4400 
Q 1675 4250 1925 4100 
Q 1725 3850 1550 3550 
Q 1375 3250 1125 2950 
Q 2100 3000 2450 3050 
Q 2225 3450 2100 3600 
Q 2275 3750 2450 3875 
Q 3000 3025 3125 2750 
Q 2900 2550 2725 2500 
Q 2650 2650 2625 2750 
L 1950 2650 
L 1950 1725 
L 2325 1725 
Q 2650 1725 2950 1750 
L 2950 1275 
Q 2625 1325 2350 1325 
L 1950 1325 
L 1950 425 
Q 2550 525 3025 625 
z
M 3650 2775 
Q 3725 2825 3950 2850 
Q 4175 1675 4400 1150 
Q 4750 1975 4825 3550 
L 3950 3550 
Q 3875 3350 3650 2775 
z
" transform="scale(0.015625)"/>
      </defs>
      <use xlink:href="#SimHei-79"/>
      <use xlink:href="#SimHei-3d" transform="translate(50 0)"/>
      <use xlink:href="#SimHei-78" transform="translate(100 0)"/>
      <use xlink:href="#SimHei-20" transform="translate(150 0)"/>
      <use xlink:href="#SimHei-28" transform="translate(200 0)"/>
      <use xlink:href="#SimHei-5b8c" transform="translate(250 0)"/>
      <use xlink:href="#SimHei-5168" transform="translate(350 0)"/>
      <use xlink:href="#SimHei-4e00" transform="translate(450 0)"/>
      <use xlink:href="#SimHei-81f4" transform="translate(550 0)"/>
      <use xlink:href="#SimHei-29" transform="translate(650 0)"/>
     </g>
    </g>
   </g>
  </g>
 </g>
 <defs>
  <clipPath id="p2e18a2d49c">
   <rect x="46.38125" y="27.20625" width="662.81875" height="364.5775"/>
  </clipPath>
 </defs>
</svg>
