<?xml version="1.0" encoding="utf-8" standalone="no"?>
<!DOCTYPE svg PUBLIC "-//W3C//DTD SVG 1.1//EN"
  "http://www.w3.org/Graphics/SVG/1.1/DTD/svg11.dtd">
<svg xmlns:xlink="http://www.w3.org/1999/xlink" width="720pt" height="432pt" viewBox="0 0 720 432" xmlns="http://www.w3.org/2000/svg" version="1.1">
 <metadata>
  <rdf:RDF xmlns:dc="http://purl.org/dc/elements/1.1/" xmlns:cc="http://creativecommons.org/ns#" xmlns:rdf="http://www.w3.org/1999/02/22-rdf-syntax-ns#">
   <cc:Work>
    <dc:type rdf:resource="http://purl.org/dc/dcmitype/StillImage"/>
    <dc:date>2025-08-10T17:30:55.014357</dc:date>
    <dc:format>image/svg+xml</dc:format>
    <dc:creator>
     <cc:Agent>
      <dc:title>Matplotlib v3.10.5, https://matplotlib.org/</dc:title>
     </cc:Agent>
    </dc:creator>
   </cc:Work>
  </rdf:RDF>
 </metadata>
 <defs>
  <style type="text/css">*{stroke-linejoin: round; stroke-linecap: butt}</style>
 </defs>
 <g id="figure_1">
  <g id="patch_1">
   <path d="M 0 432 
L 720 432 
L 720 0 
L 0 0 
z
" style="fill: #ffffff"/>
  </g>
  <g id="axes_1">
   <g id="patch_2">
    <path d="M 51.15125 390.1975 
L 709.2 390.1975 
L 709.2 27.16125 
L 51.15125 27.16125 
z
" style="fill: #ffffff"/>
   </g>
   <g id="patch_3">
    <path d="M 81.062557 390.1975 
L 236.158222 390.1975 
L 236.158222 390.1975 
L 81.062557 390.1975 
z
" clip-path="url(#pdfe6637e06)" style="fill: #1f77b4"/>
   </g>
   <g id="patch_4">
    <path d="M 524.193028 390.1975 
L 679.288693 390.1975 
L 679.288693 390.1975 
L 524.193028 390.1975 
z
" clip-path="url(#pdfe6637e06)" style="fill: #1f77b4"/>
   </g>
   <g id="patch_5">
    <path d="M 81.062557 390.1975 
L 236.158222 390.1975 
L 236.158222 44.44869 
L 81.062557 44.44869 
z
" clip-path="url(#pdfe6637e06)" style="fill: #ff7f0e"/>
   </g>
   <g id="patch_6">
    <path d="M 524.193028 390.1975 
L 679.288693 390.1975 
L 679.288693 235.560395 
L 524.193028 235.560395 
z
" clip-path="url(#pdfe6637e06)" style="fill: #ff7f0e"/>
   </g>
   <g id="matplotlib.axis_1">
    <g id="xtick_1">
     <g id="line2d_1">
      <defs>
       <path id="m45fbf8b09d" d="M 0 0 
L 0 3.5 
" style="stroke: #000000; stroke-width: 0.8"/>
      </defs>
      <g>
       <use xlink:href="#m45fbf8b09d" x="158.610389" y="390.1975" style="stroke: #000000; stroke-width: 0.8"/>
      </g>
     </g>
     <g id="text_1">
      <!-- 方法一 (忽略二次项) -->
      <g transform="translate(111.110389 405.283437) scale(0.1 -0.1)">
       <defs>
        <path id="SimHei-65b9" d="M 425 3975 
Q 825 3950 1300 3950 
L 5025 3950 
Q 5625 3950 6000 3975 
L 6000 3475 
Q 5675 3500 5100 3500 
L 2525 3500 
Q 2525 3225 2500 2500 
L 5300 2500 
Q 5250 2175 5200 1550 
L 5050 175 
Q 5000 -275 4625 -412 
Q 4250 -550 3525 -625 
Q 3500 -300 3325 -50 
Q 3900 -75 4200 0 
Q 4500 75 4575 425 
L 4725 2050 
L 2475 2050 
Q 2375 1350 2162 875 
Q 1950 400 1575 0 
Q 1200 -400 825 -700 
Q 725 -550 375 -350 
Q 700 -175 1062 200 
Q 1425 575 1662 1050 
Q 1900 1525 1962 2100 
Q 2025 2675 2025 3500 
L 1325 3500 
Q 775 3500 425 3475 
L 425 3975 
z
M 3075 4075 
Q 2850 4575 2575 5000 
Q 2800 5125 3025 5275 
Q 3300 4850 3575 4350 
Q 3325 4250 3075 4075 
z
" transform="scale(0.015625)"/>
        <path id="SimHei-6cd5" d="M 6075 -300 
Q 5850 -425 5625 -625 
Q 5450 -300 5325 -125 
Q 4525 -175 3587 -262 
Q 2650 -350 2325 -450 
Q 2250 -150 2125 75 
Q 2450 175 2825 725 
Q 3200 1275 3500 2100 
L 2800 2100 
Q 2350 2100 1950 2075 
L 1950 2525 
Q 2350 2500 2825 2500 
L 3725 2500 
L 3725 3600 
L 3150 3600 
Q 2675 3600 2325 3575 
L 2325 4025 
Q 2725 4000 3125 4000 
L 3725 4000 
Q 3725 4700 3700 5150 
L 4250 5150 
Q 4225 4775 4225 4000 
L 4975 4000 
Q 5350 4000 5750 4025 
L 5750 3575 
Q 5350 3600 5025 3600 
L 4225 3600 
L 4225 2500 
L 5125 2500 
Q 5575 2500 6025 2525 
L 6025 2075 
Q 5575 2100 5125 2100 
L 3850 2100 
L 4100 1950 
Q 3950 1775 3625 1200 
Q 3300 625 2900 100 
Q 4000 150 5075 225 
Q 4775 675 4450 1025 
Q 4650 1175 4825 1350 
Q 5275 800 6075 -300 
z
M 300 -250 
Q 650 100 1012 625 
Q 1375 1150 1725 1725 
Q 1850 1500 2075 1375 
Q 1850 1075 1500 487 
Q 1150 -100 850 -625 
Q 650 -425 300 -250 
z
M 675 3425 
Q 1200 3100 1800 2650 
Q 1575 2500 1400 2250 
Q 925 2675 350 3050 
Q 525 3200 675 3425 
z
M 1050 4900 
Q 1550 4575 2100 4125 
Q 1900 3975 1725 3725 
Q 1250 4175 725 4525 
Q 900 4700 1050 4900 
z
" transform="scale(0.015625)"/>
        <path id="SimHei-4e00" d="M 4875 2675 
Q 5525 2675 6050 2700 
L 6050 2050 
Q 5525 2075 4900 2075 
L 1600 2075 
Q 950 2075 350 2050 
L 350 2700 
Q 950 2675 1600 2675 
L 4875 2675 
z
" transform="scale(0.015625)"/>
        <path id="SimHei-20" transform="scale(0.015625)"/>
        <path id="SimHei-28" d="M 2975 -200 
L 2700 -475 
Q 2075 125 1762 775 
Q 1450 1425 1450 2250 
Q 1450 3075 1762 3725 
Q 2075 4375 2700 5000 
L 2975 4725 
Q 2400 4175 2112 3587 
Q 1825 3000 1825 2250 
Q 1825 1500 2112 912 
Q 2400 325 2975 -200 
z
" transform="scale(0.015625)"/>
        <path id="SimHei-5ffd" d="M 4025 1600 
Q 4000 1925 3875 2200 
Q 4375 2175 4525 2225 
Q 4675 2275 4725 2975 
Q 4775 3675 4800 4075 
L 4150 4075 
Q 3900 3200 3550 2637 
Q 3200 2075 2375 1450 
Q 2250 1675 2000 1825 
Q 2650 2250 3037 2750 
Q 3425 3250 3650 4075 
L 3000 4075 
Q 2800 3525 2387 2987 
Q 1975 2450 1250 1950 
Q 1125 2175 900 2350 
Q 1325 2550 1775 2987 
Q 2225 3425 2500 4075 
L 1850 4075 
Q 1500 3575 1000 3025 
Q 875 3250 625 3400 
Q 975 3675 1325 4162 
Q 1675 4650 1875 5200 
Q 2175 5025 2400 4950 
Q 2175 4650 2100 4500 
L 5300 4500 
Q 5225 3050 5175 2500 
Q 5125 1950 4862 1812 
Q 4600 1675 4025 1600 
z
M 2350 1150 
Q 2325 725 2325 525 
L 2325 150 
Q 2325 -25 2550 -50 
L 3900 -50 
Q 4125 -50 4225 75 
Q 4325 200 4375 575 
Q 4625 425 4925 350 
Q 4700 -275 4487 -375 
Q 4275 -475 4000 -475 
L 2400 -475 
Q 1875 -475 1837 -212 
Q 1800 50 1812 400 
Q 1825 750 1800 1150 
L 2350 1150 
z
M 1475 1150 
Q 1375 1025 1275 762 
Q 1175 500 875 -250 
Q 625 -100 400 -25 
Q 725 550 950 1350 
Q 1275 1225 1475 1150 
z
M 5150 1450 
Q 5575 900 6025 275 
Q 5875 175 5600 -25 
Q 5200 650 4750 1150 
Q 4950 1275 5150 1450 
z
M 3200 1750 
Q 3550 1300 3775 900 
Q 3575 775 3325 650 
Q 3175 1000 2800 1500 
Q 3050 1600 3200 1750 
z
" transform="scale(0.015625)"/>
        <path id="SimHei-7565" d="M 2650 4525 
Q 2625 3950 2625 3500 
L 2625 1250 
Q 2625 825 2650 225 
L 2200 225 
L 2200 550 
L 875 550 
L 875 75 
L 400 75 
Q 450 475 450 975 
L 450 3500 
Q 450 4075 400 4525 
L 2650 4525 
z
M 4250 5025 
Q 4100 4875 3950 4525 
L 5625 4525 
Q 5475 4050 5212 3575 
Q 4950 3100 4625 2750 
Q 4900 2500 5312 2362 
Q 5725 2225 6100 2175 
Q 5900 1900 5825 1675 
Q 5475 1750 5050 1937 
Q 4625 2125 4300 2425 
Q 4100 2275 3775 2050 
Q 3450 1825 2950 1600 
Q 2850 1850 2675 2050 
Q 3050 2175 3337 2312 
Q 3625 2450 4025 2775 
Q 3875 2975 3750 3200 
Q 3625 3425 3525 3625 
Q 3375 3350 3100 2950 
Q 3000 3100 2675 3250 
Q 3025 3625 3287 4187 
Q 3550 4750 3650 5250 
Q 3925 5125 4250 5025 
z
M 5500 1725 
Q 5475 1425 5475 1050 
L 5475 75 
Q 5475 -250 5500 -625 
L 5025 -625 
L 5025 -150 
L 3725 -150 
L 3725 -650 
L 3250 -650 
Q 3275 -225 3275 125 
L 3275 1025 
Q 3275 1400 3250 1725 
L 5500 1725 
z
M 5025 275 
L 5025 1325 
L 3725 1325 
L 3725 275 
L 5025 275 
z
M 4350 3075 
Q 4725 3500 5000 4150 
L 3775 4150 
Q 3975 3525 4350 3075 
z
M 1325 950 
L 1325 2375 
L 875 2375 
L 875 950 
L 1325 950 
z
M 2200 950 
L 2200 2375 
L 1750 2375 
L 1750 950 
L 2200 950 
z
M 1325 2775 
L 1325 4150 
L 875 4150 
L 875 2775 
L 1325 2775 
z
M 2200 2775 
L 2200 4150 
L 1750 4150 
L 1750 2775 
L 2200 2775 
z
" transform="scale(0.015625)"/>
        <path id="SimHei-4e8c" d="M 5050 625 
Q 5650 625 6025 675 
L 6025 50 
Q 5625 75 5050 75 
L 1425 75 
Q 775 75 350 50 
L 350 650 
Q 800 625 1400 625 
L 5050 625 
z
M 4350 4150 
Q 4900 4175 5350 4200 
L 5350 3575 
Q 4900 3600 4375 3600 
L 2050 3600 
Q 1450 3600 1000 3575 
L 1000 4175 
Q 1450 4150 2025 4150 
L 4350 4150 
z
" transform="scale(0.015625)"/>
        <path id="SimHei-6b21" d="M 4150 3025 
Q 4000 2550 4050 2187 
Q 4100 1825 4275 1450 
Q 4450 1075 4800 750 
Q 5150 425 5475 212 
Q 5800 0 6150 -150 
Q 5875 -350 5750 -625 
Q 5250 -325 4887 -25 
Q 4525 275 4275 612 
Q 4025 950 3825 1425 
Q 3525 625 2950 125 
Q 2375 -375 1850 -650 
Q 1675 -400 1475 -225 
Q 2025 0 2487 362 
Q 2950 725 3162 1100 
Q 3375 1475 3450 1825 
Q 3525 2175 3537 2400 
Q 3550 2625 3525 3125 
Q 3825 3050 4150 3025 
z
M 3700 4975 
Q 3625 4900 3475 4575 
Q 3325 4250 3250 4075 
L 5775 4075 
Q 5650 3725 5550 3362 
Q 5450 3000 5275 2500 
Q 5000 2575 4775 2600 
Q 5025 3350 5100 3650 
L 3100 3650 
Q 2975 3400 2812 3100 
Q 2650 2800 2425 2450 
Q 2275 2600 1975 2700 
Q 2300 3050 2625 3762 
Q 2950 4475 3125 5200 
Q 3450 5025 3700 4975 
z
M 2025 2000 
Q 1825 1675 1475 1087 
Q 1125 500 725 -200 
Q 500 -25 250 175 
Q 725 725 1037 1262 
Q 1350 1800 1575 2325 
Q 1750 2175 2025 2000 
z
M 900 4750 
Q 1725 3725 1950 3375 
Q 1750 3250 1500 3050 
Q 1250 3525 500 4425 
Q 700 4575 900 4750 
z
" transform="scale(0.015625)"/>
        <path id="SimHei-9879" d="M 5200 4800 
Q 5600 4800 6000 4825 
L 6000 4400 
Q 5600 4425 5200 4425 
L 4400 4425 
Q 4325 4025 4225 3625 
L 5600 3625 
Q 5575 3250 5575 2800 
L 5575 1550 
Q 5575 1225 5600 750 
L 5125 750 
L 5125 3250 
L 3225 3250 
L 3225 725 
L 2725 725 
Q 2750 1175 2750 1525 
L 2750 2800 
Q 2750 3175 2725 3625 
L 3775 3625 
Q 3850 4050 3875 4425 
L 3250 4425 
Q 2875 4425 2475 4400 
L 2475 4825 
Q 2875 4800 3250 4800 
L 5200 4800 
z
M 2225 1300 
Q 1750 1175 1350 1037 
Q 950 900 450 675 
Q 400 975 250 1225 
Q 650 1300 1025 1400 
L 1025 4175 
Q 700 4175 325 4150 
L 325 4575 
Q 750 4550 1300 4550 
Q 1850 4550 2200 4575 
L 2200 4150 
Q 1925 4175 1500 4175 
L 1500 1550 
Q 1825 1625 2250 1800 
Q 2200 1550 2225 1300 
z
M 4500 2625 
Q 4450 2325 4400 1925 
Q 4350 1525 4212 1025 
Q 4075 525 3575 112 
Q 3075 -300 2250 -675 
Q 2125 -425 1850 -200 
Q 2675 25 3087 300 
Q 3500 575 3687 950 
Q 3875 1325 3900 1762 
Q 3925 2200 3925 2725 
Q 4175 2675 4500 2625 
z
M 4625 950 
Q 5500 275 5975 -175 
Q 5725 -325 5575 -575 
Q 5300 -200 4250 550 
Q 4500 775 4625 950 
z
" transform="scale(0.015625)"/>
        <path id="SimHei-29" d="M 1675 2250 
Q 1675 1425 1362 775 
Q 1050 125 425 -475 
L 150 -200 
Q 725 325 1012 912 
Q 1300 1500 1300 2250 
Q 1300 3000 1012 3587 
Q 725 4175 150 4725 
L 425 5000 
Q 1050 4375 1362 3725 
Q 1675 3075 1675 2250 
z
" transform="scale(0.015625)"/>
       </defs>
       <use xlink:href="#SimHei-65b9"/>
       <use xlink:href="#SimHei-6cd5" transform="translate(100 0)"/>
       <use xlink:href="#SimHei-4e00" transform="translate(200 0)"/>
       <use xlink:href="#SimHei-20" transform="translate(300 0)"/>
       <use xlink:href="#SimHei-28" transform="translate(350 0)"/>
       <use xlink:href="#SimHei-5ffd" transform="translate(400 0)"/>
       <use xlink:href="#SimHei-7565" transform="translate(500 0)"/>
       <use xlink:href="#SimHei-4e8c" transform="translate(600 0)"/>
       <use xlink:href="#SimHei-6b21" transform="translate(700 0)"/>
       <use xlink:href="#SimHei-9879" transform="translate(800 0)"/>
       <use xlink:href="#SimHei-29" transform="translate(900 0)"/>
      </g>
     </g>
    </g>
    <g id="xtick_2">
     <g id="line2d_2">
      <g>
       <use xlink:href="#m45fbf8b09d" x="601.740861" y="390.1975" style="stroke: #000000; stroke-width: 0.8"/>
      </g>
     </g>
     <g id="text_2">
      <!-- 方法二 (线性化二次项) -->
      <g transform="translate(549.240861 405.361562) scale(0.1 -0.1)">
       <defs>
        <path id="SimHei-7ebf" d="M 3450 4300 
Q 3450 4675 3375 5125 
Q 3700 5100 4050 5050 
Q 3975 4900 3950 4562 
Q 3925 4225 3950 3600 
L 4800 3750 
Q 5225 3850 5650 3975 
L 5750 3500 
Q 5325 3450 4875 3375 
L 3975 3200 
Q 3975 2800 4025 2500 
L 5000 2675 
Q 5500 2775 5950 2925 
L 6025 2450 
Q 5575 2375 5075 2275 
L 4100 2100 
Q 4150 1600 4350 1175 
Q 4575 1350 4787 1575 
Q 5000 1800 5175 2075 
Q 5550 1775 5750 1675 
Q 5425 1525 5237 1337 
Q 5050 1150 4625 750 
Q 4925 250 5162 112 
Q 5400 -25 5500 100 
Q 5600 225 5675 625 
Q 5900 450 6200 350 
Q 5775 -750 5275 -537 
Q 4775 -325 4225 450 
Q 3875 175 3537 -62 
Q 3200 -300 2700 -550 
Q 2575 -300 2325 -100 
Q 2825 75 3175 275 
Q 3525 475 3975 850 
Q 3750 1350 3650 2025 
Q 2900 1900 2600 1800 
L 2525 2275 
Q 2825 2275 3550 2425 
Q 3500 2825 3500 3100 
Q 2825 2950 2575 2875 
L 2475 3350 
Q 2725 3350 3450 3500 
L 3450 4300 
z
M 1950 4875 
Q 1700 4650 1462 4237 
Q 1225 3825 825 3225 
Q 1425 3250 1650 3250 
Q 1875 3625 2050 4075 
Q 2300 3900 2600 3800 
Q 2350 3550 2087 3125 
Q 1825 2700 1175 1675 
Q 1850 1725 2375 1775 
Q 2300 1525 2300 1350 
Q 2125 1350 1525 1287 
Q 925 1225 550 1125 
Q 525 1375 400 1650 
Q 700 1725 950 2050 
Q 1200 2375 1475 2875 
Q 650 2825 425 2675 
Q 350 2950 200 3225 
Q 525 3450 825 3962 
Q 1125 4475 1375 5150 
Q 1625 4975 1950 4875 
z
M 2575 875 
Q 2550 600 2575 450 
Q 1950 325 1450 200 
Q 950 75 525 -75 
Q 450 200 250 475 
Q 950 550 1325 612 
Q 1700 675 2575 875 
z
M 4850 4025 
Q 4675 4300 4375 4675 
L 4775 4875 
Q 4875 4750 5275 4275 
Q 5025 4175 4850 4025 
z
" transform="scale(0.015625)"/>
        <path id="SimHei-6027" d="M 3450 4525 
Q 3325 4075 3275 3750 
L 4050 3750 
L 4050 4275 
Q 4050 4700 4025 5100 
L 4550 5100 
Q 4525 4700 4525 4275 
L 4525 3750 
L 5025 3750 
Q 5350 3750 5800 3775 
L 5800 3300 
Q 5350 3325 5025 3325 
L 4525 3325 
L 4525 2000 
L 4975 2000 
Q 5350 2000 5725 2025 
L 5725 1550 
Q 5350 1575 4975 1575 
L 4525 1575 
L 4525 25 
L 5200 25 
Q 5625 25 6025 50 
L 6025 -400 
Q 5625 -375 5200 -375 
L 3275 -375 
Q 2825 -375 2400 -400 
L 2400 50 
Q 2825 25 3250 25 
L 4050 25 
L 4050 1575 
L 3625 1575 
Q 3300 1575 2875 1550 
L 2875 2025 
Q 3200 2000 3625 2000 
L 4050 2000 
L 4050 3325 
L 3175 3325 
Q 3100 2950 2775 2225 
Q 2500 2375 2325 2400 
Q 2675 3125 2775 3650 
Q 2875 4175 2950 4650 
Q 3200 4575 3450 4525 
z
M 1700 5150 
Q 1675 4650 1675 4175 
L 1675 425 
Q 1675 -100 1700 -625 
L 1175 -625 
Q 1200 -100 1200 425 
L 1200 4175 
Q 1200 4700 1175 5150 
L 1700 5150 
z
M 975 3725 
Q 825 2675 700 2150 
Q 450 2200 250 2250 
Q 425 2900 525 3800 
Q 725 3775 975 3725 
z
M 2125 4025 
Q 2325 3625 2525 3000 
Q 2300 2925 2125 2825 
Q 1950 3375 1750 3850 
Q 1950 3950 2125 4025 
z
" transform="scale(0.015625)"/>
        <path id="SimHei-5316" d="M 3925 5025 
Q 3900 4900 3900 4400 
L 3900 2625 
Q 4375 3025 4775 3450 
Q 5175 3875 5400 4300 
Q 5600 4100 5900 3925 
Q 5700 3700 5225 3212 
Q 4750 2725 4487 2512 
Q 4225 2300 3900 2025 
L 3900 450 
Q 3900 50 4225 50 
L 5200 50 
Q 5400 75 5462 262 
Q 5525 450 5575 850 
Q 5800 650 6150 600 
Q 6000 -100 5825 -250 
Q 5650 -400 5350 -400 
L 3950 -400 
Q 3425 -400 3400 200 
L 3400 1675 
Q 3225 1525 2962 1350 
Q 2700 1175 2375 975 
Q 2225 1225 2025 1400 
Q 2350 1550 2737 1787 
Q 3125 2025 3400 2250 
L 3400 4500 
Q 3400 4800 3375 5025 
L 3925 5025 
z
M 2400 4850 
Q 2175 4550 2075 4337 
Q 1975 4125 1825 3775 
L 1825 675 
Q 1825 -75 1850 -550 
L 1325 -550 
Q 1350 -125 1350 650 
L 1350 3050 
Q 1125 2725 962 2525 
Q 800 2325 675 2175 
Q 500 2375 275 2525 
Q 625 2850 875 3212 
Q 1125 3575 1312 3912 
Q 1500 4250 1625 4575 
Q 1750 4900 1825 5100 
Q 1975 4975 2400 4850 
z
" transform="scale(0.015625)"/>
       </defs>
       <use xlink:href="#SimHei-65b9"/>
       <use xlink:href="#SimHei-6cd5" transform="translate(100 0)"/>
       <use xlink:href="#SimHei-4e8c" transform="translate(200 0)"/>
       <use xlink:href="#SimHei-20" transform="translate(300 0)"/>
       <use xlink:href="#SimHei-28" transform="translate(350 0)"/>
       <use xlink:href="#SimHei-7ebf" transform="translate(400 0)"/>
       <use xlink:href="#SimHei-6027" transform="translate(500 0)"/>
       <use xlink:href="#SimHei-5316" transform="translate(600 0)"/>
       <use xlink:href="#SimHei-4e8c" transform="translate(700 0)"/>
       <use xlink:href="#SimHei-6b21" transform="translate(800 0)"/>
       <use xlink:href="#SimHei-9879" transform="translate(900 0)"/>
       <use xlink:href="#SimHei-29" transform="translate(1000 0)"/>
      </g>
     </g>
    </g>
    <g id="text_3">
     <!-- 优化方法 -->
     <g transform="translate(360.175625 418.6975) scale(0.1 -0.1)">
      <defs>
       <path id="SimHei-4f18" d="M 4650 350 
Q 4625 100 4825 50 
Q 5025 0 5200 12 
Q 5375 25 5462 125 
Q 5550 225 5650 800 
Q 5825 625 6200 525 
Q 6050 -25 5912 -200 
Q 5775 -375 5475 -400 
L 4700 -400 
Q 4175 -400 4175 200 
L 4175 3050 
L 3850 3050 
Q 3725 600 2375 -550 
Q 2200 -325 1875 -225 
Q 3175 675 3350 3050 
L 2900 3050 
Q 2350 3050 1975 3025 
L 1975 3475 
Q 2350 3450 2900 3450 
L 3375 3450 
Q 3375 4700 3350 5150 
Q 3525 5100 3925 5075 
Q 3850 4700 3850 3450 
L 5200 3450 
Q 5475 3450 5925 3475 
L 5925 3025 
Q 5500 3050 5225 3050 
L 4650 3050 
L 4650 350 
z
M 200 2375 
Q 525 2700 1000 3612 
Q 1475 4525 1600 5200 
Q 1850 5050 2225 4925 
Q 2000 4700 1700 3825 
L 1700 600 
Q 1700 -150 1725 -525 
L 1200 -525 
Q 1225 -175 1225 575 
L 1225 2975 
Q 900 2425 550 1975 
Q 425 2200 200 2375 
z
M 4850 5025 
Q 5000 4800 5150 4587 
Q 5300 4375 5450 4200 
Q 5250 4075 5025 3875 
Q 4875 4175 4450 4725 
Q 4625 4850 4850 5025 
z
" transform="scale(0.015625)"/>
      </defs>
      <use xlink:href="#SimHei-4f18"/>
      <use xlink:href="#SimHei-5316" transform="translate(100 0)"/>
      <use xlink:href="#SimHei-65b9" transform="translate(200 0)"/>
      <use xlink:href="#SimHei-6cd5" transform="translate(300 0)"/>
     </g>
    </g>
   </g>
   <g id="matplotlib.axis_2">
    <g id="ytick_1">
     <g id="line2d_3">
      <path d="M 51.15125 390.1975 
L 709.2 390.1975 
" clip-path="url(#pdfe6637e06)" style="fill: none; stroke-dasharray: 2.96,1.28; stroke-dashoffset: 0; stroke: #b0b0b0; stroke-opacity: 0.7; stroke-width: 0.8"/>
     </g>
     <g id="line2d_4">
      <defs>
       <path id="ma221bf6c1d" d="M 0 0 
L -3.5 0 
" style="stroke: #000000; stroke-width: 0.8"/>
      </defs>
      <g>
       <use xlink:href="#ma221bf6c1d" x="51.15125" y="390.1975" style="stroke: #000000; stroke-width: 0.8"/>
      </g>
     </g>
     <g id="text_4">
      <!-- 0 -->
      <g transform="translate(39.15125 393.635) scale(0.1 -0.1)">
       <defs>
        <path id="SimHei-30" d="M 225 2537 
Q 250 3200 412 3587 
Q 575 3975 875 4225 
Q 1175 4475 1612 4475 
Q 2050 4475 2375 4112 
Q 2700 3750 2800 3200 
Q 2900 2650 2862 1937 
Q 2825 1225 2612 775 
Q 2400 325 1975 150 
Q 1550 -25 1125 187 
Q 700 400 525 750 
Q 350 1100 275 1487 
Q 200 1875 225 2537 
z
M 750 2687 
Q 675 2000 800 1462 
Q 925 925 1212 700 
Q 1500 475 1800 612 
Q 2100 750 2237 1162 
Q 2375 1575 2375 2062 
Q 2375 2550 2337 2950 
Q 2300 3350 2112 3675 
Q 1925 4000 1612 4012 
Q 1300 4025 1062 3700 
Q 825 3375 750 2687 
z
" transform="scale(0.015625)"/>
       </defs>
       <use xlink:href="#SimHei-30"/>
      </g>
     </g>
    </g>
    <g id="ytick_2">
     <g id="line2d_5">
      <path d="M 51.15125 326.873542 
L 709.2 326.873542 
" clip-path="url(#pdfe6637e06)" style="fill: none; stroke-dasharray: 2.96,1.28; stroke-dashoffset: 0; stroke: #b0b0b0; stroke-opacity: 0.7; stroke-width: 0.8"/>
     </g>
     <g id="line2d_6">
      <g>
       <use xlink:href="#ma221bf6c1d" x="51.15125" y="326.873542" style="stroke: #000000; stroke-width: 0.8"/>
      </g>
     </g>
     <g id="text_5">
      <!-- 500 -->
      <g transform="translate(29.15125 330.311042) scale(0.1 -0.1)">
       <defs>
        <path id="SimHei-35" d="M 550 1325 
Q 725 650 1150 575 
Q 1575 500 1837 662 
Q 2100 825 2212 1087 
Q 2325 1350 2312 1675 
Q 2300 2000 2137 2225 
Q 1975 2450 1725 2525 
Q 1475 2600 1162 2525 
Q 850 2450 650 2175 
L 225 2225 
Q 275 2375 700 4375 
L 2675 4375 
L 2675 3925 
L 1075 3925 
Q 950 3250 825 2850 
Q 1200 3025 1525 3012 
Q 1850 3000 2150 2862 
Q 2450 2725 2587 2487 
Q 2725 2250 2787 2012 
Q 2850 1775 2837 1500 
Q 2825 1225 2725 937 
Q 2625 650 2425 462 
Q 2225 275 1937 162 
Q 1650 50 1275 75 
Q 900 100 562 350 
Q 225 600 100 1200 
L 550 1325 
z
" transform="scale(0.015625)"/>
       </defs>
       <use xlink:href="#SimHei-35"/>
       <use xlink:href="#SimHei-30" transform="translate(50 0)"/>
       <use xlink:href="#SimHei-30" transform="translate(100 0)"/>
      </g>
     </g>
    </g>
    <g id="ytick_3">
     <g id="line2d_7">
      <path d="M 51.15125 263.549584 
L 709.2 263.549584 
" clip-path="url(#pdfe6637e06)" style="fill: none; stroke-dasharray: 2.96,1.28; stroke-dashoffset: 0; stroke: #b0b0b0; stroke-opacity: 0.7; stroke-width: 0.8"/>
     </g>
     <g id="line2d_8">
      <g>
       <use xlink:href="#ma221bf6c1d" x="51.15125" y="263.549584" style="stroke: #000000; stroke-width: 0.8"/>
      </g>
     </g>
     <g id="text_6">
      <!-- 1000 -->
      <g transform="translate(24.15125 266.987084) scale(0.1 -0.1)">
       <defs>
        <path id="SimHei-31" d="M 1400 3600 
Q 1075 3275 575 2975 
L 575 3450 
Q 1200 3875 1600 4450 
L 1900 4450 
L 1900 150 
L 1400 150 
L 1400 3600 
z
" transform="scale(0.015625)"/>
       </defs>
       <use xlink:href="#SimHei-31"/>
       <use xlink:href="#SimHei-30" transform="translate(50 0)"/>
       <use xlink:href="#SimHei-30" transform="translate(100 0)"/>
       <use xlink:href="#SimHei-30" transform="translate(150 0)"/>
      </g>
     </g>
    </g>
    <g id="ytick_4">
     <g id="line2d_9">
      <path d="M 51.15125 200.225627 
L 709.2 200.225627 
" clip-path="url(#pdfe6637e06)" style="fill: none; stroke-dasharray: 2.96,1.28; stroke-dashoffset: 0; stroke: #b0b0b0; stroke-opacity: 0.7; stroke-width: 0.8"/>
     </g>
     <g id="line2d_10">
      <g>
       <use xlink:href="#ma221bf6c1d" x="51.15125" y="200.225627" style="stroke: #000000; stroke-width: 0.8"/>
      </g>
     </g>
     <g id="text_7">
      <!-- 1500 -->
      <g transform="translate(24.15125 203.663127) scale(0.1 -0.1)">
       <use xlink:href="#SimHei-31"/>
       <use xlink:href="#SimHei-35" transform="translate(50 0)"/>
       <use xlink:href="#SimHei-30" transform="translate(100 0)"/>
       <use xlink:href="#SimHei-30" transform="translate(150 0)"/>
      </g>
     </g>
    </g>
    <g id="ytick_5">
     <g id="line2d_11">
      <path d="M 51.15125 136.901669 
L 709.2 136.901669 
" clip-path="url(#pdfe6637e06)" style="fill: none; stroke-dasharray: 2.96,1.28; stroke-dashoffset: 0; stroke: #b0b0b0; stroke-opacity: 0.7; stroke-width: 0.8"/>
     </g>
     <g id="line2d_12">
      <g>
       <use xlink:href="#ma221bf6c1d" x="51.15125" y="136.901669" style="stroke: #000000; stroke-width: 0.8"/>
      </g>
     </g>
     <g id="text_8">
      <!-- 2000 -->
      <g transform="translate(24.15125 140.339169) scale(0.1 -0.1)">
       <defs>
        <path id="SimHei-32" d="M 300 250 
Q 325 625 650 925 
Q 975 1225 1475 1862 
Q 1975 2500 2125 2850 
Q 2275 3200 2237 3450 
Q 2200 3700 2000 3862 
Q 1800 4025 1537 4000 
Q 1275 3975 1037 3800 
Q 800 3625 675 3275 
L 200 3350 
Q 400 3925 712 4187 
Q 1025 4450 1450 4475 
Q 1700 4500 1900 4462 
Q 2100 4425 2312 4287 
Q 2525 4150 2662 3875 
Q 2800 3600 2762 3212 
Q 2725 2825 2375 2287 
Q 2025 1750 1025 600 
L 2825 600 
L 2825 150 
L 300 150 
L 300 250 
z
" transform="scale(0.015625)"/>
       </defs>
       <use xlink:href="#SimHei-32"/>
       <use xlink:href="#SimHei-30" transform="translate(50 0)"/>
       <use xlink:href="#SimHei-30" transform="translate(100 0)"/>
       <use xlink:href="#SimHei-30" transform="translate(150 0)"/>
      </g>
     </g>
    </g>
    <g id="ytick_6">
     <g id="line2d_13">
      <path d="M 51.15125 73.577711 
L 709.2 73.577711 
" clip-path="url(#pdfe6637e06)" style="fill: none; stroke-dasharray: 2.96,1.28; stroke-dashoffset: 0; stroke: #b0b0b0; stroke-opacity: 0.7; stroke-width: 0.8"/>
     </g>
     <g id="line2d_14">
      <g>
       <use xlink:href="#ma221bf6c1d" x="51.15125" y="73.577711" style="stroke: #000000; stroke-width: 0.8"/>
      </g>
     </g>
     <g id="text_9">
      <!-- 2500 -->
      <g transform="translate(24.15125 77.015211) scale(0.1 -0.1)">
       <use xlink:href="#SimHei-32"/>
       <use xlink:href="#SimHei-35" transform="translate(50 0)"/>
       <use xlink:href="#SimHei-30" transform="translate(100 0)"/>
       <use xlink:href="#SimHei-30" transform="translate(150 0)"/>
      </g>
     </g>
    </g>
    <g id="text_10">
     <!-- 成本 -->
     <g transform="translate(18.90125 218.679375) rotate(-90) scale(0.1 -0.1)">
      <defs>
       <path id="SimHei-6210" d="M 3500 4000 
Q 3475 4725 3450 5225 
Q 3750 5200 4025 5175 
Q 3975 4850 4000 4000 
L 4725 4000 
Q 5250 4000 5875 4025 
L 5875 3550 
Q 5225 3575 4725 3575 
L 4025 3575 
Q 4050 2625 4350 1500 
Q 4825 2225 5100 3175 
Q 5350 2975 5675 2825 
Q 5475 2600 5225 2075 
Q 4975 1550 4575 975 
Q 4800 525 5062 262 
Q 5325 0 5425 37 
Q 5525 75 5625 900 
Q 5875 700 6150 600 
Q 5975 -425 5762 -537 
Q 5550 -650 5250 -537 
Q 4950 -425 4687 -112 
Q 4425 200 4250 575 
Q 3650 -75 2725 -650 
Q 2600 -425 2350 -250 
Q 2850 -25 3312 350 
Q 3775 725 4000 1050 
Q 3825 1525 3700 2212 
Q 3575 2900 3550 3575 
L 1400 3575 
L 1400 2700 
L 3025 2700 
Q 2975 2250 2950 1775 
L 2875 775 
Q 2850 300 2612 200 
Q 2375 100 1800 50 
Q 1775 275 1600 600 
Q 2225 575 2325 675 
Q 2425 775 2450 1250 
L 2500 2250 
L 1400 2250 
Q 1400 1275 1250 625 
Q 1100 -25 700 -575 
Q 425 -375 200 -300 
Q 525 100 650 462 
Q 775 825 837 1250 
Q 900 1675 912 2450 
Q 925 3225 900 4000 
L 3500 4000 
z
M 4750 5225 
Q 5250 4825 5625 4425 
Q 5400 4250 5225 4075 
Q 4925 4475 4425 4900 
Q 4600 5050 4750 5225 
z
" transform="scale(0.015625)"/>
       <path id="SimHei-672c" d="M 2950 3925 
L 2950 4425 
Q 2950 4825 2925 5175 
L 3475 5175 
Q 3450 4900 3450 4450 
L 3450 3925 
L 4850 3925 
Q 5275 3925 5850 3950 
L 5850 3475 
Q 5300 3500 4875 3500 
L 3850 3500 
Q 4200 2350 4862 1687 
Q 5525 1025 6075 800 
Q 5850 625 5650 325 
Q 4800 900 4262 1637 
Q 3725 2375 3450 3350 
L 3450 1000 
L 3775 1000 
Q 4175 1000 4600 1025 
L 4600 550 
Q 4175 575 3750 575 
L 3450 575 
Q 3450 0 3475 -600 
L 2925 -600 
Q 2950 0 2950 575 
L 2625 575 
Q 2225 575 1825 550 
L 1825 1025 
Q 2225 1000 2625 1000 
L 2950 1000 
L 2950 3300 
Q 2550 2275 2062 1575 
Q 1575 875 750 175 
Q 550 450 275 575 
Q 1100 1075 1650 1825 
Q 2200 2575 2525 3500 
L 1425 3500 
Q 1025 3500 575 3475 
L 575 3950 
Q 1025 3925 1400 3925 
L 2950 3925 
z
" transform="scale(0.015625)"/>
      </defs>
      <use xlink:href="#SimHei-6210"/>
      <use xlink:href="#SimHei-672c" transform="translate(100 0)"/>
     </g>
    </g>
   </g>
   <g id="patch_7">
    <path d="M 51.15125 390.1975 
L 51.15125 27.16125 
" style="fill: none; stroke: #000000; stroke-width: 0.8; stroke-linejoin: miter; stroke-linecap: square"/>
   </g>
   <g id="patch_8">
    <path d="M 709.2 390.1975 
L 709.2 27.16125 
" style="fill: none; stroke: #000000; stroke-width: 0.8; stroke-linejoin: miter; stroke-linecap: square"/>
   </g>
   <g id="patch_9">
    <path d="M 51.15125 390.1975 
L 709.2 390.1975 
" style="fill: none; stroke: #000000; stroke-width: 0.8; stroke-linejoin: miter; stroke-linecap: square"/>
   </g>
   <g id="patch_10">
    <path d="M 51.15125 27.16125 
L 709.2 27.16125 
" style="fill: none; stroke: #000000; stroke-width: 0.8; stroke-linejoin: miter; stroke-linecap: square"/>
   </g>
   <g id="text_11">
    <!-- 总成本: 2730.00 -->
    <g transform="translate(121.110389 41.932211) scale(0.1 -0.1)">
     <defs>
      <path id="SimHei-603b" d="M 4550 4850 
Q 4375 4650 4025 3900 
L 5100 3900 
Q 5075 3425 5075 2950 
Q 5075 2500 5100 2025 
L 1175 2025 
Q 1200 2550 1200 3000 
Q 1200 3475 1175 3900 
L 2175 3900 
Q 1900 4350 1525 4750 
Q 1700 4850 1875 5050 
Q 2350 4550 2575 4200 
Q 2400 4075 2250 3900 
L 3550 3900 
Q 3875 4700 3950 5100 
Q 4300 4925 4550 4850 
z
M 4600 2450 
L 4600 3525 
L 1650 3525 
L 1650 2450 
L 4600 2450 
z
M 2275 1450 
Q 2250 1050 2250 675 
Q 2250 300 2262 112 
Q 2275 -75 2675 -75 
L 4000 -75 
Q 4325 -75 4400 550 
Q 4650 400 4925 325 
Q 4775 -200 4562 -337 
Q 4350 -475 4000 -450 
L 2325 -450 
Q 1850 -450 1825 -175 
Q 1800 100 1800 525 
Q 1800 975 1775 1450 
L 2275 1450 
z
M 1350 1325 
Q 1050 300 825 -250 
Q 625 -150 375 -50 
Q 675 525 900 1500 
Q 1100 1425 1350 1325 
z
M 4950 1575 
Q 5700 825 6000 450 
Q 5825 275 5625 100 
Q 5375 450 4600 1275 
Q 4750 1375 4950 1575 
z
M 3350 575 
Q 2975 1175 2675 1500 
Q 2825 1650 3000 1800 
Q 3225 1575 3750 875 
Q 3525 775 3350 575 
z
" transform="scale(0.015625)"/>
      <path id="SimHei-3a" d="M 1825 2425 
L 1250 2425 
L 1250 2975 
L 1825 2975 
L 1825 2425 
z
M 1825 125 
L 1250 125 
L 1250 675 
L 1825 675 
L 1825 125 
z
" transform="scale(0.015625)"/>
      <path id="SimHei-37" d="M 850 150 
Q 1300 2050 2425 3925 
L 275 3925 
L 275 4375 
L 2950 4375 
L 2950 3950 
Q 1775 2050 1400 150 
L 850 150 
z
" transform="scale(0.015625)"/>
      <path id="SimHei-33" d="M 250 1225 
L 700 1300 
Q 800 975 1025 762 
Q 1250 550 1587 562 
Q 1925 575 2125 837 
Q 2325 1100 2300 1437 
Q 2275 1775 2037 1962 
Q 1800 2150 1275 2225 
L 1275 2550 
Q 1800 2600 2037 2825 
Q 2275 3050 2250 3412 
Q 2225 3775 1925 3937 
Q 1625 4100 1287 3975 
Q 950 3850 750 3275 
L 300 3350 
Q 450 3800 712 4100 
Q 975 4400 1425 4450 
Q 1875 4500 2212 4337 
Q 2550 4175 2687 3837 
Q 2825 3500 2725 3100 
Q 2625 2700 2150 2400 
Q 2500 2250 2687 1950 
Q 2875 1650 2812 1162 
Q 2750 675 2375 375 
Q 2000 75 1525 87 
Q 1050 100 700 387 
Q 350 675 250 1225 
z
" transform="scale(0.015625)"/>
      <path id="SimHei-2e" d="M 1075 125 
L 500 125 
L 500 675 
L 1075 675 
L 1075 125 
z
" transform="scale(0.015625)"/>
     </defs>
     <use xlink:href="#SimHei-603b"/>
     <use xlink:href="#SimHei-6210" transform="translate(100 0)"/>
     <use xlink:href="#SimHei-672c" transform="translate(200 0)"/>
     <use xlink:href="#SimHei-3a" transform="translate(300 0)"/>
     <use xlink:href="#SimHei-20" transform="translate(350 0)"/>
     <use xlink:href="#SimHei-32" transform="translate(400 0)"/>
     <use xlink:href="#SimHei-37" transform="translate(450 0)"/>
     <use xlink:href="#SimHei-33" transform="translate(500 0)"/>
     <use xlink:href="#SimHei-30" transform="translate(550 0)"/>
     <use xlink:href="#SimHei-2e" transform="translate(600 0)"/>
     <use xlink:href="#SimHei-30" transform="translate(650 0)"/>
     <use xlink:href="#SimHei-30" transform="translate(700 0)"/>
    </g>
   </g>
   <g id="text_12">
    <!-- 总成本: 1221.00 -->
    <g transform="translate(564.240861 233.043916) scale(0.1 -0.1)">
     <use xlink:href="#SimHei-603b"/>
     <use xlink:href="#SimHei-6210" transform="translate(100 0)"/>
     <use xlink:href="#SimHei-672c" transform="translate(200 0)"/>
     <use xlink:href="#SimHei-3a" transform="translate(300 0)"/>
     <use xlink:href="#SimHei-20" transform="translate(350 0)"/>
     <use xlink:href="#SimHei-31" transform="translate(400 0)"/>
     <use xlink:href="#SimHei-32" transform="translate(450 0)"/>
     <use xlink:href="#SimHei-32" transform="translate(500 0)"/>
     <use xlink:href="#SimHei-31" transform="translate(550 0)"/>
     <use xlink:href="#SimHei-2e" transform="translate(600 0)"/>
     <use xlink:href="#SimHei-30" transform="translate(650 0)"/>
     <use xlink:href="#SimHei-30" transform="translate(700 0)"/>
    </g>
   </g>
   <g id="text_13">
    <!-- 两种确定性优化方法的成本构成对比 -->
    <g transform="translate(284.175625 21.16125) scale(0.12 -0.12)">
     <defs>
      <path id="SimHei-4e24" d="M 1700 825 
Q 1575 975 1325 1175 
Q 2025 1850 2250 3075 
L 1175 3075 
L 1175 -500 
L 675 -500 
Q 700 175 700 675 
L 700 2650 
Q 700 2975 675 3500 
L 2300 3500 
Q 2325 3925 2350 4475 
L 1125 4475 
Q 825 4475 525 4450 
L 525 4900 
Q 825 4875 1100 4875 
L 5250 4875 
Q 5500 4875 5975 4900 
L 5975 4450 
Q 5625 4475 5275 4475 
L 4300 4475 
Q 4300 4100 4250 3500 
L 5750 3500 
Q 5725 3050 5725 2725 
L 5725 250 
Q 5725 -175 5462 -300 
Q 5200 -425 4475 -500 
Q 4400 -150 4225 75 
Q 4975 50 5112 125 
Q 5250 200 5250 500 
L 5250 3075 
L 4200 3075 
Q 4150 2650 4050 2275 
Q 4750 1725 5125 1400 
Q 4900 1200 4750 1000 
Q 4500 1325 3950 1800 
Q 3625 1000 3250 475 
Q 3000 650 2775 725 
Q 3075 1050 3350 1637 
Q 3625 2225 3725 3075 
L 2725 3075 
Q 2650 2700 2575 2425 
Q 3075 2000 3275 1750 
Q 3100 1600 2900 1400 
Q 2625 1800 2425 2000 
Q 2150 1350 1700 825 
z
M 3775 3500 
Q 3800 4100 3800 4475 
L 2825 4475 
Q 2825 4100 2775 3500 
L 3775 3500 
z
" transform="scale(0.015625)"/>
      <path id="SimHei-79cd" d="M 4225 4000 
Q 4225 4975 4200 5275 
L 4725 5275 
Q 4700 5000 4700 4000 
L 6000 4000 
Q 5975 3725 5975 3250 
L 5975 1550 
Q 5975 1275 6000 925 
L 5500 925 
L 5500 1425 
L 4700 1425 
L 4700 375 
Q 4700 -275 4725 -700 
L 4200 -700 
Q 4225 -275 4225 375 
L 4225 1425 
L 3425 1425 
L 3425 825 
L 2925 825 
Q 2950 1125 2950 1500 
L 2950 3200 
Q 2950 3725 2925 4000 
L 4225 4000 
z
M 350 3250 
Q 725 3225 1225 3225 
L 1425 3225 
L 1425 4325 
Q 1175 4250 575 4125 
Q 475 4350 350 4575 
Q 900 4600 1412 4737 
Q 1925 4875 2350 5100 
Q 2500 4900 2725 4625 
Q 2475 4600 2300 4550 
Q 2125 4500 1900 4450 
L 1900 3225 
Q 2225 3225 2700 3250 
L 2700 2800 
Q 2225 2825 1900 2825 
L 1900 225 
Q 1900 -125 1925 -650 
L 1400 -650 
Q 1425 -125 1425 225 
L 1425 1875 
Q 1225 1375 1062 1075 
Q 900 775 625 350 
Q 425 625 250 850 
Q 600 1225 887 1725 
Q 1175 2225 1300 2825 
L 925 2825 
Q 575 2825 350 2800 
L 350 3250 
z
M 4225 1825 
L 4225 3600 
L 3425 3600 
L 3425 1825 
L 4225 1825 
z
M 5500 1825 
L 5500 3600 
L 4700 3600 
L 4700 1825 
L 5500 1825 
z
M 2375 2475 
Q 2450 2300 2575 2125 
Q 2700 1950 2850 1625 
Q 2625 1525 2425 1375 
Q 2300 1650 2212 1837 
Q 2125 2025 1975 2225 
Q 2125 2325 2375 2475 
z
" transform="scale(0.015625)"/>
      <path id="SimHei-786e" d="M 4975 -200 
Q 5250 -175 5362 -125 
Q 5475 -75 5475 125 
L 5475 975 
L 4625 975 
L 4625 -400 
L 4200 -400 
L 4200 975 
L 3500 975 
Q 3475 625 3325 237 
Q 3175 -150 2800 -600 
Q 2625 -350 2325 -325 
Q 2650 -50 2812 262 
Q 2975 575 3025 1000 
Q 3075 1425 3087 2187 
Q 3100 2950 3075 3425 
L 4250 3425 
Q 4475 3825 4650 4225 
L 3625 4225 
Q 3325 3875 2850 3250 
Q 2650 3425 2425 3500 
Q 2875 3975 3175 4425 
Q 3475 4875 3625 5300 
Q 3900 5175 4200 5100 
Q 4075 5025 3825 4575 
L 5350 4575 
Q 4900 3775 4750 3425 
L 5950 3425 
Q 5925 2975 5925 2450 
L 5925 -50 
Q 5950 -350 5775 -462 
Q 5600 -575 5175 -675 
Q 5150 -425 4975 -200 
z
M 200 1975 
Q 550 2300 850 2837 
Q 1150 3375 1300 4225 
Q 825 4225 525 4200 
L 525 4650 
Q 875 4625 1200 4625 
L 1900 4625 
Q 2325 4625 2625 4650 
L 2625 4200 
Q 2325 4225 1800 4225 
Q 1650 3525 1400 2925 
L 2525 2925 
Q 2500 2500 2500 2125 
L 2500 1075 
Q 2500 650 2525 125 
L 2075 125 
L 2075 600 
L 1350 600 
L 1350 -300 
L 900 -300 
Q 925 225 925 600 
L 925 2100 
Q 800 1900 625 1625 
Q 475 1825 200 1975 
z
M 2075 975 
L 2075 2575 
L 1350 2575 
L 1350 975 
L 2075 975 
z
M 5475 2350 
L 5475 3075 
L 4625 3075 
L 4625 2350 
L 5475 2350 
z
M 5475 1325 
L 5475 2000 
L 4625 2000 
L 4625 1325 
L 5475 1325 
z
M 4200 2350 
L 4200 3075 
L 3500 3075 
L 3500 2350 
L 4200 2350 
z
M 4200 1325 
L 4200 2000 
L 3500 2000 
L 3500 1325 
L 4200 1325 
z
" transform="scale(0.015625)"/>
      <path id="SimHei-5b9a" d="M 4200 3125 
Q 4675 3125 5175 3150 
L 5175 2675 
Q 4725 2700 4100 2700 
L 3550 2700 
L 3550 1700 
L 4600 1700 
Q 4875 1700 5375 1725 
L 5375 1250 
Q 4875 1275 4575 1275 
L 3550 1275 
L 3550 100 
Q 4600 -25 6050 125 
Q 5850 -200 5800 -475 
Q 4800 -475 4150 -450 
Q 3500 -425 3050 -300 
Q 2600 -175 2250 75 
Q 1900 325 1600 675 
Q 1200 -50 675 -575 
Q 450 -350 175 -250 
Q 875 300 1200 1050 
Q 1525 1800 1550 2200 
Q 1800 2050 2150 1975 
Q 2075 1875 1987 1662 
Q 1900 1450 1775 1125 
Q 1950 900 2300 612 
Q 2650 325 3050 200 
L 3050 2700 
L 2250 2700 
Q 1825 2700 1400 2675 
L 1400 3150 
Q 1825 3125 2400 3125 
L 4200 3125 
z
M 5750 4275 
Q 5725 3925 5725 3750 
Q 5725 3575 5750 3275 
L 5225 3275 
L 5225 3875 
L 1225 3875 
L 1225 3275 
L 700 3275 
Q 725 3475 725 3725 
Q 725 3975 700 4275 
L 5750 4275 
z
M 2650 5050 
Q 2875 5125 3100 5300 
Q 3375 4975 3600 4550 
Q 3250 4400 3100 4300 
Q 3050 4525 2650 5050 
z
" transform="scale(0.015625)"/>
      <path id="SimHei-7684" d="M 2100 4975 
Q 1975 4750 1750 3950 
L 2875 3950 
Q 2850 3525 2850 2875 
L 2850 675 
Q 2850 300 2875 -400 
L 2375 -400 
L 2375 100 
L 1100 100 
L 1100 -450 
L 600 -450 
Q 625 350 625 550 
L 625 2850 
Q 625 3525 600 3950 
L 1325 3950 
Q 1450 4525 1525 5150 
Q 1875 5025 2100 4975 
z
M 5825 3075 
Q 5800 1550 5700 175 
Q 5650 -275 5225 -425 
Q 4800 -575 4275 -625 
Q 4250 -350 4050 -50 
Q 4550 -75 4837 -25 
Q 5125 25 5200 200 
Q 5275 375 5312 1225 
Q 5350 2075 5375 3600 
L 3925 3600 
Q 3725 3125 3350 2475 
Q 3175 2650 2925 2750 
Q 3150 3050 3350 3475 
Q 3550 3900 3700 4400 
Q 3850 4900 3875 5175 
Q 4225 5025 4475 4950 
Q 4350 4750 4262 4512 
Q 4175 4275 4075 4050 
L 5850 4050 
Q 5825 3525 5825 3075 
z
M 2375 525 
L 2375 1850 
L 1100 1850 
L 1100 525 
L 2375 525 
z
M 2375 2275 
L 2375 3525 
L 1100 3525 
L 1100 2275 
L 2375 2275 
z
M 4350 2050 
Q 4500 1750 4700 1275 
Q 4525 1200 4225 1025 
Q 4050 1500 3900 1837 
Q 3750 2175 3600 2400 
Q 3775 2500 4050 2650 
L 4350 2050 
z
" transform="scale(0.015625)"/>
      <path id="SimHei-6784" d="M 2250 1625 
Q 2050 2100 1825 2475 
L 1825 575 
Q 1825 50 1850 -500 
L 1325 -500 
Q 1350 75 1350 575 
L 1350 2375 
Q 1075 1750 525 1000 
Q 375 1200 175 1400 
Q 625 1900 912 2512 
Q 1200 3125 1250 3500 
Q 850 3500 475 3475 
L 475 3925 
Q 850 3900 1350 3900 
L 1350 4475 
Q 1350 4850 1325 5150 
L 1850 5150 
Q 1825 4900 1825 4475 
L 1825 3900 
Q 2150 3900 2525 3925 
L 2525 3475 
Q 2150 3500 1825 3500 
L 1825 2525 
Q 2025 2625 2225 2750 
Q 2475 2300 2700 1875 
Q 2475 1775 2250 1625 
z
M 4000 5050 
Q 3875 4875 3762 4625 
Q 3650 4375 3550 4125 
L 6025 4125 
Q 6000 3750 5975 3200 
Q 5975 1675 5875 350 
Q 5775 -200 5462 -337 
Q 5150 -475 4500 -525 
Q 4450 -250 4300 50 
Q 4825 25 5100 75 
Q 5375 125 5425 725 
Q 5525 2125 5500 3700 
L 3375 3700 
Q 3150 3200 2875 2750 
Q 2675 2900 2450 2975 
Q 2825 3525 3075 4150 
Q 3325 4775 3425 5250 
Q 3725 5100 4000 5050 
z
M 4450 1050 
Q 4175 1025 3662 950 
Q 3150 875 2800 725 
Q 2700 1025 2575 1300 
Q 2725 1350 2925 1675 
Q 3125 2000 3250 2337 
Q 3375 2675 3500 3150 
Q 3800 3025 4075 2875 
Q 3925 2725 3637 2162 
Q 3350 1600 3175 1350 
Q 3725 1375 4375 1425 
Q 4275 1775 4125 2175 
L 4625 2325 
Q 4775 1900 4900 1525 
Q 5025 1150 5075 800 
Q 4800 750 4550 650 
Q 4500 875 4450 1050 
z
" transform="scale(0.015625)"/>
      <path id="SimHei-5bf9" d="M 525 4250 
Q 900 4225 1400 4225 
L 2825 4225 
Q 2575 2625 2200 1750 
Q 2825 875 3125 400 
Q 2950 275 2725 75 
Q 2200 975 1950 1300 
Q 1650 775 1350 425 
Q 1050 75 600 -350 
Q 425 -125 200 -25 
Q 625 275 975 675 
Q 1325 1075 1650 1700 
Q 1050 2425 550 2900 
Q 700 3025 900 3225 
Q 1625 2425 1875 2150 
Q 2200 3050 2300 3825 
L 1400 3825 
Q 900 3825 525 3800 
L 525 4250 
z
M 2925 3700 
Q 3525 3675 3750 3675 
L 4825 3675 
L 4825 4425 
Q 4825 4750 4775 5125 
L 5350 5125 
Q 5325 4825 5325 4375 
L 5325 3675 
Q 5575 3675 6150 3700 
L 6150 3250 
Q 5575 3275 5325 3275 
L 5325 125 
Q 5350 -350 5012 -475 
Q 4675 -600 4250 -650 
Q 4175 -350 4025 -100 
Q 4575 -100 4712 -37 
Q 4850 25 4825 325 
L 4825 3275 
L 3775 3275 
Q 3550 3275 2925 3225 
L 2925 3700 
z
M 3450 2725 
Q 3875 1975 4175 1325 
Q 3850 1200 3700 1075 
Q 3475 1750 3050 2475 
Q 3225 2550 3450 2725 
z
" transform="scale(0.015625)"/>
      <path id="SimHei-6bd4" d="M 3775 5100 
Q 3750 4575 3750 4100 
L 3750 3050 
Q 4925 3600 5475 4175 
Q 5675 3900 5900 3675 
Q 5600 3500 5037 3187 
Q 4475 2875 3750 2550 
L 3750 450 
Q 3750 100 4050 100 
L 5000 100 
Q 5175 100 5262 250 
Q 5350 400 5450 900 
Q 5650 775 6025 675 
Q 5850 0 5650 -175 
Q 5450 -350 5225 -350 
L 3900 -350 
Q 3250 -350 3250 275 
L 3250 4000 
Q 3250 4550 3225 5100 
L 3775 5100 
z
M 1275 4975 
Q 1250 4575 1250 4000 
L 1250 3150 
L 1850 3150 
Q 2325 3150 2875 3175 
L 2875 2650 
Q 2325 2675 1850 2675 
L 1250 2675 
L 1250 475 
Q 1650 650 1962 812 
Q 2275 975 2850 1275 
Q 2900 950 2950 750 
Q 2375 475 1762 175 
Q 1150 -125 925 -325 
Q 750 -100 575 200 
Q 700 300 750 600 
L 750 3950 
Q 750 4550 725 4975 
L 1275 4975 
z
" transform="scale(0.015625)"/>
     </defs>
     <use xlink:href="#SimHei-4e24"/>
     <use xlink:href="#SimHei-79cd" transform="translate(100 0)"/>
     <use xlink:href="#SimHei-786e" transform="translate(200 0)"/>
     <use xlink:href="#SimHei-5b9a" transform="translate(300 0)"/>
     <use xlink:href="#SimHei-6027" transform="translate(400 0)"/>
     <use xlink:href="#SimHei-4f18" transform="translate(500 0)"/>
     <use xlink:href="#SimHei-5316" transform="translate(600 0)"/>
     <use xlink:href="#SimHei-65b9" transform="translate(700 0)"/>
     <use xlink:href="#SimHei-6cd5" transform="translate(800 0)"/>
     <use xlink:href="#SimHei-7684" transform="translate(900 0)"/>
     <use xlink:href="#SimHei-6210" transform="translate(1000 0)"/>
     <use xlink:href="#SimHei-672c" transform="translate(1100 0)"/>
     <use xlink:href="#SimHei-6784" transform="translate(1200 0)"/>
     <use xlink:href="#SimHei-6210" transform="translate(1300 0)"/>
     <use xlink:href="#SimHei-5bf9" transform="translate(1400 0)"/>
     <use xlink:href="#SimHei-6bd4" transform="translate(1500 0)"/>
    </g>
   </g>
   <g id="legend_1">
    <g id="patch_11">
     <path d="M 610.2 63.676875 
L 702.2 63.676875 
Q 704.2 63.676875 704.2 61.676875 
L 704.2 34.16125 
Q 704.2 32.16125 702.2 32.16125 
L 610.2 32.16125 
Q 608.2 32.16125 608.2 34.16125 
L 608.2 61.676875 
Q 608.2 63.676875 610.2 63.676875 
z
" style="fill: #ffffff; opacity: 0.8; stroke: #cccccc; stroke-linejoin: miter"/>
    </g>
    <g id="patch_12">
     <path d="M 612.2 44.169062 
L 632.2 44.169062 
L 632.2 37.169062 
L 612.2 37.169062 
z
" style="fill: #1f77b4"/>
    </g>
    <g id="text_14">
     <!-- 失败惩罚成本 -->
     <g transform="translate(640.2 44.169062) scale(0.1 -0.1)">
      <defs>
       <path id="SimHei-5931" d="M 2050 4450 
Q 1925 4325 1675 3750 
L 2950 3750 
Q 2950 4650 2925 5100 
Q 3175 5075 3500 5050 
Q 3450 4700 3437 4425 
Q 3425 4150 3425 3750 
L 4600 3750 
Q 5000 3750 5425 3775 
L 5425 3300 
Q 5025 3325 4600 3325 
L 3425 3325 
Q 3425 2775 3375 2200 
L 5050 2200 
Q 5425 2200 5875 2225 
L 5875 1750 
Q 5425 1775 5050 1775 
L 3575 1775 
Q 3875 1100 4600 675 
Q 5325 250 6025 100 
Q 5825 -150 5675 -475 
Q 4950 -200 4250 287 
Q 3550 775 3200 1475 
Q 2900 825 2325 300 
Q 1750 -225 775 -650 
Q 650 -400 400 -175 
Q 1250 50 1912 587 
Q 2575 1125 2775 1775 
L 1325 1775 
Q 925 1775 450 1750 
L 450 2225 
Q 925 2200 1325 2200 
L 2875 2200 
Q 2950 2725 2950 3325 
L 1500 3325 
Q 1200 2800 975 2450 
Q 775 2575 500 2675 
Q 950 3225 1187 3750 
Q 1425 4275 1500 4675 
Q 1800 4525 2050 4450 
z
" transform="scale(0.015625)"/>
       <path id="SimHei-8d25" d="M 3500 2300 
Q 3325 2500 3125 2575 
Q 3425 2950 3675 3612 
Q 3925 4275 4075 5175 
Q 4425 5025 4625 5000 
Q 4525 4825 4450 4575 
Q 4375 4325 4225 3900 
L 5350 3900 
Q 5825 3900 6100 3925 
L 6100 3500 
Q 5875 3525 5525 3525 
Q 5475 2775 5337 2062 
Q 5200 1350 4850 675 
Q 5025 450 5350 200 
Q 5675 -50 6150 -250 
Q 5975 -375 5800 -650 
Q 5375 -425 5037 -137 
Q 4700 150 4550 350 
Q 4325 100 3975 -162 
Q 3625 -425 3225 -675 
Q 3100 -450 2875 -300 
Q 3300 -100 3637 112 
Q 3975 325 4325 725 
Q 4000 1350 3875 1850 
Q 3750 2350 3725 2675 
Q 3600 2425 3500 2300 
z
M 3100 4625 
Q 3075 4150 3075 2925 
Q 3075 1700 3100 1200 
L 2650 1200 
L 2650 4250 
L 1100 4250 
L 1100 1175 
L 625 1175 
Q 650 1675 650 2850 
Q 650 4050 625 4625 
L 3100 4625 
z
M 2125 3675 
Q 2075 3325 2075 2925 
Q 2075 2525 2025 1800 
Q 1975 1125 1662 575 
Q 1350 25 600 -500 
Q 475 -325 225 -150 
Q 1150 375 1425 1000 
Q 1625 1575 1637 2325 
Q 1650 3075 1625 3750 
Q 1850 3700 2125 3675 
z
M 4000 3250 
Q 4100 2525 4250 2000 
Q 4400 1475 4600 1125 
Q 4800 1525 4912 2075 
Q 5025 2625 5075 3525 
L 4100 3525 
L 4000 3250 
z
M 2275 1100 
Q 2575 775 3175 175 
Q 2975 -25 2825 -200 
Q 2325 450 1975 775 
Q 2125 900 2275 1100 
z
" transform="scale(0.015625)"/>
       <path id="SimHei-60e9" d="M 4975 4800 
Q 5275 4800 5700 4825 
L 5700 4350 
Q 5275 4375 4975 4375 
L 4350 4375 
L 4350 3500 
Q 5100 3500 5550 3525 
L 5550 3050 
Q 5075 3075 4350 3075 
L 4350 2150 
L 5325 2150 
Q 5600 2150 5950 2175 
L 5950 1700 
Q 5600 1725 5325 1725 
L 2825 1725 
Q 2500 1725 2125 1700 
L 2125 2200 
Q 2350 2150 2725 2150 
L 2725 3100 
Q 2725 3375 2700 3750 
L 3200 3750 
Q 3175 3350 3175 3075 
L 3175 2150 
L 3900 2150 
L 3900 4375 
L 3200 4375 
Q 2875 4375 2450 4350 
L 2450 4825 
Q 2900 4800 3175 4800 
L 4975 4800 
z
M 2400 1100 
Q 2375 800 2375 550 
Q 2375 300 2387 112 
Q 2400 -75 2775 -100 
L 4025 -100 
Q 4300 -100 4375 12 
Q 4450 125 4500 500 
Q 4725 300 5050 225 
Q 4850 -325 4700 -425 
Q 4550 -525 4250 -525 
L 2525 -525 
Q 2000 -475 1962 -200 
Q 1925 75 1925 450 
Q 1925 850 1900 1100 
L 2400 1100 
z
M 2275 3700 
Q 1925 3400 1650 3100 
L 1650 2150 
Q 1650 1850 1675 1375 
L 1150 1375 
Q 1175 1750 1175 2125 
L 1175 2750 
Q 875 2475 625 2275 
Q 475 2450 275 2675 
Q 1150 3175 1825 4050 
L 2275 3700 
z
M 2125 4875 
Q 1975 4750 1587 4387 
Q 1200 4025 675 3600 
Q 525 3825 350 4000 
Q 1200 4550 1725 5250 
Q 1925 5000 2125 4875 
z
M 5200 1250 
Q 5850 575 6150 250 
Q 5925 100 5750 -100 
Q 5325 475 4850 925 
Q 5025 1100 5200 1250 
z
M 1450 900 
Q 1025 75 800 -275 
Q 650 -150 375 -75 
Q 675 350 1025 1150 
Q 1225 1025 1450 900 
z
M 3350 1550 
Q 3600 1200 3875 675 
Q 3700 550 3425 425 
Q 3300 775 2950 1325 
Q 3150 1425 3350 1550 
z
" transform="scale(0.015625)"/>
       <path id="SimHei-7f5a" d="M 5675 4900 
Q 5650 4550 5650 4075 
Q 5650 3600 5675 3225 
L 750 3225 
Q 775 3625 775 4075 
Q 775 4550 750 4900 
L 5675 4900 
z
M 1775 225 
Q 2100 475 2650 1050 
Q 2725 775 2875 550 
Q 2600 350 2200 25 
Q 1800 -300 1350 -675 
Q 1225 -475 1025 -250 
Q 1275 -75 1275 225 
L 1275 1475 
L 1050 1475 
Q 725 1475 375 1450 
L 375 1925 
Q 725 1900 1050 1900 
L 1800 1900 
Q 1775 1550 1775 1175 
L 1775 225 
z
M 5550 150 
Q 5550 -275 5300 -375 
Q 5050 -475 4500 -575 
Q 4425 -275 4300 -25 
Q 4825 -25 4950 25 
Q 5075 75 5075 325 
L 5075 2200 
Q 5075 2550 5050 2925 
L 5600 2925 
Q 5550 2425 5550 2050 
L 5550 150 
z
M 4025 2550 
Q 4000 2275 4000 1600 
Q 4000 950 4025 575 
L 3500 575 
Q 3525 1025 3525 1600 
Q 3525 2175 3500 2550 
L 4025 2550 
z
M 2300 3625 
L 2300 4475 
L 1250 4475 
L 1250 3625 
L 2300 3625 
z
M 5175 3625 
L 5175 4475 
L 4200 4475 
L 4200 3625 
L 5175 3625 
z
M 3725 3625 
L 3725 4475 
L 2750 4475 
L 2750 3625 
L 3725 3625 
z
M 1500 3125 
Q 1825 2975 2575 2475 
Q 2375 2275 2200 2050 
Q 1525 2600 1200 2750 
Q 1350 2925 1500 3125 
z
" transform="scale(0.015625)"/>
      </defs>
      <use xlink:href="#SimHei-5931"/>
      <use xlink:href="#SimHei-8d25" transform="translate(100 0)"/>
      <use xlink:href="#SimHei-60e9" transform="translate(200 0)"/>
      <use xlink:href="#SimHei-7f5a" transform="translate(300 0)"/>
      <use xlink:href="#SimHei-6210" transform="translate(400 0)"/>
      <use xlink:href="#SimHei-672c" transform="translate(500 0)"/>
     </g>
    </g>
    <g id="patch_13">
     <path d="M 612.2 58.426875 
L 632.2 58.426875 
L 632.2 51.426875 
L 612.2 51.426875 
z
" style="fill: #ff7f0e"/>
    </g>
    <g id="text_15">
     <!-- 调度成本 -->
     <g transform="translate(640.2 58.426875) scale(0.1 -0.1)">
      <defs>
       <path id="SimHei-8c03" d="M 5950 200 
Q 5975 -300 5700 -437 
Q 5425 -575 4900 -650 
Q 4825 -350 4700 -50 
Q 5200 -75 5337 0 
Q 5475 75 5500 300 
L 5500 4525 
L 3075 4525 
L 3075 2275 
Q 3075 1225 2900 612 
Q 2725 0 2275 -650 
Q 2125 -450 1825 -300 
Q 2150 75 2312 437 
Q 2475 800 2550 1212 
Q 2625 1625 2625 2925 
Q 2625 4250 2600 4900 
L 5975 4900 
Q 5950 4525 5950 3900 
L 5950 200 
z
M 5125 1825 
Q 5100 1475 5100 1175 
Q 5100 875 5125 425 
L 3425 425 
Q 3450 875 3450 1175 
Q 3450 1475 3425 1825 
L 5125 1825 
z
M 2125 1600 
Q 2225 1375 2400 1200 
Q 2075 875 1875 650 
Q 1675 425 1325 50 
Q 1150 250 1000 400 
Q 1175 600 1175 825 
L 1175 2825 
L 950 2825 
Q 775 2825 300 2800 
L 300 3250 
Q 775 3225 950 3225 
L 1650 3225 
Q 1625 2775 1625 2225 
L 1625 1050 
Q 1750 1150 2125 1600 
z
M 4050 3675 
Q 4050 3975 4025 4300 
L 4500 4300 
Q 4475 4000 4475 3675 
Q 4750 3675 5125 3700 
L 5125 3275 
Q 4750 3300 4475 3300 
L 4475 2675 
Q 4925 2675 5225 2700 
L 5225 2250 
Q 4825 2275 4300 2275 
Q 3775 2275 3350 2250 
L 3350 2700 
Q 3775 2675 4050 2675 
L 4050 3300 
Q 3725 3300 3375 3275 
L 3375 3700 
Q 3750 3675 4050 3675 
z
M 4675 775 
L 4675 1475 
L 3875 1475 
L 3875 775 
L 4675 775 
z
M 1250 5025 
Q 1525 4700 1975 4100 
Q 1750 3975 1575 3775 
Q 1075 4525 875 4725 
Q 1075 4850 1250 5025 
z
" transform="scale(0.015625)"/>
       <path id="SimHei-5ea6" d="M 1750 1675 
Q 2450 1650 2875 1650 
L 5200 1650 
Q 4975 1250 4650 850 
Q 4325 450 4025 200 
Q 4350 50 4950 -50 
Q 5550 -150 6100 -150 
Q 5950 -300 5825 -650 
Q 5100 -550 4550 -412 
Q 4000 -275 3625 -100 
Q 3100 -325 2587 -462 
Q 2075 -600 1525 -675 
Q 1450 -475 1225 -250 
Q 1675 -250 2250 -125 
Q 2825 0 3250 200 
Q 2825 550 2400 1275 
L 1750 1250 
L 1750 1675 
z
M 2975 5075 
Q 3250 5150 3475 5250 
Q 3625 4975 3775 4525 
L 4700 4525 
Q 4975 4525 5700 4550 
L 5700 4100 
Q 5000 4125 4650 4125 
L 1375 4125 
Q 1375 3000 1350 2312 
Q 1325 1625 1212 950 
Q 1100 275 725 -525 
Q 500 -375 250 -300 
Q 650 400 762 1075 
Q 875 1750 887 2800 
Q 900 3850 875 4525 
L 3200 4525 
Q 3100 4850 2975 5075 
z
M 2475 3300 
Q 2475 3700 2450 3925 
L 2975 3925 
Q 2950 3725 2950 3300 
L 4300 3300 
Q 4300 3700 4275 3950 
L 4800 3950 
Q 4775 3650 4775 3300 
Q 5325 3300 5725 3325 
L 5725 2900 
Q 5350 2925 4775 2925 
Q 4775 2250 4800 1950 
L 2450 1950 
Q 2475 2350 2475 2925 
Q 2175 2925 1600 2900 
L 1600 3325 
Q 2175 3300 2475 3300 
z
M 4300 2350 
L 4300 2925 
L 2950 2925 
L 2950 2350 
L 4300 2350 
z
M 2875 1275 
Q 3200 775 3650 425 
Q 4025 700 4425 1275 
L 2900 1275 
L 2875 1275 
z
" transform="scale(0.015625)"/>
      </defs>
      <use xlink:href="#SimHei-8c03"/>
      <use xlink:href="#SimHei-5ea6" transform="translate(100 0)"/>
      <use xlink:href="#SimHei-6210" transform="translate(200 0)"/>
      <use xlink:href="#SimHei-672c" transform="translate(300 0)"/>
     </g>
    </g>
   </g>
  </g>
 </g>
 <defs>
  <clipPath id="pdfe6637e06">
   <rect x="51.15125" y="27.16125" width="658.04875" height="363.03625"/>
  </clipPath>
 </defs>
</svg>
