<?xml version="1.0" encoding="utf-8" standalone="no"?>
<!DOCTYPE svg PUBLIC "-//W3C//DTD SVG 1.1//EN"
  "http://www.w3.org/Graphics/SVG/1.1/DTD/svg11.dtd">
<svg xmlns:xlink="http://www.w3.org/1999/xlink" width="720pt" height="432pt" viewBox="0 0 720 432" xmlns="http://www.w3.org/2000/svg" version="1.1">
 <metadata>
  <rdf:RDF xmlns:dc="http://purl.org/dc/elements/1.1/" xmlns:cc="http://creativecommons.org/ns#" xmlns:rdf="http://www.w3.org/1999/02/22-rdf-syntax-ns#">
   <cc:Work>
    <dc:type rdf:resource="http://purl.org/dc/dcmitype/StillImage"/>
    <dc:date>2025-08-10T17:30:55.188400</dc:date>
    <dc:format>image/svg+xml</dc:format>
    <dc:creator>
     <cc:Agent>
      <dc:title>Matplotlib v3.10.5, https://matplotlib.org/</dc:title>
     </cc:Agent>
    </dc:creator>
   </cc:Work>
  </rdf:RDF>
 </metadata>
 <defs>
  <style type="text/css">*{stroke-linejoin: round; stroke-linecap: butt}</style>
 </defs>
 <g id="figure_1">
  <g id="patch_1">
   <path d="M 0 432 
L 720 432 
L 720 0 
L 0 0 
z
" style="fill: #ffffff"/>
  </g>
  <g id="axes_1">
   <g id="patch_2">
    <path d="M 41.25125 392.45875 
L 709.2 392.45875 
L 709.2 27.20625 
L 41.25125 27.20625 
z
" style="fill: #ffffff"/>
   </g>
   <g id="PathCollection_1">
    <defs>
     <path id="m509f6591fb" d="M 0 3 
C 0.795609 3 1.55874 2.683901 2.12132 2.12132 
C 2.683901 1.55874 3 0.795609 3 0 
C 3 -0.795609 2.683901 -1.55874 2.12132 -2.12132 
C 1.55874 -2.683901 0.795609 -3 0 -3 
C -0.795609 -3 -1.55874 -2.683901 -2.12132 -2.12132 
C -2.683901 -1.55874 -3 -0.795609 -3 0 
C -3 0.795609 -2.683901 1.55874 -2.12132 2.12132 
C -1.55874 2.683901 -0.795609 3 0 3 
z
" style="stroke: #0000ff; stroke-opacity: 0.7"/>
    </defs>
    <g clip-path="url(#pcfdb3badfc)">
     <use xlink:href="#m509f6591fb" x="370.825436" y="212.238643" style="fill: #0000ff; fill-opacity: 0.7; stroke: #0000ff; stroke-opacity: 0.7"/>
     <use xlink:href="#m509f6591fb" x="247.620133" y="279.610646" style="fill: #0000ff; fill-opacity: 0.7; stroke: #0000ff; stroke-opacity: 0.7"/>
     <use xlink:href="#m509f6591fb" x="256.420511" y="274.79836" style="fill: #0000ff; fill-opacity: 0.7; stroke: #0000ff; stroke-opacity: 0.7"/>
     <use xlink:href="#m509f6591fb" x="124.41483" y="346.982648" style="fill: #0000ff; fill-opacity: 0.7; stroke: #0000ff; stroke-opacity: 0.7"/>
     <use xlink:href="#m509f6591fb" x="502.831117" y="140.054354" style="fill: #0000ff; fill-opacity: 0.7; stroke: #0000ff; stroke-opacity: 0.7"/>
     <use xlink:href="#m509f6591fb" x="230.019375" y="289.235217" style="fill: #0000ff; fill-opacity: 0.7; stroke: #0000ff; stroke-opacity: 0.7"/>
     <use xlink:href="#m509f6591fb" x="177.217102" y="318.108933" style="fill: #0000ff; fill-opacity: 0.7; stroke: #0000ff; stroke-opacity: 0.7"/>
     <use xlink:href="#m509f6591fb" x="203.618239" y="303.672075" style="fill: #0000ff; fill-opacity: 0.7; stroke: #0000ff; stroke-opacity: 0.7"/>
     <use xlink:href="#m509f6591fb" x="80.412936" y="351.794934" style="fill: #0000ff; fill-opacity: 0.7; stroke: #0000ff; stroke-opacity: 0.7"/>
     <use xlink:href="#m509f6591fb" x="450.028845" y="168.92807" style="fill: #0000ff; fill-opacity: 0.7; stroke: #0000ff; stroke-opacity: 0.7"/>
     <use xlink:href="#m509f6591fb" x="406.026951" y="192.989499" style="fill: #0000ff; fill-opacity: 0.7; stroke: #0000ff; stroke-opacity: 0.7"/>
     <use xlink:href="#m509f6591fb" x="98.013693" y="351.794934" style="fill: #0000ff; fill-opacity: 0.7; stroke: #0000ff; stroke-opacity: 0.7"/>
     <use xlink:href="#m509f6591fb" x="291.622027" y="255.549216" style="fill: #0000ff; fill-opacity: 0.7; stroke: #0000ff; stroke-opacity: 0.7"/>
     <use xlink:href="#m509f6591fb" x="106.814072" y="351.794934" style="fill: #0000ff; fill-opacity: 0.7; stroke: #0000ff; stroke-opacity: 0.7"/>
     <use xlink:href="#m509f6591fb" x="159.616345" y="327.733505" style="fill: #0000ff; fill-opacity: 0.7; stroke: #0000ff; stroke-opacity: 0.7"/>
     <use xlink:href="#m509f6591fb" x="520.431875" y="130.429783" style="fill: #0000ff; fill-opacity: 0.7; stroke: #0000ff; stroke-opacity: 0.7"/>
     <use xlink:href="#m509f6591fb" x="106.814072" y="351.794934" style="fill: #0000ff; fill-opacity: 0.7; stroke: #0000ff; stroke-opacity: 0.7"/>
     <use xlink:href="#m509f6591fb" x="168.416723" y="322.921219" style="fill: #0000ff; fill-opacity: 0.7; stroke: #0000ff; stroke-opacity: 0.7"/>
     <use xlink:href="#m509f6591fb" x="133.215208" y="342.170362" style="fill: #0000ff; fill-opacity: 0.7; stroke: #0000ff; stroke-opacity: 0.7"/>
     <use xlink:href="#m509f6591fb" x="265.22089" y="269.986074" style="fill: #0000ff; fill-opacity: 0.7; stroke: #0000ff; stroke-opacity: 0.7"/>
     <use xlink:href="#m509f6591fb" x="168.416723" y="322.921219" style="fill: #0000ff; fill-opacity: 0.7; stroke: #0000ff; stroke-opacity: 0.7"/>
     <use xlink:href="#m509f6591fb" x="432.428087" y="178.552642" style="fill: #0000ff; fill-opacity: 0.7; stroke: #0000ff; stroke-opacity: 0.7"/>
     <use xlink:href="#m509f6591fb" x="282.821648" y="260.361502" style="fill: #0000ff; fill-opacity: 0.7; stroke: #0000ff; stroke-opacity: 0.7"/>
     <use xlink:href="#m509f6591fb" x="414.82733" y="188.177213" style="fill: #0000ff; fill-opacity: 0.7; stroke: #0000ff; stroke-opacity: 0.7"/>
     <use xlink:href="#m509f6591fb" x="150.815966" y="332.545791" style="fill: #0000ff; fill-opacity: 0.7; stroke: #0000ff; stroke-opacity: 0.7"/>
     <use xlink:href="#m509f6591fb" x="458.829223" y="164.115784" style="fill: #0000ff; fill-opacity: 0.7; stroke: #0000ff; stroke-opacity: 0.7"/>
     <use xlink:href="#m509f6591fb" x="291.622027" y="255.549216" style="fill: #0000ff; fill-opacity: 0.7; stroke: #0000ff; stroke-opacity: 0.7"/>
     <use xlink:href="#m509f6591fb" x="326.823542" y="236.300072" style="fill: #0000ff; fill-opacity: 0.7; stroke: #0000ff; stroke-opacity: 0.7"/>
     <use xlink:href="#m509f6591fb" x="590.834905" y="91.931495" style="fill: #0000ff; fill-opacity: 0.7; stroke: #0000ff; stroke-opacity: 0.7"/>
     <use xlink:href="#m509f6591fb" x="353.224678" y="221.863215" style="fill: #0000ff; fill-opacity: 0.7; stroke: #0000ff; stroke-opacity: 0.7"/>
     <use xlink:href="#m509f6591fb" x="256.420511" y="274.79836" style="fill: #0000ff; fill-opacity: 0.7; stroke: #0000ff; stroke-opacity: 0.7"/>
     <use xlink:href="#m509f6591fb" x="291.622027" y="255.549216" style="fill: #0000ff; fill-opacity: 0.7; stroke: #0000ff; stroke-opacity: 0.7"/>
     <use xlink:href="#m509f6591fb" x="150.815966" y="332.545791" style="fill: #0000ff; fill-opacity: 0.7; stroke: #0000ff; stroke-opacity: 0.7"/>
     <use xlink:href="#m509f6591fb" x="678.838693" y="43.808636" style="fill: #0000ff; fill-opacity: 0.7; stroke: #0000ff; stroke-opacity: 0.7"/>
     <use xlink:href="#m509f6591fb" x="221.218996" y="294.047503" style="fill: #0000ff; fill-opacity: 0.7; stroke: #0000ff; stroke-opacity: 0.7"/>
     <use xlink:href="#m509f6591fb" x="432.428087" y="178.552642" style="fill: #0000ff; fill-opacity: 0.7; stroke: #0000ff; stroke-opacity: 0.7"/>
     <use xlink:href="#m509f6591fb" x="538.032633" y="120.805211" style="fill: #0000ff; fill-opacity: 0.7; stroke: #0000ff; stroke-opacity: 0.7"/>
     <use xlink:href="#m509f6591fb" x="71.612557" y="351.794934" style="fill: #0000ff; fill-opacity: 0.7; stroke: #0000ff; stroke-opacity: 0.7"/>
     <use xlink:href="#m509f6591fb" x="546.833011" y="115.992925" style="fill: #0000ff; fill-opacity: 0.7; stroke: #0000ff; stroke-opacity: 0.7"/>
     <use xlink:href="#m509f6591fb" x="212.418617" y="298.859789" style="fill: #0000ff; fill-opacity: 0.7; stroke: #0000ff; stroke-opacity: 0.7"/>
     <use xlink:href="#m509f6591fb" x="106.814072" y="351.794934" style="fill: #0000ff; fill-opacity: 0.7; stroke: #0000ff; stroke-opacity: 0.7"/>
    </g>
   </g>
   <g id="PathCollection_2"/>
   <g id="matplotlib.axis_1">
    <g id="xtick_1">
     <g id="line2d_1">
      <path d="M 115.614451 392.45875 
L 115.614451 27.20625 
" clip-path="url(#pcfdb3badfc)" style="fill: none; stroke-dasharray: 2.96,1.28; stroke-dashoffset: 0; stroke: #b0b0b0; stroke-opacity: 0.7; stroke-width: 0.8"/>
     </g>
     <g id="line2d_2">
      <defs>
       <path id="mad880110ce" d="M 0 0 
L 0 3.5 
" style="stroke: #000000; stroke-width: 0.8"/>
      </defs>
      <g>
       <use xlink:href="#mad880110ce" x="115.614451" y="392.45875" style="stroke: #000000; stroke-width: 0.8"/>
      </g>
     </g>
     <g id="text_1">
      <!-- 10 -->
      <g transform="translate(110.614451 406.33375) scale(0.1 -0.1)">
       <defs>
        <path id="SimHei-31" d="M 1400 3600 
Q 1075 3275 575 2975 
L 575 3450 
Q 1200 3875 1600 4450 
L 1900 4450 
L 1900 150 
L 1400 150 
L 1400 3600 
z
" transform="scale(0.015625)"/>
        <path id="SimHei-30" d="M 225 2537 
Q 250 3200 412 3587 
Q 575 3975 875 4225 
Q 1175 4475 1612 4475 
Q 2050 4475 2375 4112 
Q 2700 3750 2800 3200 
Q 2900 2650 2862 1937 
Q 2825 1225 2612 775 
Q 2400 325 1975 150 
Q 1550 -25 1125 187 
Q 700 400 525 750 
Q 350 1100 275 1487 
Q 200 1875 225 2537 
z
M 750 2687 
Q 675 2000 800 1462 
Q 925 925 1212 700 
Q 1500 475 1800 612 
Q 2100 750 2237 1162 
Q 2375 1575 2375 2062 
Q 2375 2550 2337 2950 
Q 2300 3350 2112 3675 
Q 1925 4000 1612 4012 
Q 1300 4025 1062 3700 
Q 825 3375 750 2687 
z
" transform="scale(0.015625)"/>
       </defs>
       <use xlink:href="#SimHei-31"/>
       <use xlink:href="#SimHei-30" transform="translate(50 0)"/>
      </g>
     </g>
    </g>
    <g id="xtick_2">
     <g id="line2d_3">
      <path d="M 203.618239 392.45875 
L 203.618239 27.20625 
" clip-path="url(#pcfdb3badfc)" style="fill: none; stroke-dasharray: 2.96,1.28; stroke-dashoffset: 0; stroke: #b0b0b0; stroke-opacity: 0.7; stroke-width: 0.8"/>
     </g>
     <g id="line2d_4">
      <g>
       <use xlink:href="#mad880110ce" x="203.618239" y="392.45875" style="stroke: #000000; stroke-width: 0.8"/>
      </g>
     </g>
     <g id="text_2">
      <!-- 20 -->
      <g transform="translate(198.618239 406.33375) scale(0.1 -0.1)">
       <defs>
        <path id="SimHei-32" d="M 300 250 
Q 325 625 650 925 
Q 975 1225 1475 1862 
Q 1975 2500 2125 2850 
Q 2275 3200 2237 3450 
Q 2200 3700 2000 3862 
Q 1800 4025 1537 4000 
Q 1275 3975 1037 3800 
Q 800 3625 675 3275 
L 200 3350 
Q 400 3925 712 4187 
Q 1025 4450 1450 4475 
Q 1700 4500 1900 4462 
Q 2100 4425 2312 4287 
Q 2525 4150 2662 3875 
Q 2800 3600 2762 3212 
Q 2725 2825 2375 2287 
Q 2025 1750 1025 600 
L 2825 600 
L 2825 150 
L 300 150 
L 300 250 
z
" transform="scale(0.015625)"/>
       </defs>
       <use xlink:href="#SimHei-32"/>
       <use xlink:href="#SimHei-30" transform="translate(50 0)"/>
      </g>
     </g>
    </g>
    <g id="xtick_3">
     <g id="line2d_5">
      <path d="M 291.622027 392.45875 
L 291.622027 27.20625 
" clip-path="url(#pcfdb3badfc)" style="fill: none; stroke-dasharray: 2.96,1.28; stroke-dashoffset: 0; stroke: #b0b0b0; stroke-opacity: 0.7; stroke-width: 0.8"/>
     </g>
     <g id="line2d_6">
      <g>
       <use xlink:href="#mad880110ce" x="291.622027" y="392.45875" style="stroke: #000000; stroke-width: 0.8"/>
      </g>
     </g>
     <g id="text_3">
      <!-- 30 -->
      <g transform="translate(286.622027 406.33375) scale(0.1 -0.1)">
       <defs>
        <path id="SimHei-33" d="M 250 1225 
L 700 1300 
Q 800 975 1025 762 
Q 1250 550 1587 562 
Q 1925 575 2125 837 
Q 2325 1100 2300 1437 
Q 2275 1775 2037 1962 
Q 1800 2150 1275 2225 
L 1275 2550 
Q 1800 2600 2037 2825 
Q 2275 3050 2250 3412 
Q 2225 3775 1925 3937 
Q 1625 4100 1287 3975 
Q 950 3850 750 3275 
L 300 3350 
Q 450 3800 712 4100 
Q 975 4400 1425 4450 
Q 1875 4500 2212 4337 
Q 2550 4175 2687 3837 
Q 2825 3500 2725 3100 
Q 2625 2700 2150 2400 
Q 2500 2250 2687 1950 
Q 2875 1650 2812 1162 
Q 2750 675 2375 375 
Q 2000 75 1525 87 
Q 1050 100 700 387 
Q 350 675 250 1225 
z
" transform="scale(0.015625)"/>
       </defs>
       <use xlink:href="#SimHei-33"/>
       <use xlink:href="#SimHei-30" transform="translate(50 0)"/>
      </g>
     </g>
    </g>
    <g id="xtick_4">
     <g id="line2d_7">
      <path d="M 379.625814 392.45875 
L 379.625814 27.20625 
" clip-path="url(#pcfdb3badfc)" style="fill: none; stroke-dasharray: 2.96,1.28; stroke-dashoffset: 0; stroke: #b0b0b0; stroke-opacity: 0.7; stroke-width: 0.8"/>
     </g>
     <g id="line2d_8">
      <g>
       <use xlink:href="#mad880110ce" x="379.625814" y="392.45875" style="stroke: #000000; stroke-width: 0.8"/>
      </g>
     </g>
     <g id="text_4">
      <!-- 40 -->
      <g transform="translate(374.625814 406.33375) scale(0.1 -0.1)">
       <defs>
        <path id="SimHei-34" d="M 2000 1100 
L 75 1100 
L 75 1525 
L 2100 4450 
L 2475 4450 
L 2475 1525 
L 3075 1525 
L 3075 1100 
L 2475 1100 
L 2475 150 
L 2000 150 
L 2000 1100 
z
M 2000 1525 
L 2000 3500 
L 600 1525 
L 2000 1525 
z
" transform="scale(0.015625)"/>
       </defs>
       <use xlink:href="#SimHei-34"/>
       <use xlink:href="#SimHei-30" transform="translate(50 0)"/>
      </g>
     </g>
    </g>
    <g id="xtick_5">
     <g id="line2d_9">
      <path d="M 467.629602 392.45875 
L 467.629602 27.20625 
" clip-path="url(#pcfdb3badfc)" style="fill: none; stroke-dasharray: 2.96,1.28; stroke-dashoffset: 0; stroke: #b0b0b0; stroke-opacity: 0.7; stroke-width: 0.8"/>
     </g>
     <g id="line2d_10">
      <g>
       <use xlink:href="#mad880110ce" x="467.629602" y="392.45875" style="stroke: #000000; stroke-width: 0.8"/>
      </g>
     </g>
     <g id="text_5">
      <!-- 50 -->
      <g transform="translate(462.629602 406.33375) scale(0.1 -0.1)">
       <defs>
        <path id="SimHei-35" d="M 550 1325 
Q 725 650 1150 575 
Q 1575 500 1837 662 
Q 2100 825 2212 1087 
Q 2325 1350 2312 1675 
Q 2300 2000 2137 2225 
Q 1975 2450 1725 2525 
Q 1475 2600 1162 2525 
Q 850 2450 650 2175 
L 225 2225 
Q 275 2375 700 4375 
L 2675 4375 
L 2675 3925 
L 1075 3925 
Q 950 3250 825 2850 
Q 1200 3025 1525 3012 
Q 1850 3000 2150 2862 
Q 2450 2725 2587 2487 
Q 2725 2250 2787 2012 
Q 2850 1775 2837 1500 
Q 2825 1225 2725 937 
Q 2625 650 2425 462 
Q 2225 275 1937 162 
Q 1650 50 1275 75 
Q 900 100 562 350 
Q 225 600 100 1200 
L 550 1325 
z
" transform="scale(0.015625)"/>
       </defs>
       <use xlink:href="#SimHei-35"/>
       <use xlink:href="#SimHei-30" transform="translate(50 0)"/>
      </g>
     </g>
    </g>
    <g id="xtick_6">
     <g id="line2d_11">
      <path d="M 555.63339 392.45875 
L 555.63339 27.20625 
" clip-path="url(#pcfdb3badfc)" style="fill: none; stroke-dasharray: 2.96,1.28; stroke-dashoffset: 0; stroke: #b0b0b0; stroke-opacity: 0.7; stroke-width: 0.8"/>
     </g>
     <g id="line2d_12">
      <g>
       <use xlink:href="#mad880110ce" x="555.63339" y="392.45875" style="stroke: #000000; stroke-width: 0.8"/>
      </g>
     </g>
     <g id="text_6">
      <!-- 60 -->
      <g transform="translate(550.63339 406.33375) scale(0.1 -0.1)">
       <defs>
        <path id="SimHei-36" d="M 250 1612 
Q 275 1975 387 2225 
Q 500 2475 725 2850 
L 1750 4450 
L 2325 4450 
L 1275 2800 
Q 1950 2975 2350 2750 
Q 2750 2525 2887 2237 
Q 3025 1950 3037 1612 
Q 3050 1275 2937 950 
Q 2825 625 2537 362 
Q 2250 100 1737 75 
Q 1225 50 862 262 
Q 500 475 362 862 
Q 225 1250 250 1612 
z
M 1025 787 
Q 1250 550 1625 525 
Q 2000 500 2250 775 
Q 2500 1050 2500 1575 
Q 2500 2100 2187 2300 
Q 1875 2500 1487 2450 
Q 1100 2400 925 2075 
Q 750 1750 775 1387 
Q 800 1025 1025 787 
z
" transform="scale(0.015625)"/>
       </defs>
       <use xlink:href="#SimHei-36"/>
       <use xlink:href="#SimHei-30" transform="translate(50 0)"/>
      </g>
     </g>
    </g>
    <g id="xtick_7">
     <g id="line2d_13">
      <path d="M 643.637178 392.45875 
L 643.637178 27.20625 
" clip-path="url(#pcfdb3badfc)" style="fill: none; stroke-dasharray: 2.96,1.28; stroke-dashoffset: 0; stroke: #b0b0b0; stroke-opacity: 0.7; stroke-width: 0.8"/>
     </g>
     <g id="line2d_14">
      <g>
       <use xlink:href="#mad880110ce" x="643.637178" y="392.45875" style="stroke: #000000; stroke-width: 0.8"/>
      </g>
     </g>
     <g id="text_7">
      <!-- 70 -->
      <g transform="translate(638.637178 406.33375) scale(0.1 -0.1)">
       <defs>
        <path id="SimHei-37" d="M 850 150 
Q 1300 2050 2425 3925 
L 275 3925 
L 275 4375 
L 2950 4375 
L 2950 3950 
Q 1775 2050 1400 150 
L 850 150 
z
" transform="scale(0.015625)"/>
       </defs>
       <use xlink:href="#SimHei-37"/>
       <use xlink:href="#SimHei-30" transform="translate(50 0)"/>
      </g>
     </g>
    </g>
    <g id="text_8">
     <!-- 预测需求量 -->
     <g transform="translate(350.225625 419.39625) scale(0.1 -0.1)">
      <defs>
       <path id="SimHei-9884" d="M 5200 4800 
Q 5575 4800 5950 4825 
L 5950 4400 
Q 5575 4425 5200 4425 
L 4500 4425 
Q 4425 4050 4350 3600 
L 5725 3600 
Q 5700 3225 5700 2800 
L 5700 1725 
Q 5700 1300 5725 850 
L 5250 850 
L 5250 3225 
L 3550 3225 
L 3550 800 
L 3075 800 
Q 3100 1375 3100 1725 
L 3100 2775 
Q 3100 3175 3075 3600 
L 3900 3600 
Q 4000 4150 4000 4425 
L 3725 4425 
Q 3300 4425 2850 4400 
L 2850 4825 
Q 3325 4800 3725 4800 
L 5200 4800 
z
M 2600 1775 
Q 2350 1825 2150 1825 
Q 2250 2250 2300 2450 
L 1750 2450 
L 1750 125 
Q 1725 -300 1425 -400 
Q 1125 -500 750 -500 
Q 700 -225 575 25 
Q 1125 -25 1212 37 
Q 1300 100 1300 350 
L 1300 2450 
L 1025 2450 
Q 700 2450 350 2425 
L 350 2850 
Q 700 2825 1000 2825 
L 2850 2825 
Q 2725 2325 2600 1775 
z
M 4725 2875 
Q 4625 2575 4600 2100 
Q 4575 1625 4462 1037 
Q 4350 450 3962 62 
Q 3575 -325 2925 -675 
Q 2700 -500 2475 -350 
Q 3075 -125 3437 200 
Q 3800 525 3950 937 
Q 4100 1350 4137 1850 
Q 4175 2350 4175 2925 
L 4725 2875 
z
M 1625 2900 
Q 1275 3275 800 3650 
Q 925 3775 1075 3950 
Q 1250 3825 1425 3675 
Q 1750 4150 1950 4375 
L 1400 4375 
Q 900 4375 450 4350 
L 450 4775 
Q 900 4750 1375 4750 
L 2575 4750 
L 2575 4375 
Q 2200 4100 1725 3400 
L 1950 3200 
Q 1750 3025 1625 2900 
z
M 4775 725 
Q 5725 0 6075 -325 
Q 5850 -500 5725 -650 
Q 5400 -325 5137 -87 
Q 4875 150 4525 350 
Q 4650 525 4775 725 
z
" transform="scale(0.015625)"/>
       <path id="SimHei-6d4b" d="M 4025 4725 
Q 4000 4475 4000 4000 
L 4000 2225 
Q 4000 1775 4025 1350 
L 3550 1350 
L 3550 4325 
L 2350 4325 
L 2350 1325 
L 1900 1325 
Q 1925 1775 1925 2225 
L 1925 4000 
Q 1925 4200 1900 4725 
L 4025 4725 
z
M 5900 5075 
Q 5875 4800 5875 4375 
L 5875 0 
Q 5875 -325 5650 -425 
Q 5425 -525 4975 -600 
Q 4925 -325 4775 -50 
Q 5125 -50 5262 -25 
Q 5400 0 5400 250 
L 5400 4375 
Q 5400 4775 5375 5075 
L 5900 5075 
z
M 3275 3725 
Q 3225 3400 3200 2325 
Q 3175 1250 2837 550 
Q 2500 -150 2075 -600 
Q 1850 -400 1600 -325 
Q 2200 250 2475 962 
Q 2750 1675 2762 2475 
Q 2775 3275 2725 3800 
Q 3000 3750 3275 3725 
z
M 4950 4275 
Q 4925 4000 4925 3575 
L 4925 1825 
Q 4925 1300 4950 850 
L 4450 850 
Q 4475 1150 4475 1825 
L 4475 3575 
Q 4475 4000 4450 4275 
L 4950 4275 
z
M 1700 1675 
Q 1375 1075 1112 487 
Q 850 -100 725 -400 
Q 500 -200 200 -25 
Q 475 300 762 850 
Q 1050 1400 1250 2000 
Q 1475 1825 1700 1675 
z
M 3400 1050 
Q 3800 650 4300 -125 
Q 4100 -225 3875 -450 
Q 3475 275 3025 750 
Q 3225 875 3400 1050 
z
M 600 3525 
Q 1125 3125 1500 2775 
Q 1300 2575 1150 2375 
Q 825 2775 300 3150 
Q 450 3300 600 3525 
z
M 1350 4000 
Q 950 4375 475 4675 
Q 625 4850 775 5050 
Q 1300 4700 1675 4375 
Q 1500 4250 1350 4000 
z
" transform="scale(0.015625)"/>
       <path id="SimHei-9700" d="M 5150 2100 
Q 5500 2100 5975 2125 
L 5975 1700 
Q 5500 1725 5150 1725 
L 3425 1725 
Q 3300 1500 3250 1275 
L 5600 1275 
Q 5575 950 5575 700 
L 5575 -50 
Q 5575 -350 5425 -437 
Q 5275 -525 4775 -625 
Q 4750 -400 4550 -100 
Q 4950 -100 5025 -50 
Q 5100 0 5100 200 
L 5100 900 
L 4125 900 
L 4125 -375 
L 3650 -375 
L 3650 900 
L 2775 900 
L 2775 -375 
L 2300 -375 
L 2300 900 
L 1350 900 
L 1350 -575 
L 875 -575 
Q 900 -225 900 175 
L 900 575 
Q 900 900 875 1275 
L 2800 1275 
Q 2875 1500 2925 1725 
L 1350 1725 
Q 925 1725 525 1700 
L 525 2125 
Q 900 2100 1325 2100 
L 5150 2100 
z
M 4700 5075 
Q 5075 5075 5550 5100 
L 5550 4675 
Q 5075 4700 4700 4700 
L 3475 4700 
L 3475 4275 
L 5975 4275 
L 5975 3100 
L 5500 3100 
L 5500 3900 
L 3475 3900 
L 3475 3200 
Q 3475 2775 3500 2425 
L 2975 2425 
Q 3000 2750 3000 3175 
L 3000 3900 
L 950 3900 
L 950 3100 
L 450 3100 
Q 450 3375 462 3650 
Q 475 3925 450 4275 
L 3000 4275 
L 3000 4700 
L 1775 4700 
Q 1400 4700 1025 4675 
L 1025 5100 
Q 1400 5075 1750 5075 
L 4700 5075 
z
M 2475 2450 
L 1250 2450 
L 1250 2800 
L 2475 2800 
L 2475 2450 
z
M 2500 3150 
L 1325 3150 
L 1325 3500 
L 2500 3500 
L 2500 3150 
z
M 5000 3175 
L 3825 3175 
L 3825 3525 
L 5000 3525 
L 5000 3175 
z
M 5025 2500 
L 3850 2500 
L 3850 2850 
L 5025 2850 
L 5025 2500 
z
" transform="scale(0.015625)"/>
       <path id="SimHei-6c42" d="M 475 4025 
Q 875 4000 1325 4000 
L 2875 4000 
Q 2875 4725 2850 5125 
L 3400 5125 
Q 3375 4725 3375 4000 
L 5150 4000 
Q 5500 4000 5925 4025 
L 5925 3575 
Q 5475 3600 5150 3600 
L 3375 3600 
Q 3400 3200 3612 2750 
Q 3825 2300 4050 2000 
Q 4600 2450 5075 3150 
Q 5250 2950 5575 2750 
Q 5275 2600 4250 1650 
Q 4575 1225 5037 850 
Q 5500 475 6050 325 
Q 5700 125 5550 -150 
Q 5000 150 4437 687 
Q 3875 1225 3375 2375 
L 3375 150 
Q 3400 -225 3137 -350 
Q 2875 -475 2375 -525 
Q 2325 -275 2150 25 
Q 2575 0 2737 37 
Q 2900 75 2875 300 
L 2875 1675 
Q 1875 900 1437 550 
Q 1000 200 725 -50 
Q 500 200 300 400 
Q 650 575 1200 937 
Q 1750 1300 2875 2250 
L 2875 3600 
L 1325 3600 
Q 875 3600 475 3575 
L 475 4025 
z
M 1225 3175 
Q 1775 2725 2250 2325 
L 1825 1950 
Q 1450 2375 825 2825 
L 1225 3175 
z
M 4500 5100 
Q 4900 4825 5300 4425 
Q 5125 4300 4925 4100 
Q 4650 4400 4125 4825 
Q 4275 4950 4500 5100 
z
" transform="scale(0.015625)"/>
       <path id="SimHei-91cf" d="M 5250 2500 
Q 5225 2200 5225 1700 
Q 5225 1225 5250 950 
L 3425 950 
L 3425 625 
L 4575 625 
Q 5000 625 5375 650 
L 5375 275 
Q 5025 300 4575 300 
L 3425 300 
L 3425 -75 
L 5125 -75 
Q 5525 -75 5925 -50 
L 5925 -425 
Q 5525 -400 5125 -400 
L 1275 -400 
Q 900 -400 475 -425 
L 475 -50 
Q 925 -50 1275 -75 
L 2975 -75 
L 2975 300 
L 1725 300 
Q 1350 300 975 250 
L 975 650 
Q 1375 625 1725 625 
L 2975 625 
L 2975 950 
L 1150 950 
Q 1175 1375 1175 1775 
Q 1175 2175 1150 2500 
L 5250 2500 
z
M 5200 4950 
Q 5175 4575 5175 4250 
Q 5175 3925 5200 3400 
L 1200 3400 
Q 1225 3925 1225 4250 
Q 1225 4575 1200 4950 
L 5200 4950 
z
M 4900 3100 
Q 5500 3125 6000 3150 
L 6000 2750 
Q 5500 2775 4925 2775 
L 1650 2775 
Q 975 2775 325 2750 
L 325 3150 
Q 975 3125 1650 3100 
L 4900 3100 
z
M 4725 3700 
L 4725 4025 
L 1675 4025 
L 1675 3700 
L 4725 3700 
z
M 4725 4350 
L 4725 4650 
L 1675 4650 
L 1675 4350 
L 4725 4350 
z
M 4750 1875 
L 4750 2175 
L 3425 2175 
L 3425 1875 
L 4750 1875 
z
M 2975 1875 
L 2975 2175 
L 1650 2175 
L 1650 1875 
L 2975 1875 
z
M 2975 1275 
L 2975 1550 
L 1650 1550 
L 1650 1275 
L 2975 1275 
z
M 4750 1275 
L 4750 1550 
L 3425 1550 
L 3425 1275 
L 4750 1275 
z
" transform="scale(0.015625)"/>
      </defs>
      <use xlink:href="#SimHei-9884"/>
      <use xlink:href="#SimHei-6d4b" transform="translate(100 0)"/>
      <use xlink:href="#SimHei-9700" transform="translate(200 0)"/>
      <use xlink:href="#SimHei-6c42" transform="translate(300 0)"/>
      <use xlink:href="#SimHei-91cf" transform="translate(400 0)"/>
     </g>
    </g>
   </g>
   <g id="matplotlib.axis_2">
    <g id="ytick_1">
     <g id="line2d_15">
      <path d="M 41.25125 351.794934 
L 709.2 351.794934 
" clip-path="url(#pcfdb3badfc)" style="fill: none; stroke-dasharray: 2.96,1.28; stroke-dashoffset: 0; stroke: #b0b0b0; stroke-opacity: 0.7; stroke-width: 0.8"/>
     </g>
     <g id="line2d_16">
      <defs>
       <path id="m565c6b679f" d="M 0 0 
L -3.5 0 
" style="stroke: #000000; stroke-width: 0.8"/>
      </defs>
      <g>
       <use xlink:href="#m565c6b679f" x="41.25125" y="351.794934" style="stroke: #000000; stroke-width: 0.8"/>
      </g>
     </g>
     <g id="text_9">
      <!-- 10 -->
      <g transform="translate(24.25125 355.232434) scale(0.1 -0.1)">
       <use xlink:href="#SimHei-31"/>
       <use xlink:href="#SimHei-30" transform="translate(50 0)"/>
      </g>
     </g>
    </g>
    <g id="ytick_2">
     <g id="line2d_17">
      <path d="M 41.25125 303.672075 
L 709.2 303.672075 
" clip-path="url(#pcfdb3badfc)" style="fill: none; stroke-dasharray: 2.96,1.28; stroke-dashoffset: 0; stroke: #b0b0b0; stroke-opacity: 0.7; stroke-width: 0.8"/>
     </g>
     <g id="line2d_18">
      <g>
       <use xlink:href="#m565c6b679f" x="41.25125" y="303.672075" style="stroke: #000000; stroke-width: 0.8"/>
      </g>
     </g>
     <g id="text_10">
      <!-- 20 -->
      <g transform="translate(24.25125 307.109575) scale(0.1 -0.1)">
       <use xlink:href="#SimHei-32"/>
       <use xlink:href="#SimHei-30" transform="translate(50 0)"/>
      </g>
     </g>
    </g>
    <g id="ytick_3">
     <g id="line2d_19">
      <path d="M 41.25125 255.549216 
L 709.2 255.549216 
" clip-path="url(#pcfdb3badfc)" style="fill: none; stroke-dasharray: 2.96,1.28; stroke-dashoffset: 0; stroke: #b0b0b0; stroke-opacity: 0.7; stroke-width: 0.8"/>
     </g>
     <g id="line2d_20">
      <g>
       <use xlink:href="#m565c6b679f" x="41.25125" y="255.549216" style="stroke: #000000; stroke-width: 0.8"/>
      </g>
     </g>
     <g id="text_11">
      <!-- 30 -->
      <g transform="translate(24.25125 258.986716) scale(0.1 -0.1)">
       <use xlink:href="#SimHei-33"/>
       <use xlink:href="#SimHei-30" transform="translate(50 0)"/>
      </g>
     </g>
    </g>
    <g id="ytick_4">
     <g id="line2d_21">
      <path d="M 41.25125 207.426357 
L 709.2 207.426357 
" clip-path="url(#pcfdb3badfc)" style="fill: none; stroke-dasharray: 2.96,1.28; stroke-dashoffset: 0; stroke: #b0b0b0; stroke-opacity: 0.7; stroke-width: 0.8"/>
     </g>
     <g id="line2d_22">
      <g>
       <use xlink:href="#m565c6b679f" x="41.25125" y="207.426357" style="stroke: #000000; stroke-width: 0.8"/>
      </g>
     </g>
     <g id="text_12">
      <!-- 40 -->
      <g transform="translate(24.25125 210.863857) scale(0.1 -0.1)">
       <use xlink:href="#SimHei-34"/>
       <use xlink:href="#SimHei-30" transform="translate(50 0)"/>
      </g>
     </g>
    </g>
    <g id="ytick_5">
     <g id="line2d_23">
      <path d="M 41.25125 159.303498 
L 709.2 159.303498 
" clip-path="url(#pcfdb3badfc)" style="fill: none; stroke-dasharray: 2.96,1.28; stroke-dashoffset: 0; stroke: #b0b0b0; stroke-opacity: 0.7; stroke-width: 0.8"/>
     </g>
     <g id="line2d_24">
      <g>
       <use xlink:href="#m565c6b679f" x="41.25125" y="159.303498" style="stroke: #000000; stroke-width: 0.8"/>
      </g>
     </g>
     <g id="text_13">
      <!-- 50 -->
      <g transform="translate(24.25125 162.740998) scale(0.1 -0.1)">
       <use xlink:href="#SimHei-35"/>
       <use xlink:href="#SimHei-30" transform="translate(50 0)"/>
      </g>
     </g>
    </g>
    <g id="ytick_6">
     <g id="line2d_25">
      <path d="M 41.25125 111.180639 
L 709.2 111.180639 
" clip-path="url(#pcfdb3badfc)" style="fill: none; stroke-dasharray: 2.96,1.28; stroke-dashoffset: 0; stroke: #b0b0b0; stroke-opacity: 0.7; stroke-width: 0.8"/>
     </g>
     <g id="line2d_26">
      <g>
       <use xlink:href="#m565c6b679f" x="41.25125" y="111.180639" style="stroke: #000000; stroke-width: 0.8"/>
      </g>
     </g>
     <g id="text_14">
      <!-- 60 -->
      <g transform="translate(24.25125 114.618139) scale(0.1 -0.1)">
       <use xlink:href="#SimHei-36"/>
       <use xlink:href="#SimHei-30" transform="translate(50 0)"/>
      </g>
     </g>
    </g>
    <g id="ytick_7">
     <g id="line2d_27">
      <path d="M 41.25125 63.05778 
L 709.2 63.05778 
" clip-path="url(#pcfdb3badfc)" style="fill: none; stroke-dasharray: 2.96,1.28; stroke-dashoffset: 0; stroke: #b0b0b0; stroke-opacity: 0.7; stroke-width: 0.8"/>
     </g>
     <g id="line2d_28">
      <g>
       <use xlink:href="#m565c6b679f" x="41.25125" y="63.05778" style="stroke: #000000; stroke-width: 0.8"/>
      </g>
     </g>
     <g id="text_15">
      <!-- 70 -->
      <g transform="translate(24.25125 66.49528) scale(0.1 -0.1)">
       <use xlink:href="#SimHei-37"/>
       <use xlink:href="#SimHei-30" transform="translate(50 0)"/>
      </g>
     </g>
    </g>
    <g id="text_16">
     <!-- 分配容量 -->
     <g transform="translate(19.00125 229.8325) rotate(-90) scale(0.1 -0.1)">
      <defs>
       <path id="SimHei-5206" d="M 1000 -650 
Q 825 -375 575 -225 
Q 975 -75 1300 137 
Q 1625 350 1875 662 
Q 2125 975 2250 1350 
Q 2375 1725 2425 2275 
Q 1850 2275 1500 2250 
L 1500 2775 
Q 1900 2750 2525 2750 
L 5025 2750 
Q 4975 2375 4950 2100 
L 4750 250 
Q 4700 -200 4350 -350 
Q 4000 -500 3575 -525 
Q 3550 -275 3325 50 
Q 3850 25 4037 87 
Q 4225 150 4275 525 
L 4450 2275 
L 2950 2275 
Q 2875 1625 2737 1187 
Q 2600 750 2350 425 
Q 2100 100 1750 -175 
Q 1400 -450 1000 -650 
z
M 3950 5175 
Q 4125 4650 4662 3975 
Q 5200 3300 6175 2800 
Q 5975 2625 5775 2275 
Q 5325 2600 4987 2887 
Q 4650 3175 4425 3425 
Q 4200 3675 3925 4137 
Q 3650 4600 3475 5000 
Q 3750 5075 3950 5175 
z
M 2700 4825 
Q 2475 4425 2325 4125 
Q 2175 3825 2025 3587 
Q 1875 3350 1575 2950 
Q 1275 2550 850 2125 
Q 625 2350 400 2475 
Q 900 2925 1187 3300 
Q 1475 3675 1737 4112 
Q 2000 4550 2200 5075 
Q 2400 4925 2700 4825 
z
" transform="scale(0.015625)"/>
       <path id="SimHei-914d" d="M 1250 3825 
L 1250 4575 
Q 675 4575 275 4550 
L 275 5025 
Q 700 5000 1750 5000 
Q 2800 5000 3300 5025 
L 3300 4550 
Q 2975 4575 2425 4575 
L 2425 3825 
L 3275 3825 
Q 3250 3000 3250 1700 
Q 3250 400 3275 -500 
L 2800 -500 
L 2800 -50 
L 875 -50 
L 875 -575 
L 425 -575 
Q 450 225 450 1725 
Q 450 3250 425 3825 
L 1250 3825 
z
M 3550 5050 
Q 4150 5025 4550 5025 
L 5775 5025 
Q 5750 4550 5750 3725 
Q 5750 2925 5775 2475 
L 4175 2475 
L 4175 225 
Q 4175 -100 4500 -100 
L 5300 -100 
Q 5500 -100 5562 125 
Q 5625 350 5625 700 
Q 5875 500 6175 450 
Q 6000 -175 5887 -350 
Q 5775 -525 5425 -525 
L 4175 -525 
Q 3725 -525 3725 75 
L 3725 2075 
Q 3725 2425 3700 2875 
L 5275 2875 
L 5275 4600 
Q 4025 4600 3550 4575 
L 3550 5050 
z
M 875 1225 
L 2800 1225 
L 2800 1800 
L 2300 1800 
Q 2025 1875 2025 2175 
L 2025 3450 
L 1625 3450 
Q 1625 2900 1575 2475 
Q 1525 2050 1300 1575 
Q 1125 1700 875 1750 
L 875 1225 
z
M 2800 350 
L 2800 875 
L 875 875 
L 875 350 
L 2800 350 
z
M 2400 2450 
Q 2400 2125 2800 2175 
L 2800 3450 
L 2400 3450 
L 2400 2450 
z
M 875 1850 
Q 1100 2150 1175 2537 
Q 1250 2925 1250 3450 
L 875 3450 
L 875 1850 
z
M 2025 3825 
L 2025 4575 
L 1625 4575 
L 1625 3825 
L 2025 3825 
z
" transform="scale(0.015625)"/>
       <path id="SimHei-5bb9" d="M 3350 2725 
Q 4025 2150 4687 1850 
Q 5350 1550 6100 1425 
Q 5875 1250 5800 950 
Q 5325 1075 4850 1275 
Q 4850 -200 4875 -575 
L 4400 -575 
L 4400 -225 
L 2050 -225 
L 2050 -650 
L 1575 -650 
Q 1600 -325 1600 1275 
Q 1125 1050 550 825 
Q 450 1025 225 1250 
Q 1325 1500 2137 2137 
Q 2950 2775 3125 3275 
Q 3375 3125 3600 3025 
L 3350 2725 
z
M 5750 4350 
Q 5725 4125 5725 3875 
Q 5725 3625 5750 3400 
L 5250 3400 
L 5250 4000 
L 1200 4000 
L 1200 3375 
L 700 3375 
Q 725 3650 725 3875 
Q 725 4125 700 4350 
L 5750 4350 
z
M 4400 150 
L 4400 1025 
L 2050 1025 
L 2050 150 
L 4400 150 
z
M 4625 1400 
Q 3875 1700 3100 2425 
Q 2525 1850 1750 1400 
L 4625 1400 
z
M 4000 3725 
Q 5175 3075 5550 2850 
Q 5375 2650 5250 2450 
Q 4400 3025 3725 3375 
Q 3925 3575 4000 3725 
z
M 775 2775 
Q 1875 3225 2325 3700 
Q 2400 3575 2650 3325 
Q 1725 2700 1100 2425 
Q 975 2625 775 2775 
z
M 2650 5025 
Q 2850 5125 3125 5300 
Q 3400 4950 3575 4600 
Q 3225 4475 3075 4375 
Q 3050 4475 2650 5025 
z
" transform="scale(0.015625)"/>
      </defs>
      <use xlink:href="#SimHei-5206"/>
      <use xlink:href="#SimHei-914d" transform="translate(100 0)"/>
      <use xlink:href="#SimHei-5bb9" transform="translate(200 0)"/>
      <use xlink:href="#SimHei-91cf" transform="translate(300 0)"/>
     </g>
    </g>
   </g>
   <g id="line2d_29">
    <path d="M 71.612557 375.856364 
L 77.746154 372.502346 
L 83.879751 369.148329 
L 90.013349 365.794311 
L 96.146946 362.440294 
L 102.280544 359.086276 
L 108.414141 355.732259 
L 114.547738 352.378242 
L 120.681336 349.024224 
L 126.814933 345.670207 
L 132.94853 342.316189 
L 139.082128 338.962172 
L 145.215725 335.608154 
L 151.349322 332.254137 
L 157.48292 328.900119 
L 163.616517 325.546102 
L 169.750114 322.192084 
L 175.883712 318.838067 
L 182.017309 315.48405 
L 188.150906 312.130032 
L 194.284504 308.776015 
L 200.418101 305.421997 
L 206.551698 302.06798 
L 212.685296 298.713962 
L 218.818893 295.359945 
L 224.95249 292.005927 
L 231.086088 288.65191 
L 237.219685 285.297893 
L 243.353282 281.943875 
L 249.48688 278.589858 
L 255.620477 275.23584 
L 261.754074 271.881823 
L 267.887672 268.527805 
L 274.021269 265.173788 
L 280.154866 261.81977 
L 286.288464 258.465753 
L 292.422061 255.111736 
L 298.555658 251.757718 
L 304.689256 248.403701 
L 310.822853 245.049683 
L 316.95645 241.695666 
L 323.090048 238.341648 
L 329.223645 234.987631 
L 335.357242 231.633613 
L 341.49084 228.279596 
L 347.624437 224.925579 
L 353.758034 221.571561 
L 359.891632 218.217544 
L 366.025229 214.863526 
L 372.158826 211.509509 
L 378.292424 208.155491 
L 384.426021 204.801474 
L 390.559618 201.447456 
L 396.693216 198.093439 
L 402.826813 194.739421 
L 408.96041 191.385404 
L 415.094008 188.031387 
L 421.227605 184.677369 
L 427.361202 181.323352 
L 433.4948 177.969334 
L 439.628397 174.615317 
L 445.761994 171.261299 
L 451.895592 167.907282 
L 458.029189 164.553264 
L 464.162786 161.199247 
L 470.296384 157.84523 
L 476.429981 154.491212 
L 482.563578 151.137195 
L 488.697176 147.783177 
L 494.830773 144.42916 
L 500.96437 141.075142 
L 507.097968 137.721125 
L 513.231565 134.367107 
L 519.365162 131.01309 
L 525.49876 127.659073 
L 531.632357 124.305055 
L 537.765954 120.951038 
L 543.899552 117.59702 
L 550.033149 114.243003 
L 556.166746 110.888985 
L 562.300344 107.534968 
L 568.433941 104.18095 
L 574.567538 100.826933 
L 580.701136 97.472916 
L 586.834733 94.118898 
L 592.96833 90.764881 
L 599.101928 87.410863 
L 605.235525 84.056846 
L 611.369122 80.702828 
L 617.50272 77.348811 
L 623.636317 73.994793 
L 629.769914 70.640776 
L 635.903512 67.286758 
L 642.037109 63.932741 
L 648.170706 60.578724 
L 654.304304 57.224706 
L 660.437901 53.870689 
L 666.571499 50.516671 
L 672.705096 47.162654 
L 678.838693 43.808636 
" clip-path="url(#pcfdb3badfc)" style="fill: none; stroke-dasharray: 3.7,1.6; stroke-dashoffset: 0; stroke: #008000"/>
   </g>
   <g id="patch_3">
    <path d="M 41.25125 392.45875 
L 41.25125 27.20625 
" style="fill: none; stroke: #000000; stroke-width: 0.8; stroke-linejoin: miter; stroke-linecap: square"/>
   </g>
   <g id="patch_4">
    <path d="M 709.2 392.45875 
L 709.2 27.20625 
" style="fill: none; stroke: #000000; stroke-width: 0.8; stroke-linejoin: miter; stroke-linecap: square"/>
   </g>
   <g id="patch_5">
    <path d="M 41.25125 392.45875 
L 709.2 392.45875 
" style="fill: none; stroke: #000000; stroke-width: 0.8; stroke-linejoin: miter; stroke-linecap: square"/>
   </g>
   <g id="patch_6">
    <path d="M 41.25125 27.20625 
L 709.2 27.20625 
" style="fill: none; stroke: #000000; stroke-width: 0.8; stroke-linejoin: miter; stroke-linecap: square"/>
   </g>
   <g id="text_17">
    <!-- 保留站点的容量与需求关系 (方法二结果) -->
    <g transform="translate(264.225625 21.20625) scale(0.12 -0.12)">
     <defs>
      <path id="SimHei-4fdd" d="M 5425 4925 
Q 5400 4550 5400 3950 
Q 5400 3375 5425 3050 
L 4225 3050 
L 4225 2250 
L 4975 2250 
Q 5650 2250 6025 2275 
L 6025 1800 
Q 5600 1825 5025 1825 
L 4600 1825 
Q 4825 1325 5225 937 
Q 5625 550 6175 350 
Q 5975 175 5800 -125 
Q 5200 200 4812 700 
Q 4425 1200 4225 1700 
L 4225 325 
Q 4225 -250 4250 -575 
L 3725 -575 
Q 3750 -225 3750 275 
L 3750 1800 
Q 3150 600 2225 -175 
Q 2075 50 1775 175 
Q 2650 650 3225 1825 
L 2875 1825 
Q 2350 1825 2000 1800 
L 2000 2275 
Q 2350 2250 2825 2250 
L 3750 2250 
L 3750 3050 
L 2600 3050 
Q 2625 3400 2625 4000 
Q 2625 4625 2600 4925 
L 5425 4925 
z
M 2125 4975 
Q 2000 4800 1850 4475 
Q 1700 4150 1600 3875 
L 1600 650 
Q 1600 -150 1625 -575 
L 1125 -575 
Q 1150 -175 1150 625 
L 1150 3000 
Q 800 2400 525 2050 
Q 400 2275 200 2425 
Q 725 3050 1087 3837 
Q 1450 4625 1575 5225 
Q 1775 5075 2125 4975 
z
M 4950 3450 
L 4950 4525 
L 3075 4525 
L 3075 3450 
L 4950 3450 
z
" transform="scale(0.015625)"/>
      <path id="SimHei-7559" d="M 5575 2300 
Q 5550 1900 5550 1275 
L 5550 375 
Q 5550 -50 5575 -650 
L 5050 -650 
L 5050 -150 
L 1500 -150 
L 1500 -650 
L 975 -650 
Q 1000 100 1000 450 
L 1000 1275 
Q 1000 1925 975 2300 
L 5575 2300 
z
M 3350 2475 
Q 3250 2650 2900 2850 
Q 3325 3050 3625 3400 
Q 3925 3750 4025 4450 
Q 3675 4450 3225 4400 
L 3225 4875 
Q 3675 4850 4050 4850 
L 5950 4850 
Q 5875 4425 5825 3912 
Q 5775 3400 5725 3125 
Q 5675 2850 5462 2775 
Q 5250 2700 4775 2600 
Q 4675 2950 4525 3200 
Q 4900 3200 5075 3225 
Q 5250 3250 5287 3400 
Q 5325 3550 5375 4450 
L 4525 4450 
Q 4425 3675 4112 3250 
Q 3800 2825 3350 2475 
z
M 2200 3575 
Q 2050 3800 1875 3975 
Q 2125 4100 2275 4250 
Q 2650 3750 3000 3250 
Q 2800 3100 2575 2950 
Q 2500 3100 2400 3250 
Q 2000 3075 1587 2862 
Q 1175 2650 800 2425 
Q 675 2650 500 2850 
Q 675 3000 675 3425 
L 675 4125 
Q 675 4550 650 4850 
Q 1075 4850 1575 4925 
Q 2075 5000 2550 5225 
Q 2650 4975 2950 4700 
Q 2775 4700 2287 4600 
Q 1800 4500 1175 4450 
L 1175 3125 
Q 1600 3300 2200 3575 
z
M 3075 250 
L 3075 875 
L 1500 875 
L 1500 250 
L 3075 250 
z
M 3075 1275 
L 3075 1900 
L 1500 1900 
L 1500 1275 
L 3075 1275 
z
M 5050 1275 
L 5050 1900 
L 3550 1900 
L 3550 1275 
L 5050 1275 
z
M 5050 250 
L 5050 875 
L 3550 875 
L 3550 250 
L 5050 250 
z
" transform="scale(0.015625)"/>
      <path id="SimHei-7ad9" d="M 4450 3925 
L 5175 3925 
Q 5575 3925 6050 3950 
L 6050 3475 
Q 5575 3500 5175 3500 
L 4450 3500 
L 4450 2275 
L 5700 2275 
Q 5675 1900 5675 1575 
L 5675 350 
Q 5675 -100 5700 -575 
L 5175 -575 
L 5175 -50 
L 3500 -50 
L 3500 -600 
L 3025 -600 
Q 3025 -150 3050 200 
L 3050 1525 
Q 3025 1850 3025 2275 
L 3975 2275 
L 3975 4550 
Q 3975 4775 3950 5225 
L 4475 5225 
Q 4450 4750 4450 4600 
L 4450 3925 
z
M 5175 350 
L 5175 1875 
L 3500 1875 
L 3500 350 
L 5175 350 
z
M 2725 2875 
Q 2575 2500 2450 1912 
Q 2325 1325 2200 775 
Q 2675 875 2875 925 
Q 2875 725 2925 525 
Q 2150 350 1587 212 
Q 1025 75 550 -100 
Q 500 150 325 450 
Q 1400 600 1750 700 
Q 1850 1025 1987 1662 
Q 2125 2300 2175 3025 
Q 2450 2925 2725 2875 
z
M 1900 3875 
Q 2250 3875 2950 3900 
L 2950 3425 
Q 2250 3450 1900 3450 
L 1400 3450 
Q 1000 3450 375 3425 
L 375 3900 
Q 1000 3875 1400 3875 
L 1900 3875 
z
M 1075 2950 
Q 1475 1650 1550 1250 
Q 1300 1175 1075 1125 
Q 975 1725 600 2800 
Q 800 2875 1075 2950 
z
M 1525 4050 
Q 1425 4475 1125 5000 
Q 1325 5075 1550 5200 
Q 1775 4875 2000 4225 
Q 1800 4125 1525 4050 
z
" transform="scale(0.015625)"/>
      <path id="SimHei-70b9" d="M 3325 5200 
Q 3300 4925 3300 4375 
L 4900 4375 
Q 5275 4375 5725 4400 
L 5725 3925 
Q 5300 3950 4900 3950 
L 3300 3950 
L 3300 3225 
L 5225 3225 
Q 5200 2700 5200 2150 
Q 5200 1625 5225 1175 
L 1175 1175 
Q 1200 1625 1200 2175 
Q 1200 2725 1175 3225 
L 2775 3225 
L 2775 4500 
Q 2775 4900 2750 5200 
L 3325 5200 
z
M 4700 1600 
L 4700 2800 
L 1725 2800 
L 1725 1600 
L 4700 1600 
z
M 1500 750 
Q 1025 -250 825 -625 
Q 625 -475 325 -375 
Q 650 50 950 925 
Q 1200 800 1500 750 
z
M 5325 850 
Q 5775 150 6075 -350 
Q 5925 -425 5575 -625 
Q 5375 -150 4900 575 
Q 5150 700 5325 850 
z
M 3975 -575 
Q 3775 -100 3400 575 
Q 3575 675 3825 825 
Q 4350 -75 4450 -325 
Q 4200 -450 3975 -575 
z
M 2375 -575 
Q 2350 -300 1975 550 
Q 2200 625 2425 775 
Q 2800 -75 2900 -350 
Q 2625 -450 2375 -575 
z
" transform="scale(0.015625)"/>
      <path id="SimHei-7684" d="M 2100 4975 
Q 1975 4750 1750 3950 
L 2875 3950 
Q 2850 3525 2850 2875 
L 2850 675 
Q 2850 300 2875 -400 
L 2375 -400 
L 2375 100 
L 1100 100 
L 1100 -450 
L 600 -450 
Q 625 350 625 550 
L 625 2850 
Q 625 3525 600 3950 
L 1325 3950 
Q 1450 4525 1525 5150 
Q 1875 5025 2100 4975 
z
M 5825 3075 
Q 5800 1550 5700 175 
Q 5650 -275 5225 -425 
Q 4800 -575 4275 -625 
Q 4250 -350 4050 -50 
Q 4550 -75 4837 -25 
Q 5125 25 5200 200 
Q 5275 375 5312 1225 
Q 5350 2075 5375 3600 
L 3925 3600 
Q 3725 3125 3350 2475 
Q 3175 2650 2925 2750 
Q 3150 3050 3350 3475 
Q 3550 3900 3700 4400 
Q 3850 4900 3875 5175 
Q 4225 5025 4475 4950 
Q 4350 4750 4262 4512 
Q 4175 4275 4075 4050 
L 5850 4050 
Q 5825 3525 5825 3075 
z
M 2375 525 
L 2375 1850 
L 1100 1850 
L 1100 525 
L 2375 525 
z
M 2375 2275 
L 2375 3525 
L 1100 3525 
L 1100 2275 
L 2375 2275 
z
M 4350 2050 
Q 4500 1750 4700 1275 
Q 4525 1200 4225 1025 
Q 4050 1500 3900 1837 
Q 3750 2175 3600 2400 
Q 3775 2500 4050 2650 
L 4350 2050 
z
" transform="scale(0.015625)"/>
      <path id="SimHei-4e0e" d="M 5350 100 
Q 5275 -300 4925 -425 
Q 4575 -550 3900 -600 
Q 3875 -375 3650 -25 
Q 4375 -50 4575 0 
Q 4775 50 4837 225 
Q 4900 400 5100 2350 
L 1125 2350 
Q 1450 4350 1475 5200 
Q 1800 5150 2075 5125 
Q 1975 4825 1900 4275 
L 4900 4275 
Q 5400 4275 5800 4300 
L 5800 3825 
Q 5400 3850 4950 3850 
L 1850 3850 
L 1700 2750 
L 5675 2750 
Q 5625 2450 5575 2050 
L 5350 100 
z
M 3675 1350 
Q 4125 1350 4500 1375 
L 4500 875 
Q 4125 900 3850 900 
L 1450 900 
Q 1000 900 500 875 
L 500 1375 
Q 1000 1350 1450 1350 
L 3675 1350 
z
" transform="scale(0.015625)"/>
      <path id="SimHei-5173" d="M 4675 4850 
Q 4525 4675 4362 4375 
Q 4200 4075 4075 3825 
L 4625 3825 
Q 5150 3825 5550 3850 
L 5550 3375 
Q 5225 3400 4700 3400 
L 3400 3400 
L 3400 2150 
L 4975 2150 
Q 5475 2150 5875 2175 
L 5875 1700 
Q 5475 1725 5025 1725 
L 3500 1725 
Q 4250 450 6000 75 
Q 5775 -175 5600 -525 
Q 4025 0 3225 1300 
Q 2800 200 875 -600 
Q 775 -350 500 -150 
Q 2425 375 2875 1725 
L 1550 1725 
Q 975 1725 600 1700 
L 600 2150 
Q 875 2125 1450 2125 
L 2925 2125 
L 2925 3400 
L 1750 3400 
Q 1275 3400 900 3375 
L 900 3850 
Q 1275 3825 1775 3825 
L 3575 3825 
Q 3925 4625 4075 5150 
Q 4325 5000 4675 4850 
z
M 2125 5125 
Q 2450 4725 2800 4175 
Q 2500 4025 2325 3875 
Q 2025 4450 1725 4825 
Q 1950 4975 2125 5125 
z
" transform="scale(0.015625)"/>
      <path id="SimHei-7cfb" d="M 5300 5200 
Q 5450 4950 5725 4675 
Q 4975 4650 4437 4587 
Q 3900 4525 3125 4450 
Q 3250 4325 3475 4225 
Q 3150 4025 2837 3762 
Q 2525 3500 2225 3275 
L 3475 3275 
Q 4100 3700 4525 4050 
Q 4775 3850 5125 3700 
Q 4775 3550 4450 3375 
Q 4125 3200 3387 2737 
Q 2650 2275 2125 1975 
Q 3600 2050 4875 2100 
Q 4750 2225 4225 2625 
Q 4475 2725 4650 2875 
Q 4950 2650 5337 2312 
Q 5725 1975 6075 1650 
Q 5775 1475 5600 1325 
Q 5400 1575 5225 1725 
Q 4550 1700 3625 1650 
L 3625 150 
Q 3625 -325 3387 -412 
Q 3150 -500 2525 -600 
Q 2475 -300 2300 -25 
Q 2875 -25 3012 12 
Q 3150 50 3150 300 
L 3150 1650 
Q 1625 1625 1075 1525 
Q 1000 1775 900 2050 
Q 1450 2100 1875 2300 
Q 2300 2500 2900 2900 
Q 2325 2900 2037 2875 
Q 1750 2850 1400 2800 
Q 1325 3075 1250 3325 
Q 1675 3325 2100 3662 
Q 2525 4000 2750 4400 
Q 1350 4350 925 4300 
Q 850 4550 750 4750 
Q 2150 4750 3250 4850 
Q 4350 4950 5300 5200 
z
M 4625 1250 
Q 4925 1025 5325 737 
Q 5725 450 6000 175 
Q 5800 0 5600 -225 
Q 5275 125 4925 400 
Q 4575 675 4275 875 
Q 4500 1050 4625 1250 
z
M 2200 875 
Q 1900 725 1537 375 
Q 1175 25 800 -300 
Q 575 -75 375 25 
Q 1075 450 1675 1225 
Q 1900 1050 2200 875 
z
" transform="scale(0.015625)"/>
      <path id="SimHei-20" transform="scale(0.015625)"/>
      <path id="SimHei-28" d="M 2975 -200 
L 2700 -475 
Q 2075 125 1762 775 
Q 1450 1425 1450 2250 
Q 1450 3075 1762 3725 
Q 2075 4375 2700 5000 
L 2975 4725 
Q 2400 4175 2112 3587 
Q 1825 3000 1825 2250 
Q 1825 1500 2112 912 
Q 2400 325 2975 -200 
z
" transform="scale(0.015625)"/>
      <path id="SimHei-65b9" d="M 425 3975 
Q 825 3950 1300 3950 
L 5025 3950 
Q 5625 3950 6000 3975 
L 6000 3475 
Q 5675 3500 5100 3500 
L 2525 3500 
Q 2525 3225 2500 2500 
L 5300 2500 
Q 5250 2175 5200 1550 
L 5050 175 
Q 5000 -275 4625 -412 
Q 4250 -550 3525 -625 
Q 3500 -300 3325 -50 
Q 3900 -75 4200 0 
Q 4500 75 4575 425 
L 4725 2050 
L 2475 2050 
Q 2375 1350 2162 875 
Q 1950 400 1575 0 
Q 1200 -400 825 -700 
Q 725 -550 375 -350 
Q 700 -175 1062 200 
Q 1425 575 1662 1050 
Q 1900 1525 1962 2100 
Q 2025 2675 2025 3500 
L 1325 3500 
Q 775 3500 425 3475 
L 425 3975 
z
M 3075 4075 
Q 2850 4575 2575 5000 
Q 2800 5125 3025 5275 
Q 3300 4850 3575 4350 
Q 3325 4250 3075 4075 
z
" transform="scale(0.015625)"/>
      <path id="SimHei-6cd5" d="M 6075 -300 
Q 5850 -425 5625 -625 
Q 5450 -300 5325 -125 
Q 4525 -175 3587 -262 
Q 2650 -350 2325 -450 
Q 2250 -150 2125 75 
Q 2450 175 2825 725 
Q 3200 1275 3500 2100 
L 2800 2100 
Q 2350 2100 1950 2075 
L 1950 2525 
Q 2350 2500 2825 2500 
L 3725 2500 
L 3725 3600 
L 3150 3600 
Q 2675 3600 2325 3575 
L 2325 4025 
Q 2725 4000 3125 4000 
L 3725 4000 
Q 3725 4700 3700 5150 
L 4250 5150 
Q 4225 4775 4225 4000 
L 4975 4000 
Q 5350 4000 5750 4025 
L 5750 3575 
Q 5350 3600 5025 3600 
L 4225 3600 
L 4225 2500 
L 5125 2500 
Q 5575 2500 6025 2525 
L 6025 2075 
Q 5575 2100 5125 2100 
L 3850 2100 
L 4100 1950 
Q 3950 1775 3625 1200 
Q 3300 625 2900 100 
Q 4000 150 5075 225 
Q 4775 675 4450 1025 
Q 4650 1175 4825 1350 
Q 5275 800 6075 -300 
z
M 300 -250 
Q 650 100 1012 625 
Q 1375 1150 1725 1725 
Q 1850 1500 2075 1375 
Q 1850 1075 1500 487 
Q 1150 -100 850 -625 
Q 650 -425 300 -250 
z
M 675 3425 
Q 1200 3100 1800 2650 
Q 1575 2500 1400 2250 
Q 925 2675 350 3050 
Q 525 3200 675 3425 
z
M 1050 4900 
Q 1550 4575 2100 4125 
Q 1900 3975 1725 3725 
Q 1250 4175 725 4525 
Q 900 4700 1050 4900 
z
" transform="scale(0.015625)"/>
      <path id="SimHei-4e8c" d="M 5050 625 
Q 5650 625 6025 675 
L 6025 50 
Q 5625 75 5050 75 
L 1425 75 
Q 775 75 350 50 
L 350 650 
Q 800 625 1400 625 
L 5050 625 
z
M 4350 4150 
Q 4900 4175 5350 4200 
L 5350 3575 
Q 4900 3600 4375 3600 
L 2050 3600 
Q 1450 3600 1000 3575 
L 1000 4175 
Q 1450 4150 2025 4150 
L 4350 4150 
z
" transform="scale(0.015625)"/>
      <path id="SimHei-7ed3" d="M 5725 1925 
Q 5700 1600 5700 1200 
L 5700 350 
Q 5700 -125 5725 -475 
L 5225 -475 
L 5225 0 
L 3525 0 
L 3525 -525 
L 3025 -525 
Q 3050 125 3050 325 
L 3050 1250 
Q 3050 1550 3025 1925 
L 5725 1925 
z
M 1900 4850 
Q 1700 4600 1475 4200 
Q 1250 3800 925 3200 
Q 1475 3225 1725 3225 
Q 1950 3625 2100 4000 
Q 2350 3825 2650 3675 
Q 2525 3575 2212 3125 
Q 1900 2675 1225 1650 
Q 2050 1775 2525 1850 
Q 2450 1575 2450 1375 
Q 2225 1350 1650 1275 
Q 1075 1200 525 1050 
Q 425 1300 350 1550 
Q 650 1625 950 2012 
Q 1250 2400 1475 2825 
Q 1300 2825 962 2787 
Q 625 2750 375 2675 
Q 300 2925 225 3150 
Q 500 3375 812 3925 
Q 1125 4475 1300 5125 
Q 1600 4975 1900 4850 
z
M 4075 4175 
Q 4075 4600 4050 5175 
L 4575 5175 
Q 4550 4725 4550 4175 
L 5275 4175 
Q 5750 4175 6150 4200 
L 6150 3750 
Q 5750 3775 5300 3775 
L 4550 3775 
L 4550 2950 
L 5125 2950 
Q 5475 2950 5825 2975 
L 5825 2525 
Q 5525 2550 5100 2550 
L 3650 2550 
Q 3225 2550 2900 2525 
L 2900 2975 
Q 3225 2950 3600 2950 
L 4075 2950 
L 4075 3775 
L 3525 3775 
Q 3075 3775 2675 3750 
L 2675 4200 
Q 3000 4175 3475 4175 
L 4075 4175 
z
M 5225 400 
L 5225 1525 
L 3525 1525 
L 3525 400 
L 5225 400 
z
M 2575 650 
Q 2500 425 2525 175 
Q 2050 100 1450 0 
Q 850 -100 425 -225 
Q 325 100 225 350 
Q 750 375 1175 437 
Q 1600 500 2575 650 
z
" transform="scale(0.015625)"/>
      <path id="SimHei-679c" d="M 2975 -525 
Q 3000 -75 3000 575 
L 3000 1600 
L 2900 1600 
Q 2725 1275 2500 1000 
Q 2275 725 1987 512 
Q 1700 300 1362 100 
Q 1025 -100 675 -250 
Q 575 25 400 275 
Q 700 350 975 487 
Q 1250 625 1525 787 
Q 1800 950 2000 1150 
Q 2200 1350 2375 1600 
L 1375 1600 
Q 1000 1600 450 1550 
L 450 2050 
Q 950 2000 1375 2000 
L 3000 2000 
L 3000 2450 
L 1150 2450 
Q 1175 3050 1175 3775 
Q 1175 4500 1150 5000 
L 5325 5000 
Q 5300 4500 5300 3775 
Q 5300 3050 5325 2450 
L 3475 2450 
L 3475 2000 
L 5050 2000 
Q 5550 2000 5925 2025 
L 5925 1550 
Q 5500 1600 5100 1600 
L 4125 1600 
Q 4450 1075 4925 800 
Q 5400 525 6050 375 
Q 5875 150 5775 -175 
Q 4925 150 4425 550 
Q 3925 950 3675 1600 
L 3475 1600 
L 3475 550 
Q 3475 0 3500 -525 
L 2975 -525 
z
M 4825 3875 
L 4825 4625 
L 3475 4625 
L 3475 3875 
L 4825 3875 
z
M 3000 3875 
L 3000 4625 
L 1675 4625 
L 1675 3875 
L 3000 3875 
z
M 4825 2825 
L 4825 3500 
L 3475 3500 
L 3475 2825 
L 4825 2825 
z
M 3000 2825 
L 3000 3500 
L 1675 3500 
L 1675 2825 
L 3000 2825 
z
" transform="scale(0.015625)"/>
      <path id="SimHei-29" d="M 1675 2250 
Q 1675 1425 1362 775 
Q 1050 125 425 -475 
L 150 -200 
Q 725 325 1012 912 
Q 1300 1500 1300 2250 
Q 1300 3000 1012 3587 
Q 725 4175 150 4725 
L 425 5000 
Q 1050 4375 1362 3725 
Q 1675 3075 1675 2250 
z
" transform="scale(0.015625)"/>
     </defs>
     <use xlink:href="#SimHei-4fdd"/>
     <use xlink:href="#SimHei-7559" transform="translate(100 0)"/>
     <use xlink:href="#SimHei-7ad9" transform="translate(200 0)"/>
     <use xlink:href="#SimHei-70b9" transform="translate(300 0)"/>
     <use xlink:href="#SimHei-7684" transform="translate(400 0)"/>
     <use xlink:href="#SimHei-5bb9" transform="translate(500 0)"/>
     <use xlink:href="#SimHei-91cf" transform="translate(600 0)"/>
     <use xlink:href="#SimHei-4e0e" transform="translate(700 0)"/>
     <use xlink:href="#SimHei-9700" transform="translate(800 0)"/>
     <use xlink:href="#SimHei-6c42" transform="translate(900 0)"/>
     <use xlink:href="#SimHei-5173" transform="translate(1000 0)"/>
     <use xlink:href="#SimHei-7cfb" transform="translate(1100 0)"/>
     <use xlink:href="#SimHei-20" transform="translate(1200 0)"/>
     <use xlink:href="#SimHei-28" transform="translate(1250 0)"/>
     <use xlink:href="#SimHei-65b9" transform="translate(1300 0)"/>
     <use xlink:href="#SimHei-6cd5" transform="translate(1400 0)"/>
     <use xlink:href="#SimHei-4e8c" transform="translate(1500 0)"/>
     <use xlink:href="#SimHei-7ed3" transform="translate(1600 0)"/>
     <use xlink:href="#SimHei-679c" transform="translate(1700 0)"/>
     <use xlink:href="#SimHei-29" transform="translate(1800 0)"/>
    </g>
   </g>
   <g id="legend_1">
    <g id="patch_7">
     <path d="M 48.25125 78.565625 
L 170.25125 78.565625 
Q 172.25125 78.565625 172.25125 76.565625 
L 172.25125 34.20625 
Q 172.25125 32.20625 170.25125 32.20625 
L 48.25125 32.20625 
Q 46.25125 32.20625 46.25125 34.20625 
L 46.25125 76.565625 
Q 46.25125 78.565625 48.25125 78.565625 
z
" style="fill: #ffffff; opacity: 0.8; stroke: #cccccc; stroke-linejoin: miter"/>
    </g>
    <g id="PathCollection_3">
     <g>
      <use xlink:href="#m509f6591fb" x="60.25125" y="41.55" style="fill: #0000ff; fill-opacity: 0.7; stroke: #0000ff; stroke-opacity: 0.7"/>
     </g>
    </g>
    <g id="text_18">
     <!-- 借车需求 (&gt;0) -->
     <g transform="translate(78.25125 44.175) scale(0.1 -0.1)">
      <defs>
       <path id="SimHei-501f" d="M 5425 2200 
Q 5400 1825 5400 850 
Q 5400 -100 5425 -500 
L 4975 -500 
L 4975 -175 
L 2900 -175 
L 2900 -525 
L 2450 -525 
Q 2475 -175 2475 750 
Q 2475 1675 2450 2200 
L 5425 2200 
z
M 3000 4350 
Q 3000 4850 2975 5125 
L 3500 5125 
Q 3450 5025 3450 4350 
L 4400 4350 
Q 4400 4950 4375 5150 
L 4900 5150 
Q 4850 4875 4850 4350 
Q 5450 4350 5800 4375 
L 5800 3900 
Q 5425 3925 4850 3925 
L 4850 3125 
L 5200 3125 
Q 5625 3125 6000 3150 
L 6000 2675 
Q 5650 2700 5175 2700 
L 2650 2700 
Q 2275 2700 1925 2675 
L 1925 3150 
Q 2225 3125 2650 3125 
L 3000 3125 
L 3000 3925 
Q 2475 3925 2225 3900 
L 2225 4375 
Q 2450 4350 3000 4350 
z
M 1100 3100 
Q 825 2550 600 2200 
Q 450 2375 200 2550 
Q 500 2900 887 3675 
Q 1275 4450 1475 5250 
Q 1650 5150 2075 5000 
Q 1850 4800 1550 3900 
L 1550 375 
Q 1550 -225 1575 -625 
L 1075 -625 
Q 1100 -300 1100 425 
L 1100 3100 
z
M 4975 1200 
L 4975 1775 
L 2900 1775 
L 2900 1200 
L 4975 1200 
z
M 4975 250 
L 4975 775 
L 2900 775 
L 2900 250 
L 4975 250 
z
M 4400 3125 
L 4400 3925 
L 3450 3925 
L 3450 3125 
L 4400 3125 
z
" transform="scale(0.015625)"/>
       <path id="SimHei-8f66" d="M 1125 1950 
Q 1000 2300 900 2525 
Q 1225 2650 1562 3062 
Q 1900 3475 2125 3850 
Q 1200 3850 625 3825 
L 625 4325 
Q 1150 4300 2375 4300 
Q 2675 4900 2775 5275 
Q 3075 5125 3350 5025 
Q 3100 4675 2900 4300 
L 4600 4300 
Q 4900 4300 5525 4325 
L 5525 3825 
Q 5025 3850 4600 3850 
L 2675 3850 
Q 2400 3425 1725 2550 
L 3125 2550 
Q 3125 3025 3100 3525 
L 3650 3525 
Q 3625 3100 3625 2550 
L 4475 2550 
Q 4975 2550 5450 2575 
L 5450 2075 
Q 4975 2100 4475 2100 
L 3625 2100 
L 3625 1150 
L 5025 1150 
Q 5500 1150 6075 1175 
L 6075 650 
Q 5500 675 5025 675 
L 3625 675 
Q 3625 -125 3650 -600 
L 3100 -600 
Q 3125 -100 3125 675 
L 1400 675 
Q 850 675 350 650 
L 350 1175 
Q 850 1150 1400 1150 
L 3125 1150 
L 3125 2100 
Q 2225 2100 1875 2075 
Q 1525 2050 1125 1950 
z
" transform="scale(0.015625)"/>
       <path id="SimHei-3e" d="M 2950 2250 
L 425 -25 
L 200 250 
L 2450 2250 
L 200 4300 
L 450 4550 
L 2950 2250 
z
" transform="scale(0.015625)"/>
      </defs>
      <use xlink:href="#SimHei-501f"/>
      <use xlink:href="#SimHei-8f66" transform="translate(100 0)"/>
      <use xlink:href="#SimHei-9700" transform="translate(200 0)"/>
      <use xlink:href="#SimHei-6c42" transform="translate(300 0)"/>
      <use xlink:href="#SimHei-20" transform="translate(400 0)"/>
      <use xlink:href="#SimHei-28" transform="translate(450 0)"/>
      <use xlink:href="#SimHei-3e" transform="translate(500 0)"/>
      <use xlink:href="#SimHei-30" transform="translate(550 0)"/>
      <use xlink:href="#SimHei-29" transform="translate(600 0)"/>
     </g>
    </g>
    <g id="PathCollection_4">
     <defs>
      <path id="ma78b429ae9" d="M 0 3 
C 0.795609 3 1.55874 2.683901 2.12132 2.12132 
C 2.683901 1.55874 3 0.795609 3 0 
C 3 -0.795609 2.683901 -1.55874 2.12132 -2.12132 
C 1.55874 -2.683901 0.795609 -3 0 -3 
C -0.795609 -3 -1.55874 -2.683901 -2.12132 -2.12132 
C -2.683901 -1.55874 -3 -0.795609 -3 0 
C -3 0.795609 -2.683901 1.55874 -2.12132 2.12132 
C -1.55874 2.683901 -0.795609 3 0 3 
z
" style="stroke: #ff0000; stroke-opacity: 0.7"/>
     </defs>
     <g>
      <use xlink:href="#ma78b429ae9" x="60.25125" y="55.76875" style="fill: #ff0000; fill-opacity: 0.7; stroke: #ff0000; stroke-opacity: 0.7"/>
     </g>
    </g>
    <g id="text_19">
     <!-- 还车需求 (&lt;=0) -->
     <g transform="translate(78.25125 58.39375) scale(0.1 -0.1)">
      <defs>
       <path id="SimHei-8fd8" d="M 5025 4725 
Q 5275 4725 5800 4750 
L 5800 4275 
Q 5350 4300 4900 4300 
L 4325 4300 
L 4000 3650 
L 4000 1325 
Q 4000 875 4025 400 
L 3500 400 
Q 3525 875 3525 1350 
L 3525 2950 
Q 3075 2325 2075 1500 
Q 1950 1700 1700 1900 
Q 2250 2200 2787 2775 
Q 3325 3350 3775 4300 
L 2625 4300 
Q 2375 4300 2125 4275 
L 2125 4750 
Q 2375 4750 2825 4725 
L 5025 4725 
z
M 1600 3025 
Q 1575 2550 1575 2050 
L 1575 625 
Q 2375 75 3825 62 
Q 5275 50 6150 150 
Q 6000 -150 5950 -425 
Q 4925 -450 4250 -425 
Q 3575 -400 3087 -350 
Q 2600 -300 2287 -187 
Q 1975 -75 1687 100 
Q 1400 275 1187 62 
Q 975 -150 700 -550 
Q 525 -350 275 -175 
Q 850 375 1100 600 
L 1100 2600 
Q 825 2600 325 2575 
L 325 3050 
Q 850 3025 1150 3025 
L 1600 3025 
z
M 4775 3325 
Q 5125 2950 6025 1875 
Q 5800 1750 5575 1550 
Q 5325 1950 4425 3000 
Q 4625 3150 4775 3325 
z
M 1100 5000 
Q 1725 4200 1900 3950 
Q 1675 3825 1450 3625 
Q 1125 4175 675 4675 
Q 925 4850 1100 5000 
z
" transform="scale(0.015625)"/>
       <path id="SimHei-3c" d="M 2950 250 
L 2725 -25 
L 200 2250 
L 2700 4550 
L 2950 4300 
L 700 2250 
L 2950 250 
z
" transform="scale(0.015625)"/>
       <path id="SimHei-3d" d="M 2975 2900 
L 125 2900 
L 125 3300 
L 2975 3300 
L 2975 2900 
z
M 2975 1375 
L 125 1375 
L 125 1775 
L 2975 1775 
L 2975 1375 
z
" transform="scale(0.015625)"/>
      </defs>
      <use xlink:href="#SimHei-8fd8"/>
      <use xlink:href="#SimHei-8f66" transform="translate(100 0)"/>
      <use xlink:href="#SimHei-9700" transform="translate(200 0)"/>
      <use xlink:href="#SimHei-6c42" transform="translate(300 0)"/>
      <use xlink:href="#SimHei-20" transform="translate(400 0)"/>
      <use xlink:href="#SimHei-28" transform="translate(450 0)"/>
      <use xlink:href="#SimHei-3c" transform="translate(500 0)"/>
      <use xlink:href="#SimHei-3d" transform="translate(550 0)"/>
      <use xlink:href="#SimHei-30" transform="translate(600 0)"/>
      <use xlink:href="#SimHei-29" transform="translate(650 0)"/>
     </g>
    </g>
    <g id="line2d_30">
     <path d="M 50.25125 69.7375 
L 60.25125 69.7375 
L 70.25125 69.7375 
" style="fill: none; stroke-dasharray: 3.7,1.6; stroke-dashoffset: 0; stroke: #008000"/>
    </g>
    <g id="text_20">
     <!-- y=|x| (理想匹配线) -->
     <g transform="translate(78.25125 73.2375) scale(0.1 -0.1)">
      <defs>
       <path id="SimHei-79" d="M 2900 2925 
L 1750 -100 
Q 1650 -450 1450 -625 
Q 1250 -800 950 -800 
Q 825 -800 712 -787 
Q 600 -775 500 -725 
L 500 -225 
Q 600 -275 700 -300 
Q 800 -325 875 -325 
Q 1075 -325 1150 -262 
Q 1225 -200 1300 25 
L 200 2925 
L 750 2925 
L 1550 725 
L 1575 725 
L 2350 2925 
L 2900 2925 
z
" transform="scale(0.015625)"/>
       <path id="SimHei-7c" d="M 1825 -850 
L 1325 -850 
L 1325 5500 
L 1825 5500 
L 1825 -850 
z
" transform="scale(0.015625)"/>
       <path id="SimHei-78" d="M 2875 125 
L 2275 125 
L 1550 1200 
L 825 125 
L 225 125 
L 1250 1550 
L 300 2925 
L 900 2925 
L 1550 1875 
L 2200 2925 
L 2800 2925 
L 1850 1550 
L 2875 125 
z
" transform="scale(0.015625)"/>
       <path id="SimHei-7406" d="M 5825 4850 
Q 5800 4525 5800 3425 
Q 5800 2350 5825 1875 
L 4450 1875 
L 4450 1125 
L 5200 1125 
Q 5650 1125 5900 1150 
L 5900 700 
Q 5625 725 5200 725 
L 4450 725 
L 4450 -125 
L 5350 -125 
Q 5825 -125 6150 -100 
L 6150 -550 
Q 5825 -525 5375 -525 
L 2950 -525 
Q 2550 -525 2250 -550 
L 2250 -100 
Q 2575 -125 2950 -125 
L 3975 -125 
L 3975 725 
L 3150 725 
Q 2825 725 2575 700 
L 2575 1150 
Q 2825 1125 3150 1125 
L 3975 1125 
L 3975 1875 
L 2625 1875 
Q 2650 2250 2650 3400 
Q 2650 4550 2625 4850 
L 5825 4850 
z
M 1750 4525 
Q 2025 4525 2350 4550 
L 2350 4075 
Q 2000 4100 1750 4100 
L 1525 4100 
L 1525 2750 
Q 1875 2750 2225 2775 
L 2225 2300 
Q 1875 2325 1525 2325 
L 1525 725 
Q 2000 900 2325 1050 
Q 2375 800 2425 625 
Q 1950 475 1362 237 
Q 775 0 450 -200 
Q 350 50 225 325 
Q 550 375 1075 600 
L 1075 2325 
Q 625 2325 300 2300 
L 300 2775 
Q 650 2750 1075 2750 
L 1075 4100 
L 775 4100 
Q 550 4100 225 4075 
L 225 4550 
Q 550 4525 775 4525 
L 1750 4525 
z
M 5325 2275 
L 5325 3175 
L 4450 3175 
L 4450 2275 
L 5325 2275 
z
M 5325 3550 
L 5325 4450 
L 4450 4450 
L 4450 3550 
L 5325 3550 
z
M 3975 2275 
L 3975 3175 
L 3125 3175 
L 3125 2275 
L 3975 2275 
z
M 3975 3550 
L 3975 4450 
L 3125 4450 
L 3125 3550 
L 3975 3550 
z
" transform="scale(0.015625)"/>
       <path id="SimHei-60f3" d="M 5650 4975 
Q 5625 4175 5625 3275 
Q 5625 2375 5650 1750 
L 3025 1750 
Q 3050 2275 3050 3275 
Q 3050 4275 3025 4975 
L 5650 4975 
z
M 1425 4325 
Q 1425 4750 1400 5225 
L 1925 5225 
Q 1900 4975 1900 4325 
Q 2225 4325 2650 4350 
L 2650 3950 
Q 2250 3975 1900 3975 
Q 1900 2100 1925 1725 
L 1400 1725 
Q 1425 2350 1425 3050 
Q 975 2300 650 1925 
Q 475 2125 225 2250 
Q 775 2675 1350 3975 
Q 850 3975 450 3950 
L 450 4350 
Q 850 4325 1425 4325 
z
M 2600 1225 
Q 2575 850 2575 525 
Q 2575 225 2587 75 
Q 2600 -75 2925 -100 
L 4150 -100 
Q 4300 -100 4375 -25 
Q 4450 50 4475 500 
Q 4675 350 5025 275 
Q 4850 -250 4737 -362 
Q 4625 -475 4175 -475 
L 2575 -475 
Q 2175 -450 2137 -200 
Q 2100 50 2100 450 
Q 2100 850 2075 1225 
L 2600 1225 
z
M 5150 3975 
L 5150 4575 
L 3525 4575 
L 3525 3975 
L 5150 3975 
z
M 5150 2100 
L 5150 2675 
L 3525 2675 
L 3525 2100 
L 5150 2100 
z
M 5150 3050 
L 5150 3600 
L 3525 3600 
L 3525 3050 
L 5150 3050 
z
M 1575 1075 
Q 1275 50 1075 -475 
Q 850 -400 525 -300 
Q 825 200 1050 1200 
Q 1350 1125 1575 1075 
z
M 5150 1350 
Q 5800 600 6125 150 
Q 5875 -25 5675 -200 
Q 5475 175 4750 1025 
Q 5025 1175 5150 1350 
z
M 3525 1425 
Q 3850 850 4000 625 
Q 3775 550 3550 375 
Q 3475 550 3100 1175 
Q 3250 1300 3525 1425 
z
M 2400 3500 
Q 2725 3025 2900 2725 
Q 2725 2600 2525 2425 
Q 2375 2750 2025 3225 
Q 2200 3350 2400 3500 
z
" transform="scale(0.015625)"/>
       <path id="SimHei-5339" d="M 4375 1075 
Q 3900 1075 3900 1575 
L 3900 4275 
L 3050 4275 
Q 3050 3425 3025 2900 
Q 3000 2375 2775 1837 
Q 2550 1300 1950 750 
Q 1850 975 1475 1050 
Q 1875 1350 2137 1725 
Q 2400 2100 2500 2587 
Q 2600 3075 2575 4275 
L 1225 4275 
L 1225 75 
L 5025 75 
Q 5600 75 5950 100 
L 5950 -375 
Q 5600 -350 5025 -350 
L 725 -350 
Q 775 250 775 650 
L 775 3700 
Q 775 4225 725 4700 
L 5000 4700 
Q 5475 4700 5800 4725 
L 5800 4250 
Q 5475 4275 5000 4275 
L 4375 4275 
L 4375 1875 
Q 4375 1550 4525 1537 
Q 4675 1525 4875 1525 
Q 5075 1525 5212 1550 
Q 5350 1575 5425 2175 
Q 5675 2025 5975 1950 
Q 5825 1325 5675 1200 
Q 5525 1075 5225 1075 
L 4375 1075 
z
" transform="scale(0.015625)"/>
       <path id="SimHei-7ebf" d="M 3450 4300 
Q 3450 4675 3375 5125 
Q 3700 5100 4050 5050 
Q 3975 4900 3950 4562 
Q 3925 4225 3950 3600 
L 4800 3750 
Q 5225 3850 5650 3975 
L 5750 3500 
Q 5325 3450 4875 3375 
L 3975 3200 
Q 3975 2800 4025 2500 
L 5000 2675 
Q 5500 2775 5950 2925 
L 6025 2450 
Q 5575 2375 5075 2275 
L 4100 2100 
Q 4150 1600 4350 1175 
Q 4575 1350 4787 1575 
Q 5000 1800 5175 2075 
Q 5550 1775 5750 1675 
Q 5425 1525 5237 1337 
Q 5050 1150 4625 750 
Q 4925 250 5162 112 
Q 5400 -25 5500 100 
Q 5600 225 5675 625 
Q 5900 450 6200 350 
Q 5775 -750 5275 -537 
Q 4775 -325 4225 450 
Q 3875 175 3537 -62 
Q 3200 -300 2700 -550 
Q 2575 -300 2325 -100 
Q 2825 75 3175 275 
Q 3525 475 3975 850 
Q 3750 1350 3650 2025 
Q 2900 1900 2600 1800 
L 2525 2275 
Q 2825 2275 3550 2425 
Q 3500 2825 3500 3100 
Q 2825 2950 2575 2875 
L 2475 3350 
Q 2725 3350 3450 3500 
L 3450 4300 
z
M 1950 4875 
Q 1700 4650 1462 4237 
Q 1225 3825 825 3225 
Q 1425 3250 1650 3250 
Q 1875 3625 2050 4075 
Q 2300 3900 2600 3800 
Q 2350 3550 2087 3125 
Q 1825 2700 1175 1675 
Q 1850 1725 2375 1775 
Q 2300 1525 2300 1350 
Q 2125 1350 1525 1287 
Q 925 1225 550 1125 
Q 525 1375 400 1650 
Q 700 1725 950 2050 
Q 1200 2375 1475 2875 
Q 650 2825 425 2675 
Q 350 2950 200 3225 
Q 525 3450 825 3962 
Q 1125 4475 1375 5150 
Q 1625 4975 1950 4875 
z
M 2575 875 
Q 2550 600 2575 450 
Q 1950 325 1450 200 
Q 950 75 525 -75 
Q 450 200 250 475 
Q 950 550 1325 612 
Q 1700 675 2575 875 
z
M 4850 4025 
Q 4675 4300 4375 4675 
L 4775 4875 
Q 4875 4750 5275 4275 
Q 5025 4175 4850 4025 
z
" transform="scale(0.015625)"/>
      </defs>
      <use xlink:href="#SimHei-79"/>
      <use xlink:href="#SimHei-3d" transform="translate(50 0)"/>
      <use xlink:href="#SimHei-7c" transform="translate(100 0)"/>
      <use xlink:href="#SimHei-78" transform="translate(150 0)"/>
      <use xlink:href="#SimHei-7c" transform="translate(200 0)"/>
      <use xlink:href="#SimHei-20" transform="translate(250 0)"/>
      <use xlink:href="#SimHei-28" transform="translate(300 0)"/>
      <use xlink:href="#SimHei-7406" transform="translate(350 0)"/>
      <use xlink:href="#SimHei-60f3" transform="translate(450 0)"/>
      <use xlink:href="#SimHei-5339" transform="translate(550 0)"/>
      <use xlink:href="#SimHei-914d" transform="translate(650 0)"/>
      <use xlink:href="#SimHei-7ebf" transform="translate(750 0)"/>
      <use xlink:href="#SimHei-29" transform="translate(850 0)"/>
     </g>
    </g>
   </g>
  </g>
 </g>
 <defs>
  <clipPath id="pcfdb3badfc">
   <rect x="41.25125" y="27.20625" width="667.94875" height="365.2525"/>
  </clipPath>
 </defs>
</svg>
