<?xml version="1.0" encoding="utf-8" standalone="no"?>
<!DOCTYPE svg PUBLIC "-//W3C//DTD SVG 1.1//EN"
  "http://www.w3.org/Graphics/SVG/1.1/DTD/svg11.dtd">
<svg xmlns:xlink="http://www.w3.org/1999/xlink" width="720pt" height="432pt" viewBox="0 0 720 432" xmlns="http://www.w3.org/2000/svg" version="1.1">
 <metadata>
  <rdf:RDF xmlns:dc="http://purl.org/dc/elements/1.1/" xmlns:cc="http://creativecommons.org/ns#" xmlns:rdf="http://www.w3.org/1999/02/22-rdf-syntax-ns#">
   <cc:Work>
    <dc:type rdf:resource="http://purl.org/dc/dcmitype/StillImage"/>
    <dc:date>2025-08-10T17:30:55.432748</dc:date>
    <dc:format>image/svg+xml</dc:format>
    <dc:creator>
     <cc:Agent>
      <dc:title>Matplotlib v3.10.5, https://matplotlib.org/</dc:title>
     </cc:Agent>
    </dc:creator>
   </cc:Work>
  </rdf:RDF>
 </metadata>
 <defs>
  <style type="text/css">*{stroke-linejoin: round; stroke-linecap: butt}</style>
 </defs>
 <g id="figure_1">
  <g id="patch_1">
   <path d="M 0 432 
L 720 432 
L 720 0 
L 0 0 
z
" style="fill: #ffffff"/>
  </g>
  <g id="axes_1">
   <g id="patch_2">
    <path d="M 51.55625 330.635391 
L 709.2 330.635391 
L 709.2 26.88 
L 51.55625 26.88 
z
" style="fill: #ffffff"/>
   </g>
   <g id="patch_3">
    <path d="M 81.449148 26.88 
L 181.09214 26.88 
L 181.09214 267.411405 
L 81.449148 267.411405 
z
" clip-path="url(#p4667fb392a)" style="fill: #87ceeb"/>
   </g>
   <g id="patch_4">
    <path d="M 206.002888 26.88 
L 305.645881 26.88 
L 305.645881 288.327179 
L 206.002888 288.327179 
z
" clip-path="url(#p4667fb392a)" style="fill: #90ee90"/>
   </g>
   <g id="patch_5">
    <path d="M 330.556629 26.88 
L 430.199621 26.88 
L 430.199621 270.235034 
L 330.556629 270.235034 
z
" clip-path="url(#p4667fb392a)" style="fill: #ffd700"/>
   </g>
   <g id="patch_6">
    <path d="M 455.110369 26.88 
L 554.753362 26.88 
L 554.753362 285.65119 
L 455.110369 285.65119 
z
" clip-path="url(#p4667fb392a)" style="fill: #ffa500"/>
   </g>
   <g id="patch_7">
    <path d="M 579.66411 26.88 
L 679.307102 26.88 
L 679.307102 272.947933 
L 579.66411 272.947933 
z
" clip-path="url(#p4667fb392a)" style="fill: #f08080"/>
   </g>
   <g id="matplotlib.axis_1">
    <g id="xtick_1">
     <g id="line2d_1">
      <defs>
       <path id="m146305b142" d="M 0 0 
L 0 3.5 
" style="stroke: #000000; stroke-width: 0.8"/>
      </defs>
      <g>
       <use xlink:href="#m146305b142" x="131.270644" y="330.635391" style="stroke: #000000; stroke-width: 0.8"/>
      </g>
     </g>
     <g id="text_1">
      <!-- Scenario_1_Worst -->
      <g transform="translate(104.975111 399.120535) rotate(-45) scale(0.1 -0.1)">
       <defs>
        <path id="SimHei-53" d="M 2900 1325 
Q 2900 750 2537 412 
Q 2175 75 1550 75 
Q 925 75 575 425 
Q 225 775 225 1300 
L 225 1475 
L 800 1475 
L 800 1325 
Q 800 950 1025 750 
Q 1250 550 1550 550 
Q 1950 550 2137 762 
Q 2325 975 2325 1275 
Q 2325 1525 2100 1737 
Q 1875 1950 1450 2125 
Q 850 2350 587 2625 
Q 325 2900 325 3275 
Q 325 3800 687 4125 
Q 1050 4450 1550 4450 
Q 2200 4450 2487 4062 
Q 2775 3675 2775 3225 
L 2200 3225 
Q 2225 3500 2050 3725 
Q 1875 3950 1550 3950 
Q 1250 3950 1075 3787 
Q 900 3625 900 3350 
Q 900 3125 1037 2962 
Q 1175 2800 1750 2575 
Q 2300 2350 2600 2037 
Q 2900 1725 2900 1325 
z
" transform="scale(0.015625)"/>
        <path id="SimHei-63" d="M 2850 1250 
Q 2850 725 2487 400 
Q 2125 75 1575 75 
Q 1025 75 625 462 
Q 225 850 225 1525 
Q 225 2200 625 2587 
Q 1025 2975 1575 2975 
Q 2125 2975 2450 2687 
Q 2775 2400 2775 2000 
L 2225 2000 
Q 2200 2300 2012 2412 
Q 1825 2525 1575 2525 
Q 1275 2525 1025 2287 
Q 775 2050 775 1525 
Q 775 1000 1025 762 
Q 1275 525 1575 525 
Q 1900 525 2100 700 
Q 2300 875 2300 1250 
L 2850 1250 
z
" transform="scale(0.015625)"/>
        <path id="SimHei-65" d="M 2850 1075 
Q 2800 625 2450 350 
Q 2100 75 1625 75 
Q 1025 75 637 462 
Q 250 850 250 1525 
Q 250 2200 637 2587 
Q 1025 2975 1625 2975 
Q 2150 2975 2487 2637 
Q 2825 2300 2825 1525 
L 800 1525 
Q 800 975 1037 750 
Q 1275 525 1625 525 
Q 1900 525 2075 662 
Q 2250 800 2300 1075 
L 2850 1075 
z
M 2250 1925 
Q 2200 2275 2025 2412 
Q 1850 2550 1575 2550 
Q 1325 2550 1125 2412 
Q 925 2275 825 1925 
L 2250 1925 
z
" transform="scale(0.015625)"/>
        <path id="SimHei-6e" d="M 2800 125 
L 2300 125 
L 2300 1925 
Q 2300 2225 2150 2400 
Q 2000 2575 1750 2575 
Q 1425 2575 1137 2237 
Q 850 1900 850 1400 
L 850 125 
L 350 125 
L 350 2925 
L 850 2925 
L 850 2400 
Q 1050 2675 1287 2825 
Q 1525 2975 1900 2975 
Q 2350 2975 2575 2725 
Q 2800 2475 2800 2100 
L 2800 125 
z
" transform="scale(0.015625)"/>
        <path id="SimHei-61" d="M 2875 125 
L 2275 125 
Q 2225 175 2200 262 
Q 2175 350 2175 475 
Q 2000 275 1750 175 
Q 1500 75 1225 75 
Q 825 75 550 275 
Q 275 475 275 850 
Q 275 1225 525 1450 
Q 775 1675 1300 1750 
Q 1650 1800 1912 1875 
Q 2175 1950 2175 2075 
Q 2175 2225 2062 2375 
Q 1950 2525 1575 2525 
Q 1275 2525 1137 2412 
Q 1000 2300 950 2100 
L 400 2100 
Q 450 2500 762 2737 
Q 1075 2975 1575 2975 
Q 2125 2975 2400 2725 
Q 2675 2475 2675 2025 
L 2675 650 
Q 2675 500 2725 375 
Q 2775 250 2875 125 
z
M 2175 1050 
L 2175 1550 
Q 2025 1500 1887 1462 
Q 1750 1425 1425 1375 
Q 1050 1325 937 1200 
Q 825 1075 825 900 
Q 825 750 937 637 
Q 1050 525 1275 525 
Q 1500 525 1762 650 
Q 2025 775 2175 1050 
z
" transform="scale(0.015625)"/>
        <path id="SimHei-72" d="M 2500 2425 
Q 2025 2500 1700 2287 
Q 1375 2075 1150 1550 
L 1150 125 
L 650 125 
L 650 2925 
L 1150 2925 
L 1150 2200 
Q 1375 2600 1712 2787 
Q 2050 2975 2500 2975 
L 2500 2425 
z
" transform="scale(0.015625)"/>
        <path id="SimHei-69" d="M 1800 3725 
L 1300 3725 
L 1300 4375 
L 1800 4375 
L 1800 3725 
z
M 1800 125 
L 1300 125 
L 1300 2925 
L 1800 2925 
L 1800 125 
z
" transform="scale(0.015625)"/>
        <path id="SimHei-6f" d="M 2925 1525 
Q 2925 875 2525 475 
Q 2125 75 1575 75 
Q 1025 75 625 475 
Q 225 875 225 1525 
Q 225 2175 625 2575 
Q 1025 2975 1575 2975 
Q 2125 2975 2525 2575 
Q 2925 2175 2925 1525 
z
M 2375 1525 
Q 2375 2025 2125 2275 
Q 1875 2525 1575 2525 
Q 1275 2525 1025 2275 
Q 775 2025 775 1525 
Q 775 1025 1025 775 
Q 1275 525 1575 525 
Q 1875 525 2125 775 
Q 2375 1025 2375 1525 
z
" transform="scale(0.015625)"/>
        <path id="SimHei-5f" d="M 3150 -850 
L 0 -850 
L 0 -550 
L 3150 -550 
L 3150 -850 
z
" transform="scale(0.015625)"/>
        <path id="SimHei-31" d="M 1400 3600 
Q 1075 3275 575 2975 
L 575 3450 
Q 1200 3875 1600 4450 
L 1900 4450 
L 1900 150 
L 1400 150 
L 1400 3600 
z
" transform="scale(0.015625)"/>
        <path id="SimHei-57" d="M 3075 4400 
L 2525 75 
L 2025 75 
L 1575 3275 
L 1525 3275 
L 1075 75 
L 575 75 
L 25 4400 
L 575 4400 
L 850 1675 
L 900 1675 
L 1275 4400 
L 1825 4400 
L 2200 1675 
L 2250 1675 
L 2525 4400 
L 3075 4400 
z
" transform="scale(0.015625)"/>
        <path id="SimHei-73" d="M 2750 900 
Q 2750 500 2437 287 
Q 2125 75 1650 75 
Q 1050 75 725 312 
Q 400 550 400 1000 
L 900 1000 
Q 900 700 1112 600 
Q 1325 500 1625 500 
Q 1925 500 2075 612 
Q 2225 725 2225 900 
Q 2225 1025 2100 1150 
Q 1975 1275 1475 1350 
Q 900 1425 687 1637 
Q 475 1850 475 2200 
Q 475 2500 762 2737 
Q 1050 2975 1600 2975 
Q 2100 2975 2387 2750 
Q 2675 2525 2675 2150 
L 2175 2150 
Q 2175 2375 2012 2462 
Q 1850 2550 1600 2550 
Q 1275 2550 1137 2437 
Q 1000 2325 1000 2175 
Q 1000 2000 1125 1900 
Q 1250 1800 1650 1750 
Q 2300 1650 2525 1437 
Q 2750 1225 2750 900 
z
" transform="scale(0.015625)"/>
        <path id="SimHei-74" d="M 2750 200 
Q 2625 150 2462 112 
Q 2300 75 2025 75 
Q 1575 75 1300 325 
Q 1025 575 1025 1025 
L 1025 2525 
L 175 2525 
L 175 2925 
L 1025 2925 
L 1025 3900 
L 1525 3900 
L 1525 2925 
L 2550 2925 
L 2550 2525 
L 1525 2525 
L 1525 1000 
Q 1525 800 1625 662 
Q 1725 525 2000 525 
Q 2275 525 2450 575 
Q 2625 625 2750 700 
L 2750 200 
z
" transform="scale(0.015625)"/>
       </defs>
       <use xlink:href="#SimHei-53"/>
       <use xlink:href="#SimHei-63" transform="translate(50 0)"/>
       <use xlink:href="#SimHei-65" transform="translate(100 0)"/>
       <use xlink:href="#SimHei-6e" transform="translate(150 0)"/>
       <use xlink:href="#SimHei-61" transform="translate(200 0)"/>
       <use xlink:href="#SimHei-72" transform="translate(250 0)"/>
       <use xlink:href="#SimHei-69" transform="translate(300 0)"/>
       <use xlink:href="#SimHei-6f" transform="translate(350 0)"/>
       <use xlink:href="#SimHei-5f" transform="translate(400 0)"/>
       <use xlink:href="#SimHei-31" transform="translate(450 0)"/>
       <use xlink:href="#SimHei-5f" transform="translate(500 0)"/>
       <use xlink:href="#SimHei-57" transform="translate(550 0)"/>
       <use xlink:href="#SimHei-6f" transform="translate(600 0)"/>
       <use xlink:href="#SimHei-72" transform="translate(650 0)"/>
       <use xlink:href="#SimHei-73" transform="translate(700 0)"/>
       <use xlink:href="#SimHei-74" transform="translate(750 0)"/>
      </g>
     </g>
    </g>
    <g id="xtick_2">
     <g id="line2d_2">
      <g>
       <use xlink:href="#m146305b142" x="255.824384" y="330.635391" style="stroke: #000000; stroke-width: 0.8"/>
      </g>
     </g>
     <g id="text_2">
      <!-- Scenario_2_Best -->
      <g transform="translate(231.324239 395.640244) rotate(-45) scale(0.1 -0.1)">
       <defs>
        <path id="SimHei-32" d="M 300 250 
Q 325 625 650 925 
Q 975 1225 1475 1862 
Q 1975 2500 2125 2850 
Q 2275 3200 2237 3450 
Q 2200 3700 2000 3862 
Q 1800 4025 1537 4000 
Q 1275 3975 1037 3800 
Q 800 3625 675 3275 
L 200 3350 
Q 400 3925 712 4187 
Q 1025 4450 1450 4475 
Q 1700 4500 1900 4462 
Q 2100 4425 2312 4287 
Q 2525 4150 2662 3875 
Q 2800 3600 2762 3212 
Q 2725 2825 2375 2287 
Q 2025 1750 1025 600 
L 2825 600 
L 2825 150 
L 300 150 
L 300 250 
z
" transform="scale(0.015625)"/>
        <path id="SimHei-42" d="M 2950 1400 
Q 2950 675 2550 400 
Q 2150 125 1525 125 
L 275 125 
L 275 4400 
L 1575 4400 
Q 2200 4400 2512 4075 
Q 2825 3750 2825 3300 
Q 2825 2850 2612 2637 
Q 2400 2425 2175 2350 
Q 2475 2275 2712 2037 
Q 2950 1800 2950 1400 
z
M 2250 3300 
Q 2250 3625 2062 3775 
Q 1875 3925 1600 3925 
L 850 3925 
L 850 2600 
L 1575 2600 
Q 1850 2600 2050 2762 
Q 2250 2925 2250 3300 
z
M 2350 1400 
Q 2350 1800 2087 1962 
Q 1825 2125 1500 2125 
L 850 2125 
L 850 600 
L 1425 600 
Q 1875 600 2112 775 
Q 2350 950 2350 1400 
z
" transform="scale(0.015625)"/>
       </defs>
       <use xlink:href="#SimHei-53"/>
       <use xlink:href="#SimHei-63" transform="translate(50 0)"/>
       <use xlink:href="#SimHei-65" transform="translate(100 0)"/>
       <use xlink:href="#SimHei-6e" transform="translate(150 0)"/>
       <use xlink:href="#SimHei-61" transform="translate(200 0)"/>
       <use xlink:href="#SimHei-72" transform="translate(250 0)"/>
       <use xlink:href="#SimHei-69" transform="translate(300 0)"/>
       <use xlink:href="#SimHei-6f" transform="translate(350 0)"/>
       <use xlink:href="#SimHei-5f" transform="translate(400 0)"/>
       <use xlink:href="#SimHei-32" transform="translate(450 0)"/>
       <use xlink:href="#SimHei-5f" transform="translate(500 0)"/>
       <use xlink:href="#SimHei-42" transform="translate(550 0)"/>
       <use xlink:href="#SimHei-65" transform="translate(600 0)"/>
       <use xlink:href="#SimHei-73" transform="translate(650 0)"/>
       <use xlink:href="#SimHei-74" transform="translate(700 0)"/>
      </g>
     </g>
    </g>
    <g id="xtick_3">
     <g id="line2d_3">
      <g>
       <use xlink:href="#m146305b142" x="380.378125" y="330.635391" style="stroke: #000000; stroke-width: 0.8"/>
      </g>
     </g>
     <g id="text_3">
      <!-- Scenario_3_Mixed_A -->
      <g transform="translate(350.574679 406.246845) rotate(-45) scale(0.1 -0.1)">
       <defs>
        <path id="SimHei-33" d="M 250 1225 
L 700 1300 
Q 800 975 1025 762 
Q 1250 550 1587 562 
Q 1925 575 2125 837 
Q 2325 1100 2300 1437 
Q 2275 1775 2037 1962 
Q 1800 2150 1275 2225 
L 1275 2550 
Q 1800 2600 2037 2825 
Q 2275 3050 2250 3412 
Q 2225 3775 1925 3937 
Q 1625 4100 1287 3975 
Q 950 3850 750 3275 
L 300 3350 
Q 450 3800 712 4100 
Q 975 4400 1425 4450 
Q 1875 4500 2212 4337 
Q 2550 4175 2687 3837 
Q 2825 3500 2725 3100 
Q 2625 2700 2150 2400 
Q 2500 2250 2687 1950 
Q 2875 1650 2812 1162 
Q 2750 675 2375 375 
Q 2000 75 1525 87 
Q 1050 100 700 387 
Q 350 675 250 1225 
z
" transform="scale(0.015625)"/>
        <path id="SimHei-4d" d="M 2925 125 
L 2425 125 
L 2425 3175 
L 2375 3175 
L 1775 125 
L 1375 125 
L 775 3175 
L 725 3175 
L 725 125 
L 225 125 
L 225 4400 
L 1000 4400 
L 1550 1575 
L 1600 1575 
L 2150 4400 
L 2925 4400 
L 2925 125 
z
" transform="scale(0.015625)"/>
        <path id="SimHei-78" d="M 2875 125 
L 2275 125 
L 1550 1200 
L 825 125 
L 225 125 
L 1250 1550 
L 300 2925 
L 900 2925 
L 1550 1875 
L 2200 2925 
L 2800 2925 
L 1850 1550 
L 2875 125 
z
" transform="scale(0.015625)"/>
        <path id="SimHei-64" d="M 2750 125 
L 2250 125 
L 2250 500 
Q 2100 275 1900 175 
Q 1700 75 1425 75 
Q 925 75 575 437 
Q 225 800 225 1525 
Q 225 2250 575 2625 
Q 925 3000 1425 3000 
Q 1700 3000 1900 2887 
Q 2100 2775 2250 2550 
L 2250 4400 
L 2750 4400 
L 2750 125 
z
M 2250 1525 
Q 2250 2000 2037 2275 
Q 1825 2550 1525 2550 
Q 1150 2550 962 2275 
Q 775 2000 775 1525 
Q 775 1050 962 787 
Q 1150 525 1525 525 
Q 1825 525 2037 787 
Q 2250 1050 2250 1525 
z
" transform="scale(0.015625)"/>
        <path id="SimHei-41" d="M 3075 125 
L 2475 125 
L 2125 1450 
L 1025 1450 
L 675 125 
L 75 125 
L 1325 4450 
L 1825 4450 
L 3075 125 
z
M 2000 1925 
L 1600 3450 
L 1550 3450 
L 1150 1925 
L 2000 1925 
z
" transform="scale(0.015625)"/>
       </defs>
       <use xlink:href="#SimHei-53"/>
       <use xlink:href="#SimHei-63" transform="translate(50 0)"/>
       <use xlink:href="#SimHei-65" transform="translate(100 0)"/>
       <use xlink:href="#SimHei-6e" transform="translate(150 0)"/>
       <use xlink:href="#SimHei-61" transform="translate(200 0)"/>
       <use xlink:href="#SimHei-72" transform="translate(250 0)"/>
       <use xlink:href="#SimHei-69" transform="translate(300 0)"/>
       <use xlink:href="#SimHei-6f" transform="translate(350 0)"/>
       <use xlink:href="#SimHei-5f" transform="translate(400 0)"/>
       <use xlink:href="#SimHei-33" transform="translate(450 0)"/>
       <use xlink:href="#SimHei-5f" transform="translate(500 0)"/>
       <use xlink:href="#SimHei-4d" transform="translate(550 0)"/>
       <use xlink:href="#SimHei-69" transform="translate(600 0)"/>
       <use xlink:href="#SimHei-78" transform="translate(650 0)"/>
       <use xlink:href="#SimHei-65" transform="translate(700 0)"/>
       <use xlink:href="#SimHei-64" transform="translate(750 0)"/>
       <use xlink:href="#SimHei-5f" transform="translate(800 0)"/>
       <use xlink:href="#SimHei-41" transform="translate(850 0)"/>
      </g>
     </g>
    </g>
    <g id="xtick_4">
     <g id="line2d_4">
      <g>
       <use xlink:href="#m146305b142" x="504.931866" y="330.635391" style="stroke: #000000; stroke-width: 0.8"/>
      </g>
     </g>
     <g id="text_4">
      <!-- Scenario_4_Mixed_B -->
      <g transform="translate(475.100798 406.191603) rotate(-45) scale(0.1 -0.1)">
       <defs>
        <path id="SimHei-34" d="M 2000 1100 
L 75 1100 
L 75 1525 
L 2100 4450 
L 2475 4450 
L 2475 1525 
L 3075 1525 
L 3075 1100 
L 2475 1100 
L 2475 150 
L 2000 150 
L 2000 1100 
z
M 2000 1525 
L 2000 3500 
L 600 1525 
L 2000 1525 
z
" transform="scale(0.015625)"/>
       </defs>
       <use xlink:href="#SimHei-53"/>
       <use xlink:href="#SimHei-63" transform="translate(50 0)"/>
       <use xlink:href="#SimHei-65" transform="translate(100 0)"/>
       <use xlink:href="#SimHei-6e" transform="translate(150 0)"/>
       <use xlink:href="#SimHei-61" transform="translate(200 0)"/>
       <use xlink:href="#SimHei-72" transform="translate(250 0)"/>
       <use xlink:href="#SimHei-69" transform="translate(300 0)"/>
       <use xlink:href="#SimHei-6f" transform="translate(350 0)"/>
       <use xlink:href="#SimHei-5f" transform="translate(400 0)"/>
       <use xlink:href="#SimHei-34" transform="translate(450 0)"/>
       <use xlink:href="#SimHei-5f" transform="translate(500 0)"/>
       <use xlink:href="#SimHei-4d" transform="translate(550 0)"/>
       <use xlink:href="#SimHei-69" transform="translate(600 0)"/>
       <use xlink:href="#SimHei-78" transform="translate(650 0)"/>
       <use xlink:href="#SimHei-65" transform="translate(700 0)"/>
       <use xlink:href="#SimHei-64" transform="translate(750 0)"/>
       <use xlink:href="#SimHei-5f" transform="translate(800 0)"/>
       <use xlink:href="#SimHei-42" transform="translate(850 0)"/>
      </g>
     </g>
    </g>
    <g id="xtick_5">
     <g id="line2d_5">
      <g>
       <use xlink:href="#m146305b142" x="629.485606" y="330.635391" style="stroke: #000000; stroke-width: 0.8"/>
      </g>
     </g>
     <g id="text_5">
      <!-- Scenario_5_Base -->
      <g transform="translate(604.95784 395.585001) rotate(-45) scale(0.1 -0.1)">
       <defs>
        <path id="SimHei-35" d="M 550 1325 
Q 725 650 1150 575 
Q 1575 500 1837 662 
Q 2100 825 2212 1087 
Q 2325 1350 2312 1675 
Q 2300 2000 2137 2225 
Q 1975 2450 1725 2525 
Q 1475 2600 1162 2525 
Q 850 2450 650 2175 
L 225 2225 
Q 275 2375 700 4375 
L 2675 4375 
L 2675 3925 
L 1075 3925 
Q 950 3250 825 2850 
Q 1200 3025 1525 3012 
Q 1850 3000 2150 2862 
Q 2450 2725 2587 2487 
Q 2725 2250 2787 2012 
Q 2850 1775 2837 1500 
Q 2825 1225 2725 937 
Q 2625 650 2425 462 
Q 2225 275 1937 162 
Q 1650 50 1275 75 
Q 900 100 562 350 
Q 225 600 100 1200 
L 550 1325 
z
" transform="scale(0.015625)"/>
       </defs>
       <use xlink:href="#SimHei-53"/>
       <use xlink:href="#SimHei-63" transform="translate(50 0)"/>
       <use xlink:href="#SimHei-65" transform="translate(100 0)"/>
       <use xlink:href="#SimHei-6e" transform="translate(150 0)"/>
       <use xlink:href="#SimHei-61" transform="translate(200 0)"/>
       <use xlink:href="#SimHei-72" transform="translate(250 0)"/>
       <use xlink:href="#SimHei-69" transform="translate(300 0)"/>
       <use xlink:href="#SimHei-6f" transform="translate(350 0)"/>
       <use xlink:href="#SimHei-5f" transform="translate(400 0)"/>
       <use xlink:href="#SimHei-35" transform="translate(450 0)"/>
       <use xlink:href="#SimHei-5f" transform="translate(500 0)"/>
       <use xlink:href="#SimHei-42" transform="translate(550 0)"/>
       <use xlink:href="#SimHei-61" transform="translate(600 0)"/>
       <use xlink:href="#SimHei-73" transform="translate(650 0)"/>
       <use xlink:href="#SimHei-65" transform="translate(700 0)"/>
      </g>
     </g>
    </g>
    <g id="text_6">
     <!-- 不确定性场景 -->
     <g transform="translate(350.378125 419.310972) scale(0.1 -0.1)">
      <defs>
       <path id="SimHei-4e0d" d="M 5975 4450 
Q 5525 4475 5200 4475 
L 3725 4475 
Q 3550 4125 3300 3700 
L 3300 575 
Q 3300 75 3325 -550 
L 2775 -550 
Q 2800 50 2800 575 
L 2800 3025 
Q 2025 1950 700 1050 
Q 500 1350 325 1475 
Q 825 1700 1650 2437 
Q 2475 3175 3175 4475 
L 1525 4475 
Q 1050 4475 525 4450 
L 525 4950 
Q 1275 4925 1675 4925 
L 5175 4925 
Q 5500 4925 5975 4950 
L 5975 4450 
z
M 5450 1125 
Q 4975 1725 3750 2975 
Q 3950 3150 4075 3325 
Q 4675 2775 5100 2362 
Q 5525 1950 5900 1550 
Q 5650 1350 5450 1125 
z
" transform="scale(0.015625)"/>
       <path id="SimHei-786e" d="M 4975 -200 
Q 5250 -175 5362 -125 
Q 5475 -75 5475 125 
L 5475 975 
L 4625 975 
L 4625 -400 
L 4200 -400 
L 4200 975 
L 3500 975 
Q 3475 625 3325 237 
Q 3175 -150 2800 -600 
Q 2625 -350 2325 -325 
Q 2650 -50 2812 262 
Q 2975 575 3025 1000 
Q 3075 1425 3087 2187 
Q 3100 2950 3075 3425 
L 4250 3425 
Q 4475 3825 4650 4225 
L 3625 4225 
Q 3325 3875 2850 3250 
Q 2650 3425 2425 3500 
Q 2875 3975 3175 4425 
Q 3475 4875 3625 5300 
Q 3900 5175 4200 5100 
Q 4075 5025 3825 4575 
L 5350 4575 
Q 4900 3775 4750 3425 
L 5950 3425 
Q 5925 2975 5925 2450 
L 5925 -50 
Q 5950 -350 5775 -462 
Q 5600 -575 5175 -675 
Q 5150 -425 4975 -200 
z
M 200 1975 
Q 550 2300 850 2837 
Q 1150 3375 1300 4225 
Q 825 4225 525 4200 
L 525 4650 
Q 875 4625 1200 4625 
L 1900 4625 
Q 2325 4625 2625 4650 
L 2625 4200 
Q 2325 4225 1800 4225 
Q 1650 3525 1400 2925 
L 2525 2925 
Q 2500 2500 2500 2125 
L 2500 1075 
Q 2500 650 2525 125 
L 2075 125 
L 2075 600 
L 1350 600 
L 1350 -300 
L 900 -300 
Q 925 225 925 600 
L 925 2100 
Q 800 1900 625 1625 
Q 475 1825 200 1975 
z
M 2075 975 
L 2075 2575 
L 1350 2575 
L 1350 975 
L 2075 975 
z
M 5475 2350 
L 5475 3075 
L 4625 3075 
L 4625 2350 
L 5475 2350 
z
M 5475 1325 
L 5475 2000 
L 4625 2000 
L 4625 1325 
L 5475 1325 
z
M 4200 2350 
L 4200 3075 
L 3500 3075 
L 3500 2350 
L 4200 2350 
z
M 4200 1325 
L 4200 2000 
L 3500 2000 
L 3500 1325 
L 4200 1325 
z
" transform="scale(0.015625)"/>
       <path id="SimHei-5b9a" d="M 4200 3125 
Q 4675 3125 5175 3150 
L 5175 2675 
Q 4725 2700 4100 2700 
L 3550 2700 
L 3550 1700 
L 4600 1700 
Q 4875 1700 5375 1725 
L 5375 1250 
Q 4875 1275 4575 1275 
L 3550 1275 
L 3550 100 
Q 4600 -25 6050 125 
Q 5850 -200 5800 -475 
Q 4800 -475 4150 -450 
Q 3500 -425 3050 -300 
Q 2600 -175 2250 75 
Q 1900 325 1600 675 
Q 1200 -50 675 -575 
Q 450 -350 175 -250 
Q 875 300 1200 1050 
Q 1525 1800 1550 2200 
Q 1800 2050 2150 1975 
Q 2075 1875 1987 1662 
Q 1900 1450 1775 1125 
Q 1950 900 2300 612 
Q 2650 325 3050 200 
L 3050 2700 
L 2250 2700 
Q 1825 2700 1400 2675 
L 1400 3150 
Q 1825 3125 2400 3125 
L 4200 3125 
z
M 5750 4275 
Q 5725 3925 5725 3750 
Q 5725 3575 5750 3275 
L 5225 3275 
L 5225 3875 
L 1225 3875 
L 1225 3275 
L 700 3275 
Q 725 3475 725 3725 
Q 725 3975 700 4275 
L 5750 4275 
z
M 2650 5050 
Q 2875 5125 3100 5300 
Q 3375 4975 3600 4550 
Q 3250 4400 3100 4300 
Q 3050 4525 2650 5050 
z
" transform="scale(0.015625)"/>
       <path id="SimHei-6027" d="M 3450 4525 
Q 3325 4075 3275 3750 
L 4050 3750 
L 4050 4275 
Q 4050 4700 4025 5100 
L 4550 5100 
Q 4525 4700 4525 4275 
L 4525 3750 
L 5025 3750 
Q 5350 3750 5800 3775 
L 5800 3300 
Q 5350 3325 5025 3325 
L 4525 3325 
L 4525 2000 
L 4975 2000 
Q 5350 2000 5725 2025 
L 5725 1550 
Q 5350 1575 4975 1575 
L 4525 1575 
L 4525 25 
L 5200 25 
Q 5625 25 6025 50 
L 6025 -400 
Q 5625 -375 5200 -375 
L 3275 -375 
Q 2825 -375 2400 -400 
L 2400 50 
Q 2825 25 3250 25 
L 4050 25 
L 4050 1575 
L 3625 1575 
Q 3300 1575 2875 1550 
L 2875 2025 
Q 3200 2000 3625 2000 
L 4050 2000 
L 4050 3325 
L 3175 3325 
Q 3100 2950 2775 2225 
Q 2500 2375 2325 2400 
Q 2675 3125 2775 3650 
Q 2875 4175 2950 4650 
Q 3200 4575 3450 4525 
z
M 1700 5150 
Q 1675 4650 1675 4175 
L 1675 425 
Q 1675 -100 1700 -625 
L 1175 -625 
Q 1200 -100 1200 425 
L 1200 4175 
Q 1200 4700 1175 5150 
L 1700 5150 
z
M 975 3725 
Q 825 2675 700 2150 
Q 450 2200 250 2250 
Q 425 2900 525 3800 
Q 725 3775 975 3725 
z
M 2125 4025 
Q 2325 3625 2525 3000 
Q 2300 2925 2125 2825 
Q 1950 3375 1750 3850 
Q 1950 3950 2125 4025 
z
" transform="scale(0.015625)"/>
       <path id="SimHei-573a" d="M 5625 5000 
L 5625 4600 
Q 5275 4525 4862 4150 
Q 4450 3775 3750 3100 
L 6000 3100 
Q 5975 2925 5950 2300 
L 5850 425 
Q 5825 -200 5587 -350 
Q 5350 -500 4750 -550 
Q 4700 -250 4525 50 
Q 5050 0 5200 75 
Q 5350 150 5375 400 
L 5475 2675 
L 5000 2675 
Q 4875 1925 4700 1425 
Q 4525 925 4287 562 
Q 4050 200 3750 -62 
Q 3450 -325 3000 -600 
Q 2875 -350 2650 -175 
Q 3075 50 3425 350 
Q 3775 650 4000 1050 
Q 4225 1450 4337 1900 
Q 4450 2350 4500 2675 
L 4000 2675 
Q 3950 2300 3787 1912 
Q 3625 1525 3325 1150 
Q 3025 775 2550 425 
Q 2450 600 2175 800 
Q 2775 1125 3112 1675 
Q 3450 2225 3500 2675 
Q 3225 2650 3125 2625 
Q 3025 2600 2800 2525 
Q 2725 2825 2650 3025 
Q 3075 3075 3637 3587 
Q 4200 4100 4650 4575 
L 3700 4575 
Q 3150 4575 2675 4550 
L 2675 5025 
Q 3125 5000 3675 5000 
L 5625 5000 
z
M 1200 4375 
Q 1200 4650 1175 5075 
L 1700 5075 
Q 1675 4625 1675 4375 
L 1675 3450 
Q 2050 3450 2450 3475 
L 2450 3025 
Q 2000 3050 1675 3050 
L 1675 1225 
Q 1950 1325 2500 1575 
Q 2500 1350 2525 1125 
Q 2100 925 1500 687 
Q 900 450 500 225 
Q 400 450 200 725 
Q 650 850 1200 1050 
L 1200 3050 
Q 650 3050 325 3025 
L 325 3475 
Q 750 3450 1200 3450 
L 1200 4375 
z
" transform="scale(0.015625)"/>
       <path id="SimHei-666f" d="M 5200 5100 
Q 5175 4700 5175 4150 
Q 5175 3625 5225 3225 
L 1175 3225 
Q 1200 3625 1200 4150 
Q 1200 4700 1175 5100 
L 5200 5100 
z
M 5125 2075 
Q 5100 1675 5100 1375 
Q 5100 1075 5125 900 
L 3525 900 
L 3525 -175 
Q 3525 -475 3312 -575 
Q 3100 -675 2575 -700 
Q 2550 -425 2375 -100 
Q 2800 -175 2937 -137 
Q 3075 -100 3050 100 
L 3050 900 
L 1350 900 
Q 1375 1125 1375 1450 
Q 1375 1800 1350 2075 
L 5125 2075 
z
M 3325 3200 
Q 3400 2950 3500 2750 
L 5200 2750 
Q 5625 2750 6050 2800 
L 6050 2350 
Q 5625 2375 5200 2375 
L 1175 2375 
Q 850 2375 350 2350 
L 350 2775 
Q 850 2750 1175 2750 
L 2900 2750 
Q 2875 2900 2800 3125 
Q 3100 3175 3325 3200 
z
M 4650 1250 
L 4650 1700 
L 1825 1700 
L 1825 1250 
L 4650 1250 
z
M 4700 4300 
L 4700 4700 
L 1675 4700 
L 1675 4300 
L 4700 4300 
z
M 4700 3600 
L 4700 3925 
L 1675 3925 
L 1675 3600 
L 4700 3600 
z
M 4325 725 
Q 4600 575 4987 387 
Q 5375 200 5850 -50 
Q 5700 -275 5550 -550 
Q 5325 -350 4925 -125 
Q 4525 100 4075 275 
L 4325 725 
z
M 2450 250 
Q 2225 175 1812 -100 
Q 1400 -375 1000 -600 
Q 850 -375 700 -175 
Q 975 -25 1350 187 
Q 1725 400 2075 700 
Q 2250 500 2450 250 
z
" transform="scale(0.015625)"/>
      </defs>
      <use xlink:href="#SimHei-4e0d"/>
      <use xlink:href="#SimHei-786e" transform="translate(100 0)"/>
      <use xlink:href="#SimHei-5b9a" transform="translate(200 0)"/>
      <use xlink:href="#SimHei-6027" transform="translate(300 0)"/>
      <use xlink:href="#SimHei-573a" transform="translate(400 0)"/>
      <use xlink:href="#SimHei-666f" transform="translate(500 0)"/>
     </g>
    </g>
   </g>
   <g id="matplotlib.axis_2">
    <g id="ytick_1">
     <g id="line2d_6">
      <defs>
       <path id="m435065139e" d="M 0 0 
L -3.5 0 
" style="stroke: #000000; stroke-width: 0.8"/>
      </defs>
      <g>
       <use xlink:href="#m435065139e" x="51.55625" y="309.253038" style="stroke: #000000; stroke-width: 0.8"/>
      </g>
     </g>
     <g id="text_7">
      <!-- -350 -->
      <g transform="translate(24.55625 312.690538) scale(0.1 -0.1)">
       <defs>
        <path id="SimHei-2d" d="M 2975 2125 
L 125 2125 
L 125 2525 
L 2975 2525 
L 2975 2125 
z
" transform="scale(0.015625)"/>
        <path id="SimHei-30" d="M 225 2537 
Q 250 3200 412 3587 
Q 575 3975 875 4225 
Q 1175 4475 1612 4475 
Q 2050 4475 2375 4112 
Q 2700 3750 2800 3200 
Q 2900 2650 2862 1937 
Q 2825 1225 2612 775 
Q 2400 325 1975 150 
Q 1550 -25 1125 187 
Q 700 400 525 750 
Q 350 1100 275 1487 
Q 200 1875 225 2537 
z
M 750 2687 
Q 675 2000 800 1462 
Q 925 925 1212 700 
Q 1500 475 1800 612 
Q 2100 750 2237 1162 
Q 2375 1575 2375 2062 
Q 2375 2550 2337 2950 
Q 2300 3350 2112 3675 
Q 1925 4000 1612 4012 
Q 1300 4025 1062 3700 
Q 825 3375 750 2687 
z
" transform="scale(0.015625)"/>
       </defs>
       <use xlink:href="#SimHei-2d"/>
       <use xlink:href="#SimHei-33" transform="translate(50 0)"/>
       <use xlink:href="#SimHei-35" transform="translate(100 0)"/>
       <use xlink:href="#SimHei-30" transform="translate(150 0)"/>
      </g>
     </g>
    </g>
    <g id="ytick_2">
     <g id="line2d_7">
      <g>
       <use xlink:href="#m435065139e" x="51.55625" y="268.914033" style="stroke: #000000; stroke-width: 0.8"/>
      </g>
     </g>
     <g id="text_8">
      <!-- -300 -->
      <g transform="translate(24.55625 272.351533) scale(0.1 -0.1)">
       <use xlink:href="#SimHei-2d"/>
       <use xlink:href="#SimHei-33" transform="translate(50 0)"/>
       <use xlink:href="#SimHei-30" transform="translate(100 0)"/>
       <use xlink:href="#SimHei-30" transform="translate(150 0)"/>
      </g>
     </g>
    </g>
    <g id="ytick_3">
     <g id="line2d_8">
      <g>
       <use xlink:href="#m435065139e" x="51.55625" y="228.575027" style="stroke: #000000; stroke-width: 0.8"/>
      </g>
     </g>
     <g id="text_9">
      <!-- -250 -->
      <g transform="translate(24.55625 232.012527) scale(0.1 -0.1)">
       <use xlink:href="#SimHei-2d"/>
       <use xlink:href="#SimHei-32" transform="translate(50 0)"/>
       <use xlink:href="#SimHei-35" transform="translate(100 0)"/>
       <use xlink:href="#SimHei-30" transform="translate(150 0)"/>
      </g>
     </g>
    </g>
    <g id="ytick_4">
     <g id="line2d_9">
      <g>
       <use xlink:href="#m435065139e" x="51.55625" y="188.236022" style="stroke: #000000; stroke-width: 0.8"/>
      </g>
     </g>
     <g id="text_10">
      <!-- -200 -->
      <g transform="translate(24.55625 191.673522) scale(0.1 -0.1)">
       <use xlink:href="#SimHei-2d"/>
       <use xlink:href="#SimHei-32" transform="translate(50 0)"/>
       <use xlink:href="#SimHei-30" transform="translate(100 0)"/>
       <use xlink:href="#SimHei-30" transform="translate(150 0)"/>
      </g>
     </g>
    </g>
    <g id="ytick_5">
     <g id="line2d_10">
      <g>
       <use xlink:href="#m435065139e" x="51.55625" y="147.897016" style="stroke: #000000; stroke-width: 0.8"/>
      </g>
     </g>
     <g id="text_11">
      <!-- -150 -->
      <g transform="translate(24.55625 151.334516) scale(0.1 -0.1)">
       <use xlink:href="#SimHei-2d"/>
       <use xlink:href="#SimHei-31" transform="translate(50 0)"/>
       <use xlink:href="#SimHei-35" transform="translate(100 0)"/>
       <use xlink:href="#SimHei-30" transform="translate(150 0)"/>
      </g>
     </g>
    </g>
    <g id="ytick_6">
     <g id="line2d_11">
      <g>
       <use xlink:href="#m435065139e" x="51.55625" y="107.558011" style="stroke: #000000; stroke-width: 0.8"/>
      </g>
     </g>
     <g id="text_12">
      <!-- -100 -->
      <g transform="translate(24.55625 110.995511) scale(0.1 -0.1)">
       <use xlink:href="#SimHei-2d"/>
       <use xlink:href="#SimHei-31" transform="translate(50 0)"/>
       <use xlink:href="#SimHei-30" transform="translate(100 0)"/>
       <use xlink:href="#SimHei-30" transform="translate(150 0)"/>
      </g>
     </g>
    </g>
    <g id="ytick_7">
     <g id="line2d_12">
      <g>
       <use xlink:href="#m435065139e" x="51.55625" y="67.219005" style="stroke: #000000; stroke-width: 0.8"/>
      </g>
     </g>
     <g id="text_13">
      <!-- -50 -->
      <g transform="translate(29.55625 70.656505) scale(0.1 -0.1)">
       <use xlink:href="#SimHei-2d"/>
       <use xlink:href="#SimHei-35" transform="translate(50 0)"/>
       <use xlink:href="#SimHei-30" transform="translate(100 0)"/>
      </g>
     </g>
    </g>
    <g id="ytick_8">
     <g id="line2d_13">
      <g>
       <use xlink:href="#m435065139e" x="51.55625" y="26.88" style="stroke: #000000; stroke-width: 0.8"/>
      </g>
     </g>
     <g id="text_14">
      <!-- 0 -->
      <g transform="translate(39.55625 30.3175) scale(0.1 -0.1)">
       <use xlink:href="#SimHei-30"/>
      </g>
     </g>
    </g>
    <g id="text_15">
     <!-- 总需求量 (误差线为需求标准差) -->
     <g transform="translate(19.30625 251.257695) rotate(-90) scale(0.1 -0.1)">
      <defs>
       <path id="SimHei-603b" d="M 4550 4850 
Q 4375 4650 4025 3900 
L 5100 3900 
Q 5075 3425 5075 2950 
Q 5075 2500 5100 2025 
L 1175 2025 
Q 1200 2550 1200 3000 
Q 1200 3475 1175 3900 
L 2175 3900 
Q 1900 4350 1525 4750 
Q 1700 4850 1875 5050 
Q 2350 4550 2575 4200 
Q 2400 4075 2250 3900 
L 3550 3900 
Q 3875 4700 3950 5100 
Q 4300 4925 4550 4850 
z
M 4600 2450 
L 4600 3525 
L 1650 3525 
L 1650 2450 
L 4600 2450 
z
M 2275 1450 
Q 2250 1050 2250 675 
Q 2250 300 2262 112 
Q 2275 -75 2675 -75 
L 4000 -75 
Q 4325 -75 4400 550 
Q 4650 400 4925 325 
Q 4775 -200 4562 -337 
Q 4350 -475 4000 -450 
L 2325 -450 
Q 1850 -450 1825 -175 
Q 1800 100 1800 525 
Q 1800 975 1775 1450 
L 2275 1450 
z
M 1350 1325 
Q 1050 300 825 -250 
Q 625 -150 375 -50 
Q 675 525 900 1500 
Q 1100 1425 1350 1325 
z
M 4950 1575 
Q 5700 825 6000 450 
Q 5825 275 5625 100 
Q 5375 450 4600 1275 
Q 4750 1375 4950 1575 
z
M 3350 575 
Q 2975 1175 2675 1500 
Q 2825 1650 3000 1800 
Q 3225 1575 3750 875 
Q 3525 775 3350 575 
z
" transform="scale(0.015625)"/>
       <path id="SimHei-9700" d="M 5150 2100 
Q 5500 2100 5975 2125 
L 5975 1700 
Q 5500 1725 5150 1725 
L 3425 1725 
Q 3300 1500 3250 1275 
L 5600 1275 
Q 5575 950 5575 700 
L 5575 -50 
Q 5575 -350 5425 -437 
Q 5275 -525 4775 -625 
Q 4750 -400 4550 -100 
Q 4950 -100 5025 -50 
Q 5100 0 5100 200 
L 5100 900 
L 4125 900 
L 4125 -375 
L 3650 -375 
L 3650 900 
L 2775 900 
L 2775 -375 
L 2300 -375 
L 2300 900 
L 1350 900 
L 1350 -575 
L 875 -575 
Q 900 -225 900 175 
L 900 575 
Q 900 900 875 1275 
L 2800 1275 
Q 2875 1500 2925 1725 
L 1350 1725 
Q 925 1725 525 1700 
L 525 2125 
Q 900 2100 1325 2100 
L 5150 2100 
z
M 4700 5075 
Q 5075 5075 5550 5100 
L 5550 4675 
Q 5075 4700 4700 4700 
L 3475 4700 
L 3475 4275 
L 5975 4275 
L 5975 3100 
L 5500 3100 
L 5500 3900 
L 3475 3900 
L 3475 3200 
Q 3475 2775 3500 2425 
L 2975 2425 
Q 3000 2750 3000 3175 
L 3000 3900 
L 950 3900 
L 950 3100 
L 450 3100 
Q 450 3375 462 3650 
Q 475 3925 450 4275 
L 3000 4275 
L 3000 4700 
L 1775 4700 
Q 1400 4700 1025 4675 
L 1025 5100 
Q 1400 5075 1750 5075 
L 4700 5075 
z
M 2475 2450 
L 1250 2450 
L 1250 2800 
L 2475 2800 
L 2475 2450 
z
M 2500 3150 
L 1325 3150 
L 1325 3500 
L 2500 3500 
L 2500 3150 
z
M 5000 3175 
L 3825 3175 
L 3825 3525 
L 5000 3525 
L 5000 3175 
z
M 5025 2500 
L 3850 2500 
L 3850 2850 
L 5025 2850 
L 5025 2500 
z
" transform="scale(0.015625)"/>
       <path id="SimHei-6c42" d="M 475 4025 
Q 875 4000 1325 4000 
L 2875 4000 
Q 2875 4725 2850 5125 
L 3400 5125 
Q 3375 4725 3375 4000 
L 5150 4000 
Q 5500 4000 5925 4025 
L 5925 3575 
Q 5475 3600 5150 3600 
L 3375 3600 
Q 3400 3200 3612 2750 
Q 3825 2300 4050 2000 
Q 4600 2450 5075 3150 
Q 5250 2950 5575 2750 
Q 5275 2600 4250 1650 
Q 4575 1225 5037 850 
Q 5500 475 6050 325 
Q 5700 125 5550 -150 
Q 5000 150 4437 687 
Q 3875 1225 3375 2375 
L 3375 150 
Q 3400 -225 3137 -350 
Q 2875 -475 2375 -525 
Q 2325 -275 2150 25 
Q 2575 0 2737 37 
Q 2900 75 2875 300 
L 2875 1675 
Q 1875 900 1437 550 
Q 1000 200 725 -50 
Q 500 200 300 400 
Q 650 575 1200 937 
Q 1750 1300 2875 2250 
L 2875 3600 
L 1325 3600 
Q 875 3600 475 3575 
L 475 4025 
z
M 1225 3175 
Q 1775 2725 2250 2325 
L 1825 1950 
Q 1450 2375 825 2825 
L 1225 3175 
z
M 4500 5100 
Q 4900 4825 5300 4425 
Q 5125 4300 4925 4100 
Q 4650 4400 4125 4825 
Q 4275 4950 4500 5100 
z
" transform="scale(0.015625)"/>
       <path id="SimHei-91cf" d="M 5250 2500 
Q 5225 2200 5225 1700 
Q 5225 1225 5250 950 
L 3425 950 
L 3425 625 
L 4575 625 
Q 5000 625 5375 650 
L 5375 275 
Q 5025 300 4575 300 
L 3425 300 
L 3425 -75 
L 5125 -75 
Q 5525 -75 5925 -50 
L 5925 -425 
Q 5525 -400 5125 -400 
L 1275 -400 
Q 900 -400 475 -425 
L 475 -50 
Q 925 -50 1275 -75 
L 2975 -75 
L 2975 300 
L 1725 300 
Q 1350 300 975 250 
L 975 650 
Q 1375 625 1725 625 
L 2975 625 
L 2975 950 
L 1150 950 
Q 1175 1375 1175 1775 
Q 1175 2175 1150 2500 
L 5250 2500 
z
M 5200 4950 
Q 5175 4575 5175 4250 
Q 5175 3925 5200 3400 
L 1200 3400 
Q 1225 3925 1225 4250 
Q 1225 4575 1200 4950 
L 5200 4950 
z
M 4900 3100 
Q 5500 3125 6000 3150 
L 6000 2750 
Q 5500 2775 4925 2775 
L 1650 2775 
Q 975 2775 325 2750 
L 325 3150 
Q 975 3125 1650 3100 
L 4900 3100 
z
M 4725 3700 
L 4725 4025 
L 1675 4025 
L 1675 3700 
L 4725 3700 
z
M 4725 4350 
L 4725 4650 
L 1675 4650 
L 1675 4350 
L 4725 4350 
z
M 4750 1875 
L 4750 2175 
L 3425 2175 
L 3425 1875 
L 4750 1875 
z
M 2975 1875 
L 2975 2175 
L 1650 2175 
L 1650 1875 
L 2975 1875 
z
M 2975 1275 
L 2975 1550 
L 1650 1550 
L 1650 1275 
L 2975 1275 
z
M 4750 1275 
L 4750 1550 
L 3425 1550 
L 3425 1275 
L 4750 1275 
z
" transform="scale(0.015625)"/>
       <path id="SimHei-20" transform="scale(0.015625)"/>
       <path id="SimHei-28" d="M 2975 -200 
L 2700 -475 
Q 2075 125 1762 775 
Q 1450 1425 1450 2250 
Q 1450 3075 1762 3725 
Q 2075 4375 2700 5000 
L 2975 4725 
Q 2400 4175 2112 3587 
Q 1825 3000 1825 2250 
Q 1825 1500 2112 912 
Q 2400 325 2975 -200 
z
" transform="scale(0.015625)"/>
       <path id="SimHei-8bef" d="M 4625 2750 
Q 5325 2750 5800 2775 
L 5800 2350 
Q 5300 2375 4625 2375 
L 4150 2375 
Q 4150 2125 4100 1650 
L 5025 1650 
Q 5575 1650 6100 1675 
L 6100 1225 
Q 5575 1250 5025 1250 
L 4250 1250 
Q 4575 600 5050 287 
Q 5525 -25 6125 -125 
Q 5900 -350 5775 -625 
Q 4875 -275 4450 175 
Q 4025 625 3900 1000 
Q 3600 325 3125 -62 
Q 2650 -450 2025 -675 
Q 1975 -450 1725 -200 
Q 2475 -75 2937 437 
Q 3400 950 3475 1250 
L 2975 1250 
Q 2400 1250 2025 1225 
L 2025 1675 
Q 2475 1650 2900 1650 
L 3600 1650 
Q 3650 2025 3650 2375 
L 3325 2375 
Q 2675 2375 2225 2350 
L 2225 2775 
Q 2700 2750 3150 2750 
L 4625 2750 
z
M 5425 4875 
Q 5400 4550 5400 4075 
Q 5400 3600 5425 3325 
L 2450 3325 
Q 2475 3575 2475 4050 
Q 2475 4525 2450 4875 
L 5425 4875 
z
M 1550 3325 
Q 1525 3000 1525 2500 
L 1525 675 
L 1900 1100 
Q 2025 875 2225 700 
Q 1675 300 1250 -325 
Q 1100 -100 825 50 
Q 1025 250 1050 500 
L 1050 2900 
Q 700 2900 325 2875 
L 325 3350 
Q 550 3325 750 3325 
L 1550 3325 
z
M 4975 3700 
L 4975 4475 
L 2900 4475 
L 2900 3700 
L 4975 3700 
z
M 975 5125 
Q 1150 5000 1900 4275 
Q 1725 4125 1550 3925 
Q 1150 4400 675 4775 
Q 875 4975 975 5125 
z
" transform="scale(0.015625)"/>
       <path id="SimHei-5dee" d="M 4725 4975 
Q 4500 4725 4250 4275 
L 4850 4275 
Q 5450 4275 5825 4300 
L 5825 3850 
Q 5425 3875 4850 3875 
L 3275 3875 
Q 3225 3600 3150 3275 
L 4525 3275 
Q 5075 3275 5525 3300 
L 5525 2850 
Q 5075 2875 4500 2875 
L 3050 2875 
Q 2975 2650 2850 2325 
L 5125 2325 
Q 5675 2325 6025 2350 
L 6025 1900 
Q 5700 1925 5150 1925 
L 2650 1925 
Q 2425 1550 2250 1300 
Q 2650 1275 3100 1275 
L 4525 1275 
Q 4975 1275 5350 1300 
L 5350 850 
Q 4975 875 4575 875 
L 3925 875 
L 3925 -50 
L 5000 -50 
Q 5200 -50 5900 -25 
L 5900 -500 
Q 5275 -475 5025 -475 
L 2100 -475 
Q 1700 -475 1400 -500 
L 1400 -25 
Q 1775 -50 2125 -50 
L 3425 -50 
L 3425 875 
L 3100 875 
Q 2625 875 2175 850 
L 2175 1200 
Q 1925 875 1487 475 
Q 1050 75 625 -250 
Q 425 -25 200 150 
Q 750 475 1262 925 
Q 1775 1375 2100 1925 
L 1325 1925 
Q 750 1925 375 1900 
L 375 2350 
Q 750 2325 1350 2325 
L 2325 2325 
Q 2450 2575 2550 2875 
L 1725 2875 
Q 1375 2875 1000 2850 
L 1000 3300 
Q 1500 3275 1700 3275 
L 2650 3275 
Q 2725 3575 2775 3875 
L 1500 3875 
Q 1100 3875 650 3850 
L 650 4300 
Q 1025 4275 1425 4275 
L 2275 4275 
Q 2075 4675 1850 4950 
Q 2025 5050 2250 5225 
Q 2450 4975 2725 4550 
Q 2525 4450 2325 4275 
L 3750 4275 
Q 4000 4700 4150 5250 
Q 4400 5100 4725 4975 
z
" transform="scale(0.015625)"/>
       <path id="SimHei-7ebf" d="M 3450 4300 
Q 3450 4675 3375 5125 
Q 3700 5100 4050 5050 
Q 3975 4900 3950 4562 
Q 3925 4225 3950 3600 
L 4800 3750 
Q 5225 3850 5650 3975 
L 5750 3500 
Q 5325 3450 4875 3375 
L 3975 3200 
Q 3975 2800 4025 2500 
L 5000 2675 
Q 5500 2775 5950 2925 
L 6025 2450 
Q 5575 2375 5075 2275 
L 4100 2100 
Q 4150 1600 4350 1175 
Q 4575 1350 4787 1575 
Q 5000 1800 5175 2075 
Q 5550 1775 5750 1675 
Q 5425 1525 5237 1337 
Q 5050 1150 4625 750 
Q 4925 250 5162 112 
Q 5400 -25 5500 100 
Q 5600 225 5675 625 
Q 5900 450 6200 350 
Q 5775 -750 5275 -537 
Q 4775 -325 4225 450 
Q 3875 175 3537 -62 
Q 3200 -300 2700 -550 
Q 2575 -300 2325 -100 
Q 2825 75 3175 275 
Q 3525 475 3975 850 
Q 3750 1350 3650 2025 
Q 2900 1900 2600 1800 
L 2525 2275 
Q 2825 2275 3550 2425 
Q 3500 2825 3500 3100 
Q 2825 2950 2575 2875 
L 2475 3350 
Q 2725 3350 3450 3500 
L 3450 4300 
z
M 1950 4875 
Q 1700 4650 1462 4237 
Q 1225 3825 825 3225 
Q 1425 3250 1650 3250 
Q 1875 3625 2050 4075 
Q 2300 3900 2600 3800 
Q 2350 3550 2087 3125 
Q 1825 2700 1175 1675 
Q 1850 1725 2375 1775 
Q 2300 1525 2300 1350 
Q 2125 1350 1525 1287 
Q 925 1225 550 1125 
Q 525 1375 400 1650 
Q 700 1725 950 2050 
Q 1200 2375 1475 2875 
Q 650 2825 425 2675 
Q 350 2950 200 3225 
Q 525 3450 825 3962 
Q 1125 4475 1375 5150 
Q 1625 4975 1950 4875 
z
M 2575 875 
Q 2550 600 2575 450 
Q 1950 325 1450 200 
Q 950 75 525 -75 
Q 450 200 250 475 
Q 950 550 1325 612 
Q 1700 675 2575 875 
z
M 4850 4025 
Q 4675 4300 4375 4675 
L 4775 4875 
Q 4875 4750 5275 4275 
Q 5025 4175 4850 4025 
z
" transform="scale(0.015625)"/>
       <path id="SimHei-4e3a" d="M 3525 5125 
Q 3425 4900 3387 4475 
Q 3350 4050 3275 3350 
L 5850 3350 
Q 5800 2925 5775 2625 
L 5500 125 
Q 5425 -325 5025 -450 
Q 4625 -575 4025 -600 
Q 3950 -250 3775 0 
Q 4525 -50 4750 25 
Q 4975 100 5025 475 
L 5275 2925 
L 3225 2925 
Q 3000 1775 2387 925 
Q 1775 75 850 -600 
Q 600 -275 400 -150 
Q 1200 250 1837 1037 
Q 2475 1825 2700 2925 
L 1875 2925 
Q 1450 2925 775 2900 
L 775 3375 
Q 1450 3350 1700 3350 
L 2775 3350 
Q 2875 4200 2875 5225 
Q 3275 5150 3525 5125 
z
M 3500 2175 
Q 4125 1775 4750 1350 
Q 4600 1200 4400 850 
Q 3850 1350 3250 1725 
Q 3425 2000 3500 2175 
z
M 1125 4550 
Q 1350 4725 1500 4900 
Q 2200 4225 2450 3925 
Q 2250 3750 2025 3550 
Q 1750 3950 1125 4550 
z
" transform="scale(0.015625)"/>
       <path id="SimHei-6807" d="M 1275 4400 
Q 1275 4800 1250 5175 
L 1750 5175 
Q 1725 4825 1725 4400 
L 1725 3800 
Q 2125 3800 2575 3825 
L 2575 3350 
Q 2125 3375 1725 3375 
L 1725 2525 
Q 1900 2650 2075 2800 
Q 2400 2275 2650 1775 
Q 2375 1650 2175 1500 
Q 2025 2000 1725 2425 
L 1725 475 
Q 1725 -50 1750 -575 
L 1250 -575 
Q 1275 -25 1275 475 
L 1275 2100 
Q 1025 1400 500 750 
Q 350 950 125 1125 
Q 550 1550 812 2187 
Q 1075 2825 1150 3375 
Q 675 3375 325 3325 
L 325 3825 
Q 800 3800 1275 3800 
L 1275 4400 
z
M 5175 3125 
Q 5675 3125 6050 3150 
L 6050 2675 
Q 5675 2700 5275 2700 
L 4500 2700 
L 4500 175 
Q 4500 -225 4275 -350 
Q 4050 -475 3475 -550 
Q 3425 -250 3275 25 
Q 3775 25 3900 62 
Q 4025 100 4025 350 
L 4025 2700 
L 3400 2700 
Q 2775 2700 2500 2650 
L 2500 3150 
Q 2825 3125 3400 3125 
L 5175 3125 
z
M 4900 4775 
Q 5425 4775 5750 4800 
L 5750 4300 
Q 5275 4350 4750 4350 
L 3525 4350 
Q 3125 4350 2750 4300 
L 2750 4800 
Q 3100 4775 3525 4775 
L 4900 4775 
z
M 5275 2025 
Q 5825 1175 6200 500 
Q 5925 375 5650 200 
Q 5375 925 4825 1725 
Q 5075 1850 5275 2025 
z
M 3600 1775 
Q 3500 1625 3225 975 
Q 2950 325 2800 50 
Q 2575 175 2300 275 
Q 2625 775 2787 1187 
Q 2950 1600 3050 2000 
Q 3325 1875 3600 1775 
z
" transform="scale(0.015625)"/>
       <path id="SimHei-51c6" d="M 1600 2775 
Q 1900 3050 2275 3787 
Q 2650 4525 2800 5175 
Q 3075 5050 3400 4950 
Q 3250 4775 3000 4100 
L 4825 4100 
Q 5400 4100 5875 4125 
L 5875 3675 
Q 5375 3700 4825 3700 
L 4525 3700 
L 4525 2850 
Q 5250 2850 5700 2875 
L 5700 2425 
Q 5250 2450 4525 2450 
L 4525 1600 
Q 5275 1600 5700 1625 
L 5700 1200 
Q 5275 1225 4525 1225 
L 4525 375 
Q 5575 375 6050 400 
L 6050 -100 
Q 5575 -75 4975 -75 
L 2950 -75 
L 2950 -600 
L 2425 -600 
Q 2450 -150 2450 675 
L 2450 3050 
Q 2300 2775 2075 2400 
Q 1875 2650 1600 2775 
z
M 1675 2050 
Q 1425 1425 1200 850 
Q 975 275 775 -125 
Q 550 50 275 200 
Q 550 650 775 1112 
Q 1000 1575 1225 2300 
Q 1400 2125 1675 2050 
z
M 4025 1600 
L 4025 2450 
L 2950 2450 
L 2950 1600 
L 4025 1600 
z
M 4025 2850 
L 4025 3700 
L 2950 3700 
L 2950 2850 
L 4025 2850 
z
M 4025 375 
L 4025 1225 
L 2950 1225 
L 2950 375 
L 4025 375 
z
M 725 4775 
Q 850 4625 1162 4312 
Q 1475 4000 1750 3700 
Q 1525 3475 1375 3300 
Q 1100 3700 350 4450 
Q 550 4600 725 4775 
z
M 4150 5225 
Q 4600 4800 4800 4500 
Q 4625 4400 4400 4200 
Q 4225 4500 3775 4925 
Q 3925 5000 4150 5225 
z
" transform="scale(0.015625)"/>
       <path id="SimHei-29" d="M 1675 2250 
Q 1675 1425 1362 775 
Q 1050 125 425 -475 
L 150 -200 
Q 725 325 1012 912 
Q 1300 1500 1300 2250 
Q 1300 3000 1012 3587 
Q 725 4175 150 4725 
L 425 5000 
Q 1050 4375 1362 3725 
Q 1675 3075 1675 2250 
z
" transform="scale(0.015625)"/>
      </defs>
      <use xlink:href="#SimHei-603b"/>
      <use xlink:href="#SimHei-9700" transform="translate(100 0)"/>
      <use xlink:href="#SimHei-6c42" transform="translate(200 0)"/>
      <use xlink:href="#SimHei-91cf" transform="translate(300 0)"/>
      <use xlink:href="#SimHei-20" transform="translate(400 0)"/>
      <use xlink:href="#SimHei-28" transform="translate(450 0)"/>
      <use xlink:href="#SimHei-8bef" transform="translate(500 0)"/>
      <use xlink:href="#SimHei-5dee" transform="translate(600 0)"/>
      <use xlink:href="#SimHei-7ebf" transform="translate(700 0)"/>
      <use xlink:href="#SimHei-4e3a" transform="translate(800 0)"/>
      <use xlink:href="#SimHei-9700" transform="translate(900 0)"/>
      <use xlink:href="#SimHei-6c42" transform="translate(1000 0)"/>
      <use xlink:href="#SimHei-6807" transform="translate(1100 0)"/>
      <use xlink:href="#SimHei-51c6" transform="translate(1200 0)"/>
      <use xlink:href="#SimHei-5dee" transform="translate(1300 0)"/>
      <use xlink:href="#SimHei-29" transform="translate(1400 0)"/>
     </g>
    </g>
   </g>
   <g id="LineCollection_1">
    <path d="M 131.270644 293.02758 
L 131.270644 241.795229 
" clip-path="url(#p4667fb392a)" style="fill: none; stroke: #000000; stroke-width: 1.5"/>
    <path d="M 255.824384 316.170848 
L 255.824384 260.48351 
" clip-path="url(#p4667fb392a)" style="fill: none; stroke: #000000; stroke-width: 1.5"/>
    <path d="M 380.378125 296.151921 
L 380.378125 244.318147 
" clip-path="url(#p4667fb392a)" style="fill: none; stroke: #000000; stroke-width: 1.5"/>
    <path d="M 504.931866 313.209871 
L 504.931866 258.092509 
" clip-path="url(#p4667fb392a)" style="fill: none; stroke: #000000; stroke-width: 1.5"/>
    <path d="M 629.485606 299.153739 
L 629.485606 246.742127 
" clip-path="url(#p4667fb392a)" style="fill: none; stroke: #000000; stroke-width: 1.5"/>
   </g>
   <g id="line2d_14">
    <defs>
     <path id="m12eb317e70" d="M 5 0 
L -5 -0 
" style="stroke: #000000"/>
    </defs>
    <g clip-path="url(#p4667fb392a)">
     <use xlink:href="#m12eb317e70" x="131.270644" y="293.02758" style="fill: #1f77b4; stroke: #000000"/>
     <use xlink:href="#m12eb317e70" x="255.824384" y="316.170848" style="fill: #1f77b4; stroke: #000000"/>
     <use xlink:href="#m12eb317e70" x="380.378125" y="296.151921" style="fill: #1f77b4; stroke: #000000"/>
     <use xlink:href="#m12eb317e70" x="504.931866" y="313.209871" style="fill: #1f77b4; stroke: #000000"/>
     <use xlink:href="#m12eb317e70" x="629.485606" y="299.153739" style="fill: #1f77b4; stroke: #000000"/>
    </g>
   </g>
   <g id="line2d_15">
    <g clip-path="url(#p4667fb392a)">
     <use xlink:href="#m12eb317e70" x="131.270644" y="241.795229" style="fill: #1f77b4; stroke: #000000"/>
     <use xlink:href="#m12eb317e70" x="255.824384" y="260.48351" style="fill: #1f77b4; stroke: #000000"/>
     <use xlink:href="#m12eb317e70" x="380.378125" y="244.318147" style="fill: #1f77b4; stroke: #000000"/>
     <use xlink:href="#m12eb317e70" x="504.931866" y="258.092509" style="fill: #1f77b4; stroke: #000000"/>
     <use xlink:href="#m12eb317e70" x="629.485606" y="246.742127" style="fill: #1f77b4; stroke: #000000"/>
    </g>
   </g>
   <g id="patch_8">
    <path d="M 51.55625 330.635391 
L 51.55625 26.88 
" style="fill: none; stroke: #000000; stroke-width: 0.8; stroke-linejoin: miter; stroke-linecap: square"/>
   </g>
   <g id="patch_9">
    <path d="M 709.2 330.635391 
L 709.2 26.88 
" style="fill: none; stroke: #000000; stroke-width: 0.8; stroke-linejoin: miter; stroke-linecap: square"/>
   </g>
   <g id="patch_10">
    <path d="M 51.55625 330.635391 
L 709.2 330.635391 
" style="fill: none; stroke: #000000; stroke-width: 0.8; stroke-linejoin: miter; stroke-linecap: square"/>
   </g>
   <g id="patch_11">
    <path d="M 51.55625 26.88 
L 709.2 26.88 
" style="fill: none; stroke: #000000; stroke-width: 0.8; stroke-linejoin: miter; stroke-linecap: square"/>
   </g>
   <g id="text_16">
    <!-- 不同不确定性场景下的总需求对比 -->
    <g transform="translate(290.378125 20.88) scale(0.12 -0.12)">
     <defs>
      <path id="SimHei-540c" d="M 5825 4925 
Q 5775 4550 5775 3975 
L 5775 -50 
Q 5775 -400 5525 -487 
Q 5275 -575 4725 -625 
Q 4725 -400 4525 -50 
Q 4925 -50 5100 -12 
Q 5275 25 5275 200 
L 5275 4450 
L 1150 4450 
L 1150 -600 
L 575 -600 
Q 600 -250 625 200 
L 625 3975 
Q 625 4575 600 4925 
L 5825 4925 
z
M 4375 2550 
Q 4325 2275 4325 1700 
Q 4325 1150 4375 725 
L 2025 725 
Q 2050 1175 2050 1750 
Q 2050 2325 2025 2550 
L 4375 2550 
z
M 4100 3750 
Q 4600 3750 4825 3775 
L 4825 3275 
Q 4575 3300 4075 3300 
L 2450 3300 
Q 1850 3300 1600 3275 
L 1600 3775 
Q 1875 3750 2475 3750 
L 4100 3750 
z
M 3875 1150 
L 3875 2150 
L 2525 2150 
L 2525 1150 
L 3875 1150 
z
" transform="scale(0.015625)"/>
      <path id="SimHei-4e0b" d="M 5000 4700 
Q 5475 4700 5975 4725 
L 5975 4200 
Q 5425 4225 5000 4225 
L 3275 4225 
L 3275 375 
Q 3275 50 3300 -450 
L 2725 -450 
Q 2750 0 2750 375 
L 2750 4225 
L 1375 4225 
Q 875 4225 400 4200 
L 400 4725 
Q 875 4700 1375 4700 
L 5000 4700 
z
M 5650 1400 
Q 5400 1225 5200 1000 
Q 4800 1525 3650 2575 
L 4025 2950 
Q 4700 2400 5650 1400 
z
" transform="scale(0.015625)"/>
      <path id="SimHei-7684" d="M 2100 4975 
Q 1975 4750 1750 3950 
L 2875 3950 
Q 2850 3525 2850 2875 
L 2850 675 
Q 2850 300 2875 -400 
L 2375 -400 
L 2375 100 
L 1100 100 
L 1100 -450 
L 600 -450 
Q 625 350 625 550 
L 625 2850 
Q 625 3525 600 3950 
L 1325 3950 
Q 1450 4525 1525 5150 
Q 1875 5025 2100 4975 
z
M 5825 3075 
Q 5800 1550 5700 175 
Q 5650 -275 5225 -425 
Q 4800 -575 4275 -625 
Q 4250 -350 4050 -50 
Q 4550 -75 4837 -25 
Q 5125 25 5200 200 
Q 5275 375 5312 1225 
Q 5350 2075 5375 3600 
L 3925 3600 
Q 3725 3125 3350 2475 
Q 3175 2650 2925 2750 
Q 3150 3050 3350 3475 
Q 3550 3900 3700 4400 
Q 3850 4900 3875 5175 
Q 4225 5025 4475 4950 
Q 4350 4750 4262 4512 
Q 4175 4275 4075 4050 
L 5850 4050 
Q 5825 3525 5825 3075 
z
M 2375 525 
L 2375 1850 
L 1100 1850 
L 1100 525 
L 2375 525 
z
M 2375 2275 
L 2375 3525 
L 1100 3525 
L 1100 2275 
L 2375 2275 
z
M 4350 2050 
Q 4500 1750 4700 1275 
Q 4525 1200 4225 1025 
Q 4050 1500 3900 1837 
Q 3750 2175 3600 2400 
Q 3775 2500 4050 2650 
L 4350 2050 
z
" transform="scale(0.015625)"/>
      <path id="SimHei-5bf9" d="M 525 4250 
Q 900 4225 1400 4225 
L 2825 4225 
Q 2575 2625 2200 1750 
Q 2825 875 3125 400 
Q 2950 275 2725 75 
Q 2200 975 1950 1300 
Q 1650 775 1350 425 
Q 1050 75 600 -350 
Q 425 -125 200 -25 
Q 625 275 975 675 
Q 1325 1075 1650 1700 
Q 1050 2425 550 2900 
Q 700 3025 900 3225 
Q 1625 2425 1875 2150 
Q 2200 3050 2300 3825 
L 1400 3825 
Q 900 3825 525 3800 
L 525 4250 
z
M 2925 3700 
Q 3525 3675 3750 3675 
L 4825 3675 
L 4825 4425 
Q 4825 4750 4775 5125 
L 5350 5125 
Q 5325 4825 5325 4375 
L 5325 3675 
Q 5575 3675 6150 3700 
L 6150 3250 
Q 5575 3275 5325 3275 
L 5325 125 
Q 5350 -350 5012 -475 
Q 4675 -600 4250 -650 
Q 4175 -350 4025 -100 
Q 4575 -100 4712 -37 
Q 4850 25 4825 325 
L 4825 3275 
L 3775 3275 
Q 3550 3275 2925 3225 
L 2925 3700 
z
M 3450 2725 
Q 3875 1975 4175 1325 
Q 3850 1200 3700 1075 
Q 3475 1750 3050 2475 
Q 3225 2550 3450 2725 
z
" transform="scale(0.015625)"/>
      <path id="SimHei-6bd4" d="M 3775 5100 
Q 3750 4575 3750 4100 
L 3750 3050 
Q 4925 3600 5475 4175 
Q 5675 3900 5900 3675 
Q 5600 3500 5037 3187 
Q 4475 2875 3750 2550 
L 3750 450 
Q 3750 100 4050 100 
L 5000 100 
Q 5175 100 5262 250 
Q 5350 400 5450 900 
Q 5650 775 6025 675 
Q 5850 0 5650 -175 
Q 5450 -350 5225 -350 
L 3900 -350 
Q 3250 -350 3250 275 
L 3250 4000 
Q 3250 4550 3225 5100 
L 3775 5100 
z
M 1275 4975 
Q 1250 4575 1250 4000 
L 1250 3150 
L 1850 3150 
Q 2325 3150 2875 3175 
L 2875 2650 
Q 2325 2675 1850 2675 
L 1250 2675 
L 1250 475 
Q 1650 650 1962 812 
Q 2275 975 2850 1275 
Q 2900 950 2950 750 
Q 2375 475 1762 175 
Q 1150 -125 925 -325 
Q 750 -100 575 200 
Q 700 300 750 600 
L 750 3950 
Q 750 4550 725 4975 
L 1275 4975 
z
" transform="scale(0.015625)"/>
     </defs>
     <use xlink:href="#SimHei-4e0d"/>
     <use xlink:href="#SimHei-540c" transform="translate(100 0)"/>
     <use xlink:href="#SimHei-4e0d" transform="translate(200 0)"/>
     <use xlink:href="#SimHei-786e" transform="translate(300 0)"/>
     <use xlink:href="#SimHei-5b9a" transform="translate(400 0)"/>
     <use xlink:href="#SimHei-6027" transform="translate(500 0)"/>
     <use xlink:href="#SimHei-573a" transform="translate(600 0)"/>
     <use xlink:href="#SimHei-666f" transform="translate(700 0)"/>
     <use xlink:href="#SimHei-4e0b" transform="translate(800 0)"/>
     <use xlink:href="#SimHei-7684" transform="translate(900 0)"/>
     <use xlink:href="#SimHei-603b" transform="translate(1000 0)"/>
     <use xlink:href="#SimHei-9700" transform="translate(1100 0)"/>
     <use xlink:href="#SimHei-6c42" transform="translate(1200 0)"/>
     <use xlink:href="#SimHei-5bf9" transform="translate(1300 0)"/>
     <use xlink:href="#SimHei-6bd4" transform="translate(1400 0)"/>
    </g>
   </g>
  </g>
 </g>
 <defs>
  <clipPath id="p4667fb392a">
   <rect x="51.55625" y="26.88" width="657.64375" height="303.755391"/>
  </clipPath>
 </defs>
</svg>
