<?xml version="1.0" encoding="utf-8" standalone="no"?>
<!DOCTYPE svg PUBLIC "-//W3C//DTD SVG 1.1//EN"
  "http://www.w3.org/Graphics/SVG/1.1/DTD/svg11.dtd">
<svg xmlns:xlink="http://www.w3.org/1999/xlink" width="1008pt" height="432pt" viewBox="0 0 1008 432" xmlns="http://www.w3.org/2000/svg" version="1.1">
 <metadata>
  <rdf:RDF xmlns:dc="http://purl.org/dc/elements/1.1/" xmlns:cc="http://creativecommons.org/ns#" xmlns:rdf="http://www.w3.org/1999/02/22-rdf-syntax-ns#">
   <cc:Work>
    <dc:type rdf:resource="http://purl.org/dc/dcmitype/StillImage"/>
    <dc:date>2025-08-10T17:30:55.309455</dc:date>
    <dc:format>image/svg+xml</dc:format>
    <dc:creator>
     <cc:Agent>
      <dc:title>Matplotlib v3.10.5, https://matplotlib.org/</dc:title>
     </cc:Agent>
    </dc:creator>
   </cc:Work>
  </rdf:RDF>
 </metadata>
 <defs>
  <style type="text/css">*{stroke-linejoin: round; stroke-linecap: butt}</style>
 </defs>
 <g id="figure_1">
  <g id="patch_1">
   <path d="M 0 432 
L 1008 432 
L 1008 0 
L 0 0 
z
" style="fill: #ffffff"/>
  </g>
  <g id="axes_1">
   <g id="patch_2">
    <path d="M 47.54 380.186354 
L 997.2 380.186354 
L 997.2 27.15 
L 47.54 27.15 
z
" style="fill: #ffffff"/>
   </g>
   <g id="patch_3">
    <path d="M 90.706364 380.186354 
L 107.634349 380.186354 
L 107.634349 43.961255 
L 90.706364 43.961255 
z
" clip-path="url(#pf097b90bc0)" style="fill: #fde725; opacity: 0.8"/>
   </g>
   <g id="patch_4">
    <path d="M 111.866346 380.186354 
L 128.794332 380.186354 
L 128.794332 43.961255 
L 111.866346 43.961255 
z
" clip-path="url(#pf097b90bc0)" style="fill: #a5db36; opacity: 0.8"/>
   </g>
   <g id="patch_5">
    <path d="M 133.026328 380.186354 
L 149.954314 380.186354 
L 149.954314 43.961255 
L 133.026328 43.961255 
z
" clip-path="url(#pf097b90bc0)" style="fill: #7ad151; opacity: 0.8"/>
   </g>
   <g id="patch_6">
    <path d="M 154.18631 380.186354 
L 171.114296 380.186354 
L 171.114296 43.961255 
L 154.18631 43.961255 
z
" clip-path="url(#pf097b90bc0)" style="fill: #70cf57; opacity: 0.8"/>
   </g>
   <g id="patch_7">
    <path d="M 175.346292 380.186354 
L 192.274278 380.186354 
L 192.274278 43.961255 
L 175.346292 43.961255 
z
" clip-path="url(#pf097b90bc0)" style="fill: #60ca60; opacity: 0.8"/>
   </g>
   <g id="patch_8">
    <path d="M 196.506275 380.186354 
L 213.43426 380.186354 
L 213.43426 43.961255 
L 196.506275 43.961255 
z
" clip-path="url(#pf097b90bc0)" style="fill: #52c569; opacity: 0.8"/>
   </g>
   <g id="patch_9">
    <path d="M 217.666257 380.186354 
L 234.594242 380.186354 
L 234.594242 43.961255 
L 217.666257 43.961255 
z
" clip-path="url(#pf097b90bc0)" style="fill: #34b679; opacity: 0.8"/>
   </g>
   <g id="patch_10">
    <path d="M 238.826239 380.186354 
L 255.754225 380.186354 
L 255.754225 43.961255 
L 238.826239 43.961255 
z
" clip-path="url(#pf097b90bc0)" style="fill: #2fb47c; opacity: 0.8"/>
   </g>
   <g id="patch_11">
    <path d="M 259.986221 380.186354 
L 276.914207 380.186354 
L 276.914207 43.961255 
L 259.986221 43.961255 
z
" clip-path="url(#pf097b90bc0)" style="fill: #27ad81; opacity: 0.8"/>
   </g>
   <g id="patch_12">
    <path d="M 281.146203 380.186354 
L 298.074189 380.186354 
L 298.074189 43.961255 
L 281.146203 43.961255 
z
" clip-path="url(#pf097b90bc0)" style="fill: #27ad81; opacity: 0.8"/>
   </g>
   <g id="patch_13">
    <path d="M 302.306185 380.186354 
L 319.234171 380.186354 
L 319.234171 43.961255 
L 302.306185 43.961255 
z
" clip-path="url(#pf097b90bc0)" style="fill: #22a785; opacity: 0.8"/>
   </g>
   <g id="patch_14">
    <path d="M 323.466168 380.186354 
L 340.394153 380.186354 
L 340.394153 43.961255 
L 323.466168 43.961255 
z
" clip-path="url(#pf097b90bc0)" style="fill: #20a386; opacity: 0.8"/>
   </g>
   <g id="patch_15">
    <path d="M 344.62615 380.186354 
L 361.554135 380.186354 
L 361.554135 43.961255 
L 344.62615 43.961255 
z
" clip-path="url(#pf097b90bc0)" style="fill: #1f968b; opacity: 0.8"/>
   </g>
   <g id="patch_16">
    <path d="M 365.786132 380.186354 
L 382.714118 380.186354 
L 382.714118 43.961255 
L 365.786132 43.961255 
z
" clip-path="url(#pf097b90bc0)" style="fill: #21918c; opacity: 0.8"/>
   </g>
   <g id="patch_17">
    <path d="M 386.946114 380.186354 
L 403.8741 380.186354 
L 403.8741 43.961255 
L 386.946114 43.961255 
z
" clip-path="url(#pf097b90bc0)" style="fill: #24868e; opacity: 0.8"/>
   </g>
   <g id="patch_18">
    <path d="M 408.106096 380.186354 
L 425.034082 380.186354 
L 425.034082 43.961255 
L 408.106096 43.961255 
z
" clip-path="url(#pf097b90bc0)" style="fill: #29798e; opacity: 0.8"/>
   </g>
   <g id="patch_19">
    <path d="M 429.266078 380.186354 
L 446.194064 380.186354 
L 446.194064 43.961255 
L 429.266078 43.961255 
z
" clip-path="url(#pf097b90bc0)" style="fill: #29798e; opacity: 0.8"/>
   </g>
   <g id="patch_20">
    <path d="M 450.426061 380.186354 
L 467.354046 380.186354 
L 467.354046 43.961255 
L 450.426061 43.961255 
z
" clip-path="url(#pf097b90bc0)" style="fill: #29798e; opacity: 0.8"/>
   </g>
   <g id="patch_21">
    <path d="M 471.586043 380.186354 
L 488.514029 380.186354 
L 488.514029 43.961255 
L 471.586043 43.961255 
z
" clip-path="url(#pf097b90bc0)" style="fill: #2a768e; opacity: 0.8"/>
   </g>
   <g id="patch_22">
    <path d="M 492.746025 380.186354 
L 509.674011 380.186354 
L 509.674011 43.961255 
L 492.746025 43.961255 
z
" clip-path="url(#pf097b90bc0)" style="fill: #2d708e; opacity: 0.8"/>
   </g>
   <g id="patch_23">
    <path d="M 513.906007 380.186354 
L 530.833993 380.186354 
L 530.833993 43.961255 
L 513.906007 43.961255 
z
" clip-path="url(#pf097b90bc0)" style="fill: #2f6c8e; opacity: 0.8"/>
   </g>
   <g id="patch_24">
    <path d="M 535.065989 380.186354 
L 551.993975 380.186354 
L 551.993975 43.961255 
L 535.065989 43.961255 
z
" clip-path="url(#pf097b90bc0)" style="fill: #2f6c8e; opacity: 0.8"/>
   </g>
   <g id="patch_25">
    <path d="M 556.225971 380.186354 
L 573.153957 380.186354 
L 573.153957 43.961255 
L 556.225971 43.961255 
z
" clip-path="url(#pf097b90bc0)" style="fill: #30698e; opacity: 0.8"/>
   </g>
   <g id="patch_26">
    <path d="M 577.385954 380.186354 
L 594.313939 380.186354 
L 594.313939 43.961255 
L 577.385954 43.961255 
z
" clip-path="url(#pf097b90bc0)" style="fill: #33628d; opacity: 0.8"/>
   </g>
   <g id="patch_27">
    <path d="M 598.545936 380.186354 
L 615.473922 380.186354 
L 615.473922 43.961255 
L 598.545936 43.961255 
z
" clip-path="url(#pf097b90bc0)" style="fill: #355f8d; opacity: 0.8"/>
   </g>
   <g id="patch_28">
    <path d="M 619.705918 380.186354 
L 636.633904 380.186354 
L 636.633904 43.961255 
L 619.705918 43.961255 
z
" clip-path="url(#pf097b90bc0)" style="fill: #375b8d; opacity: 0.8"/>
   </g>
   <g id="patch_29">
    <path d="M 640.8659 380.186354 
L 657.793886 380.186354 
L 657.793886 43.961255 
L 640.8659 43.961255 
z
" clip-path="url(#pf097b90bc0)" style="fill: #38588c; opacity: 0.8"/>
   </g>
   <g id="patch_30">
    <path d="M 662.025882 380.186354 
L 678.953868 380.186354 
L 678.953868 43.961255 
L 662.025882 43.961255 
z
" clip-path="url(#pf097b90bc0)" style="fill: #3e4c8a; opacity: 0.8"/>
   </g>
   <g id="patch_31">
    <path d="M 683.185865 380.186354 
L 700.11385 380.186354 
L 700.11385 43.961255 
L 683.185865 43.961255 
z
" clip-path="url(#pf097b90bc0)" style="fill: #3f4889; opacity: 0.8"/>
   </g>
   <g id="patch_32">
    <path d="M 704.345847 380.186354 
L 721.273832 380.186354 
L 721.273832 43.961255 
L 704.345847 43.961255 
z
" clip-path="url(#pf097b90bc0)" style="fill: #3f4889; opacity: 0.8"/>
   </g>
   <g id="patch_33">
    <path d="M 725.505829 380.186354 
L 742.433815 380.186354 
L 742.433815 43.961255 
L 725.505829 43.961255 
z
" clip-path="url(#pf097b90bc0)" style="fill: #414487; opacity: 0.8"/>
   </g>
   <g id="patch_34">
    <path d="M 746.665811 380.186354 
L 763.593797 380.186354 
L 763.593797 43.961255 
L 746.665811 43.961255 
z
" clip-path="url(#pf097b90bc0)" style="fill: #424086; opacity: 0.8"/>
   </g>
   <g id="patch_35">
    <path d="M 767.825793 380.186354 
L 784.753779 380.186354 
L 784.753779 43.961255 
L 767.825793 43.961255 
z
" clip-path="url(#pf097b90bc0)" style="fill: #424086; opacity: 0.8"/>
   </g>
   <g id="patch_36">
    <path d="M 788.985775 380.186354 
L 805.913761 380.186354 
L 805.913761 43.961255 
L 788.985775 43.961255 
z
" clip-path="url(#pf097b90bc0)" style="fill: #453882; opacity: 0.8"/>
   </g>
   <g id="patch_37">
    <path d="M 810.145758 380.186354 
L 827.073743 380.186354 
L 827.073743 43.961255 
L 810.145758 43.961255 
z
" clip-path="url(#pf097b90bc0)" style="fill: #463480; opacity: 0.8"/>
   </g>
   <g id="patch_38">
    <path d="M 831.30574 380.186354 
L 848.233725 380.186354 
L 848.233725 77.583765 
L 831.30574 77.583765 
z
" clip-path="url(#pf097b90bc0)" style="fill: #472c7a; opacity: 0.8"/>
   </g>
   <g id="patch_39">
    <path d="M 852.465722 380.186354 
L 869.393708 380.186354 
L 869.393708 77.583765 
L 852.465722 77.583765 
z
" clip-path="url(#pf097b90bc0)" style="fill: #472c7a; opacity: 0.8"/>
   </g>
   <g id="patch_40">
    <path d="M 873.625704 380.186354 
L 890.55369 380.186354 
L 890.55369 77.583765 
L 873.625704 77.583765 
z
" clip-path="url(#pf097b90bc0)" style="fill: #472c7a; opacity: 0.8"/>
   </g>
   <g id="patch_41">
    <path d="M 894.785686 380.186354 
L 911.713672 380.186354 
L 911.713672 111.206275 
L 894.785686 111.206275 
z
" clip-path="url(#pf097b90bc0)" style="fill: #482677; opacity: 0.8"/>
   </g>
   <g id="patch_42">
    <path d="M 915.945668 380.186354 
L 932.873654 380.186354 
L 932.873654 178.451295 
L 915.945668 178.451295 
z
" clip-path="url(#pf097b90bc0)" style="fill: #481d6f; opacity: 0.8"/>
   </g>
   <g id="patch_43">
    <path d="M 937.105651 380.186354 
L 954.033636 380.186354 
L 954.033636 212.073804 
L 937.105651 212.073804 
z
" clip-path="url(#pf097b90bc0)" style="fill: #481a6c; opacity: 0.8"/>
   </g>
   <g id="matplotlib.axis_1">
    <g id="xtick_1">
     <g id="line2d_1">
      <defs>
       <path id="maadc71775e" d="M 0 0 
L 0 3.5 
" style="stroke: #000000; stroke-width: 0.8"/>
      </defs>
      <g>
       <use xlink:href="#maadc71775e" x="99.170357" y="380.186354" style="stroke: #000000; stroke-width: 0.8"/>
      </g>
     </g>
     <g id="text_1">
      <!-- S081 -->
      <g transform="translate(84.144337 406.189849) rotate(-45) scale(0.1 -0.1)">
       <defs>
        <path id="SimHei-53" d="M 2900 1325 
Q 2900 750 2537 412 
Q 2175 75 1550 75 
Q 925 75 575 425 
Q 225 775 225 1300 
L 225 1475 
L 800 1475 
L 800 1325 
Q 800 950 1025 750 
Q 1250 550 1550 550 
Q 1950 550 2137 762 
Q 2325 975 2325 1275 
Q 2325 1525 2100 1737 
Q 1875 1950 1450 2125 
Q 850 2350 587 2625 
Q 325 2900 325 3275 
Q 325 3800 687 4125 
Q 1050 4450 1550 4450 
Q 2200 4450 2487 4062 
Q 2775 3675 2775 3225 
L 2200 3225 
Q 2225 3500 2050 3725 
Q 1875 3950 1550 3950 
Q 1250 3950 1075 3787 
Q 900 3625 900 3350 
Q 900 3125 1037 2962 
Q 1175 2800 1750 2575 
Q 2300 2350 2600 2037 
Q 2900 1725 2900 1325 
z
" transform="scale(0.015625)"/>
        <path id="SimHei-30" d="M 225 2537 
Q 250 3200 412 3587 
Q 575 3975 875 4225 
Q 1175 4475 1612 4475 
Q 2050 4475 2375 4112 
Q 2700 3750 2800 3200 
Q 2900 2650 2862 1937 
Q 2825 1225 2612 775 
Q 2400 325 1975 150 
Q 1550 -25 1125 187 
Q 700 400 525 750 
Q 350 1100 275 1487 
Q 200 1875 225 2537 
z
M 750 2687 
Q 675 2000 800 1462 
Q 925 925 1212 700 
Q 1500 475 1800 612 
Q 2100 750 2237 1162 
Q 2375 1575 2375 2062 
Q 2375 2550 2337 2950 
Q 2300 3350 2112 3675 
Q 1925 4000 1612 4012 
Q 1300 4025 1062 3700 
Q 825 3375 750 2687 
z
" transform="scale(0.015625)"/>
        <path id="SimHei-38" d="M 175 1375 
Q 175 1675 325 1962 
Q 475 2250 825 2425 
Q 525 2600 425 2812 
Q 325 3025 312 3300 
Q 300 3575 387 3775 
Q 475 3975 650 4150 
Q 825 4325 1037 4387 
Q 1250 4450 1500 4450 
Q 1750 4450 1950 4400 
Q 2150 4350 2375 4187 
Q 2600 4025 2700 3725 
Q 2800 3425 2687 3025 
Q 2575 2625 2100 2400 
Q 2525 2275 2700 2012 
Q 2875 1750 2875 1375 
Q 2875 1000 2762 775 
Q 2650 550 2512 400 
Q 2375 250 2137 162 
Q 1900 75 1537 75 
Q 1175 75 912 162 
Q 650 250 475 425 
Q 300 600 237 837 
Q 175 1075 175 1375 
z
M 687 1400 
Q 675 1100 787 875 
Q 900 650 1200 587 
Q 1500 525 1825 600 
Q 2150 675 2275 950 
Q 2400 1225 2362 1500 
Q 2325 1775 2050 1962 
Q 1775 2150 1450 2125 
Q 1125 2100 912 1900 
Q 700 1700 687 1400 
z
M 775 3350 
Q 775 3100 950 2875 
Q 1125 2650 1500 2650 
Q 1875 2650 2062 2875 
Q 2250 3100 2237 3412 
Q 2225 3725 2012 3875 
Q 1800 4025 1437 4000 
Q 1075 3975 925 3787 
Q 775 3600 775 3350 
z
" transform="scale(0.015625)"/>
        <path id="SimHei-31" d="M 1400 3600 
Q 1075 3275 575 2975 
L 575 3450 
Q 1200 3875 1600 4450 
L 1900 4450 
L 1900 150 
L 1400 150 
L 1400 3600 
z
" transform="scale(0.015625)"/>
       </defs>
       <use xlink:href="#SimHei-53"/>
       <use xlink:href="#SimHei-30" transform="translate(50 0)"/>
       <use xlink:href="#SimHei-38" transform="translate(100 0)"/>
       <use xlink:href="#SimHei-31" transform="translate(150 0)"/>
      </g>
     </g>
    </g>
    <g id="xtick_2">
     <g id="line2d_2">
      <g>
       <use xlink:href="#maadc71775e" x="141.490321" y="380.186354" style="stroke: #000000; stroke-width: 0.8"/>
      </g>
     </g>
     <g id="text_2">
      <!-- S092 -->
      <g transform="translate(126.464302 406.189849) rotate(-45) scale(0.1 -0.1)">
       <defs>
        <path id="SimHei-39" d="M 800 75 
Q 1350 1000 1700 1750 
Q 1075 1650 662 1912 
Q 250 2175 162 2625 
Q 75 3075 175 3437 
Q 275 3800 487 4037 
Q 700 4275 1000 4375 
Q 1300 4475 1537 4475 
Q 1775 4475 2025 4375 
Q 2275 4275 2475 4075 
Q 2675 3875 2750 3662 
Q 2825 3450 2825 3112 
Q 2825 2775 2575 2250 
Q 2325 1725 1350 75 
L 800 75 
z
M 662 2875 
Q 700 2550 937 2337 
Q 1175 2125 1450 2150 
Q 1725 2175 1887 2300 
Q 2050 2425 2200 2725 
Q 2300 3100 2250 3362 
Q 2200 3625 1987 3800 
Q 1775 3975 1525 3975 
Q 1375 4000 1137 3900 
Q 900 3800 762 3500 
Q 625 3200 662 2875 
z
" transform="scale(0.015625)"/>
        <path id="SimHei-32" d="M 300 250 
Q 325 625 650 925 
Q 975 1225 1475 1862 
Q 1975 2500 2125 2850 
Q 2275 3200 2237 3450 
Q 2200 3700 2000 3862 
Q 1800 4025 1537 4000 
Q 1275 3975 1037 3800 
Q 800 3625 675 3275 
L 200 3350 
Q 400 3925 712 4187 
Q 1025 4450 1450 4475 
Q 1700 4500 1900 4462 
Q 2100 4425 2312 4287 
Q 2525 4150 2662 3875 
Q 2800 3600 2762 3212 
Q 2725 2825 2375 2287 
Q 2025 1750 1025 600 
L 2825 600 
L 2825 150 
L 300 150 
L 300 250 
z
" transform="scale(0.015625)"/>
       </defs>
       <use xlink:href="#SimHei-53"/>
       <use xlink:href="#SimHei-30" transform="translate(50 0)"/>
       <use xlink:href="#SimHei-39" transform="translate(100 0)"/>
       <use xlink:href="#SimHei-32" transform="translate(150 0)"/>
      </g>
     </g>
    </g>
    <g id="xtick_3">
     <g id="line2d_3">
      <g>
       <use xlink:href="#maadc71775e" x="183.810285" y="380.186354" style="stroke: #000000; stroke-width: 0.8"/>
      </g>
     </g>
     <g id="text_3">
      <!-- S044 -->
      <g transform="translate(168.784266 406.189849) rotate(-45) scale(0.1 -0.1)">
       <defs>
        <path id="SimHei-34" d="M 2000 1100 
L 75 1100 
L 75 1525 
L 2100 4450 
L 2475 4450 
L 2475 1525 
L 3075 1525 
L 3075 1100 
L 2475 1100 
L 2475 150 
L 2000 150 
L 2000 1100 
z
M 2000 1525 
L 2000 3500 
L 600 1525 
L 2000 1525 
z
" transform="scale(0.015625)"/>
       </defs>
       <use xlink:href="#SimHei-53"/>
       <use xlink:href="#SimHei-30" transform="translate(50 0)"/>
       <use xlink:href="#SimHei-34" transform="translate(100 0)"/>
       <use xlink:href="#SimHei-34" transform="translate(150 0)"/>
      </g>
     </g>
    </g>
    <g id="xtick_4">
     <g id="line2d_4">
      <g>
       <use xlink:href="#maadc71775e" x="226.13025" y="380.186354" style="stroke: #000000; stroke-width: 0.8"/>
      </g>
     </g>
     <g id="text_4">
      <!-- S063 -->
      <g transform="translate(211.10423 406.189849) rotate(-45) scale(0.1 -0.1)">
       <defs>
        <path id="SimHei-36" d="M 250 1612 
Q 275 1975 387 2225 
Q 500 2475 725 2850 
L 1750 4450 
L 2325 4450 
L 1275 2800 
Q 1950 2975 2350 2750 
Q 2750 2525 2887 2237 
Q 3025 1950 3037 1612 
Q 3050 1275 2937 950 
Q 2825 625 2537 362 
Q 2250 100 1737 75 
Q 1225 50 862 262 
Q 500 475 362 862 
Q 225 1250 250 1612 
z
M 1025 787 
Q 1250 550 1625 525 
Q 2000 500 2250 775 
Q 2500 1050 2500 1575 
Q 2500 2100 2187 2300 
Q 1875 2500 1487 2450 
Q 1100 2400 925 2075 
Q 750 1750 775 1387 
Q 800 1025 1025 787 
z
" transform="scale(0.015625)"/>
        <path id="SimHei-33" d="M 250 1225 
L 700 1300 
Q 800 975 1025 762 
Q 1250 550 1587 562 
Q 1925 575 2125 837 
Q 2325 1100 2300 1437 
Q 2275 1775 2037 1962 
Q 1800 2150 1275 2225 
L 1275 2550 
Q 1800 2600 2037 2825 
Q 2275 3050 2250 3412 
Q 2225 3775 1925 3937 
Q 1625 4100 1287 3975 
Q 950 3850 750 3275 
L 300 3350 
Q 450 3800 712 4100 
Q 975 4400 1425 4450 
Q 1875 4500 2212 4337 
Q 2550 4175 2687 3837 
Q 2825 3500 2725 3100 
Q 2625 2700 2150 2400 
Q 2500 2250 2687 1950 
Q 2875 1650 2812 1162 
Q 2750 675 2375 375 
Q 2000 75 1525 87 
Q 1050 100 700 387 
Q 350 675 250 1225 
z
" transform="scale(0.015625)"/>
       </defs>
       <use xlink:href="#SimHei-53"/>
       <use xlink:href="#SimHei-30" transform="translate(50 0)"/>
       <use xlink:href="#SimHei-36" transform="translate(100 0)"/>
       <use xlink:href="#SimHei-33" transform="translate(150 0)"/>
      </g>
     </g>
    </g>
    <g id="xtick_5">
     <g id="line2d_5">
      <g>
       <use xlink:href="#maadc71775e" x="268.450214" y="380.186354" style="stroke: #000000; stroke-width: 0.8"/>
      </g>
     </g>
     <g id="text_5">
      <!-- S053 -->
      <g transform="translate(253.424195 406.189849) rotate(-45) scale(0.1 -0.1)">
       <defs>
        <path id="SimHei-35" d="M 550 1325 
Q 725 650 1150 575 
Q 1575 500 1837 662 
Q 2100 825 2212 1087 
Q 2325 1350 2312 1675 
Q 2300 2000 2137 2225 
Q 1975 2450 1725 2525 
Q 1475 2600 1162 2525 
Q 850 2450 650 2175 
L 225 2225 
Q 275 2375 700 4375 
L 2675 4375 
L 2675 3925 
L 1075 3925 
Q 950 3250 825 2850 
Q 1200 3025 1525 3012 
Q 1850 3000 2150 2862 
Q 2450 2725 2587 2487 
Q 2725 2250 2787 2012 
Q 2850 1775 2837 1500 
Q 2825 1225 2725 937 
Q 2625 650 2425 462 
Q 2225 275 1937 162 
Q 1650 50 1275 75 
Q 900 100 562 350 
Q 225 600 100 1200 
L 550 1325 
z
" transform="scale(0.015625)"/>
       </defs>
       <use xlink:href="#SimHei-53"/>
       <use xlink:href="#SimHei-30" transform="translate(50 0)"/>
       <use xlink:href="#SimHei-35" transform="translate(100 0)"/>
       <use xlink:href="#SimHei-33" transform="translate(150 0)"/>
      </g>
     </g>
    </g>
    <g id="xtick_6">
     <g id="line2d_6">
      <g>
       <use xlink:href="#maadc71775e" x="310.770178" y="380.186354" style="stroke: #000000; stroke-width: 0.8"/>
      </g>
     </g>
     <g id="text_6">
      <!-- S056 -->
      <g transform="translate(295.744159 406.189849) rotate(-45) scale(0.1 -0.1)">
       <use xlink:href="#SimHei-53"/>
       <use xlink:href="#SimHei-30" transform="translate(50 0)"/>
       <use xlink:href="#SimHei-35" transform="translate(100 0)"/>
       <use xlink:href="#SimHei-36" transform="translate(150 0)"/>
      </g>
     </g>
    </g>
    <g id="xtick_7">
     <g id="line2d_7">
      <g>
       <use xlink:href="#maadc71775e" x="353.090143" y="380.186354" style="stroke: #000000; stroke-width: 0.8"/>
      </g>
     </g>
     <g id="text_7">
      <!-- S002 -->
      <g transform="translate(338.064124 406.189849) rotate(-45) scale(0.1 -0.1)">
       <use xlink:href="#SimHei-53"/>
       <use xlink:href="#SimHei-30" transform="translate(50 0)"/>
       <use xlink:href="#SimHei-30" transform="translate(100 0)"/>
       <use xlink:href="#SimHei-32" transform="translate(150 0)"/>
      </g>
     </g>
    </g>
    <g id="xtick_8">
     <g id="line2d_8">
      <g>
       <use xlink:href="#maadc71775e" x="395.410107" y="380.186354" style="stroke: #000000; stroke-width: 0.8"/>
      </g>
     </g>
     <g id="text_8">
      <!-- S068 -->
      <g transform="translate(380.384088 406.189849) rotate(-45) scale(0.1 -0.1)">
       <use xlink:href="#SimHei-53"/>
       <use xlink:href="#SimHei-30" transform="translate(50 0)"/>
       <use xlink:href="#SimHei-36" transform="translate(100 0)"/>
       <use xlink:href="#SimHei-38" transform="translate(150 0)"/>
      </g>
     </g>
    </g>
    <g id="xtick_9">
     <g id="line2d_9">
      <g>
       <use xlink:href="#maadc71775e" x="437.730071" y="380.186354" style="stroke: #000000; stroke-width: 0.8"/>
      </g>
     </g>
     <g id="text_9">
      <!-- S036 -->
      <g transform="translate(422.704052 406.189849) rotate(-45) scale(0.1 -0.1)">
       <use xlink:href="#SimHei-53"/>
       <use xlink:href="#SimHei-30" transform="translate(50 0)"/>
       <use xlink:href="#SimHei-33" transform="translate(100 0)"/>
       <use xlink:href="#SimHei-36" transform="translate(150 0)"/>
      </g>
     </g>
    </g>
    <g id="xtick_10">
     <g id="line2d_10">
      <g>
       <use xlink:href="#maadc71775e" x="480.050036" y="380.186354" style="stroke: #000000; stroke-width: 0.8"/>
      </g>
     </g>
     <g id="text_10">
      <!-- S054 -->
      <g transform="translate(465.024017 406.189849) rotate(-45) scale(0.1 -0.1)">
       <use xlink:href="#SimHei-53"/>
       <use xlink:href="#SimHei-30" transform="translate(50 0)"/>
       <use xlink:href="#SimHei-35" transform="translate(100 0)"/>
       <use xlink:href="#SimHei-34" transform="translate(150 0)"/>
      </g>
     </g>
    </g>
    <g id="xtick_11">
     <g id="line2d_11">
      <g>
       <use xlink:href="#maadc71775e" x="522.37" y="380.186354" style="stroke: #000000; stroke-width: 0.8"/>
      </g>
     </g>
     <g id="text_11">
      <!-- S075 -->
      <g transform="translate(507.343981 406.189849) rotate(-45) scale(0.1 -0.1)">
       <defs>
        <path id="SimHei-37" d="M 850 150 
Q 1300 2050 2425 3925 
L 275 3925 
L 275 4375 
L 2950 4375 
L 2950 3950 
Q 1775 2050 1400 150 
L 850 150 
z
" transform="scale(0.015625)"/>
       </defs>
       <use xlink:href="#SimHei-53"/>
       <use xlink:href="#SimHei-30" transform="translate(50 0)"/>
       <use xlink:href="#SimHei-37" transform="translate(100 0)"/>
       <use xlink:href="#SimHei-35" transform="translate(150 0)"/>
      </g>
     </g>
    </g>
    <g id="xtick_12">
     <g id="line2d_12">
      <g>
       <use xlink:href="#maadc71775e" x="564.689964" y="380.186354" style="stroke: #000000; stroke-width: 0.8"/>
      </g>
     </g>
     <g id="text_12">
      <!-- S003 -->
      <g transform="translate(549.663945 406.189849) rotate(-45) scale(0.1 -0.1)">
       <use xlink:href="#SimHei-53"/>
       <use xlink:href="#SimHei-30" transform="translate(50 0)"/>
       <use xlink:href="#SimHei-30" transform="translate(100 0)"/>
       <use xlink:href="#SimHei-33" transform="translate(150 0)"/>
      </g>
     </g>
    </g>
    <g id="xtick_13">
     <g id="line2d_13">
      <g>
       <use xlink:href="#maadc71775e" x="607.009929" y="380.186354" style="stroke: #000000; stroke-width: 0.8"/>
      </g>
     </g>
     <g id="text_13">
      <!-- S082 -->
      <g transform="translate(591.98391 406.189849) rotate(-45) scale(0.1 -0.1)">
       <use xlink:href="#SimHei-53"/>
       <use xlink:href="#SimHei-30" transform="translate(50 0)"/>
       <use xlink:href="#SimHei-38" transform="translate(100 0)"/>
       <use xlink:href="#SimHei-32" transform="translate(150 0)"/>
      </g>
     </g>
    </g>
    <g id="xtick_14">
     <g id="line2d_14">
      <g>
       <use xlink:href="#maadc71775e" x="649.329893" y="380.186354" style="stroke: #000000; stroke-width: 0.8"/>
      </g>
     </g>
     <g id="text_14">
      <!-- S026 -->
      <g transform="translate(634.303874 406.189849) rotate(-45) scale(0.1 -0.1)">
       <use xlink:href="#SimHei-53"/>
       <use xlink:href="#SimHei-30" transform="translate(50 0)"/>
       <use xlink:href="#SimHei-32" transform="translate(100 0)"/>
       <use xlink:href="#SimHei-36" transform="translate(150 0)"/>
      </g>
     </g>
    </g>
    <g id="xtick_15">
     <g id="line2d_15">
      <g>
       <use xlink:href="#maadc71775e" x="691.649857" y="380.186354" style="stroke: #000000; stroke-width: 0.8"/>
      </g>
     </g>
     <g id="text_15">
      <!-- S049 -->
      <g transform="translate(676.623838 406.189849) rotate(-45) scale(0.1 -0.1)">
       <use xlink:href="#SimHei-53"/>
       <use xlink:href="#SimHei-30" transform="translate(50 0)"/>
       <use xlink:href="#SimHei-34" transform="translate(100 0)"/>
       <use xlink:href="#SimHei-39" transform="translate(150 0)"/>
      </g>
     </g>
    </g>
    <g id="xtick_16">
     <g id="line2d_16">
      <g>
       <use xlink:href="#maadc71775e" x="733.969822" y="380.186354" style="stroke: #000000; stroke-width: 0.8"/>
      </g>
     </g>
     <g id="text_16">
      <!-- S039 -->
      <g transform="translate(718.943803 406.189849) rotate(-45) scale(0.1 -0.1)">
       <use xlink:href="#SimHei-53"/>
       <use xlink:href="#SimHei-30" transform="translate(50 0)"/>
       <use xlink:href="#SimHei-33" transform="translate(100 0)"/>
       <use xlink:href="#SimHei-39" transform="translate(150 0)"/>
      </g>
     </g>
    </g>
    <g id="xtick_17">
     <g id="line2d_17">
      <g>
       <use xlink:href="#maadc71775e" x="776.289786" y="380.186354" style="stroke: #000000; stroke-width: 0.8"/>
      </g>
     </g>
     <g id="text_17">
      <!-- S077 -->
      <g transform="translate(761.263767 406.189849) rotate(-45) scale(0.1 -0.1)">
       <use xlink:href="#SimHei-53"/>
       <use xlink:href="#SimHei-30" transform="translate(50 0)"/>
       <use xlink:href="#SimHei-37" transform="translate(100 0)"/>
       <use xlink:href="#SimHei-37" transform="translate(150 0)"/>
      </g>
     </g>
    </g>
    <g id="xtick_18">
     <g id="line2d_18">
      <g>
       <use xlink:href="#maadc71775e" x="818.60975" y="380.186354" style="stroke: #000000; stroke-width: 0.8"/>
      </g>
     </g>
     <g id="text_18">
      <!-- S010 -->
      <g transform="translate(803.583731 406.189849) rotate(-45) scale(0.1 -0.1)">
       <use xlink:href="#SimHei-53"/>
       <use xlink:href="#SimHei-30" transform="translate(50 0)"/>
       <use xlink:href="#SimHei-31" transform="translate(100 0)"/>
       <use xlink:href="#SimHei-30" transform="translate(150 0)"/>
      </g>
     </g>
    </g>
    <g id="xtick_19">
     <g id="line2d_19">
      <g>
       <use xlink:href="#maadc71775e" x="860.929715" y="380.186354" style="stroke: #000000; stroke-width: 0.8"/>
      </g>
     </g>
     <g id="text_19">
      <!-- S038 -->
      <g transform="translate(845.903696 406.189849) rotate(-45) scale(0.1 -0.1)">
       <use xlink:href="#SimHei-53"/>
       <use xlink:href="#SimHei-30" transform="translate(50 0)"/>
       <use xlink:href="#SimHei-33" transform="translate(100 0)"/>
       <use xlink:href="#SimHei-38" transform="translate(150 0)"/>
      </g>
     </g>
    </g>
    <g id="xtick_20">
     <g id="line2d_20">
      <g>
       <use xlink:href="#maadc71775e" x="903.249679" y="380.186354" style="stroke: #000000; stroke-width: 0.8"/>
      </g>
     </g>
     <g id="text_20">
      <!-- S035 -->
      <g transform="translate(888.22366 406.189849) rotate(-45) scale(0.1 -0.1)">
       <use xlink:href="#SimHei-53"/>
       <use xlink:href="#SimHei-30" transform="translate(50 0)"/>
       <use xlink:href="#SimHei-33" transform="translate(100 0)"/>
       <use xlink:href="#SimHei-35" transform="translate(150 0)"/>
      </g>
     </g>
    </g>
    <g id="xtick_21">
     <g id="line2d_21">
      <g>
       <use xlink:href="#maadc71775e" x="945.569643" y="380.186354" style="stroke: #000000; stroke-width: 0.8"/>
      </g>
     </g>
     <g id="text_21">
      <!-- S090 -->
      <g transform="translate(930.543624 406.189849) rotate(-45) scale(0.1 -0.1)">
       <use xlink:href="#SimHei-53"/>
       <use xlink:href="#SimHei-30" transform="translate(50 0)"/>
       <use xlink:href="#SimHei-39" transform="translate(100 0)"/>
       <use xlink:href="#SimHei-30" transform="translate(150 0)"/>
      </g>
     </g>
    </g>
    <g id="text_22">
     <!-- 保留站点 (按效率降序排列) -->
     <g transform="translate(459.87 419.198732) scale(0.1 -0.1)">
      <defs>
       <path id="SimHei-4fdd" d="M 5425 4925 
Q 5400 4550 5400 3950 
Q 5400 3375 5425 3050 
L 4225 3050 
L 4225 2250 
L 4975 2250 
Q 5650 2250 6025 2275 
L 6025 1800 
Q 5600 1825 5025 1825 
L 4600 1825 
Q 4825 1325 5225 937 
Q 5625 550 6175 350 
Q 5975 175 5800 -125 
Q 5200 200 4812 700 
Q 4425 1200 4225 1700 
L 4225 325 
Q 4225 -250 4250 -575 
L 3725 -575 
Q 3750 -225 3750 275 
L 3750 1800 
Q 3150 600 2225 -175 
Q 2075 50 1775 175 
Q 2650 650 3225 1825 
L 2875 1825 
Q 2350 1825 2000 1800 
L 2000 2275 
Q 2350 2250 2825 2250 
L 3750 2250 
L 3750 3050 
L 2600 3050 
Q 2625 3400 2625 4000 
Q 2625 4625 2600 4925 
L 5425 4925 
z
M 2125 4975 
Q 2000 4800 1850 4475 
Q 1700 4150 1600 3875 
L 1600 650 
Q 1600 -150 1625 -575 
L 1125 -575 
Q 1150 -175 1150 625 
L 1150 3000 
Q 800 2400 525 2050 
Q 400 2275 200 2425 
Q 725 3050 1087 3837 
Q 1450 4625 1575 5225 
Q 1775 5075 2125 4975 
z
M 4950 3450 
L 4950 4525 
L 3075 4525 
L 3075 3450 
L 4950 3450 
z
" transform="scale(0.015625)"/>
       <path id="SimHei-7559" d="M 5575 2300 
Q 5550 1900 5550 1275 
L 5550 375 
Q 5550 -50 5575 -650 
L 5050 -650 
L 5050 -150 
L 1500 -150 
L 1500 -650 
L 975 -650 
Q 1000 100 1000 450 
L 1000 1275 
Q 1000 1925 975 2300 
L 5575 2300 
z
M 3350 2475 
Q 3250 2650 2900 2850 
Q 3325 3050 3625 3400 
Q 3925 3750 4025 4450 
Q 3675 4450 3225 4400 
L 3225 4875 
Q 3675 4850 4050 4850 
L 5950 4850 
Q 5875 4425 5825 3912 
Q 5775 3400 5725 3125 
Q 5675 2850 5462 2775 
Q 5250 2700 4775 2600 
Q 4675 2950 4525 3200 
Q 4900 3200 5075 3225 
Q 5250 3250 5287 3400 
Q 5325 3550 5375 4450 
L 4525 4450 
Q 4425 3675 4112 3250 
Q 3800 2825 3350 2475 
z
M 2200 3575 
Q 2050 3800 1875 3975 
Q 2125 4100 2275 4250 
Q 2650 3750 3000 3250 
Q 2800 3100 2575 2950 
Q 2500 3100 2400 3250 
Q 2000 3075 1587 2862 
Q 1175 2650 800 2425 
Q 675 2650 500 2850 
Q 675 3000 675 3425 
L 675 4125 
Q 675 4550 650 4850 
Q 1075 4850 1575 4925 
Q 2075 5000 2550 5225 
Q 2650 4975 2950 4700 
Q 2775 4700 2287 4600 
Q 1800 4500 1175 4450 
L 1175 3125 
Q 1600 3300 2200 3575 
z
M 3075 250 
L 3075 875 
L 1500 875 
L 1500 250 
L 3075 250 
z
M 3075 1275 
L 3075 1900 
L 1500 1900 
L 1500 1275 
L 3075 1275 
z
M 5050 1275 
L 5050 1900 
L 3550 1900 
L 3550 1275 
L 5050 1275 
z
M 5050 250 
L 5050 875 
L 3550 875 
L 3550 250 
L 5050 250 
z
" transform="scale(0.015625)"/>
       <path id="SimHei-7ad9" d="M 4450 3925 
L 5175 3925 
Q 5575 3925 6050 3950 
L 6050 3475 
Q 5575 3500 5175 3500 
L 4450 3500 
L 4450 2275 
L 5700 2275 
Q 5675 1900 5675 1575 
L 5675 350 
Q 5675 -100 5700 -575 
L 5175 -575 
L 5175 -50 
L 3500 -50 
L 3500 -600 
L 3025 -600 
Q 3025 -150 3050 200 
L 3050 1525 
Q 3025 1850 3025 2275 
L 3975 2275 
L 3975 4550 
Q 3975 4775 3950 5225 
L 4475 5225 
Q 4450 4750 4450 4600 
L 4450 3925 
z
M 5175 350 
L 5175 1875 
L 3500 1875 
L 3500 350 
L 5175 350 
z
M 2725 2875 
Q 2575 2500 2450 1912 
Q 2325 1325 2200 775 
Q 2675 875 2875 925 
Q 2875 725 2925 525 
Q 2150 350 1587 212 
Q 1025 75 550 -100 
Q 500 150 325 450 
Q 1400 600 1750 700 
Q 1850 1025 1987 1662 
Q 2125 2300 2175 3025 
Q 2450 2925 2725 2875 
z
M 1900 3875 
Q 2250 3875 2950 3900 
L 2950 3425 
Q 2250 3450 1900 3450 
L 1400 3450 
Q 1000 3450 375 3425 
L 375 3900 
Q 1000 3875 1400 3875 
L 1900 3875 
z
M 1075 2950 
Q 1475 1650 1550 1250 
Q 1300 1175 1075 1125 
Q 975 1725 600 2800 
Q 800 2875 1075 2950 
z
M 1525 4050 
Q 1425 4475 1125 5000 
Q 1325 5075 1550 5200 
Q 1775 4875 2000 4225 
Q 1800 4125 1525 4050 
z
" transform="scale(0.015625)"/>
       <path id="SimHei-70b9" d="M 3325 5200 
Q 3300 4925 3300 4375 
L 4900 4375 
Q 5275 4375 5725 4400 
L 5725 3925 
Q 5300 3950 4900 3950 
L 3300 3950 
L 3300 3225 
L 5225 3225 
Q 5200 2700 5200 2150 
Q 5200 1625 5225 1175 
L 1175 1175 
Q 1200 1625 1200 2175 
Q 1200 2725 1175 3225 
L 2775 3225 
L 2775 4500 
Q 2775 4900 2750 5200 
L 3325 5200 
z
M 4700 1600 
L 4700 2800 
L 1725 2800 
L 1725 1600 
L 4700 1600 
z
M 1500 750 
Q 1025 -250 825 -625 
Q 625 -475 325 -375 
Q 650 50 950 925 
Q 1200 800 1500 750 
z
M 5325 850 
Q 5775 150 6075 -350 
Q 5925 -425 5575 -625 
Q 5375 -150 4900 575 
Q 5150 700 5325 850 
z
M 3975 -575 
Q 3775 -100 3400 575 
Q 3575 675 3825 825 
Q 4350 -75 4450 -325 
Q 4200 -450 3975 -575 
z
M 2375 -575 
Q 2350 -300 1975 550 
Q 2200 625 2425 775 
Q 2800 -75 2900 -350 
Q 2625 -450 2375 -575 
z
" transform="scale(0.015625)"/>
       <path id="SimHei-20" transform="scale(0.015625)"/>
       <path id="SimHei-28" d="M 2975 -200 
L 2700 -475 
Q 2075 125 1762 775 
Q 1450 1425 1450 2250 
Q 1450 3075 1762 3725 
Q 2075 4375 2700 5000 
L 2975 4725 
Q 2400 4175 2112 3587 
Q 1825 3000 1825 2250 
Q 1825 1500 2112 912 
Q 2400 325 2975 -200 
z
" transform="scale(0.015625)"/>
       <path id="SimHei-6309" d="M 4400 3375 
Q 4275 3175 4200 3012 
Q 4125 2850 3925 2450 
L 5400 2450 
Q 5800 2450 6075 2475 
L 6075 2050 
Q 5725 2075 5400 2075 
Q 5300 1800 5150 1437 
Q 5000 1075 4675 600 
Q 5300 275 6025 -150 
Q 5850 -325 5675 -600 
Q 5050 -125 4350 275 
Q 4125 75 3662 -162 
Q 3200 -400 2375 -625 
Q 2275 -375 2075 -150 
Q 2625 -100 3187 112 
Q 3750 325 3925 500 
Q 3375 800 2725 1075 
Q 3050 1550 3300 2075 
Q 2800 2075 2475 2050 
L 2475 2475 
Q 2825 2450 3125 2450 
L 3450 2450 
Q 3625 2800 3850 3575 
Q 4100 3450 4400 3375 
z
M 1200 4475 
Q 1200 4850 1175 5100 
L 1675 5100 
Q 1650 4850 1650 4500 
L 1650 3850 
Q 1925 3850 2175 3875 
L 2175 3450 
Q 1900 3475 1650 3475 
L 1650 2250 
Q 1975 2400 2200 2550 
Q 2250 2325 2325 2150 
Q 2075 2050 1650 1825 
L 1650 75 
Q 1675 -275 1500 -400 
Q 1325 -525 750 -600 
Q 725 -325 525 -50 
Q 975 -75 1087 -25 
Q 1200 25 1200 275 
L 1200 1650 
Q 750 1450 450 1275 
Q 325 1625 200 1750 
Q 525 1800 1200 2100 
L 1200 3475 
Q 675 3475 300 3450 
L 300 3875 
Q 625 3850 1200 3850 
L 1200 4475 
z
M 5900 4225 
Q 5875 3850 5875 3575 
Q 5875 3325 5900 3075 
L 5425 3075 
L 5425 3850 
L 3050 3850 
L 3050 3050 
L 2575 3050 
Q 2600 3325 2600 3600 
Q 2600 3900 2575 4225 
L 5900 4225 
z
M 3325 1225 
Q 3825 1000 4275 800 
Q 4625 1225 4900 2075 
L 3800 2075 
Q 3600 1725 3325 1225 
z
M 4075 5275 
Q 4350 4875 4550 4475 
Q 4300 4375 4100 4250 
Q 3925 4675 3675 5000 
Q 3850 5125 4075 5275 
z
" transform="scale(0.015625)"/>
       <path id="SimHei-6548" d="M 3500 2400 
Q 3400 2675 3200 2900 
Q 3500 3350 3750 4025 
Q 4000 4700 4100 5300 
Q 4400 5150 4750 5075 
Q 4625 4950 4500 4687 
Q 4375 4425 4225 4025 
Q 5800 4025 6150 4050 
L 6150 3625 
Q 5850 3650 5475 3650 
Q 5450 2925 5300 2137 
Q 5150 1350 4825 800 
Q 4900 575 5312 275 
Q 5725 -25 6175 -175 
Q 5875 -350 5775 -650 
Q 5350 -425 5050 -162 
Q 4750 100 4500 425 
Q 4175 125 3837 -112 
Q 3500 -350 2850 -700 
Q 2725 -425 2425 -250 
Q 2750 -200 3325 137 
Q 3900 475 4200 800 
Q 4000 1225 3887 1675 
Q 3775 2125 3675 2700 
L 3500 2400 
z
M 1100 2225 
Q 1525 1875 1925 1575 
Q 2125 1900 2200 2400 
Q 2450 2275 2700 2200 
Q 2475 1625 2300 1250 
L 3000 550 
Q 2775 375 2575 175 
Q 2400 450 2025 825 
Q 1825 600 1550 312 
Q 1275 25 700 -425 
Q 500 -175 250 -25 
Q 575 125 950 400 
Q 1325 675 1675 1175 
Q 1325 1475 850 1875 
L 1100 2225 
z
M 4075 2950 
Q 4100 2700 4212 2187 
Q 4325 1675 4525 1225 
Q 4775 1700 4887 2475 
Q 5000 3250 4975 3650 
L 4100 3650 
Q 3900 3125 3725 2850 
Q 3900 2850 4075 2950 
z
M 2500 4200 
Q 2875 4200 3175 4225 
L 3175 3800 
Q 2875 3825 2525 3825 
L 1000 3825 
Q 600 3825 275 3800 
L 275 4225 
Q 600 4200 1000 4200 
L 2500 4200 
z
M 1125 3650 
Q 1400 3500 1625 3325 
Q 1525 3250 1300 2900 
Q 1050 2525 675 2000 
Q 450 2150 225 2275 
Q 550 2575 787 2975 
Q 1025 3375 1125 3650 
z
M 2475 3625 
Q 2625 3400 2850 3100 
Q 3075 2800 3250 2575 
Q 3025 2450 2825 2275 
Q 2325 3000 2075 3325 
Q 2275 3425 2475 3625 
z
M 1825 5250 
Q 2025 4875 2175 4475 
Q 1950 4375 1700 4275 
Q 1550 4650 1350 5075 
Q 1575 5150 1825 5250 
z
" transform="scale(0.015625)"/>
       <path id="SimHei-7387" d="M 3325 5150 
Q 3425 4900 3550 4525 
L 4800 4525 
Q 5250 4525 5800 4550 
L 5800 4125 
Q 5250 4175 4775 4175 
L 2800 4175 
Q 2975 4050 3300 3900 
Q 3075 3750 2875 3537 
Q 2675 3325 2475 3125 
L 3275 3125 
Q 3575 3425 3775 3775 
Q 4000 3600 4275 3425 
Q 3950 3250 3600 2875 
Q 3250 2500 2625 2000 
L 3850 2100 
Q 3725 2250 3600 2425 
Q 3750 2475 4000 2650 
Q 4250 2350 4700 1700 
Q 4475 1625 4225 1450 
Q 4175 1600 4025 1775 
Q 3700 1750 3425 1750 
L 3425 1050 
L 5150 1050 
Q 5675 1050 6100 1075 
L 6100 650 
Q 5700 675 5125 675 
L 3425 675 
L 3425 175 
Q 3425 -300 3450 -625 
L 2900 -625 
Q 2925 -300 2925 175 
L 2925 675 
L 1325 675 
Q 825 675 325 650 
L 325 1075 
Q 825 1050 1350 1050 
L 2925 1050 
L 2925 1700 
Q 2700 1675 2475 1637 
Q 2250 1600 2025 1525 
Q 1950 1775 1850 2000 
Q 2075 2025 2325 2200 
Q 2575 2375 2975 2800 
Q 2300 2725 2025 2625 
Q 1975 2875 1850 3175 
Q 2075 3175 2325 3487 
Q 2575 3800 2750 4175 
L 1700 4175 
Q 1150 4175 650 4125 
L 650 4550 
Q 1150 4525 1550 4525 
L 2975 4525 
Q 2900 4825 2800 5025 
Q 3025 5075 3325 5150 
z
M 1625 2575 
Q 1725 2400 1825 2200 
Q 1575 2050 1325 1862 
Q 1075 1675 800 1425 
Q 625 1675 475 1875 
Q 800 2025 1100 2212 
Q 1400 2400 1625 2575 
z
M 4850 2650 
Q 5125 2475 5337 2337 
Q 5550 2200 5875 1950 
Q 5675 1800 5500 1600 
Q 5300 1775 5062 1975 
Q 4825 2175 4575 2325 
Q 4725 2475 4850 2650 
z
M 5725 3525 
Q 5550 3450 5300 3262 
Q 5050 3075 4800 2825 
Q 4625 3050 4475 3175 
Q 4700 3325 4875 3487 
Q 5050 3650 5300 3925 
Q 5525 3700 5725 3525 
z
M 1050 3850 
Q 1425 3600 1775 3275 
Q 1575 3100 1425 2925 
Q 1075 3300 675 3525 
Q 875 3700 1050 3850 
z
" transform="scale(0.015625)"/>
       <path id="SimHei-964d" d="M 4075 5050 
Q 3850 4800 3775 4625 
L 5650 4625 
Q 5425 4175 5187 3837 
Q 4950 3500 4650 3200 
Q 4900 3025 5275 2925 
Q 5650 2825 6200 2800 
Q 6025 2525 5975 2300 
Q 5375 2400 4950 2562 
Q 4525 2725 4275 2900 
Q 3950 2700 3550 2500 
Q 3150 2300 2525 2125 
Q 2450 2350 2250 2550 
Q 2775 2650 3212 2825 
Q 3650 3000 3875 3200 
Q 3550 3525 3325 3875 
Q 3000 3450 2825 3275 
Q 2650 3450 2450 3550 
Q 2775 3850 3075 4325 
Q 3375 4800 3575 5300 
Q 3950 5100 4075 5050 
z
M 2350 4975 
Q 2225 4650 2025 4062 
Q 1825 3475 1675 2975 
Q 2075 2450 2200 2175 
Q 2325 1900 2287 1550 
Q 2250 1200 2012 1012 
Q 1775 825 1350 775 
Q 1300 1025 1150 1325 
Q 1650 1300 1737 1512 
Q 1825 1725 1787 1962 
Q 1750 2200 1200 2925 
L 1450 3600 
Q 1600 4025 1725 4550 
L 975 4550 
L 975 -600 
L 500 -600 
Q 525 325 525 875 
L 525 3750 
Q 525 4325 500 4975 
L 2350 4975 
z
M 5100 2075 
Q 5275 2075 5725 2100 
L 5725 1650 
Q 5450 1675 5150 1675 
L 4575 1675 
L 4575 900 
L 5200 900 
Q 5675 900 6050 925 
L 6050 475 
Q 5700 500 5225 500 
L 4575 500 
L 4575 125 
Q 4575 -250 4600 -600 
L 4100 -600 
Q 4125 -225 4125 100 
L 4125 500 
L 2375 500 
Q 2500 1100 2500 1400 
L 3025 1325 
Q 2925 1025 2925 900 
L 4125 900 
L 4125 1675 
L 3475 1675 
Q 3100 1675 2775 1650 
L 2775 2100 
Q 3225 2075 3475 2075 
L 4125 2075 
Q 4125 2375 4100 2625 
L 4575 2625 
Q 4550 2225 4550 2075 
L 5100 2075 
z
M 4275 3475 
Q 4600 3725 4925 4250 
L 3550 4250 
Q 4025 3650 4275 3475 
z
" transform="scale(0.015625)"/>
       <path id="SimHei-5e8f" d="M 4000 2075 
L 5975 2075 
Q 5750 1525 5575 1025 
Q 5325 1100 5050 1150 
Q 5175 1450 5275 1700 
L 4050 1700 
L 4050 150 
Q 4050 -375 3762 -462 
Q 3475 -550 2950 -575 
Q 2875 -300 2750 0 
Q 3350 -75 3475 25 
Q 3600 125 3575 375 
L 3575 1700 
L 2450 1700 
Q 2050 1700 1675 1675 
L 1675 2100 
Q 2100 2075 2425 2075 
L 3675 2075 
Q 3325 2400 2875 2775 
Q 2975 2875 3250 3100 
Q 3400 2975 3725 2725 
L 4575 3275 
L 3000 3275 
Q 2400 3275 1950 3250 
L 1950 3700 
Q 2400 3675 3000 3675 
L 5400 3675 
L 5400 3250 
Q 4700 2875 4025 2450 
L 4275 2250 
L 4000 2075 
z
M 3725 5275 
Q 3825 4925 3925 4525 
L 4850 4525 
Q 5425 4525 6000 4550 
L 6000 4125 
Q 5425 4150 4850 4150 
L 1400 4150 
Q 1400 2750 1362 2137 
Q 1325 1525 1200 887 
Q 1075 250 775 -350 
Q 625 -250 250 -125 
Q 475 300 600 700 
Q 725 1100 800 1637 
Q 875 2175 875 2825 
Q 875 3500 850 4525 
L 3350 4525 
Q 3275 4825 3150 5150 
Q 3425 5200 3725 5275 
z
" transform="scale(0.015625)"/>
       <path id="SimHei-6392" d="M 225 1825 
Q 675 1900 1150 2075 
L 1150 3425 
L 950 3425 
Q 650 3425 350 3400 
L 350 3850 
Q 600 3825 950 3825 
L 1150 3825 
L 1150 4500 
Q 1150 4850 1125 5175 
L 1675 5175 
Q 1625 4900 1625 4500 
L 1625 3825 
Q 2075 3825 2275 3850 
L 2275 3400 
Q 1875 3425 1625 3425 
L 1625 2225 
Q 1950 2325 2275 2500 
Q 2275 2200 2300 2050 
Q 2075 1975 1625 1800 
L 1625 -100 
Q 1600 -425 1412 -500 
Q 1225 -575 700 -650 
Q 600 -225 450 -75 
Q 875 -125 1000 -112 
Q 1125 -100 1150 75 
L 1150 1650 
Q 850 1550 450 1300 
Q 375 1525 225 1825 
z
M 5050 5125 
Q 5025 4800 5025 4300 
L 5025 4000 
Q 5700 4000 6100 4050 
L 6100 3575 
Q 5725 3600 5525 3600 
L 5025 3600 
L 5025 2625 
Q 5625 2625 5950 2650 
L 5950 2175 
Q 5625 2200 5025 2200 
L 5025 1075 
Q 5750 1075 6150 1100 
L 6150 625 
Q 5850 650 5025 650 
L 5025 275 
Q 5025 75 5050 -600 
L 4550 -600 
L 4550 4300 
Q 4550 4850 4525 5125 
L 5050 5125 
z
M 3425 4350 
Q 3425 4925 3400 5150 
L 3925 5150 
Q 3900 4800 3900 4250 
L 3900 -600 
L 3400 -600 
Q 3425 -50 3425 275 
L 3425 650 
Q 2625 650 2225 625 
L 2225 1100 
Q 2550 1075 3425 1075 
L 3425 2200 
Q 2775 2200 2525 2150 
L 2525 2650 
Q 2750 2625 3425 2625 
L 3425 3600 
Q 2700 3600 2450 3575 
L 2450 4050 
Q 2725 4000 3425 4000 
L 3425 4350 
z
" transform="scale(0.015625)"/>
       <path id="SimHei-5217" d="M 2950 4800 
Q 3525 4800 3825 4825 
L 3825 4400 
Q 3525 4425 2800 4425 
L 2125 4425 
Q 2075 4125 1925 3500 
L 3425 3500 
Q 3300 2500 3100 1862 
Q 2900 1225 2575 762 
Q 2250 300 1850 -12 
Q 1450 -325 925 -675 
Q 725 -375 475 -150 
Q 1125 125 1550 437 
Q 1975 750 2250 1225 
Q 2100 1350 1862 1550 
Q 1625 1750 1400 1925 
L 1750 2325 
Q 1925 2200 2100 2037 
Q 2275 1875 2500 1650 
Q 2650 2025 2737 2337 
Q 2825 2650 2875 3100 
L 1775 3100 
Q 1600 2650 1350 2237 
Q 1100 1825 775 1525 
Q 600 1675 325 1850 
Q 600 2125 825 2462 
Q 1050 2800 1200 3125 
Q 1350 3450 1425 3775 
Q 1500 4100 1550 4425 
L 1100 4425 
Q 575 4425 375 4400 
L 375 4825 
Q 575 4800 1125 4800 
L 2950 4800 
z
M 5975 5050 
Q 5925 4675 5925 4250 
L 5925 50 
Q 5925 -275 5737 -400 
Q 5550 -525 4900 -625 
Q 4825 -250 4650 25 
Q 5150 0 5287 25 
Q 5425 50 5425 325 
L 5425 4250 
Q 5425 4650 5400 5050 
L 5975 5050 
z
M 4725 4300 
Q 4675 4000 4675 3450 
L 4675 1650 
Q 4675 1200 4700 850 
L 4100 850 
Q 4150 1200 4150 1650 
L 4150 3550 
Q 4150 3975 4100 4300 
L 4725 4300 
z
" transform="scale(0.015625)"/>
       <path id="SimHei-29" d="M 1675 2250 
Q 1675 1425 1362 775 
Q 1050 125 425 -475 
L 150 -200 
Q 725 325 1012 912 
Q 1300 1500 1300 2250 
Q 1300 3000 1012 3587 
Q 725 4175 150 4725 
L 425 5000 
Q 1050 4375 1362 3725 
Q 1675 3075 1675 2250 
z
" transform="scale(0.015625)"/>
      </defs>
      <use xlink:href="#SimHei-4fdd"/>
      <use xlink:href="#SimHei-7559" transform="translate(100 0)"/>
      <use xlink:href="#SimHei-7ad9" transform="translate(200 0)"/>
      <use xlink:href="#SimHei-70b9" transform="translate(300 0)"/>
      <use xlink:href="#SimHei-20" transform="translate(400 0)"/>
      <use xlink:href="#SimHei-28" transform="translate(450 0)"/>
      <use xlink:href="#SimHei-6309" transform="translate(500 0)"/>
      <use xlink:href="#SimHei-6548" transform="translate(600 0)"/>
      <use xlink:href="#SimHei-7387" transform="translate(700 0)"/>
      <use xlink:href="#SimHei-964d" transform="translate(800 0)"/>
      <use xlink:href="#SimHei-5e8f" transform="translate(900 0)"/>
      <use xlink:href="#SimHei-6392" transform="translate(1000 0)"/>
      <use xlink:href="#SimHei-5217" transform="translate(1100 0)"/>
      <use xlink:href="#SimHei-29" transform="translate(1200 0)"/>
     </g>
    </g>
   </g>
   <g id="matplotlib.axis_2">
    <g id="ytick_1">
     <g id="line2d_22">
      <path d="M 47.54 380.186354 
L 997.2 380.186354 
" clip-path="url(#pf097b90bc0)" style="fill: none; stroke-dasharray: 2.96,1.28; stroke-dashoffset: 0; stroke: #b0b0b0; stroke-opacity: 0.7; stroke-width: 0.8"/>
     </g>
     <g id="line2d_23">
      <defs>
       <path id="m4be4649f8d" d="M 0 0 
L -3.5 0 
" style="stroke: #000000; stroke-width: 0.8"/>
      </defs>
      <g>
       <use xlink:href="#m4be4649f8d" x="47.54" y="380.186354" style="stroke: #000000; stroke-width: 0.8"/>
      </g>
     </g>
     <g id="text_23">
      <!-- 0.0 -->
      <g transform="translate(25.54 383.623854) scale(0.1 -0.1)">
       <defs>
        <path id="SimHei-2e" d="M 1075 125 
L 500 125 
L 500 675 
L 1075 675 
L 1075 125 
z
" transform="scale(0.015625)"/>
       </defs>
       <use xlink:href="#SimHei-30"/>
       <use xlink:href="#SimHei-2e" transform="translate(50 0)"/>
       <use xlink:href="#SimHei-30" transform="translate(100 0)"/>
      </g>
     </g>
    </g>
    <g id="ytick_2">
     <g id="line2d_24">
      <path d="M 47.54 312.941334 
L 997.2 312.941334 
" clip-path="url(#pf097b90bc0)" style="fill: none; stroke-dasharray: 2.96,1.28; stroke-dashoffset: 0; stroke: #b0b0b0; stroke-opacity: 0.7; stroke-width: 0.8"/>
     </g>
     <g id="line2d_25">
      <g>
       <use xlink:href="#m4be4649f8d" x="47.54" y="312.941334" style="stroke: #000000; stroke-width: 0.8"/>
      </g>
     </g>
     <g id="text_24">
      <!-- 0.2 -->
      <g transform="translate(25.54 316.378834) scale(0.1 -0.1)">
       <use xlink:href="#SimHei-30"/>
       <use xlink:href="#SimHei-2e" transform="translate(50 0)"/>
       <use xlink:href="#SimHei-32" transform="translate(100 0)"/>
      </g>
     </g>
    </g>
    <g id="ytick_3">
     <g id="line2d_26">
      <path d="M 47.54 245.696314 
L 997.2 245.696314 
" clip-path="url(#pf097b90bc0)" style="fill: none; stroke-dasharray: 2.96,1.28; stroke-dashoffset: 0; stroke: #b0b0b0; stroke-opacity: 0.7; stroke-width: 0.8"/>
     </g>
     <g id="line2d_27">
      <g>
       <use xlink:href="#m4be4649f8d" x="47.54" y="245.696314" style="stroke: #000000; stroke-width: 0.8"/>
      </g>
     </g>
     <g id="text_25">
      <!-- 0.4 -->
      <g transform="translate(25.54 249.133814) scale(0.1 -0.1)">
       <use xlink:href="#SimHei-30"/>
       <use xlink:href="#SimHei-2e" transform="translate(50 0)"/>
       <use xlink:href="#SimHei-34" transform="translate(100 0)"/>
      </g>
     </g>
    </g>
    <g id="ytick_4">
     <g id="line2d_28">
      <path d="M 47.54 178.451295 
L 997.2 178.451295 
" clip-path="url(#pf097b90bc0)" style="fill: none; stroke-dasharray: 2.96,1.28; stroke-dashoffset: 0; stroke: #b0b0b0; stroke-opacity: 0.7; stroke-width: 0.8"/>
     </g>
     <g id="line2d_29">
      <g>
       <use xlink:href="#m4be4649f8d" x="47.54" y="178.451295" style="stroke: #000000; stroke-width: 0.8"/>
      </g>
     </g>
     <g id="text_26">
      <!-- 0.6 -->
      <g transform="translate(25.54 181.888795) scale(0.1 -0.1)">
       <use xlink:href="#SimHei-30"/>
       <use xlink:href="#SimHei-2e" transform="translate(50 0)"/>
       <use xlink:href="#SimHei-36" transform="translate(100 0)"/>
      </g>
     </g>
    </g>
    <g id="ytick_5">
     <g id="line2d_30">
      <path d="M 47.54 111.206275 
L 997.2 111.206275 
" clip-path="url(#pf097b90bc0)" style="fill: none; stroke-dasharray: 2.96,1.28; stroke-dashoffset: 0; stroke: #b0b0b0; stroke-opacity: 0.7; stroke-width: 0.8"/>
     </g>
     <g id="line2d_31">
      <g>
       <use xlink:href="#m4be4649f8d" x="47.54" y="111.206275" style="stroke: #000000; stroke-width: 0.8"/>
      </g>
     </g>
     <g id="text_27">
      <!-- 0.8 -->
      <g transform="translate(25.54 114.643775) scale(0.1 -0.1)">
       <use xlink:href="#SimHei-30"/>
       <use xlink:href="#SimHei-2e" transform="translate(50 0)"/>
       <use xlink:href="#SimHei-38" transform="translate(100 0)"/>
      </g>
     </g>
    </g>
    <g id="ytick_6">
     <g id="line2d_32">
      <path d="M 47.54 43.961255 
L 997.2 43.961255 
" clip-path="url(#pf097b90bc0)" style="fill: none; stroke-dasharray: 2.96,1.28; stroke-dashoffset: 0; stroke: #b0b0b0; stroke-opacity: 0.7; stroke-width: 0.8"/>
     </g>
     <g id="line2d_33">
      <g>
       <use xlink:href="#m4be4649f8d" x="47.54" y="43.961255" style="stroke: #000000; stroke-width: 0.8"/>
      </g>
     </g>
     <g id="text_28">
      <!-- 1.0 -->
      <g transform="translate(25.54 47.398755) scale(0.1 -0.1)">
       <use xlink:href="#SimHei-31"/>
       <use xlink:href="#SimHei-2e" transform="translate(50 0)"/>
       <use xlink:href="#SimHei-30" transform="translate(100 0)"/>
      </g>
     </g>
    </g>
    <g id="text_29">
     <!-- 效率 (min(容量,|需求|) / max(容量,|需求|)) -->
     <g transform="translate(20.211875 308.668177) rotate(-90) scale(0.1 -0.1)">
      <defs>
       <path id="SimHei-6d" d="M 3050 125 
L 2550 125 
L 2550 2150 
Q 2550 2300 2500 2400 
Q 2450 2500 2300 2500 
Q 2125 2500 1975 2312 
Q 1825 2125 1825 1825 
L 1825 125 
L 1325 125 
L 1325 2150 
Q 1325 2300 1275 2400 
Q 1225 2500 1075 2500 
Q 900 2500 750 2312 
Q 600 2125 600 1825 
L 600 125 
L 100 125 
L 100 2925 
L 600 2925 
L 600 2550 
Q 725 2750 900 2862 
Q 1075 2975 1275 2975 
Q 1475 2975 1612 2862 
Q 1750 2750 1800 2550 
Q 1925 2750 2087 2862 
Q 2250 2975 2450 2975 
Q 2750 2975 2900 2812 
Q 3050 2650 3050 2350 
L 3050 125 
z
" transform="scale(0.015625)"/>
       <path id="SimHei-69" d="M 1800 3725 
L 1300 3725 
L 1300 4375 
L 1800 4375 
L 1800 3725 
z
M 1800 125 
L 1300 125 
L 1300 2925 
L 1800 2925 
L 1800 125 
z
" transform="scale(0.015625)"/>
       <path id="SimHei-6e" d="M 2800 125 
L 2300 125 
L 2300 1925 
Q 2300 2225 2150 2400 
Q 2000 2575 1750 2575 
Q 1425 2575 1137 2237 
Q 850 1900 850 1400 
L 850 125 
L 350 125 
L 350 2925 
L 850 2925 
L 850 2400 
Q 1050 2675 1287 2825 
Q 1525 2975 1900 2975 
Q 2350 2975 2575 2725 
Q 2800 2475 2800 2100 
L 2800 125 
z
" transform="scale(0.015625)"/>
       <path id="SimHei-5bb9" d="M 3350 2725 
Q 4025 2150 4687 1850 
Q 5350 1550 6100 1425 
Q 5875 1250 5800 950 
Q 5325 1075 4850 1275 
Q 4850 -200 4875 -575 
L 4400 -575 
L 4400 -225 
L 2050 -225 
L 2050 -650 
L 1575 -650 
Q 1600 -325 1600 1275 
Q 1125 1050 550 825 
Q 450 1025 225 1250 
Q 1325 1500 2137 2137 
Q 2950 2775 3125 3275 
Q 3375 3125 3600 3025 
L 3350 2725 
z
M 5750 4350 
Q 5725 4125 5725 3875 
Q 5725 3625 5750 3400 
L 5250 3400 
L 5250 4000 
L 1200 4000 
L 1200 3375 
L 700 3375 
Q 725 3650 725 3875 
Q 725 4125 700 4350 
L 5750 4350 
z
M 4400 150 
L 4400 1025 
L 2050 1025 
L 2050 150 
L 4400 150 
z
M 4625 1400 
Q 3875 1700 3100 2425 
Q 2525 1850 1750 1400 
L 4625 1400 
z
M 4000 3725 
Q 5175 3075 5550 2850 
Q 5375 2650 5250 2450 
Q 4400 3025 3725 3375 
Q 3925 3575 4000 3725 
z
M 775 2775 
Q 1875 3225 2325 3700 
Q 2400 3575 2650 3325 
Q 1725 2700 1100 2425 
Q 975 2625 775 2775 
z
M 2650 5025 
Q 2850 5125 3125 5300 
Q 3400 4950 3575 4600 
Q 3225 4475 3075 4375 
Q 3050 4475 2650 5025 
z
" transform="scale(0.015625)"/>
       <path id="SimHei-91cf" d="M 5250 2500 
Q 5225 2200 5225 1700 
Q 5225 1225 5250 950 
L 3425 950 
L 3425 625 
L 4575 625 
Q 5000 625 5375 650 
L 5375 275 
Q 5025 300 4575 300 
L 3425 300 
L 3425 -75 
L 5125 -75 
Q 5525 -75 5925 -50 
L 5925 -425 
Q 5525 -400 5125 -400 
L 1275 -400 
Q 900 -400 475 -425 
L 475 -50 
Q 925 -50 1275 -75 
L 2975 -75 
L 2975 300 
L 1725 300 
Q 1350 300 975 250 
L 975 650 
Q 1375 625 1725 625 
L 2975 625 
L 2975 950 
L 1150 950 
Q 1175 1375 1175 1775 
Q 1175 2175 1150 2500 
L 5250 2500 
z
M 5200 4950 
Q 5175 4575 5175 4250 
Q 5175 3925 5200 3400 
L 1200 3400 
Q 1225 3925 1225 4250 
Q 1225 4575 1200 4950 
L 5200 4950 
z
M 4900 3100 
Q 5500 3125 6000 3150 
L 6000 2750 
Q 5500 2775 4925 2775 
L 1650 2775 
Q 975 2775 325 2750 
L 325 3150 
Q 975 3125 1650 3100 
L 4900 3100 
z
M 4725 3700 
L 4725 4025 
L 1675 4025 
L 1675 3700 
L 4725 3700 
z
M 4725 4350 
L 4725 4650 
L 1675 4650 
L 1675 4350 
L 4725 4350 
z
M 4750 1875 
L 4750 2175 
L 3425 2175 
L 3425 1875 
L 4750 1875 
z
M 2975 1875 
L 2975 2175 
L 1650 2175 
L 1650 1875 
L 2975 1875 
z
M 2975 1275 
L 2975 1550 
L 1650 1550 
L 1650 1275 
L 2975 1275 
z
M 4750 1275 
L 4750 1550 
L 3425 1550 
L 3425 1275 
L 4750 1275 
z
" transform="scale(0.015625)"/>
       <path id="SimHei-2c" d="M 1100 125 
L 775 -550 
L 525 -550 
L 775 125 
L 525 125 
L 525 675 
L 1100 675 
L 1100 125 
z
" transform="scale(0.015625)"/>
       <path id="SimHei-7c" d="M 1825 -850 
L 1325 -850 
L 1325 5500 
L 1825 5500 
L 1825 -850 
z
" transform="scale(0.015625)"/>
       <path id="SimHei-9700" d="M 5150 2100 
Q 5500 2100 5975 2125 
L 5975 1700 
Q 5500 1725 5150 1725 
L 3425 1725 
Q 3300 1500 3250 1275 
L 5600 1275 
Q 5575 950 5575 700 
L 5575 -50 
Q 5575 -350 5425 -437 
Q 5275 -525 4775 -625 
Q 4750 -400 4550 -100 
Q 4950 -100 5025 -50 
Q 5100 0 5100 200 
L 5100 900 
L 4125 900 
L 4125 -375 
L 3650 -375 
L 3650 900 
L 2775 900 
L 2775 -375 
L 2300 -375 
L 2300 900 
L 1350 900 
L 1350 -575 
L 875 -575 
Q 900 -225 900 175 
L 900 575 
Q 900 900 875 1275 
L 2800 1275 
Q 2875 1500 2925 1725 
L 1350 1725 
Q 925 1725 525 1700 
L 525 2125 
Q 900 2100 1325 2100 
L 5150 2100 
z
M 4700 5075 
Q 5075 5075 5550 5100 
L 5550 4675 
Q 5075 4700 4700 4700 
L 3475 4700 
L 3475 4275 
L 5975 4275 
L 5975 3100 
L 5500 3100 
L 5500 3900 
L 3475 3900 
L 3475 3200 
Q 3475 2775 3500 2425 
L 2975 2425 
Q 3000 2750 3000 3175 
L 3000 3900 
L 950 3900 
L 950 3100 
L 450 3100 
Q 450 3375 462 3650 
Q 475 3925 450 4275 
L 3000 4275 
L 3000 4700 
L 1775 4700 
Q 1400 4700 1025 4675 
L 1025 5100 
Q 1400 5075 1750 5075 
L 4700 5075 
z
M 2475 2450 
L 1250 2450 
L 1250 2800 
L 2475 2800 
L 2475 2450 
z
M 2500 3150 
L 1325 3150 
L 1325 3500 
L 2500 3500 
L 2500 3150 
z
M 5000 3175 
L 3825 3175 
L 3825 3525 
L 5000 3525 
L 5000 3175 
z
M 5025 2500 
L 3850 2500 
L 3850 2850 
L 5025 2850 
L 5025 2500 
z
" transform="scale(0.015625)"/>
       <path id="SimHei-6c42" d="M 475 4025 
Q 875 4000 1325 4000 
L 2875 4000 
Q 2875 4725 2850 5125 
L 3400 5125 
Q 3375 4725 3375 4000 
L 5150 4000 
Q 5500 4000 5925 4025 
L 5925 3575 
Q 5475 3600 5150 3600 
L 3375 3600 
Q 3400 3200 3612 2750 
Q 3825 2300 4050 2000 
Q 4600 2450 5075 3150 
Q 5250 2950 5575 2750 
Q 5275 2600 4250 1650 
Q 4575 1225 5037 850 
Q 5500 475 6050 325 
Q 5700 125 5550 -150 
Q 5000 150 4437 687 
Q 3875 1225 3375 2375 
L 3375 150 
Q 3400 -225 3137 -350 
Q 2875 -475 2375 -525 
Q 2325 -275 2150 25 
Q 2575 0 2737 37 
Q 2900 75 2875 300 
L 2875 1675 
Q 1875 900 1437 550 
Q 1000 200 725 -50 
Q 500 200 300 400 
Q 650 575 1200 937 
Q 1750 1300 2875 2250 
L 2875 3600 
L 1325 3600 
Q 875 3600 475 3575 
L 475 4025 
z
M 1225 3175 
Q 1775 2725 2250 2325 
L 1825 1950 
Q 1450 2375 825 2825 
L 1225 3175 
z
M 4500 5100 
Q 4900 4825 5300 4425 
Q 5125 4300 4925 4100 
Q 4650 4400 4125 4825 
Q 4275 4950 4500 5100 
z
" transform="scale(0.015625)"/>
       <path id="SimHei-2f" d="M 3000 4550 
L 350 -175 
L 100 -25 
L 2750 4700 
L 3000 4550 
z
" transform="scale(0.015625)"/>
       <path id="SimHei-61" d="M 2875 125 
L 2275 125 
Q 2225 175 2200 262 
Q 2175 350 2175 475 
Q 2000 275 1750 175 
Q 1500 75 1225 75 
Q 825 75 550 275 
Q 275 475 275 850 
Q 275 1225 525 1450 
Q 775 1675 1300 1750 
Q 1650 1800 1912 1875 
Q 2175 1950 2175 2075 
Q 2175 2225 2062 2375 
Q 1950 2525 1575 2525 
Q 1275 2525 1137 2412 
Q 1000 2300 950 2100 
L 400 2100 
Q 450 2500 762 2737 
Q 1075 2975 1575 2975 
Q 2125 2975 2400 2725 
Q 2675 2475 2675 2025 
L 2675 650 
Q 2675 500 2725 375 
Q 2775 250 2875 125 
z
M 2175 1050 
L 2175 1550 
Q 2025 1500 1887 1462 
Q 1750 1425 1425 1375 
Q 1050 1325 937 1200 
Q 825 1075 825 900 
Q 825 750 937 637 
Q 1050 525 1275 525 
Q 1500 525 1762 650 
Q 2025 775 2175 1050 
z
" transform="scale(0.015625)"/>
       <path id="SimHei-78" d="M 2875 125 
L 2275 125 
L 1550 1200 
L 825 125 
L 225 125 
L 1250 1550 
L 300 2925 
L 900 2925 
L 1550 1875 
L 2200 2925 
L 2800 2925 
L 1850 1550 
L 2875 125 
z
" transform="scale(0.015625)"/>
      </defs>
      <use xlink:href="#SimHei-6548"/>
      <use xlink:href="#SimHei-7387" transform="translate(100 0)"/>
      <use xlink:href="#SimHei-20" transform="translate(200 0)"/>
      <use xlink:href="#SimHei-28" transform="translate(250 0)"/>
      <use xlink:href="#SimHei-6d" transform="translate(300 0)"/>
      <use xlink:href="#SimHei-69" transform="translate(350 0)"/>
      <use xlink:href="#SimHei-6e" transform="translate(400 0)"/>
      <use xlink:href="#SimHei-28" transform="translate(450 0)"/>
      <use xlink:href="#SimHei-5bb9" transform="translate(500 0)"/>
      <use xlink:href="#SimHei-91cf" transform="translate(600 0)"/>
      <use xlink:href="#SimHei-2c" transform="translate(700 0)"/>
      <use xlink:href="#SimHei-7c" transform="translate(750 0)"/>
      <use xlink:href="#SimHei-9700" transform="translate(800 0)"/>
      <use xlink:href="#SimHei-6c42" transform="translate(900 0)"/>
      <use xlink:href="#SimHei-7c" transform="translate(1000 0)"/>
      <use xlink:href="#SimHei-29" transform="translate(1050 0)"/>
      <use xlink:href="#SimHei-20" transform="translate(1100 0)"/>
      <use xlink:href="#SimHei-2f" transform="translate(1150 0)"/>
      <use xlink:href="#SimHei-20" transform="translate(1200 0)"/>
      <use xlink:href="#SimHei-6d" transform="translate(1250 0)"/>
      <use xlink:href="#SimHei-61" transform="translate(1300 0)"/>
      <use xlink:href="#SimHei-78" transform="translate(1350 0)"/>
      <use xlink:href="#SimHei-28" transform="translate(1400 0)"/>
      <use xlink:href="#SimHei-5bb9" transform="translate(1450 0)"/>
      <use xlink:href="#SimHei-91cf" transform="translate(1550 0)"/>
      <use xlink:href="#SimHei-2c" transform="translate(1650 0)"/>
      <use xlink:href="#SimHei-7c" transform="translate(1700 0)"/>
      <use xlink:href="#SimHei-9700" transform="translate(1750 0)"/>
      <use xlink:href="#SimHei-6c42" transform="translate(1850 0)"/>
      <use xlink:href="#SimHei-7c" transform="translate(1950 0)"/>
      <use xlink:href="#SimHei-29" transform="translate(2000 0)"/>
      <use xlink:href="#SimHei-29" transform="translate(2050 0)"/>
     </g>
    </g>
   </g>
   <g id="patch_44">
    <path d="M 47.54 380.186354 
L 47.54 27.15 
" style="fill: none; stroke: #000000; stroke-width: 0.8; stroke-linejoin: miter; stroke-linecap: square"/>
   </g>
   <g id="patch_45">
    <path d="M 997.2 380.186354 
L 997.2 27.15 
" style="fill: none; stroke: #000000; stroke-width: 0.8; stroke-linejoin: miter; stroke-linecap: square"/>
   </g>
   <g id="patch_46">
    <path d="M 47.54 380.186354 
L 997.2 380.186354 
" style="fill: none; stroke: #000000; stroke-width: 0.8; stroke-linejoin: miter; stroke-linecap: square"/>
   </g>
   <g id="patch_47">
    <path d="M 47.54 27.15 
L 997.2 27.15 
" style="fill: none; stroke: #000000; stroke-width: 0.8; stroke-linejoin: miter; stroke-linecap: square"/>
   </g>
   <g id="text_30">
    <!-- 保留站点的效率分析 (方法二结果) -->
    <g transform="translate(429.37 21.15) scale(0.12 -0.12)">
     <defs>
      <path id="SimHei-7684" d="M 2100 4975 
Q 1975 4750 1750 3950 
L 2875 3950 
Q 2850 3525 2850 2875 
L 2850 675 
Q 2850 300 2875 -400 
L 2375 -400 
L 2375 100 
L 1100 100 
L 1100 -450 
L 600 -450 
Q 625 350 625 550 
L 625 2850 
Q 625 3525 600 3950 
L 1325 3950 
Q 1450 4525 1525 5150 
Q 1875 5025 2100 4975 
z
M 5825 3075 
Q 5800 1550 5700 175 
Q 5650 -275 5225 -425 
Q 4800 -575 4275 -625 
Q 4250 -350 4050 -50 
Q 4550 -75 4837 -25 
Q 5125 25 5200 200 
Q 5275 375 5312 1225 
Q 5350 2075 5375 3600 
L 3925 3600 
Q 3725 3125 3350 2475 
Q 3175 2650 2925 2750 
Q 3150 3050 3350 3475 
Q 3550 3900 3700 4400 
Q 3850 4900 3875 5175 
Q 4225 5025 4475 4950 
Q 4350 4750 4262 4512 
Q 4175 4275 4075 4050 
L 5850 4050 
Q 5825 3525 5825 3075 
z
M 2375 525 
L 2375 1850 
L 1100 1850 
L 1100 525 
L 2375 525 
z
M 2375 2275 
L 2375 3525 
L 1100 3525 
L 1100 2275 
L 2375 2275 
z
M 4350 2050 
Q 4500 1750 4700 1275 
Q 4525 1200 4225 1025 
Q 4050 1500 3900 1837 
Q 3750 2175 3600 2400 
Q 3775 2500 4050 2650 
L 4350 2050 
z
" transform="scale(0.015625)"/>
      <path id="SimHei-5206" d="M 1000 -650 
Q 825 -375 575 -225 
Q 975 -75 1300 137 
Q 1625 350 1875 662 
Q 2125 975 2250 1350 
Q 2375 1725 2425 2275 
Q 1850 2275 1500 2250 
L 1500 2775 
Q 1900 2750 2525 2750 
L 5025 2750 
Q 4975 2375 4950 2100 
L 4750 250 
Q 4700 -200 4350 -350 
Q 4000 -500 3575 -525 
Q 3550 -275 3325 50 
Q 3850 25 4037 87 
Q 4225 150 4275 525 
L 4450 2275 
L 2950 2275 
Q 2875 1625 2737 1187 
Q 2600 750 2350 425 
Q 2100 100 1750 -175 
Q 1400 -450 1000 -650 
z
M 3950 5175 
Q 4125 4650 4662 3975 
Q 5200 3300 6175 2800 
Q 5975 2625 5775 2275 
Q 5325 2600 4987 2887 
Q 4650 3175 4425 3425 
Q 4200 3675 3925 4137 
Q 3650 4600 3475 5000 
Q 3750 5075 3950 5175 
z
M 2700 4825 
Q 2475 4425 2325 4125 
Q 2175 3825 2025 3587 
Q 1875 3350 1575 2950 
Q 1275 2550 850 2125 
Q 625 2350 400 2475 
Q 900 2925 1187 3300 
Q 1475 3675 1737 4112 
Q 2000 4550 2200 5075 
Q 2400 4925 2700 4825 
z
" transform="scale(0.015625)"/>
      <path id="SimHei-6790" d="M 5900 4550 
Q 5575 4525 5087 4450 
Q 4600 4375 3725 4275 
L 3725 3075 
L 5400 3075 
Q 5725 3075 6150 3100 
L 6150 2650 
Q 5700 2675 5250 2675 
L 5250 350 
Q 5250 -100 5275 -475 
L 4750 -475 
Q 4775 -75 4775 375 
L 4775 2675 
L 3725 2675 
Q 3725 2175 3650 1637 
Q 3575 1100 3437 637 
Q 3300 175 2850 -500 
Q 2675 -300 2275 -150 
Q 2825 325 3050 1112 
Q 3275 1900 3262 3000 
Q 3250 4100 3225 4650 
Q 3975 4700 4562 4800 
Q 5150 4900 5500 5050 
Q 5675 4750 5900 4550 
z
M 1900 525 
Q 1900 200 1925 -525 
L 1400 -525 
Q 1425 25 1425 525 
L 1425 2250 
Q 1175 1625 600 800 
Q 425 1075 200 1225 
Q 650 1725 962 2387 
Q 1275 3050 1375 3425 
Q 925 3425 450 3400 
L 450 3850 
Q 925 3825 1425 3825 
L 1425 4450 
Q 1425 4775 1400 5125 
L 1950 5125 
Q 1900 4825 1900 4450 
L 1900 3825 
Q 2300 3825 2775 3850 
L 2775 3400 
Q 2300 3425 1900 3425 
L 1900 525 
z
M 2375 2750 
Q 2800 2050 2925 1800 
Q 2700 1700 2450 1550 
Q 2300 1900 1950 2525 
Q 2175 2625 2375 2750 
z
" transform="scale(0.015625)"/>
      <path id="SimHei-65b9" d="M 425 3975 
Q 825 3950 1300 3950 
L 5025 3950 
Q 5625 3950 6000 3975 
L 6000 3475 
Q 5675 3500 5100 3500 
L 2525 3500 
Q 2525 3225 2500 2500 
L 5300 2500 
Q 5250 2175 5200 1550 
L 5050 175 
Q 5000 -275 4625 -412 
Q 4250 -550 3525 -625 
Q 3500 -300 3325 -50 
Q 3900 -75 4200 0 
Q 4500 75 4575 425 
L 4725 2050 
L 2475 2050 
Q 2375 1350 2162 875 
Q 1950 400 1575 0 
Q 1200 -400 825 -700 
Q 725 -550 375 -350 
Q 700 -175 1062 200 
Q 1425 575 1662 1050 
Q 1900 1525 1962 2100 
Q 2025 2675 2025 3500 
L 1325 3500 
Q 775 3500 425 3475 
L 425 3975 
z
M 3075 4075 
Q 2850 4575 2575 5000 
Q 2800 5125 3025 5275 
Q 3300 4850 3575 4350 
Q 3325 4250 3075 4075 
z
" transform="scale(0.015625)"/>
      <path id="SimHei-6cd5" d="M 6075 -300 
Q 5850 -425 5625 -625 
Q 5450 -300 5325 -125 
Q 4525 -175 3587 -262 
Q 2650 -350 2325 -450 
Q 2250 -150 2125 75 
Q 2450 175 2825 725 
Q 3200 1275 3500 2100 
L 2800 2100 
Q 2350 2100 1950 2075 
L 1950 2525 
Q 2350 2500 2825 2500 
L 3725 2500 
L 3725 3600 
L 3150 3600 
Q 2675 3600 2325 3575 
L 2325 4025 
Q 2725 4000 3125 4000 
L 3725 4000 
Q 3725 4700 3700 5150 
L 4250 5150 
Q 4225 4775 4225 4000 
L 4975 4000 
Q 5350 4000 5750 4025 
L 5750 3575 
Q 5350 3600 5025 3600 
L 4225 3600 
L 4225 2500 
L 5125 2500 
Q 5575 2500 6025 2525 
L 6025 2075 
Q 5575 2100 5125 2100 
L 3850 2100 
L 4100 1950 
Q 3950 1775 3625 1200 
Q 3300 625 2900 100 
Q 4000 150 5075 225 
Q 4775 675 4450 1025 
Q 4650 1175 4825 1350 
Q 5275 800 6075 -300 
z
M 300 -250 
Q 650 100 1012 625 
Q 1375 1150 1725 1725 
Q 1850 1500 2075 1375 
Q 1850 1075 1500 487 
Q 1150 -100 850 -625 
Q 650 -425 300 -250 
z
M 675 3425 
Q 1200 3100 1800 2650 
Q 1575 2500 1400 2250 
Q 925 2675 350 3050 
Q 525 3200 675 3425 
z
M 1050 4900 
Q 1550 4575 2100 4125 
Q 1900 3975 1725 3725 
Q 1250 4175 725 4525 
Q 900 4700 1050 4900 
z
" transform="scale(0.015625)"/>
      <path id="SimHei-4e8c" d="M 5050 625 
Q 5650 625 6025 675 
L 6025 50 
Q 5625 75 5050 75 
L 1425 75 
Q 775 75 350 50 
L 350 650 
Q 800 625 1400 625 
L 5050 625 
z
M 4350 4150 
Q 4900 4175 5350 4200 
L 5350 3575 
Q 4900 3600 4375 3600 
L 2050 3600 
Q 1450 3600 1000 3575 
L 1000 4175 
Q 1450 4150 2025 4150 
L 4350 4150 
z
" transform="scale(0.015625)"/>
      <path id="SimHei-7ed3" d="M 5725 1925 
Q 5700 1600 5700 1200 
L 5700 350 
Q 5700 -125 5725 -475 
L 5225 -475 
L 5225 0 
L 3525 0 
L 3525 -525 
L 3025 -525 
Q 3050 125 3050 325 
L 3050 1250 
Q 3050 1550 3025 1925 
L 5725 1925 
z
M 1900 4850 
Q 1700 4600 1475 4200 
Q 1250 3800 925 3200 
Q 1475 3225 1725 3225 
Q 1950 3625 2100 4000 
Q 2350 3825 2650 3675 
Q 2525 3575 2212 3125 
Q 1900 2675 1225 1650 
Q 2050 1775 2525 1850 
Q 2450 1575 2450 1375 
Q 2225 1350 1650 1275 
Q 1075 1200 525 1050 
Q 425 1300 350 1550 
Q 650 1625 950 2012 
Q 1250 2400 1475 2825 
Q 1300 2825 962 2787 
Q 625 2750 375 2675 
Q 300 2925 225 3150 
Q 500 3375 812 3925 
Q 1125 4475 1300 5125 
Q 1600 4975 1900 4850 
z
M 4075 4175 
Q 4075 4600 4050 5175 
L 4575 5175 
Q 4550 4725 4550 4175 
L 5275 4175 
Q 5750 4175 6150 4200 
L 6150 3750 
Q 5750 3775 5300 3775 
L 4550 3775 
L 4550 2950 
L 5125 2950 
Q 5475 2950 5825 2975 
L 5825 2525 
Q 5525 2550 5100 2550 
L 3650 2550 
Q 3225 2550 2900 2525 
L 2900 2975 
Q 3225 2950 3600 2950 
L 4075 2950 
L 4075 3775 
L 3525 3775 
Q 3075 3775 2675 3750 
L 2675 4200 
Q 3000 4175 3475 4175 
L 4075 4175 
z
M 5225 400 
L 5225 1525 
L 3525 1525 
L 3525 400 
L 5225 400 
z
M 2575 650 
Q 2500 425 2525 175 
Q 2050 100 1450 0 
Q 850 -100 425 -225 
Q 325 100 225 350 
Q 750 375 1175 437 
Q 1600 500 2575 650 
z
" transform="scale(0.015625)"/>
      <path id="SimHei-679c" d="M 2975 -525 
Q 3000 -75 3000 575 
L 3000 1600 
L 2900 1600 
Q 2725 1275 2500 1000 
Q 2275 725 1987 512 
Q 1700 300 1362 100 
Q 1025 -100 675 -250 
Q 575 25 400 275 
Q 700 350 975 487 
Q 1250 625 1525 787 
Q 1800 950 2000 1150 
Q 2200 1350 2375 1600 
L 1375 1600 
Q 1000 1600 450 1550 
L 450 2050 
Q 950 2000 1375 2000 
L 3000 2000 
L 3000 2450 
L 1150 2450 
Q 1175 3050 1175 3775 
Q 1175 4500 1150 5000 
L 5325 5000 
Q 5300 4500 5300 3775 
Q 5300 3050 5325 2450 
L 3475 2450 
L 3475 2000 
L 5050 2000 
Q 5550 2000 5925 2025 
L 5925 1550 
Q 5500 1600 5100 1600 
L 4125 1600 
Q 4450 1075 4925 800 
Q 5400 525 6050 375 
Q 5875 150 5775 -175 
Q 4925 150 4425 550 
Q 3925 950 3675 1600 
L 3475 1600 
L 3475 550 
Q 3475 0 3500 -525 
L 2975 -525 
z
M 4825 3875 
L 4825 4625 
L 3475 4625 
L 3475 3875 
L 4825 3875 
z
M 3000 3875 
L 3000 4625 
L 1675 4625 
L 1675 3875 
L 3000 3875 
z
M 4825 2825 
L 4825 3500 
L 3475 3500 
L 3475 2825 
L 4825 2825 
z
M 3000 2825 
L 3000 3500 
L 1675 3500 
L 1675 2825 
L 3000 2825 
z
" transform="scale(0.015625)"/>
     </defs>
     <use xlink:href="#SimHei-4fdd"/>
     <use xlink:href="#SimHei-7559" transform="translate(100 0)"/>
     <use xlink:href="#SimHei-7ad9" transform="translate(200 0)"/>
     <use xlink:href="#SimHei-70b9" transform="translate(300 0)"/>
     <use xlink:href="#SimHei-7684" transform="translate(400 0)"/>
     <use xlink:href="#SimHei-6548" transform="translate(500 0)"/>
     <use xlink:href="#SimHei-7387" transform="translate(600 0)"/>
     <use xlink:href="#SimHei-5206" transform="translate(700 0)"/>
     <use xlink:href="#SimHei-6790" transform="translate(800 0)"/>
     <use xlink:href="#SimHei-20" transform="translate(900 0)"/>
     <use xlink:href="#SimHei-28" transform="translate(950 0)"/>
     <use xlink:href="#SimHei-65b9" transform="translate(1000 0)"/>
     <use xlink:href="#SimHei-6cd5" transform="translate(1100 0)"/>
     <use xlink:href="#SimHei-4e8c" transform="translate(1200 0)"/>
     <use xlink:href="#SimHei-7ed3" transform="translate(1300 0)"/>
     <use xlink:href="#SimHei-679c" transform="translate(1400 0)"/>
     <use xlink:href="#SimHei-29" transform="translate(1500 0)"/>
    </g>
   </g>
  </g>
 </g>
 <defs>
  <clipPath id="pf097b90bc0">
   <rect x="47.54" y="27.15" width="949.66" height="353.036354"/>
  </clipPath>
 </defs>
</svg>
